<svg width="205" height="193" viewBox="0 0 205 193" fill="none" xmlns="http://www.w3.org/2000/svg">
<path d="M102.237 192.181C158.701 192.181 204.474 189.508 204.474 186.212C204.474 182.915 158.701 180.243 102.237 180.243C45.773 180.243 0 182.915 0 186.212C0 189.508 45.773 192.181 102.237 192.181Z" fill="#EDDCFF"/>
<path d="M126.34 52.3479L126.156 52.9701L125.987 53.4974C125.871 53.8506 125.744 54.1776 125.618 54.515C125.365 55.1741 125.09 55.8175 124.79 56.4555C124.205 57.7241 123.545 58.9567 122.813 60.1465C122.449 60.7424 122.064 61.3171 121.674 61.8919C121.283 62.4666 120.867 63.0203 120.429 63.5634C119.571 64.6614 118.65 65.7089 117.671 66.7008L117.466 66.9117C117.182 67.2027 116.846 67.4371 116.475 67.6025C115.376 68.0831 114.182 68.305 112.984 68.251C111.941 68.1946 110.916 67.9536 109.957 67.5392C109.154 67.1996 108.394 66.7641 107.695 66.242C107.068 65.784 106.474 65.2818 105.918 64.7392C104.908 63.7282 103.997 62.6229 103.197 61.4384C102.807 60.8689 102.449 60.2836 102.106 59.6931C101.763 59.1025 101.468 58.5119 101.146 57.8317C100.936 57.3885 100.887 56.886 101.008 56.4106C101.129 55.9353 101.411 55.5169 101.807 55.2272C102.203 54.9376 102.687 54.7949 103.176 54.8237C103.666 54.8525 104.13 55.051 104.489 55.3851L104.626 55.5116L105.913 56.6928C106.35 57.0935 106.799 57.4784 107.247 57.8475C108.096 58.5675 108.994 59.2265 109.936 59.8196C110.673 60.3106 111.49 60.6677 112.351 60.8742C112.57 60.9359 112.802 60.9359 113.021 60.8742C113.093 60.8419 113.153 60.7862 113.189 60.716L111.977 61.6335C112.646 60.7265 113.295 59.8091 113.891 58.8599C114.487 57.9108 115.056 56.93 115.589 55.944C116.121 54.958 116.612 53.9403 117.065 52.9226C117.297 52.3953 117.503 51.8997 117.714 51.3935L118.241 50.012L118.389 49.6323C118.81 48.6597 119.581 47.8812 120.55 47.4516C121.519 47.0219 122.613 46.9727 123.617 47.3136C124.62 47.6545 125.459 48.3605 125.965 49.2914C126.472 50.2222 126.609 51.3096 126.351 52.3373L126.34 52.3479Z" fill="#263238"/>
<path d="M102.638 57.8577L99.074 56.6186L98.3252 51.7358C98.3252 51.7358 104.299 53.3177 104.273 56.1967L102.638 57.8577Z" fill="#CE7A63"/>
<path d="M123.636 32.4213C121.311 31.604 118.099 28.8199 119.36 25.2185C120.319 22.4871 123.873 22.2446 125.27 23.0619C126.668 23.8792 126.726 22.2024 128.513 21.5591C130.301 20.9158 131.561 22.5346 132.468 23.3835C133.375 24.2325 134.435 23.5892 135.779 23.6472C137.124 23.7052 138.084 25.4663 137.335 26.7529C136.017 29.0098 138.194 30.444 136.544 32.2051C134.113 34.7625 136.017 37.2724 132.589 39.8193C130.507 41.3801 124.59 38.5168 123.636 32.4213Z" fill="#263238"/>
<path d="M123.593 34.8046C123.506 34.8562 123.409 34.8869 123.308 34.8942C123.134 34.9089 122.96 34.8539 122.826 34.7413C122.692 34.6287 122.607 34.4676 122.591 34.2931C122.475 33.2467 122.612 32.1876 122.99 31.205C123.368 30.2223 123.976 29.3447 124.764 28.6458C124.832 28.5915 124.91 28.5514 124.994 28.5278C125.078 28.5042 125.166 28.4977 125.252 28.5085C125.338 28.5193 125.422 28.5473 125.497 28.5908C125.573 28.6343 125.639 28.6924 125.692 28.7618C125.746 28.8296 125.786 28.9074 125.81 28.9908C125.834 29.0742 125.841 29.1615 125.832 29.2477C125.822 29.334 125.795 29.4174 125.753 29.4933C125.711 29.5691 125.654 29.6359 125.586 29.6898C124.97 30.2504 124.497 30.9502 124.206 31.7307C123.915 32.5113 123.815 33.3501 123.915 34.1771C123.925 34.3013 123.901 34.4261 123.844 34.537C123.787 34.648 123.7 34.7407 123.593 34.8046Z" fill="#263238"/>
<path d="M119.803 47.0747C119.803 47.0747 115.125 59.0443 119.565 81.3488H140.768C140.915 78.0954 138.869 62.2186 142.007 46.8849C139.663 46.4341 137.292 46.1347 134.909 45.9885C131.908 45.8144 128.899 45.8144 125.898 45.9885C123.841 46.1903 121.803 46.5535 119.803 47.0747Z" fill="white"/>
<path d="M134.018 35.8066C133.449 38.7068 132.885 44.0219 134.909 45.957C134.909 45.957 131.514 48.7095 127.944 51.4936C127.155 50.825 126.552 49.964 126.194 48.994C125.835 48.024 125.733 46.9779 125.898 45.957C129.13 45.1872 129.062 42.7933 128.487 40.5312L134.018 35.8066Z" fill="#CE7A63"/>
<path opacity="0.2" d="M131.765 37.7524L128.491 40.5471C128.63 41.0651 128.724 41.5945 128.77 42.129C129.825 43.1308 131.702 40.5946 131.834 39.3027C131.903 38.786 131.88 38.261 131.765 37.7524Z" fill="black"/>
<path d="M133.981 30.9292C134.129 34.8628 134.414 37.1565 132.642 39.3658C129.968 42.6772 124.97 41.3643 123.651 37.552C122.465 34.1246 122.423 28.2716 126.098 26.3417C126.904 25.9119 127.807 25.6953 128.721 25.7124C129.634 25.7294 130.528 25.9796 131.318 26.4391C132.107 26.8987 132.767 27.5523 133.233 28.3381C133.699 29.124 133.956 30.0158 133.981 30.9292Z" fill="#CE7A63"/>
<path d="M133.875 34.5674C132.794 36.6766 131.55 30.0064 131.866 28.8938C128.043 29.9484 122.18 29.6003 122.633 26.9322C123.161 23.9214 126.662 23.8054 130.543 24.1745C136.949 24.7914 135.046 32.279 133.875 34.5674Z" fill="#263238"/>
<path d="M131.983 34.9417C131.883 34.9474 131.784 34.9293 131.693 34.889C131.613 34.854 131.54 34.8037 131.48 34.7408C131.419 34.6779 131.372 34.6036 131.34 34.5223C131.308 34.4411 131.293 34.3543 131.294 34.267C131.296 34.1797 131.315 34.0936 131.35 34.0137C131.749 33.0397 132.376 32.1756 133.178 31.4939C133.979 30.8122 134.933 30.3328 135.959 30.0959C136.13 30.0651 136.306 30.1032 136.45 30.202C136.593 30.3008 136.691 30.4522 136.723 30.6232C136.751 30.7941 136.712 30.9692 136.614 31.1117C136.515 31.2543 136.366 31.3532 136.196 31.3877C135.384 31.5884 134.633 31.9803 134.003 32.5306C133.374 33.081 132.886 33.7739 132.579 34.5515C132.528 34.6676 132.445 34.7664 132.339 34.8357C132.233 34.905 132.109 34.9419 131.983 34.9417Z" fill="#263238"/>
<path d="M135.943 33.6973C135.735 34.6447 135.187 35.4831 134.403 36.0543C133.375 36.7714 132.563 35.8909 132.589 34.6517C132.615 33.5391 133.185 31.8307 134.334 31.6092C135.484 31.3878 136.201 32.532 135.943 33.6973Z" fill="#CE7A63"/>
<path d="M117.414 181.007C116.923 181.129 116.433 181.176 116.222 181.007C116.168 180.958 116.131 180.892 116.116 180.821C116.101 180.749 116.108 180.674 116.138 180.607C116.155 180.546 116.186 180.49 116.227 180.442C116.268 180.394 116.318 180.355 116.375 180.327C116.971 179.995 118.484 180.427 118.553 180.448C118.572 180.453 118.589 180.464 118.602 180.48C118.614 180.496 118.621 180.515 118.621 180.535C118.621 180.556 118.614 180.575 118.602 180.591C118.589 180.606 118.572 180.618 118.553 180.622C118.185 180.783 117.804 180.912 117.414 181.007ZM116.633 180.412C116.574 180.425 116.518 180.447 116.464 180.475C116.43 180.492 116.399 180.515 116.373 180.544C116.348 180.573 116.329 180.607 116.317 180.644C116.275 180.775 116.317 180.823 116.343 180.849C116.58 181.055 117.551 180.823 118.241 180.543C117.719 180.396 117.173 180.352 116.633 180.412Z" fill="#263238"/>
<path d="M118.547 180.612H118.51C117.983 180.522 116.886 179.916 116.854 179.462C116.854 179.357 116.891 179.209 117.134 179.125C117.307 179.066 117.496 179.077 117.661 179.156C118.241 179.436 118.584 180.448 118.6 180.491C118.609 180.505 118.613 180.521 118.613 180.538C118.613 180.555 118.609 180.571 118.6 180.585C118.585 180.599 118.567 180.608 118.547 180.612ZM117.25 179.283H117.197C117.034 179.336 117.039 179.404 117.044 179.425C117.044 179.7 117.835 180.195 118.373 180.364C118.229 179.94 117.956 179.571 117.593 179.309C117.484 179.263 117.364 179.253 117.25 179.283Z" fill="#263238"/>
<path d="M124.311 181.867L120.34 182.452L120.467 173.351L124.437 172.771L124.311 181.867Z" fill="#CE7A63"/>
<path d="M119.743 180.1H124.947C125.024 180.098 125.099 180.125 125.157 180.174C125.215 180.224 125.253 180.293 125.264 180.369L125.791 183.876C125.801 183.964 125.793 184.053 125.767 184.137C125.74 184.222 125.696 184.3 125.637 184.366C125.578 184.432 125.506 184.485 125.426 184.522C125.345 184.558 125.257 184.577 125.169 184.577C123.613 184.551 121.378 184.461 119.421 184.461C117.138 184.461 115.087 184.582 112.408 184.582C110.79 184.582 110.489 183.048 111.159 182.8C114.154 181.677 115.757 181.487 118.789 180.406C119.088 180.252 119.41 180.149 119.743 180.1Z" fill="#263238"/>
<path opacity="0.2" d="M120.466 173.356L120.398 178.044L124.374 177.459L124.442 172.771L120.466 173.356Z" fill="black"/>
<path d="M122.275 180.38C122.248 178.698 122.776 175.993 118.584 177.648C116.084 178.629 119.475 181.513 119.475 181.513L122.275 180.38Z" fill="#263238"/>
<path d="M119.565 81.3331C119.565 81.3331 117.456 113.271 118.052 124.629C118.632 135.391 118.959 165.921 119.033 173.931C119.036 174.175 119.09 174.415 119.193 174.636C119.296 174.856 119.445 175.053 119.629 175.212C119.814 175.371 120.03 175.489 120.263 175.558C120.497 175.627 120.742 175.646 120.984 175.613L123.789 175.233C124.163 175.182 124.511 175.01 124.777 174.742C125.044 174.474 125.216 174.126 125.265 173.752C127.079 159.615 129.236 137.806 129.705 126.132C130.232 112.807 133.512 81.312 133.512 81.312L119.565 81.3331Z" fill="#7240FF"/>
<path opacity="0.2" d="M119.565 81.3331C119.565 81.3331 117.456 113.271 118.052 124.629C118.632 135.391 118.959 165.921 119.033 173.931C119.036 174.175 119.09 174.415 119.193 174.636C119.296 174.856 119.445 175.053 119.629 175.212C119.814 175.371 120.03 175.489 120.263 175.558C120.497 175.627 120.742 175.646 120.984 175.613L123.789 175.233C124.163 175.182 124.511 175.01 124.777 174.742C125.044 174.474 125.216 174.126 125.265 173.752C127.079 159.615 129.236 137.806 129.705 126.132C130.232 112.807 133.512 81.312 133.512 81.312L119.565 81.3331Z" fill="white"/>
<path d="M146.035 180.485C145.576 180.691 145.102 180.828 144.859 180.685C144.797 180.647 144.749 180.591 144.721 180.523C144.694 180.456 144.689 180.382 144.706 180.311C144.712 180.247 144.731 180.186 144.763 180.13C144.795 180.074 144.838 180.027 144.891 179.989C145.418 179.557 147 179.715 147.053 179.721C147.072 179.722 147.09 179.729 147.105 179.742C147.121 179.754 147.132 179.77 147.137 179.789C147.141 179.808 147.139 179.827 147.133 179.844C147.126 179.862 147.115 179.878 147.1 179.889C146.763 180.119 146.407 180.319 146.035 180.485ZM145.16 180.037C145.105 180.063 145.054 180.095 145.007 180.132C144.974 180.154 144.947 180.183 144.927 180.217C144.907 180.25 144.895 180.288 144.891 180.327C144.891 180.459 144.922 180.506 144.954 180.522C145.223 180.685 146.135 180.279 146.768 179.889C146.227 179.834 145.681 179.885 145.16 180.037Z" fill="#263238"/>
<path d="M147.059 179.9C146.531 179.9 145.34 179.504 145.229 179.061C145.202 178.961 145.229 178.808 145.445 178.682C145.524 178.636 145.611 178.606 145.702 178.596C145.793 178.585 145.885 178.592 145.972 178.618C146.595 178.792 147.117 179.721 147.138 179.763C147.145 179.777 147.15 179.794 147.15 179.81C147.15 179.827 147.145 179.843 147.138 179.858C147.128 179.87 147.116 179.879 147.102 179.887C147.089 179.894 147.074 179.898 147.059 179.9ZM145.545 178.845H145.498C145.35 178.93 145.366 178.993 145.371 179.014C145.44 179.278 146.289 179.631 146.848 179.705C146.632 179.31 146.298 178.993 145.893 178.798C145.784 178.769 145.669 178.778 145.566 178.824L145.545 178.845Z" fill="#263238"/>
<path d="M153.207 180.132L149.463 181.403L146.979 172.602L150.718 171.332L153.207 180.132Z" fill="#CE7A63"/>
<path opacity="0.2" d="M129.404 92.7544C128.312 97.1257 128.602 115.291 129.731 125.531C130 119.536 130.759 110.292 131.529 101.803L129.404 92.7544Z" fill="black"/>
<path d="M148.022 179.267L153.147 178.344C153.224 178.329 153.303 178.341 153.372 178.379C153.44 178.417 153.493 178.477 153.522 178.55L154.866 181.872C154.899 181.952 154.913 182.04 154.908 182.126C154.903 182.213 154.878 182.298 154.835 182.374C154.793 182.45 154.733 182.515 154.662 182.565C154.591 182.615 154.509 182.649 154.423 182.663C152.889 182.916 150.664 183.222 148.739 183.57C146.493 183.976 146.477 184.097 143.841 184.582C142.259 184.872 141.578 183.433 142.174 183.069C144.853 181.445 144.415 181.334 147.136 179.742C147.401 179.533 147.701 179.372 148.022 179.267Z" fill="#263238"/>
<path opacity="0.2" d="M146.979 172.608L148.261 177.142L152.004 175.872L150.723 171.337L146.979 172.608Z" fill="black"/>
<path d="M127.09 81.3331C127.09 81.3331 129.821 113.277 131.925 124.629C133.95 135.555 143.109 166.676 145.809 173.747C145.966 174.159 146.276 174.496 146.675 174.685C147.074 174.875 147.531 174.903 147.95 174.764L150.655 173.884C151.052 173.754 151.389 173.484 151.601 173.123C151.814 172.763 151.888 172.338 151.81 171.927C149.12 158.044 144.839 137.753 143.774 126.132C142.556 112.807 140.768 81.312 140.768 81.312L127.09 81.3331Z" fill="#7240FF"/>
<path opacity="0.2" d="M127.09 81.3331C127.09 81.3331 129.821 113.277 131.925 124.629C133.95 135.555 143.109 166.676 145.809 173.747C145.966 174.159 146.276 174.496 146.675 174.685C147.074 174.875 147.531 174.903 147.95 174.764L150.655 173.884C151.052 173.754 151.389 173.484 151.601 173.123C151.814 172.763 151.888 172.338 151.81 171.927C149.12 158.044 144.839 137.753 143.774 126.132C142.556 112.807 140.768 81.312 140.768 81.312L127.09 81.3331Z" fill="white"/>
<path d="M128.164 32.6059C128.196 32.9275 128.053 33.2017 127.842 33.2228C127.631 33.2439 127.442 33.0014 127.41 32.6955C127.378 32.3897 127.521 32.105 127.732 32.0839C127.943 32.0628 128.132 32.2895 128.164 32.6059Z" fill="#263238"/>
<path d="M124.569 32.9646C124.601 33.2809 124.459 33.5551 124.248 33.5762C124.037 33.5973 123.847 33.3548 123.815 33.0489C123.784 32.7431 123.926 32.4531 124.137 32.432C124.348 32.4109 124.538 32.6429 124.569 32.9646Z" fill="#263238"/>
<path d="M125.729 33.0068C125.445 34.0179 125.023 34.985 124.474 35.8806C124.707 36.0141 124.967 36.0951 125.235 36.1178C125.502 36.1406 125.772 36.1046 126.024 36.0124L125.729 33.0068Z" fill="#BA4D3C"/>
<path d="M127.02 36.8032C126.996 36.8047 126.972 36.7968 126.953 36.781C126.935 36.7653 126.923 36.743 126.92 36.7188C126.919 36.7063 126.92 36.6937 126.923 36.6816C126.927 36.6695 126.932 36.6583 126.94 36.6485C126.948 36.6386 126.958 36.6305 126.969 36.6245C126.98 36.6184 126.992 36.6147 127.004 36.6134C127.401 36.5839 127.785 36.4611 128.125 36.2549C128.465 36.0487 128.751 35.765 128.961 35.4269C128.972 35.4047 128.992 35.3878 129.015 35.3799C129.039 35.372 129.065 35.3737 129.087 35.3848C129.109 35.397 129.125 35.4167 129.132 35.44C129.14 35.4633 129.139 35.4887 129.129 35.5113C128.907 35.8797 128.599 36.1893 128.232 36.4141C127.865 36.6389 127.45 36.7723 127.02 36.8032Z" fill="#263238"/>
<path d="M129.131 31.3405C129.102 31.3429 129.073 31.339 129.045 31.3289C129.018 31.3189 128.993 31.3031 128.973 31.2825C128.82 31.1006 128.626 30.9579 128.406 30.8662C128.187 30.7745 127.949 30.7364 127.712 30.7552C127.663 30.7629 127.614 30.7512 127.573 30.7227C127.533 30.6941 127.505 30.6509 127.496 30.6023C127.492 30.578 127.492 30.5531 127.497 30.529C127.503 30.5048 127.513 30.482 127.527 30.4619C127.541 30.4417 127.559 30.4246 127.58 30.4116C127.601 30.3986 127.625 30.3899 127.649 30.3861C127.943 30.3552 128.24 30.3951 128.515 30.5025C128.79 30.6098 129.036 30.7814 129.231 31.003C129.249 31.0203 129.264 31.0411 129.274 31.0643C129.284 31.0874 129.289 31.1123 129.289 31.1375C129.289 31.1627 129.284 31.1876 129.274 31.2107C129.264 31.2339 129.249 31.2547 129.231 31.272C129.205 31.3041 129.17 31.328 129.131 31.3405Z" fill="#263238"/>
<path d="M122.829 31.8467C122.801 31.8523 122.773 31.8523 122.745 31.8467C122.7 31.826 122.664 31.7885 122.647 31.7422C122.629 31.6959 122.63 31.6444 122.65 31.5989C122.764 31.3243 122.942 31.081 123.17 30.8893C123.397 30.6976 123.667 30.5631 123.957 30.4969C123.983 30.4878 124.011 30.4845 124.039 30.4873C124.066 30.49 124.093 30.4987 124.116 30.5127C124.14 30.5267 124.16 30.5457 124.176 30.5684C124.192 30.5911 124.202 30.6169 124.207 30.6441C124.212 30.6712 124.21 30.6991 124.203 30.7257C124.196 30.7523 124.183 30.7771 124.165 30.7982C124.148 30.8193 124.125 30.8363 124.1 30.848C124.075 30.8597 124.048 30.8658 124.021 30.866C123.792 30.9218 123.579 31.0313 123.4 31.1852C123.221 31.3392 123.082 31.5334 122.992 31.7518C122.976 31.7809 122.953 31.8051 122.924 31.8218C122.895 31.8385 122.862 31.8471 122.829 31.8467Z" fill="#263238"/>
<path d="M135.456 45.2979C137.523 45.2979 142.506 45.4086 142.991 47.2541C143.476 49.0996 142.944 52.0894 142.285 53.8453C143.255 56.5239 142.944 60.4786 142.021 61.7125C143.033 64.697 142.374 66.8958 141.757 67.9504C142.243 69.1368 142.68 72.522 141.937 74.1882C142.548 76.5611 143.25 80.5158 142.153 81.312C140.661 82.3666 136.69 82.8939 133.885 82.2295C131.08 81.5651 132.182 75.9019 132.398 74.5837C131.169 72.9597 132.488 68.0822 132.488 68.0822C131.871 66.7218 132.793 61.6229 132.793 61.6229C132.05 60.3943 133.015 53.7135 133.015 53.7135C132.213 52.3741 131.865 45.2979 135.456 45.2979Z" fill="#263238"/>
<path d="M120.277 46.5265C121.901 45.8093 127.343 44.5069 126.288 45.9412C124.759 48.024 125.698 50.2175 124.791 52.796C125.592 55.2584 125.318 59.2817 124.575 60.7054C125.235 62.7709 125.168 65.0002 124.385 67.0223C124.78 68.0769 125.144 71.3831 124.527 73.218C125.054 75.4538 125.455 79.9621 124.527 80.9798C123.859 81.7156 122.974 82.2192 122 82.4174C121.026 82.6156 120.014 82.498 119.112 82.0818C117.82 81.5545 117.245 77.2413 117.883 75.7543C116.628 73.0177 117.651 68.9628 117.651 68.9628C116.438 66.8536 117.377 62.4296 117.377 62.4296C116.175 58.5066 117.651 54.1669 117.651 54.1669C117.003 52.9911 117.688 47.6707 120.277 46.5265Z" fill="#263238"/>
<path d="M123.856 47.0117C123.64 46.8516 123.464 46.6434 123.343 46.4036C123.221 46.1639 123.157 45.8991 123.155 45.6302C123.151 45.45 123.182 45.2707 123.247 45.1028C123.313 44.9348 123.411 44.7814 123.536 44.6515C123.661 44.5216 123.81 44.4177 123.976 44.3459C124.141 44.274 124.319 44.2356 124.499 44.2329C125.117 44.2842 125.717 44.4638 126.26 44.7602C127.088 45.1662 127.394 45.5406 127.431 46.1523C127.468 46.7639 125.96 48.9153 125.132 48.4038C124.304 47.8923 124.32 47.539 123.856 47.0117Z" fill="#263238"/>
<path opacity="0.2" d="M139.854 54.552C140.266 52.775 141.31 52.9332 142.348 53.6608L142.275 53.8665C143.245 56.5451 142.934 60.4998 142.011 61.7337C142.069 61.9024 142.122 62.0712 142.169 62.261C140.877 60.9955 139.084 57.9056 139.854 54.552Z" fill="black"/>
<path d="M140.035 58.8916L136.528 60.4946L136.185 71.8208L126.657 77.9585L137.324 81.7867L140.219 92.7386L143.731 91.1409L145.693 73.2762L140.035 58.8916Z" fill="#7240FF"/>
<path opacity="0.3" d="M140.035 58.8916L136.528 60.4946L136.185 71.8208L126.657 77.9585L137.324 81.7867L140.219 92.7386L143.731 91.1409L145.693 73.2762L140.035 58.8916Z" fill="black"/>
<path d="M161.98 82.8097L158.468 84.4126L147.152 83.7799L151.887 80.5845L161.98 82.8097Z" fill="#7240FF"/>
<path opacity="0.3" d="M161.98 82.8097L158.468 84.4126L147.152 83.7799L151.887 80.5845L161.98 82.8097Z" fill="black"/>
<path d="M140.034 58.8916L148.819 66.0522L159.697 62.8779L155.6 73.4449L161.98 82.8096L150.665 82.1769L143.731 91.1409L140.831 80.1837L130.169 76.3556L139.692 70.2179L140.034 58.8916Z" fill="#7240FF"/>
<path d="M145.555 81.407L145.476 84.9873L149.695 84.75C149.695 84.75 150.264 82.509 147.839 80.9482L145.555 81.407Z" fill="#CE7A63"/>
<path d="M146.831 88.5729L149.753 86.8908L149.7 84.75L145.476 84.9873L146.831 88.5729Z" fill="#CE7A63"/>
<path d="M143.135 47.1485C143.478 47.4649 143.736 47.7075 144.021 47.9869C144.306 48.2664 144.548 48.5142 144.844 48.8095C145.371 49.3632 145.898 49.9327 146.425 50.5074C147.457 51.6871 148.426 52.9191 149.331 54.1985C150.287 55.5352 151.135 56.9458 151.867 58.4168C152.749 60.1199 153.313 61.9692 153.533 63.8743C153.566 64.1561 153.582 64.4396 153.581 64.7232V65.1662V65.472L153.491 66.6689C153.396 67.4546 153.301 68.2508 153.17 68.9943C152.925 70.4983 152.605 71.989 152.21 73.4605C151.451 76.3536 150.446 79.1762 149.204 81.8972C149.002 82.3554 148.643 82.7265 148.191 82.9441C147.74 83.1617 147.226 83.2115 146.741 83.0846C146.256 82.9577 145.833 82.6625 145.546 82.2516C145.259 81.8408 145.128 81.3413 145.176 80.8426V80.7582C145.403 77.9741 145.703 75.1373 145.856 72.3848C145.961 71.0033 146.004 69.6376 146.035 68.3036C146.035 67.6339 146.035 66.98 146.035 66.3262L145.993 65.3771V65.1451V65.0449C145.982 64.9701 145.966 64.8961 145.946 64.8234C145.672 63.8957 145.274 63.009 144.764 62.187C144.122 61.1355 143.418 60.123 142.655 59.155C141.859 58.1426 141.005 57.1355 140.119 56.1442C139.676 55.6485 139.217 55.1634 138.764 54.673L138.078 53.9506L137.43 53.281L137.324 53.1702C136.572 52.3791 136.156 51.3272 136.164 50.2358C136.171 49.1443 136.601 48.0982 137.364 47.3173C138.126 46.5363 139.162 46.0813 140.253 46.0479C141.344 46.0145 142.405 46.4052 143.214 47.138L143.135 47.1485Z" fill="#263238"/>
<path d="M137.04 46.5473C137.567 46.4735 137.704 45.2396 137.282 44.4382C136.939 43.779 135.7 43.8687 134.593 44.1534C133.702 44.352 132.849 44.6939 132.067 45.1658C130.949 45.7828 131.355 46.5262 131.614 47.1115C131.872 47.6968 132.362 49.0414 133.417 48.3296C134.472 47.6177 136.301 46.6581 137.04 46.5473Z" fill="#263238"/>
<path d="M150.338 179.035C150.259 177.353 150.702 174.638 146.563 176.399C144.09 177.454 147.565 180.238 147.565 180.238L150.338 179.035Z" fill="#263238"/>
<path d="M98.494 47.9344H104.157C104.314 47.9401 104.466 47.9936 104.593 48.0878C104.719 48.182 104.813 48.3124 104.864 48.4617L107.827 59.0075C107.846 59.069 107.851 59.1341 107.84 59.1976C107.829 59.261 107.803 59.321 107.764 59.3725C107.726 59.424 107.675 59.4656 107.618 59.4938C107.56 59.522 107.496 59.5361 107.432 59.5348H101.763C101.607 59.5267 101.457 59.4721 101.332 59.3782C101.207 59.2843 101.113 59.1552 101.062 59.0075L98.0985 48.4617C98.078 48.4002 98.0727 48.3347 98.083 48.2707C98.0934 48.2067 98.1191 48.1462 98.158 48.0944C98.1969 48.0425 98.2478 48.0009 98.3063 47.973C98.3648 47.9452 98.4292 47.9319 98.494 47.9344Z" fill="#7240FF"/>
<path d="M101.579 55.0423L100.392 50.9136L98.3252 51.7362L99.074 56.6189L101.579 55.0423Z" fill="#CE7A63"/>
<path opacity="0.3" d="M104.61 48.314C104.665 48.3173 104.719 48.3379 104.762 48.3729C104.806 48.4078 104.837 48.4554 104.852 48.5091L107.821 59.0075C107.83 59.0291 107.833 59.0528 107.831 59.0762C107.828 59.0995 107.819 59.1218 107.806 59.1409C107.792 59.16 107.773 59.1752 107.752 59.185C107.731 59.1949 107.707 59.1991 107.684 59.1973C107.629 59.1951 107.575 59.1755 107.532 59.1415C107.488 59.1074 107.457 59.0605 107.441 59.0075L104.483 48.4932C104.478 48.473 104.477 48.4518 104.48 48.4312C104.484 48.4105 104.492 48.3909 104.504 48.3738C104.516 48.3567 104.532 48.3424 104.55 48.3321C104.568 48.3218 104.589 48.3156 104.61 48.314Z" fill="black"/>
<path d="M35.0442 6.96338H31.0526V7.49067H35.0442V6.96338Z" fill="#7240FF"/>
<path d="M16.2892 12.9429H15.7619C15.7633 11.362 16.3901 9.84587 17.5055 8.72555C18.6208 7.60523 20.1342 6.97174 21.715 6.96338H28.8862V7.49067H21.715C20.274 7.49903 18.8948 8.07697 17.8783 9.0984C16.8618 10.1198 16.2906 11.5018 16.2892 12.9429Z" fill="#7240FF"/>
<path d="M83.9731 8.80908H21.7156C19.4354 8.80908 17.5869 10.6576 17.5869 12.9378V23.1884C17.5869 25.4686 19.4354 27.3171 21.7156 27.3171H83.9731C86.2534 27.3171 88.1018 25.4686 88.1018 23.1884V12.9378C88.1018 10.6576 86.2534 8.80908 83.9731 8.80908Z" fill="#7240FF"/>
<path d="M44.4193 15.2734L45.3262 17.1084L47.3563 17.4037L45.8851 18.8327L46.2331 20.8575L44.4193 19.9031L42.6054 20.8575L42.9534 18.8327L41.4822 17.4037L43.5123 17.1084L44.4193 15.2734Z" fill="white"/>
<path d="M52.6573 15.2734L53.5642 17.1084L55.5943 17.4037L54.1232 18.8327L54.4712 20.8575L52.6573 19.9031L50.8434 20.8575L51.1914 18.8327L49.7203 17.4037L51.7504 17.1084L52.6573 15.2734Z" fill="white"/>
<path d="M60.8931 15.2734L61.8001 17.1084L63.8302 17.4037L62.3643 18.8327L62.707 20.8575L60.8931 19.9031L59.0792 20.8575L59.4273 18.8327L57.9561 17.4037L59.9862 17.1084L60.8931 15.2734Z" fill="white"/>
<path d="M69.129 15.2734L70.036 17.1084L72.0661 17.4037L70.6002 18.8327L70.9429 20.8575L69.129 19.9031L67.3152 20.8575L67.6632 18.8327L66.192 17.4037L68.2221 17.1084L69.129 15.2734Z" fill="white"/>
<path opacity="0.3" d="M77.3659 16.4652L77.7983 17.3458C77.837 17.4222 77.8937 17.4881 77.9635 17.5377C78.0333 17.5873 78.1142 17.6192 78.1991 17.6305L79.1693 17.7729L78.468 18.4584C78.407 18.5177 78.3612 18.5908 78.3345 18.6716C78.3079 18.7524 78.3012 18.8385 78.3151 18.9224L78.4785 19.8926L77.6138 19.4602C77.5364 19.4231 77.4518 19.4033 77.3659 19.4022C77.2816 19.4019 77.1984 19.4218 77.1234 19.4602L76.2534 19.919L76.401 18.933C76.4148 18.849 76.4082 18.763 76.3815 18.6822C76.3549 18.6014 76.3091 18.5282 76.2481 18.4689L75.5468 17.7835L76.517 17.6411C76.6043 17.6309 76.6876 17.599 76.7595 17.5483C76.8313 17.4977 76.8893 17.4299 76.9283 17.3511L77.3607 16.4705M77.3607 15.2788L76.4537 17.1138L74.4236 17.4091L75.8948 18.8433L75.5468 20.8628L77.3607 19.9084L79.1746 20.8628L78.8265 18.8433L80.2977 17.4091L78.2676 17.1138L77.3607 15.2788Z" fill="white"/>
<path opacity="0.2" d="M30.4478 24.3956C33.9453 24.3956 36.7806 21.5603 36.7806 18.0628C36.7806 14.5653 33.9453 11.73 30.4478 11.73C26.9503 11.73 24.1151 14.5653 24.1151 18.0628C24.1151 21.5603 26.9503 24.3956 30.4478 24.3956Z" fill="white"/>
<path d="M35.6778 18.0627C35.6792 19.2263 35.2921 20.3571 34.578 21.2757C33.8639 22.1944 32.8636 22.8485 31.7357 23.1343C30.6077 23.42 29.4167 23.3212 28.3513 22.8533C27.2859 22.3855 26.4072 21.5754 25.8543 20.5516C25.4365 19.7888 25.2188 18.9325 25.2216 18.0627C25.2647 16.7049 25.8344 15.4171 26.8102 14.4718C27.7859 13.5266 29.0912 12.998 30.4497 12.998C31.8082 12.998 33.1135 13.5266 34.0892 14.4718C35.065 15.4171 35.6347 16.7049 35.6778 18.0627Z" fill="white"/>
<path d="M35.0455 20.5517C34.5984 21.3812 33.9352 22.0743 33.1262 22.5573C32.3171 23.0404 31.3924 23.2954 30.4501 23.2954C29.5078 23.2954 28.5831 23.0404 27.774 22.5573C26.965 22.0743 26.3018 21.3812 25.8547 20.5517C27.2153 19.6438 28.8144 19.1592 30.4501 19.1592C32.0858 19.1592 33.6849 19.6438 35.0455 20.5517Z" fill="#263238"/>
<path d="M32.7781 16.2965C32.7781 16.7574 32.6414 17.208 32.3853 17.5913C32.1292 17.9746 31.7652 18.2733 31.3394 18.4497C30.9135 18.6261 30.4449 18.6722 29.9928 18.5823C29.5407 18.4924 29.1254 18.2704 28.7994 17.9445C28.4735 17.6185 28.2515 17.2032 28.1616 16.7511C28.0717 16.299 28.1178 15.8304 28.2942 15.4046C28.4706 14.9787 28.7694 14.6147 29.1526 14.3586C29.5359 14.1025 29.9865 13.9658 30.4475 13.9658C31.0656 13.9658 31.6584 14.2114 32.0955 14.6484C32.5325 15.0855 32.7781 15.6783 32.7781 16.2965Z" fill="#FFC3BD"/>
<path d="M79.681 73.1279H69.1299V73.6552H79.681V73.1279Z" fill="#7240FF"/>
<path d="M83.9731 53.3018H21.7156C19.4354 53.3018 17.5869 55.1502 17.5869 57.4305V67.681C17.5869 69.9613 19.4354 71.8098 21.7156 71.8098H83.9731C86.2534 71.8098 88.1018 69.9613 88.1018 67.681V57.4305C88.1018 55.1502 86.2534 53.3018 83.9731 53.3018Z" fill="#7240FF"/>
<path d="M44.4193 59.7612L45.3262 61.6015L47.3563 61.8915L45.8851 63.3257L46.2331 65.3453L44.4193 64.3909L42.6054 65.3453L42.9534 63.3257L41.4822 61.8915L43.5123 61.6015L44.4193 59.7612Z" fill="white"/>
<path d="M52.6573 59.7612L53.5642 61.6015L55.5943 61.8915L54.1232 63.3257L54.4712 65.3453L52.6573 64.3909L50.8434 65.3453L51.1914 63.3257L49.7203 61.8915L51.7504 61.6015L52.6573 59.7612Z" fill="white"/>
<path d="M60.8931 59.7612L61.8001 61.6015L63.8302 61.8915L62.3643 63.3257L62.707 65.3453L60.8931 64.3909L59.0792 65.3453L59.4273 63.3257L57.9561 61.8915L59.9862 61.6015L60.8931 59.7612Z" fill="white"/>
<path d="M69.129 59.7612L70.036 61.6015L72.0661 61.8915L70.6002 63.3257L70.9429 65.3453L69.129 64.3909L67.3152 65.3453L67.6632 63.3257L66.192 61.8915L68.2221 61.6015L69.129 59.7612Z" fill="white"/>
<path d="M77.3649 59.7612L78.2719 61.6015L80.302 61.8915L78.8361 63.3257L79.1788 65.3453L77.3649 64.3909L75.5511 65.3453L75.8991 63.3257L74.4279 61.8915L76.458 61.6015L77.3649 59.7612Z" fill="white"/>
<path opacity="0.2" d="M34.9287 67.0331C37.4018 64.56 37.4018 60.5503 34.9287 58.0772C32.4556 55.6041 28.4459 55.6041 25.9728 58.0772C23.4997 60.5503 23.4997 64.56 25.9728 67.0331C28.4459 69.5062 32.4556 69.5062 34.9287 67.0331Z" fill="white"/>
<path d="M35.6778 62.5505C35.6803 63.7146 35.2941 64.8461 34.5805 65.7657C33.8668 66.6853 32.8665 67.3403 31.7382 67.6267C30.61 67.9132 29.4184 67.8147 28.3525 67.3469C27.2866 66.8792 26.4074 66.0689 25.8543 65.0446C25.4365 64.2799 25.2188 63.422 25.2216 62.5505C25.2647 61.1927 25.8344 59.9049 26.8102 58.9596C27.7859 58.0144 29.0912 57.4858 30.4497 57.4858C31.8082 57.4858 33.1135 58.0144 34.0892 58.9596C35.065 59.9049 35.6347 61.1927 35.6778 62.5505Z" fill="white"/>
<path opacity="0.5" d="M35.0455 65.0449C34.5972 65.8729 33.9336 66.5645 33.1247 67.0464C32.3158 67.5283 31.3917 67.7828 30.4501 67.7828C29.5085 67.7828 28.5844 67.5283 27.7755 67.0464C26.9666 66.5645 26.303 65.8729 25.8547 65.0449C27.2153 64.1369 28.8144 63.6523 30.4501 63.6523C32.0858 63.6523 33.6849 64.1369 35.0455 65.0449Z" fill="#7240FF"/>
<path d="M32.7781 60.7634C32.7791 61.2245 32.6433 61.6757 32.3879 62.0596C32.1324 62.4436 31.7688 62.7431 31.343 62.9203C30.9172 63.0975 30.4485 63.1445 29.996 63.0551C29.5436 62.9658 29.1278 62.7442 28.8013 62.4185C28.4748 62.0928 28.2523 61.6775 28.162 61.2253C28.0716 60.773 28.1175 60.3041 28.2937 59.878C28.47 59.4518 28.7687 59.0875 29.1521 58.8311C29.5355 58.5748 29.9863 58.438 30.4475 58.438C31.0647 58.438 31.6567 58.6828 32.0936 59.1187C32.5305 59.5547 32.7767 60.1461 32.7781 60.7634Z" fill="#FFB573"/>
<path d="M83.9731 31.0552H21.7156C19.4354 31.0552 17.5869 32.9037 17.5869 35.1839V45.4345C17.5869 47.7147 19.4354 49.5632 21.7156 49.5632H83.9731C86.2534 49.5632 88.1018 47.7147 88.1018 45.4345V35.1839C88.1018 32.9037 86.2534 31.0552 83.9731 31.0552Z" fill="#7240FF"/>
<path d="M86.187 41.8911L81.7577 49.5632H92.8308L86.187 41.8911Z" fill="#7240FF"/>
<path d="M44.4193 37.5146L45.3262 39.3549L47.3563 39.6502L45.8851 41.0791L46.2331 43.0987L44.4193 42.1443L42.6054 43.0987L42.9534 41.0791L41.4822 39.6502L43.5123 39.3549L44.4193 37.5146Z" fill="white"/>
<path d="M52.6573 37.5146L53.5642 39.3549L55.5943 39.6502L54.1232 41.0791L54.4712 43.0987L52.6573 42.1443L50.8434 43.0987L51.1914 41.0791L49.7203 39.6502L51.7504 39.3549L52.6573 37.5146Z" fill="white"/>
<path opacity="0.3" d="M60.8921 38.7064L61.3244 39.587C61.3624 39.6644 61.4188 39.7314 61.4887 39.7819C61.5586 39.8325 61.6398 39.8651 61.7252 39.877L62.6901 40.0247L61.9888 40.7101C61.9278 40.7694 61.882 40.8426 61.8554 40.9234C61.8288 41.0042 61.8221 41.0902 61.8359 41.1742L61.9994 42.1444L61.1346 41.6856C61.0585 41.6445 60.9733 41.6228 60.8868 41.6224C60.8018 41.6221 60.7182 41.6439 60.6442 41.6856L59.7742 42.1444L59.9377 41.1742C59.9515 41.0902 59.9448 41.0042 59.9182 40.9234C59.8916 40.8426 59.8458 40.7694 59.7848 40.7101L59.0835 40.0247L60.0537 39.8823C60.1391 39.8704 60.2203 39.8378 60.2902 39.7872C60.36 39.7366 60.4164 39.6697 60.4544 39.5923L60.8868 38.7117M60.8868 37.52L59.9799 39.3603L57.9498 39.6556L59.4209 41.0845L59.0729 43.1041L60.8868 42.1497L62.7007 43.1041L62.3527 41.0845L63.8238 39.6556L61.7937 39.3603L60.8868 37.52Z" fill="white"/>
<path opacity="0.3" d="M69.129 38.7063L69.5614 39.5869C69.5994 39.6643 69.6558 39.7313 69.7257 39.7818C69.7955 39.8324 69.8767 39.865 69.9622 39.8769L70.9324 40.0193L70.2311 40.7048C70.1701 40.764 70.1243 40.8372 70.0976 40.918C70.071 40.9988 70.0643 41.0848 70.0782 41.1688L70.2416 42.139L69.3769 41.6803C69.3007 41.6392 69.2156 41.6174 69.129 41.617C69.0441 41.6167 68.9605 41.6385 68.8865 41.6803L68.0165 42.139L68.1799 41.1688C68.1937 41.0848 68.1871 40.9988 68.1604 40.918C68.1338 40.8372 68.088 40.764 68.027 40.7048L67.3257 40.0193L68.2959 39.8769C68.3813 39.865 68.4625 39.8324 68.5324 39.7818C68.6023 39.7313 68.6587 39.6643 68.6967 39.5869L69.129 38.7063ZM69.129 37.5146L68.2221 39.3549L66.192 39.6502L67.6632 41.0791L67.3152 43.0987L69.129 42.1443L70.9429 43.0987L70.6002 41.0791L72.0713 39.6502L70.0413 39.3549L69.1343 37.5146H69.129Z" fill="white"/>
<path opacity="0.3" d="M77.3649 38.7063L77.7973 39.5869C77.8353 39.6643 77.8917 39.7313 77.9616 39.7818C78.0314 39.8324 78.1126 39.865 78.1981 39.8769L79.1683 40.0193L78.467 40.7048C78.406 40.764 78.3602 40.8372 78.3335 40.918C78.3069 40.9988 78.3002 41.0848 78.3141 41.1688L78.4775 42.139L77.6128 41.6803C77.5366 41.6392 77.4515 41.6174 77.3649 41.617C77.28 41.6167 77.1964 41.6385 77.1224 41.6803L76.2524 42.139L76.4158 41.1688C76.4297 41.0848 76.423 40.9988 76.3963 40.918C76.3697 40.8372 76.3239 40.764 76.2629 40.7048L75.5616 40.0193L76.5318 39.8769C76.6172 39.865 76.6984 39.8324 76.7683 39.7818C76.8382 39.7313 76.8946 39.6643 76.9326 39.5869L77.3649 38.7063ZM77.3649 37.5146L76.458 39.3549L74.4279 39.6502L75.8991 41.0791L75.5511 43.0987L77.3649 42.1443L79.1788 43.0987L78.8308 41.0791L80.302 39.6502L78.2719 39.3549L77.3649 37.5146Z" fill="white"/>
<path opacity="0.2" d="M30.4478 46.6421C33.9453 46.6421 36.7806 43.8069 36.7806 40.3094C36.7806 36.8118 33.9453 33.9766 30.4478 33.9766C26.9503 33.9766 24.1151 36.8118 24.1151 40.3094C24.1151 43.8069 26.9503 46.6421 30.4478 46.6421Z" fill="white"/>
<path d="M35.6783 40.3094C35.6796 41.473 35.2926 42.6037 34.5785 43.5224C33.8644 44.4411 32.8641 45.0951 31.7362 45.3809C30.6082 45.6667 29.4172 45.5678 28.3518 45.1C27.2864 44.6321 26.4076 43.8221 25.8548 42.7982C25.437 42.0354 25.2193 41.1791 25.2221 40.3094C25.1998 39.6089 25.3186 38.911 25.5713 38.2573C25.824 37.6035 26.2055 37.0072 26.6932 36.5038C27.1809 36.0004 27.7648 35.6002 28.4102 35.3268C29.0555 35.0535 29.7493 34.9126 30.4502 34.9126C31.1511 34.9126 31.8448 35.0535 32.4902 35.3268C33.1356 35.6002 33.7194 36.0004 34.2071 36.5038C34.6948 37.0072 35.0763 37.6035 35.329 38.2573C35.5818 38.911 35.7005 39.6089 35.6783 40.3094Z" fill="white"/>
<path d="M35.0455 42.7983C34.5972 43.6264 33.9336 44.3179 33.1247 44.7998C32.3158 45.2818 31.3917 45.5362 30.4501 45.5362C29.5085 45.5362 28.5844 45.2818 27.7755 44.7998C26.9666 44.3179 26.303 43.6264 25.8547 42.7983C27.2153 41.8903 28.8144 41.4058 30.4501 41.4058C32.0858 41.4058 33.6849 41.8903 35.0455 42.7983Z" fill="#7240FF"/>
<path d="M32.7781 38.522C32.7781 38.983 32.6414 39.4336 32.3853 39.8169C32.1292 40.2002 31.7652 40.4989 31.3394 40.6753C30.9135 40.8517 30.4449 40.8978 29.9928 40.8079C29.5407 40.718 29.1254 40.496 28.7994 40.1701C28.4735 39.8441 28.2515 39.4288 28.1616 38.9767C28.0717 38.5246 28.1178 38.056 28.2942 37.6302C28.4706 37.2043 28.7694 36.8403 29.1526 36.5842C29.5359 36.3281 29.9865 36.1914 30.4475 36.1914C30.7537 36.1907 31.0571 36.2505 31.3402 36.3674C31.6233 36.4843 31.8805 36.6559 32.097 36.8725C32.3136 37.0891 32.4852 37.3463 32.6021 37.6293C32.719 37.9124 32.7788 38.2158 32.7781 38.522Z" fill="#B55B52"/>
</svg>
