<svg width="100" height="360" viewBox="0 0 100 360" fill="none" xmlns="http://www.w3.org/2000/svg">
<path d="M43.2024 328.258L46.4012 341.61C46.4012 341.61 51.4777 351.754 51.4777 354.692C51.4777 357.63 46.6707 360.299 38.4388 358.43C30.207 356.561 29.6246 353.093 29.0943 348.286C28.5641 343.479 28.8249 326.389 28.8249 326.389L43.2024 328.258Z" fill="white"/>
<path d="M43.5587 359.552C41.8026 359.533 40.0538 359.323 38.3432 358.926C29.6506 356.952 29.1725 352.989 28.6596 348.399C28.1294 343.627 28.3815 327.154 28.3902 326.45C28.3919 326.389 28.4059 326.33 28.4313 326.274C28.4567 326.219 28.4929 326.17 28.5379 326.129C28.6369 326.052 28.7608 326.015 28.8857 326.024L43.2979 327.893C43.3855 327.904 43.4676 327.941 43.533 328C43.5984 328.059 43.6438 328.137 43.663 328.224L46.8619 341.532C47.2704 342.358 51.9557 351.824 51.9557 354.762C51.933 355.337 51.7786 355.9 51.5043 356.406C51.23 356.913 50.8432 357.349 50.3737 357.683C48.7916 358.882 46.4099 359.552 43.5587 359.552ZM29.2247 326.92C29.2247 329.745 29.0247 344.001 29.5028 348.269C30.007 352.876 30.3721 356.205 38.5083 358.039C43.3761 359.143 47.6007 358.734 49.8086 356.97C50.1744 356.716 50.4773 356.382 50.6943 355.993C50.9112 355.605 51.0364 355.172 51.0604 354.727C51.0604 351.928 46.0882 341.94 46.0361 341.836C46.0312 341.804 46.0312 341.772 46.0361 341.74L42.8981 328.702L29.2247 326.92Z" fill="#1C0038"/>
<path d="M51.4776 354.727C51.3249 353.347 50.9705 351.997 50.4258 350.72C49.1306 352.963 46.349 355.796 40.5337 355.796C30.9197 355.796 29.0508 348.321 29.0508 348.321C29.581 353.128 30.12 356.596 38.3953 358.465C46.6706 360.334 51.4776 357.665 51.4776 354.727Z" fill="white"/>
<path d="M43.5591 359.551C41.803 359.533 40.0542 359.323 38.3435 358.926C29.651 356.952 29.1729 352.989 28.66 348.399C28.6475 348.29 28.6775 348.18 28.7439 348.093C28.8103 348.005 28.908 347.947 29.0164 347.93C29.0701 347.918 29.1255 347.917 29.1794 347.927C29.2334 347.937 29.2849 347.958 29.3309 347.988C29.3769 348.017 29.4166 348.056 29.4476 348.101C29.4787 348.147 29.5005 348.197 29.5119 348.251C29.5901 348.538 31.4329 355.396 40.5775 355.396C46.1234 355.396 48.8094 352.789 50.0872 350.537C50.128 350.464 50.1891 350.404 50.2633 350.364C50.3375 350.325 50.4216 350.308 50.5053 350.315C50.589 350.323 50.6687 350.354 50.7349 350.406C50.8011 350.458 50.8509 350.527 50.8782 350.607C51.4475 351.929 51.811 353.33 51.9561 354.762C51.9334 355.337 51.779 355.9 51.5047 356.406C51.2304 356.913 50.8436 357.349 50.374 357.683C48.792 358.882 46.4102 359.551 43.5591 359.551ZM29.8596 351.041C30.4942 354.249 32.0762 356.622 38.4913 358.074C43.3591 359.178 47.5837 358.769 49.7916 357.005C50.1574 356.751 50.4603 356.417 50.6772 356.028C50.8942 355.639 51.0194 355.206 51.0434 354.762C50.9495 353.723 50.7035 352.704 50.3132 351.737C48.7659 353.953 45.8713 356.266 40.5341 356.266C34.4406 356.231 31.346 353.275 29.8596 351.007V351.041Z" fill="#1C0038"/>
<path d="M62.6915 324.825C62.6915 324.825 54.1467 340.306 57.8845 342.714C61.6223 345.122 70.706 345.113 71.7926 345.113C72.8792 345.113 79.7984 347.252 86.7438 347.782C93.6891 348.312 98.218 346.713 98.7569 344.305C99.2959 341.897 94.7496 341.367 87.5435 337.099C83.1263 334.446 79.234 331.005 76.0606 326.946L62.6915 324.825Z" fill="white"/>
<path d="M89.2818 348.321C88.4125 348.321 87.5433 348.321 86.674 348.217C82.5155 347.812 78.3926 347.1 74.3393 346.087C73.481 345.858 72.6103 345.678 71.7315 345.548C69.3237 345.548 61.1874 345.374 57.6148 343.079C53.651 340.532 61.3787 326.233 62.274 324.616C62.3173 324.537 62.3839 324.473 62.4646 324.433C62.5454 324.392 62.6366 324.377 62.726 324.39L76.1125 326.52C76.1686 326.528 76.2223 326.547 76.2703 326.577C76.3182 326.607 76.3593 326.647 76.3907 326.694C79.5357 330.698 83.3824 334.097 87.7432 336.725C89.9396 338.004 92.2029 339.165 94.5234 340.202C97.6701 341.662 99.5738 342.549 99.1652 344.401C98.6176 346.843 94.7668 348.321 89.2818 348.321ZM62.9259 325.303C59.7184 331.179 55.685 340.776 58.119 342.349C61.4917 344.514 69.4193 344.679 71.7663 344.679C72.7089 344.795 73.6416 344.981 74.5566 345.235C78.5546 346.242 82.6225 346.949 86.7262 347.347C93.7324 347.886 97.8439 346.183 98.2786 344.218C98.5307 343.097 97.1833 342.419 94.1235 341.002C91.777 339.95 89.4877 338.775 87.2651 337.481C82.8757 334.823 78.9936 331.406 75.7996 327.389L62.9259 325.303Z" fill="#1C0038"/>
<path d="M98.7654 344.314C98.8264 343.98 98.7852 343.635 98.6472 343.325C98.5091 343.015 98.2807 342.753 97.9917 342.575C94.5602 344.718 90.4993 345.622 86.4828 345.139C77.938 344.07 73.6699 342.471 67.2548 341.941C63.6898 341.505 60.2536 340.336 57.1628 338.507C56.7977 340.489 56.902 342.088 57.9103 342.74C61.6481 345.139 70.7318 345.139 71.8184 345.139C72.905 345.139 79.8243 347.278 86.7696 347.808C93.715 348.338 98.2003 346.713 98.7654 344.314Z" fill="white"/>
<path d="M89.2818 348.321C88.4126 348.321 87.5433 348.321 86.6741 348.216C82.5156 347.812 78.3927 347.1 74.3393 346.087C73.4811 345.857 72.6104 345.677 71.7316 345.548C69.3237 345.548 61.1875 345.374 57.6149 343.079C56.5283 342.375 56.224 340.845 56.6761 338.403C56.6883 338.334 56.7168 338.268 56.7591 338.212C56.8014 338.157 56.8563 338.111 56.9194 338.081C56.9818 338.051 57.0501 338.035 57.1194 338.035C57.1886 338.035 57.2569 338.051 57.3193 338.081C60.3494 339.889 63.7254 341.041 67.2288 341.462C70.3109 341.757 73.371 342.248 76.3908 342.931C79.1898 343.505 82.3626 344.148 86.4742 344.67C90.4048 345.142 94.3791 344.259 97.7397 342.166C97.8125 342.116 97.8989 342.089 97.9874 342.089C98.076 342.089 98.1624 342.116 98.2352 342.166C98.594 342.396 98.8748 342.729 99.0408 343.122C99.2068 343.514 99.2502 343.948 99.1653 344.366C98.6177 346.843 94.7668 348.321 89.2818 348.321ZM57.4671 339.159C57.2932 340.428 57.3193 341.827 58.119 342.349C61.4917 344.513 69.4194 344.679 71.7663 344.679C72.709 344.794 73.6416 344.98 74.5566 345.235C78.5546 346.242 82.6226 346.948 86.7262 347.347C93.7324 347.886 97.844 346.182 98.2786 344.218C98.3257 344.011 98.3132 343.795 98.2424 343.595C98.1716 343.395 98.0455 343.219 97.8788 343.088C94.4219 345.163 90.3729 346.028 86.3698 345.548C82.2235 345.026 79.0333 344.374 76.2169 343.809C73.2311 343.134 70.206 342.647 67.1593 342.349C63.7457 341.954 60.4482 340.868 57.4671 339.159Z" fill="#1C0038"/>
<path d="M14.2567 161.935C12.5593 170.779 11.5969 179.749 11.3795 188.751C10.9709 203.955 19.7852 229.563 20.1851 232.362C20.5849 235.161 22.1843 253.972 22.1843 253.972C22.1843 253.972 21.402 262.777 21.402 271.174C21.402 279.571 28.6081 330.397 28.6081 330.397L45.8107 329.997C45.8107 329.997 48.6097 273.573 48.6097 265.176C48.6097 256.779 51.4087 226.764 51.4087 225.191C51.4087 223.617 53.0169 194.767 53.0169 194.767L62.9785 246.609C62.9785 246.609 65.5081 252.233 63.5088 272.235C61.5095 292.236 61.014 327.615 61.014 327.615L74.6179 329.614L77.8167 328.015C77.8167 328.015 93.0287 240.785 93.0287 238.386C93.0287 235.987 85.1272 158.136 85.1272 158.136L14.2567 161.935Z" fill="#1C0038"/>
<path d="M28.5907 330.866C28.4858 330.865 28.3845 330.827 28.3049 330.759C28.2253 330.69 28.1726 330.596 28.1561 330.492C27.8606 328.415 20.95 279.545 20.95 271.209C20.95 262.873 21.741 254.059 21.7497 253.963C21.7584 253.867 20.1503 235.213 19.7591 232.458C19.6722 231.858 19.1419 230.032 18.4117 227.503C15.8909 218.81 10.5884 200.608 10.9448 188.777C11.1718 179.749 12.137 170.754 13.8308 161.883C13.8514 161.79 13.9017 161.707 13.9738 161.646C14.046 161.585 14.1362 161.549 14.2306 161.544L85.0924 157.719C85.2035 157.714 85.3122 157.752 85.3963 157.824C85.4804 157.897 85.5334 157.999 85.5444 158.11C85.866 161.292 93.4459 236.004 93.4459 238.403C93.4459 240.802 78.8511 324.538 78.234 328.102C78.222 328.169 78.1946 328.232 78.1538 328.286C78.113 328.341 78.0601 328.385 77.9993 328.415L74.8004 329.997C74.7159 330.026 74.6241 330.026 74.5396 329.997L60.9357 327.998C60.8321 327.981 60.7376 327.928 60.6692 327.849C60.6007 327.769 60.5627 327.668 60.562 327.563C60.562 327.207 61.0835 291.923 63.0654 272.148C65.0213 252.581 62.5873 246.792 62.5613 246.739C62.5574 246.708 62.5574 246.676 62.5613 246.644L53.2602 198.27C52.8082 206.041 51.826 223.948 51.826 225.165C51.826 225.669 51.5826 228.642 51.2088 233.118C50.3917 242.932 49.0269 259.344 49.0269 265.176C49.0269 273.495 46.254 329.449 46.2279 330.014C46.2215 330.124 46.1744 330.228 46.0956 330.305C46.0168 330.382 45.9122 330.427 45.802 330.431L28.5994 330.866H28.5907ZM14.6131 162.352C12.9867 171.067 12.0594 179.898 11.8402 188.76C11.5359 200.46 16.7602 218.541 19.2723 227.233C20.0373 229.885 20.5501 231.64 20.6457 232.301C21.0369 235.083 22.5755 253.163 22.645 253.937C22.645 254.102 21.8453 262.89 21.8453 271.174C21.8453 279.067 28.33 325.251 28.9906 329.953L45.4021 329.571C45.6542 324.468 48.1838 273.069 48.1838 265.176C48.1838 259.309 49.5485 242.871 50.3656 233.014C50.7133 228.868 50.9828 225.599 50.9828 225.13C50.9828 223.53 52.5214 195.871 52.5909 194.706C52.593 194.6 52.6356 194.498 52.7099 194.422C52.7842 194.346 52.8846 194.302 52.9907 194.297C53.0972 194.287 53.2036 194.317 53.289 194.381C53.3743 194.446 53.4323 194.54 53.4515 194.645L63.4044 246.435C63.6652 247.07 65.8644 253.102 63.9521 272.235C62.0919 290.889 61.5268 323.312 61.466 327.198L74.5309 329.128L77.4169 327.685C82.6758 297.469 92.5767 240.211 92.5767 238.351C92.5767 236.082 85.3445 164.69 84.7534 158.562L14.6131 162.352Z" fill="#1C0038"/>
<path d="M15.6296 153.39C15.6296 153.39 13.9519 161.326 14.2561 161.935C14.5604 162.543 22.1924 171.253 44.3411 171.714C66.4897 172.175 77.4771 168.046 80.0762 166.499C82.6753 164.951 85.2917 164.36 85.2917 162.065C85.2136 160.281 84.8527 158.521 84.2225 156.85C84.0661 156.389 75.53 162.5 53.6769 160.97C40.7173 160.12 27.9255 157.571 15.6296 153.39Z" fill="#5000A0"/>
<path d="M47.7835 172.183C46.6622 172.183 45.5148 172.183 44.3065 172.183C20.9061 171.697 13.8825 162.265 13.8825 162.17C13.5783 161.552 14.4389 157.024 15.2212 153.329C15.2347 153.269 15.261 153.212 15.2982 153.163C15.3355 153.113 15.3828 153.072 15.4372 153.043C15.4915 153.013 15.5515 152.996 15.6132 152.991C15.6749 152.986 15.7368 152.995 15.7949 153.016C28.0477 157.185 40.7907 159.742 53.7032 160.622C65.525 161.448 75.4346 160.179 83.1188 156.841C83.9098 156.502 84.1271 156.406 84.3705 156.519C84.4878 156.575 84.5783 156.675 84.6226 156.798L84.6747 156.937C85.2969 158.609 85.649 160.369 85.7179 162.152C85.7179 164.178 84.0315 165.029 82.0757 166.012C81.502 166.307 80.9109 166.603 80.3372 166.959C79.9112 167.124 71.0187 172.183 47.7835 172.183ZM15.9514 153.929C15.3383 156.504 14.9055 159.118 14.6562 161.752C15.5254 163.187 24.0615 170.827 44.35 171.245C64.8122 171.671 76.5124 168.072 79.8504 166.107C80.4762 165.742 81.0847 165.438 81.6671 165.142C83.6925 164.117 84.8312 163.473 84.8312 162.057C84.767 160.457 84.4562 158.876 83.9098 157.371L83.4491 157.571C75.6258 160.961 65.5859 162.257 53.6249 161.422C40.8025 160.537 28.1438 158.031 15.9514 153.964V153.929Z" fill="#1C0038"/>
<path d="M23.3926 24.4707C23.3926 24.4707 14.7 21.5674 7.11141 31.2423C-0.477192 40.9171 0.018284 54.1385 1.02662 57.8502C2.03496 61.5619 6.78979 68.3508 14.5262 67.4815C22.2625 66.6123 24.3575 59.9103 23.5577 53.6169C22.758 47.3235 20.1676 37.0576 21.1325 32.7113C22.0974 28.365 24.201 27.0698 24.201 27.0698L23.3926 24.4707Z" fill="#1C0038"/>
<path d="M13.2394 68.0205C5.75511 68.0205 1.40882 61.2577 0.539568 57.9197C-0.207992 55.0859 -1.42495 41.4038 6.73736 30.9728C14.4216 21.1763 23.4097 24.0187 23.5053 24.0187C23.57 24.0406 23.6287 24.077 23.6769 24.1253C23.7252 24.1735 23.7616 24.2322 23.7835 24.2969L24.5919 26.9047C24.6193 26.9968 24.6153 27.0953 24.5807 27.185C24.5461 27.2746 24.4828 27.3503 24.4006 27.4001C24.4006 27.4001 22.4448 28.6866 21.5321 32.7721C20.8715 35.745 21.9493 41.7863 22.9055 47.1236C23.3228 49.4792 23.7139 51.6958 23.9573 53.5821C24.5137 57.9284 23.6879 61.7097 21.6451 64.2914C20.7767 65.3556 19.6975 66.2287 18.4753 66.8555C17.253 67.4823 15.9143 67.8494 14.5433 67.9335C14.1106 67.9871 13.6753 68.0161 13.2394 68.0205ZM20.1934 24.4794C17.0815 24.4794 12.0833 25.5921 7.45015 31.5117C0.0701671 40.9258 0.435255 54.0341 1.36536 57.7372C2.23461 61.0056 6.6939 67.8901 14.4477 67.0904C15.7017 67.0147 16.9266 66.6806 18.0455 66.1092C19.1644 65.5378 20.1531 64.7414 20.9497 63.7698C22.8534 61.3707 23.6096 57.798 23.0881 53.7125C22.8534 51.8436 22.4535 49.6357 22.0363 47.2974C21.0279 41.6125 19.9761 35.7363 20.6802 32.5983C21.4713 29.0169 23.0272 27.3827 23.6618 26.8873L23.0098 24.8184C22.089 24.5876 21.1428 24.4737 20.1934 24.4794Z" fill="#1C0038"/>
<path d="M23.4188 126.66C23.4188 126.66 22.9581 139.334 21.5847 141.168C20.2113 143.002 14.1004 150.487 14.2569 154.607C14.4133 158.727 38.0745 166.977 52.7388 166.525C67.4032 166.073 85.1099 161.022 85.1099 158.119C85.1099 155.216 83.4323 151.556 81.4503 146.367C79.4684 141.177 76.1044 135.518 75.6437 131.702C75.183 127.886 73.9661 115.969 73.9661 114.317C73.9661 112.665 59.3017 108.519 59.3017 108.519L23.4188 126.66Z" fill="#5000A0"/>
<path d="M51.5647 166.977C36.7873 166.977 13.9781 158.927 13.8216 154.624C13.6738 150.739 18.6199 144.315 20.7756 141.586L21.2798 140.925C22.2273 139.665 22.8445 131.702 23.0183 126.661C23.0202 126.584 23.0431 126.509 23.0845 126.445C23.1259 126.381 23.1842 126.329 23.253 126.295L59.1446 108.119C59.2453 108.08 59.3569 108.08 59.4575 108.119C65.0469 109.693 74.4348 112.596 74.4348 114.343C74.4348 115.925 75.6257 127.651 76.1125 131.728C76.3907 134.101 77.851 137.231 79.3896 140.551C80.2589 142.446 81.1281 144.393 81.8844 146.288C82.2321 147.158 82.5711 148.027 82.8927 148.896C84.4574 152.869 85.5787 155.746 85.5787 158.215C85.5787 161.648 67.1939 166.603 52.7817 167.055L51.5647 166.977ZM23.8441 126.939C23.7572 129.077 23.2791 139.639 21.9318 141.429L21.4189 142.099C19.5413 144.541 14.5518 151.017 14.6909 154.59C14.8299 158.162 37.7957 166.577 52.6947 166.09C68.6108 165.586 84.6486 160.309 84.6486 158.119C84.6486 155.928 83.4925 152.86 82.0408 149.122C81.7192 148.296 81.3802 147.427 81.0325 146.514C80.3197 144.654 79.4244 142.716 78.5551 140.838C76.9818 137.457 75.504 134.258 75.1998 131.754C74.7565 128.043 73.5221 116.021 73.5221 114.291C73.1918 113.422 65.9335 110.814 59.3358 108.954L23.8441 126.939Z" fill="#1C0038"/>
<path d="M30.7457 58.2501C30.7457 58.2501 15.1687 65.4214 10.8919 67.5598C6.6152 69.6982 5.094 69.3939 5.85025 72.2972C6.60651 75.2005 3.56411 78.382 4.02482 91.6903C4.48552 104.999 5.85025 120.098 6.77166 127.73C7.69307 135.362 8.14509 136.892 10.127 136.283C12.1089 135.675 21.8272 133.389 29.3115 130.937C36.7958 128.486 55.6412 116.881 55.6412 116.881C63.1619 118.581 70.837 119.504 78.5462 119.637C90.9157 119.793 91.8284 119.333 91.3764 115.517C90.9243 111.701 87.7081 97.0363 83.4314 86.8312C79.1546 76.6261 80.3803 74.7659 77.1727 70.3153C73.9652 65.8647 60.8307 61.6228 58.5446 60.9969C56.2584 60.371 30.7457 58.2501 30.7457 58.2501Z" fill="#5000A0"/>
<path d="M9.44086 136.839C9.13239 136.844 8.82953 136.757 8.5716 136.587C7.48503 135.883 7.0591 133.771 6.33762 127.782C5.32059 119.298 4.0254 104.381 3.59077 91.7077C3.29053 86.5217 3.77406 81.3201 5.02504 76.2784C5.43359 74.5399 5.70306 73.4272 5.43359 72.4102C4.75557 69.8024 5.83345 69.3417 8.19782 68.3247C8.88453 68.0291 9.72772 67.6641 10.7013 67.1773C14.9346 65.0563 30.4073 57.9284 30.5638 57.8502C30.6352 57.8328 30.7097 57.8328 30.7811 57.8502C31.8242 57.9371 56.3546 59.9972 58.6494 60.6144C61.1007 61.2663 74.2265 65.5344 77.521 70.0893C78.9636 72.1041 79.9675 74.3991 80.4678 76.826C81.3554 80.1615 82.4796 83.4295 83.8318 86.6051C88.0129 96.5929 91.3161 111.335 91.8029 115.43C91.9767 116.881 91.9506 117.872 91.2813 118.62C90.0817 119.95 87.048 120.141 78.538 120.037C70.8573 119.895 63.2102 118.983 55.7114 117.316C53.7729 118.507 36.5877 128.981 29.4511 131.32C24.2356 133.058 18.0291 134.632 13.9175 135.666C12.179 136.109 10.8577 136.457 10.258 136.64C9.99718 136.747 9.72172 136.814 9.44086 136.839ZM30.8246 58.6933C29.4598 59.3192 15.1258 65.9342 11.0924 67.9509C10.0928 68.4464 9.23224 68.8202 8.54553 69.1157C6.20723 70.1327 5.78129 70.3153 6.27677 72.1842C6.59839 73.4185 6.27677 74.6355 5.86822 76.5305C4.6433 81.4937 4.16864 86.6125 4.46003 91.7164C4.89465 104.373 6.19853 119.254 7.20687 127.721C7.81535 132.858 8.24998 135.388 9.0497 135.909C9.18878 136.005 9.43217 136.092 10.0059 135.909C10.5796 135.727 11.9095 135.388 13.7002 134.927C17.8031 133.867 23.9835 132.267 29.1817 130.581C36.5269 128.182 55.2593 116.673 55.4071 116.568C55.5095 116.509 55.6306 116.49 55.7461 116.516C63.2368 118.199 70.8792 119.117 78.5554 119.254C86.2744 119.35 89.6558 119.211 90.6381 118.124C91.0814 117.629 91.0901 116.829 90.9423 115.621C90.4555 111.561 87.1784 96.9406 83.0321 87.0224C81.6642 83.7816 80.5312 80.4467 79.642 77.0433C79.1755 74.7182 78.2183 72.5193 76.8343 70.5935C73.731 66.2993 60.7096 62.0487 58.4495 61.4402C56.1894 60.8317 32.7021 58.8498 30.8246 58.6933Z" fill="#1C0038"/>
<path d="M42.9335 106.833C42.9335 106.833 33.4934 106.963 28.3039 104.225C23.1145 101.487 19.142 100.096 18.2293 101.165C17.3165 102.234 12.5704 105.442 11.8141 106.815C11.0579 108.189 7.53741 112.161 7.68518 113.23C7.83296 114.3 8.45013 113.848 10.1278 112.161C11.1839 111.075 12.3075 110.056 13.4918 109.11C14.1003 108.649 15.4737 107.737 15.4737 107.737C15.4737 107.737 13.6396 114.604 13.0311 116.429C12.4226 118.255 15.0217 117.655 16.0909 117.194C17.1601 116.734 23.9142 111.848 23.9142 111.848C24.9686 112.049 26.0396 112.151 27.1131 112.153L41.0212 107.745L42.9335 106.833Z" fill="white"/>
<path d="M14.0041 118.107C13.5879 118.135 13.176 118.008 12.848 117.751C12.6648 117.56 12.5448 117.317 12.5044 117.056C12.4639 116.795 12.505 116.527 12.622 116.29C13.074 114.943 14.204 110.771 14.7516 108.736C14.3865 108.989 14.0041 109.258 13.752 109.449C12.5804 110.378 11.4738 111.386 10.4401 112.466C9.08409 113.822 8.42345 114.395 7.83236 114.204C7.24126 114.013 7.28473 113.483 7.25865 113.291C7.13696 112.483 8.24091 110.953 9.93596 108.71C10.4707 108.033 10.9698 107.328 11.4311 106.598C11.9266 105.729 13.752 104.268 15.5079 102.886C16.3556 102.27 17.1628 101.599 17.9244 100.878C18.9762 99.6614 22.5402 100.652 28.538 103.834C33.571 106.494 42.8721 106.442 42.959 106.442C43.0603 106.436 43.1603 106.467 43.2403 106.529C43.3203 106.592 43.3748 106.681 43.3936 106.781C43.4145 106.877 43.4018 106.978 43.3575 107.067C43.3133 107.155 43.2402 107.226 43.1502 107.267L41.1596 108.189C40.9771 108.25 27.7036 112.457 27.2515 112.613C26.1669 112.669 25.0796 112.581 24.0179 112.353C22.8618 113.222 17.3159 117.194 16.2902 117.638C15.561 117.925 14.7875 118.084 14.0041 118.107ZM15.4731 107.293C15.5632 107.293 15.6513 107.32 15.7252 107.372C15.7972 107.424 15.8521 107.497 15.883 107.58C15.914 107.664 15.9195 107.754 15.8991 107.841C15.8208 108.119 14.0562 114.743 13.4478 116.534C13.3956 116.69 13.3174 116.968 13.4478 117.073C13.7607 117.359 15.0385 117.142 15.9251 116.76C16.8118 116.377 21.7665 112.813 23.6267 111.466C23.674 111.432 23.7274 111.407 23.7841 111.394C23.8408 111.381 23.8996 111.378 23.9571 111.388C24.9489 111.578 25.9549 111.686 26.9647 111.709C27.408 111.553 40.273 107.476 40.8206 107.302L41.0379 107.198C37.9782 107.085 31.9629 106.607 28.1121 104.59C21.8882 101.296 19.0805 100.835 18.5503 101.435C17.7681 102.201 16.9314 102.91 16.0468 103.556C14.5169 104.764 12.5698 106.268 12.1873 107.033C11.7091 107.785 11.1897 108.511 10.6314 109.206C9.76211 110.397 8.0236 112.631 8.11921 113.144C8.11166 113.201 8.11166 113.26 8.11921 113.317C8.73334 112.871 9.3038 112.368 9.82296 111.814C10.887 110.706 12.0254 109.672 13.2304 108.719C13.8389 108.258 15.1776 107.372 15.2384 107.328C15.3123 107.296 15.3932 107.284 15.4731 107.293Z" fill="#1C0038"/>
<path d="M15.4736 108.163C15.4104 108.161 15.3484 108.146 15.291 108.119C15.2389 108.095 15.192 108.061 15.1532 108.018C15.1144 107.976 15.0844 107.926 15.065 107.872C15.0456 107.817 15.0371 107.76 15.0401 107.702C15.0431 107.645 15.0575 107.589 15.0824 107.537L16.9166 103.721C16.9407 103.669 16.9751 103.622 17.0178 103.583C17.0605 103.545 17.1106 103.515 17.165 103.496C17.2195 103.478 17.2771 103.47 17.3345 103.474C17.3919 103.479 17.4478 103.494 17.499 103.521C17.5501 103.545 17.5959 103.579 17.6337 103.621C17.6715 103.663 17.7006 103.712 17.7192 103.766C17.7378 103.819 17.7456 103.876 17.7421 103.932C17.7386 103.989 17.7239 104.044 17.6989 104.095L15.8648 107.911C15.831 107.986 15.7761 108.05 15.7066 108.095C15.6372 108.14 15.5562 108.163 15.4736 108.163Z" fill="#1C0038"/>
<path d="M13.4912 117.803C13.4912 117.803 15.9338 111.848 17.1595 108.493C18.3851 105.138 19.6021 103.147 20.9755 102.991" fill="white"/>
<path d="M13.4918 118.237C13.437 118.246 13.3813 118.246 13.3266 118.237C13.2732 118.216 13.2247 118.183 13.1839 118.142C13.1431 118.102 13.1108 118.053 13.089 118C13.0672 117.946 13.0562 117.889 13.0567 117.831C13.0572 117.774 13.0691 117.717 13.0919 117.664C13.0919 117.603 15.5432 111.683 16.7515 108.371C18.1423 104.538 19.4288 102.756 20.9239 102.582C21.0388 102.572 21.153 102.608 21.2423 102.681C21.3316 102.754 21.3888 102.859 21.402 102.973C21.4142 103.087 21.3809 103.202 21.3092 103.291C21.2376 103.381 21.1334 103.438 21.0195 103.451C19.9416 103.573 18.7768 105.32 17.5425 108.667C16.3081 112.014 13.8916 117.933 13.8655 117.994C13.8327 118.066 13.7801 118.127 13.7139 118.17C13.6477 118.213 13.5707 118.236 13.4918 118.237Z" fill="#1C0038"/>
<path d="M16.0903 117.194C17.0327 114.968 18.1549 112.823 19.4457 110.779L24.0093 104.364" fill="white"/>
<path d="M16.0907 117.629C16.0335 117.642 15.9741 117.642 15.9169 117.629C15.8635 117.607 15.815 117.575 15.7745 117.534C15.7339 117.493 15.7021 117.444 15.681 117.39C15.6599 117.337 15.6499 117.279 15.6516 117.222C15.6532 117.164 15.6666 117.108 15.6909 117.055C16.6449 114.802 17.7817 112.63 19.0897 110.562L23.6706 104.147C23.7399 104.055 23.842 103.994 23.9556 103.976C24.0691 103.958 24.1851 103.985 24.2791 104.051C24.3258 104.083 24.3657 104.124 24.3963 104.172C24.4269 104.22 24.4477 104.273 24.4574 104.329C24.4671 104.385 24.4656 104.442 24.4529 104.497C24.4402 104.553 24.4166 104.605 24.3834 104.651L19.8025 111.066C18.5314 113.088 17.4211 115.207 16.4819 117.403C16.4444 117.473 16.3879 117.532 16.3187 117.572C16.2496 117.612 16.1706 117.632 16.0907 117.629Z" fill="#1C0038"/>
<path d="M23.8701 112.283C23.7866 112.284 23.7047 112.26 23.6354 112.213C23.5401 112.15 23.4739 112.051 23.4511 111.939C23.4283 111.826 23.4508 111.709 23.5137 111.614L25.1913 109.006C25.2227 108.958 25.2633 108.917 25.3106 108.884C25.358 108.852 25.4112 108.829 25.4673 108.818C25.5234 108.806 25.5813 108.805 25.6376 108.816C25.6939 108.827 25.7475 108.848 25.7955 108.88C25.8434 108.911 25.8847 108.952 25.917 108.999C25.9493 109.046 25.9719 109.1 25.9836 109.156C25.9953 109.212 25.9959 109.27 25.9852 109.326C25.9746 109.382 25.9529 109.436 25.9215 109.484L24.2439 112.092C24.2022 112.152 24.1463 112.201 24.081 112.234C24.0158 112.268 23.9433 112.284 23.8701 112.283Z" fill="#1C0038"/>
<path d="M42.9331 106.833C42.9331 106.833 60.2226 100.705 62.0567 99.6353C63.8909 98.5661 67.8547 98.8704 68.7761 99.0181C69.6975 99.1659 79.7635 101.921 79.3115 102.226C78.8595 102.53 68.6196 104.833 68.6196 104.833L55.6416 116.899" fill="#5000A0"/>
<path d="M55.6418 117.325C55.5814 117.326 55.5214 117.314 55.466 117.29C55.4105 117.266 55.3608 117.23 55.3201 117.186C55.2794 117.145 55.2471 117.097 55.225 117.044C55.2029 116.991 55.1916 116.934 55.1916 116.877C55.1916 116.82 55.2029 116.763 55.225 116.71C55.2471 116.657 55.2794 116.609 55.3201 116.568L68.3416 104.503C68.3968 104.45 68.4662 104.414 68.5415 104.399C71.5926 103.721 76.1823 102.66 78.1729 102.13C75.7824 101.261 69.4803 99.5744 68.7154 99.4527C67.6288 99.2702 63.9258 99.0528 62.2916 100.009C60.44 101.087 43.8025 106.963 43.0984 107.241C42.99 107.28 42.8706 107.275 42.7663 107.226C42.6619 107.177 42.5813 107.089 42.5421 106.98C42.5215 106.927 42.5119 106.87 42.5139 106.812C42.516 106.755 42.5296 106.699 42.5539 106.647C42.5783 106.595 42.6129 106.548 42.6557 106.51C42.6984 106.472 42.7485 106.443 42.8029 106.424C42.9767 106.363 60.075 100.296 61.8482 99.2528C63.8736 98.0793 68.1069 98.4704 68.8632 98.5921C68.9675 98.5921 79.5724 101.2 79.7636 102.069C79.7825 102.16 79.7744 102.255 79.7405 102.341C79.7065 102.427 79.6481 102.502 79.5724 102.556C79.103 102.869 72.0099 104.477 68.8458 105.164L55.9547 117.151C55.8768 117.247 55.7647 117.309 55.6418 117.325Z" fill="#1C0038"/>
<path d="M68.7761 99.0181C67.8547 98.8704 63.8822 98.5661 62.0568 99.6353C61.8482 99.757 61.4309 99.9656 60.8833 100.252C61.8703 101.308 62.6333 102.553 63.126 103.912C63.7605 105.555 64.3429 107.154 64.7689 108.406L68.6197 104.825C68.6197 104.825 78.8508 102.53 79.3115 102.217C79.7722 101.904 69.6889 99.1746 68.7761 99.0181Z" fill="white"/>
<path d="M64.7691 108.841H64.6648C64.5947 108.824 64.53 108.79 64.4768 108.741C64.4236 108.692 64.3836 108.631 64.3606 108.563C63.8043 106.963 63.2566 105.451 62.7177 104.086C62.241 102.795 61.511 101.613 60.5706 100.609C60.5235 100.56 60.4881 100.501 60.467 100.436C60.446 100.371 60.4398 100.303 60.4489 100.235C60.4609 100.168 60.4883 100.105 60.5291 100.051C60.5699 99.9964 60.6228 99.9524 60.6836 99.9222C61.2313 99.644 61.6311 99.4267 61.8311 99.305C63.8564 98.1315 68.0897 98.5227 68.846 98.6444C68.9503 98.6444 79.5552 101.252 79.7464 102.121C79.7653 102.212 79.7572 102.307 79.7233 102.393C79.6893 102.48 79.6309 102.554 79.5552 102.608C79.0858 102.921 71.9927 104.529 68.8286 105.216L65.0647 108.693C65.0281 108.736 64.983 108.772 64.9322 108.797C64.8813 108.823 64.8259 108.838 64.7691 108.841ZM61.5877 100.383C62.4144 101.39 63.0693 102.527 63.5261 103.747C63.9955 104.946 64.4736 106.25 64.9604 107.632L68.3244 104.503C68.3797 104.45 68.4491 104.414 68.5243 104.399C71.5754 103.721 76.1651 102.66 78.1557 102.13C75.7652 101.261 69.4631 99.5745 68.6982 99.4528C67.6116 99.2702 63.9086 99.0529 62.2744 100.009L61.5877 100.383Z" fill="#1C0038"/>
<path d="M33.8752 1.89619C33.8752 1.89619 25.4869 4.02586 23.0704 14.7959C22.0258 19.116 22.2951 23.6496 23.8438 27.8157C25.3925 31.9817 28.15 35.5903 31.7629 38.1789C37.5609 42.2036 39.0125 44.142 39.0125 44.6288C39.0125 45.1156 40.3077 46.8802 38.8561 51.7219C38.2209 54.1652 37.2434 56.5064 35.9528 58.676C35.9528 58.676 46.436 61.7445 50.6258 61.7445C54.8156 61.7445 55.9457 61.1012 55.9457 61.1012L57.8754 52.878C57.8754 52.878 60.6222 53.6778 61.7523 53.3561C62.8823 53.0345 66.5854 45.6198 66.907 42.5513C67.2286 39.4828 67.5502 37.7182 67.5502 37.7182C67.5502 37.7182 69.9754 38.5266 70.2971 36.7534C70.6187 34.9801 68.5585 32.4071 67.0721 29.3299C65.5857 26.2527 67.2286 21.5935 66.0986 15.4218C64.9685 9.25009 59.8138 4.62565 53.364 2.20043C46.9141 -0.224798 37.7434 -0.0335607 33.8752 1.89619Z" fill="white"/>
<path d="M50.6433 62.153C46.4361 62.153 36.2745 59.1975 35.866 59.0671C35.7993 59.05 35.7381 59.0163 35.6879 58.9692C35.6378 58.9221 35.6004 58.8631 35.5791 58.7976C35.5548 58.7332 35.5469 58.6638 35.556 58.5955C35.5651 58.5273 35.591 58.4623 35.6313 58.4065C36.8864 56.2757 37.8428 53.9826 38.4737 51.5915C39.6125 47.7929 39.004 45.9587 38.7432 45.1764C38.6746 45.0008 38.6307 44.8165 38.6128 44.6288C38.6128 44.6288 38.1521 43.125 31.5458 38.544C27.8526 35.9112 25.0315 32.2338 23.4453 27.9847C21.8591 23.7356 21.5802 19.1091 22.6446 14.7003C25.0003 4.19967 32.9974 1.66145 33.7189 1.48759C37.5958 -0.416076 46.8621 -0.685548 53.5379 1.81791C60.605 4.46914 65.4728 9.52821 66.5768 15.3609C67.0029 17.9777 67.1283 20.6346 66.9506 23.2798C66.8636 25.7138 66.8028 27.6261 67.5069 29.1212C67.9589 30.0861 68.4805 30.9901 68.9846 31.8681C70.0712 33.7891 71.01 35.4407 70.7231 36.8055C70.6848 37.0548 70.5926 37.2928 70.453 37.503C70.3134 37.7131 70.1297 37.8904 69.9147 38.0224C69.2906 38.3255 68.5798 38.3993 67.9067 38.231C67.7937 38.9438 67.5677 40.4476 67.3417 42.5773C67.0375 45.4546 63.3953 53.3126 61.8654 53.7473C60.9005 54.0254 59.0664 53.6082 58.1972 53.3909L56.3717 61.2142C56.3395 61.3298 56.2651 61.4291 56.1631 61.4923C56.0501 61.5184 54.8244 62.153 50.6433 62.153ZM36.6396 58.3891C38.8475 59.015 47.0707 61.2837 50.6433 61.2837C52.3097 61.3718 53.9795 61.1928 55.5894 60.7535L57.4757 52.7476C57.4872 52.6889 57.5113 52.6334 57.5462 52.5848C57.5811 52.5363 57.6261 52.4958 57.678 52.4661C57.73 52.4364 57.7877 52.4182 57.8472 52.4128C57.9068 52.4074 57.9669 52.4149 58.0233 52.4347C58.7448 52.6433 60.8223 53.1475 61.6481 52.9128C62.4739 52.6781 66.1769 45.498 66.4986 42.4817C66.8202 39.4654 67.1418 37.6313 67.1418 37.6139C67.1533 37.5525 67.1779 37.4944 67.2139 37.4434C67.2499 37.3924 67.2965 37.3497 67.3504 37.3183C67.4063 37.2926 67.4671 37.2793 67.5286 37.2793C67.5901 37.2793 67.6509 37.2926 67.7068 37.3183C68.2693 37.5172 68.8829 37.5172 69.4453 37.3183C69.5541 37.25 69.6463 37.1585 69.7155 37.0503C69.7846 36.942 69.8289 36.8198 69.8452 36.6925C70.0364 35.6407 69.1585 34.0847 68.1588 32.3462C67.646 31.4769 67.1244 30.5294 66.655 29.5385C65.8553 27.8521 65.9248 25.7398 66.0118 23.2972C66.1846 20.7129 66.0621 18.1174 65.6467 15.5608C64.6296 10.0324 59.9704 5.2167 53.1902 2.66978C46.6969 0.235866 37.7175 0.487951 34.0231 2.33077H33.9362C33.858 2.33077 25.7826 4.50391 23.453 14.9002C22.4248 19.137 22.6874 23.5845 24.207 27.6709C25.7266 31.7572 28.4338 35.2956 31.9804 37.8312C36.6396 41.0648 39.4212 43.6117 39.4212 44.6375L39.5081 44.9156C39.795 45.7849 40.4643 47.7842 39.2474 51.8697C38.6254 54.1338 37.7507 56.3207 36.6396 58.3891Z" fill="#1C0038"/>
<path d="M64.56 11.1276C62.326 7.11168 58.2144 4.03451 53.3813 2.21777C46.9315 -0.198763 37.7347 -0.0336003 33.8752 1.89615C33.8752 1.89615 25.4869 3.99105 23.0704 14.7959C22.0258 19.116 22.2951 23.6496 23.8438 27.8156C25.3925 31.9816 28.15 35.5902 31.7629 38.1789C32.9538 39.0047 33.9535 39.7436 34.8053 40.4042C35.4881 40.1107 36.0853 39.6491 36.5413 39.0624C36.9973 38.4756 37.2973 37.7829 37.4131 37.0489C38.378 32.7026 37.5696 29.7906 38.0564 29.4689C38.5431 29.1473 42.0897 29.3038 43.2197 28.1825C44.3498 27.0611 43.3762 22.8626 43.3762 22.2107C43.3762 21.5587 53.1727 10.7191 64.56 11.1276Z" fill="#1C0038"/>
<path d="M34.8231 40.8388C34.7278 40.8377 34.6358 40.8039 34.5624 40.7432C33.6931 40.0478 32.6326 39.3002 31.5287 38.5353C27.8403 35.9009 25.0237 32.2239 23.4407 27.9768C21.8577 23.7296 21.5805 19.1061 22.6449 14.7003C25.0005 4.19967 32.9977 1.66145 33.7192 1.48759C37.5961 -0.416076 46.8623 -0.685548 53.5382 1.81791C58.7016 3.74766 62.7523 6.98129 64.9342 10.9103C64.9749 10.9771 64.9964 11.0538 64.9964 11.132C64.9964 11.2102 64.9749 11.2869 64.9342 11.3536C64.8944 11.419 64.8381 11.4727 64.771 11.5093C64.7038 11.546 64.6282 11.5642 64.5517 11.5623C53.5643 11.1711 44.4284 21.2458 43.8286 22.2802C43.8286 22.428 43.8808 22.6974 43.9156 22.9843C44.2372 25.14 44.498 27.5218 43.5331 28.4867C42.5682 29.4516 40.821 29.5298 39.4563 29.6689C39.0564 29.6689 38.587 29.7645 38.361 29.8166C38.3323 30.2189 38.3323 30.6227 38.361 31.0249C38.4555 33.066 38.289 35.1108 37.8655 37.1097C37.7294 37.9077 37.3977 38.6595 36.9002 39.2981C36.4027 39.9366 35.7548 40.4421 35.0144 40.7693C34.9549 40.8029 34.8903 40.8264 34.8231 40.8388ZM42.4813 0.853035C39.0043 0.853035 35.8923 1.37459 34.0669 2.28731H33.98C33.9017 2.28731 25.8263 4.46045 23.4967 14.8568C22.4685 19.0935 22.7311 23.541 24.2507 27.6274C25.7704 31.7138 28.4775 35.2522 32.0241 37.7877C33.0585 38.5005 34.0147 39.1959 34.884 39.8652C35.4412 39.5725 35.9223 39.1536 36.2891 38.642C36.6558 38.1304 36.898 37.5402 36.9963 36.9185C37.4107 34.9801 37.5715 32.996 37.4744 31.0162C37.4744 29.8949 37.4744 29.3386 37.8221 29.0691C38.3141 28.8722 38.8394 28.7718 39.3693 28.7735C40.5341 28.6518 42.2813 28.4693 42.9159 27.8347C43.5505 27.2002 43.2375 24.2795 43.055 23.0712C43.0037 22.7837 42.9689 22.4935 42.9507 22.202C42.9507 21.663 44.6892 19.9593 45.202 19.4464C47.3578 17.3689 54.9203 10.7539 63.7867 10.6669C61.631 7.18991 57.9106 4.37352 53.234 2.61762C49.7779 1.41561 46.1403 0.818663 42.4813 0.853035Z" fill="#1C0038"/>
<path d="M57.9021 52.852L47.897 48.9751L56.2853 58.9715L57.9021 52.852Z" fill="#1C0038"/>
<path d="M56.2847 59.4062C56.2221 59.4073 56.1601 59.3947 56.103 59.3691C56.0459 59.3436 55.9952 59.3058 55.9543 59.2584L47.566 49.2272C47.5094 49.1488 47.479 49.0545 47.479 48.9577C47.479 48.861 47.5094 48.7667 47.566 48.6883C47.6229 48.6101 47.7042 48.5532 47.7971 48.5264C47.89 48.4996 47.9891 48.5046 48.0789 48.5405L58.0753 52.4087C58.1727 52.4492 58.2524 52.5231 58.3002 52.6171C58.348 52.7111 58.3607 52.819 58.3361 52.9215L56.7193 59.0063C56.7001 59.0833 56.6598 59.1533 56.603 59.2086C56.5462 59.2639 56.4751 59.3022 56.3977 59.3193L56.2847 59.4062ZM49.3306 49.9922L56.0847 58.0502L57.3886 53.1128L49.3306 49.9922Z" fill="#1C0038"/>
<path d="M54.065 44.6003L55.1152 44.8687C57.712 45.5323 60.4679 44.828 62.4279 43V43" stroke="black" stroke-linecap="round"/>
<path d="M54.5 43.5C53.6671 44.1108 53.5315 44.5609 53.5 45.5" stroke="black" stroke-linecap="round"/>
<path d="M60.6402 31.5639C61.1731 31.5639 61.605 30.626 61.605 29.469C61.605 28.312 61.1731 27.3741 60.6402 27.3741C60.1073 27.3741 59.6753 28.312 59.6753 29.469C59.6753 30.626 60.1073 31.5639 60.6402 31.5639Z" fill="#1C0038"/>
<path d="M58.0578 25.3922C58.0008 25.3929 57.9443 25.3816 57.8919 25.3592C57.8395 25.3367 57.7924 25.3035 57.7536 25.2618C57.7128 25.2214 57.6805 25.1733 57.6584 25.1203C57.6364 25.0674 57.625 25.0106 57.625 24.9532C57.625 24.8958 57.6364 24.839 57.6584 24.786C57.6805 24.7331 57.7128 24.685 57.7536 24.6446C57.8492 24.549 60.1092 22.3585 63.7254 24.0796C63.8285 24.1286 63.9083 24.2163 63.9473 24.3236C63.9864 24.431 63.9816 24.5494 63.934 24.6533C63.9097 24.7055 63.8753 24.7523 63.8328 24.7911C63.7903 24.8299 63.7405 24.8599 63.6864 24.8793C63.6322 24.8987 63.5747 24.9072 63.5172 24.9042C63.4598 24.9012 63.4034 24.8868 63.3516 24.8619C60.3005 23.4103 58.4403 25.1835 58.362 25.2618C58.3226 25.3027 58.2754 25.3353 58.2231 25.3577C58.1709 25.3801 58.1146 25.3918 58.0578 25.3922Z" fill="#1C0038"/>
<path d="M40.6471 32.0506C40.6471 32.0506 38.2305 27.5305 35.6488 28.0173C33.0672 28.504 33.5539 33.6587 34.5188 36.2404C35.4837 38.8221 38.7086 41.2386 40.4819 39.787" fill="white"/>
<path d="M39.2215 40.6564C38.928 40.6572 38.6357 40.6192 38.3522 40.5434C37.3862 40.1984 36.5059 39.6496 35.7709 38.9341C35.0359 38.2187 34.4636 37.3533 34.0928 36.397C33.354 34.4238 32.8063 30.7729 33.9103 28.8258C34.071 28.5077 34.3028 28.2309 34.5877 28.0169C34.8726 27.8028 35.203 27.6573 35.5532 27.5914C38.4044 27.0525 40.9078 31.6509 41.0121 31.8421C41.0393 31.8928 41.0562 31.9484 41.0617 32.0057C41.0673 32.063 41.0614 32.1208 41.0444 32.1758C41.0274 32.2308 40.9997 32.2819 40.9628 32.326C40.9259 32.3702 40.8806 32.4067 40.8296 32.4332C40.7795 32.4602 40.7246 32.4769 40.6679 32.4824C40.6113 32.4878 40.5541 32.4818 40.4999 32.4648C40.4456 32.4478 40.3952 32.4201 40.3518 32.3833C40.3084 32.3465 40.2729 32.3014 40.2472 32.2507C39.6126 31.0772 37.5612 28.1043 35.7097 28.4433C35.4855 28.4893 35.2749 28.586 35.0941 28.7262C34.9132 28.8664 34.767 29.0461 34.6666 29.2517C33.7973 30.8598 34.2232 34.2586 34.9099 36.0841C35.2298 36.9126 35.7224 37.6635 36.3548 38.287C36.9873 38.9105 37.7452 39.3922 38.5782 39.7002C38.8477 39.7941 39.1362 39.8202 39.4181 39.7763C39.7001 39.7323 39.9669 39.6196 40.195 39.4481C40.284 39.376 40.3978 39.342 40.5118 39.3534C40.6257 39.3648 40.7305 39.4207 40.8035 39.5089C40.874 39.6002 40.9069 39.7149 40.8956 39.8296C40.8843 39.9443 40.8296 40.0504 40.7427 40.1261C40.3133 40.4755 39.775 40.6631 39.2215 40.6564Z" fill="#1C0038"/>
<path d="M38.874 51.7219C38.874 51.7219 34.3539 49.1141 32.9022 50.7483C31.4505 52.3825 29.8424 57.0504 28.7124 60.2667C27.5823 63.4829 26.6175 64.4565 33.0587 69.1331C39.4998 73.8097 52.4083 73.1665 56.5981 71.0716C60.7879 68.9766 62.2396 65.9082 61.4399 64.2914C60.6402 62.6745 59.3363 58.815 58.5366 57.0418L57.7281 55.3032L56.2765 59.0063C53.0552 59.2538 49.8173 59.181 46.6104 58.789C43.4553 58.1422 40.3761 57.1692 37.4223 55.8856L38.874 51.7219Z" fill="#5000A0"/>
<path d="M47.0186 73.0969C42.003 73.0969 36.4311 72.106 32.815 69.4808C26.8519 65.1345 26.9388 63.8654 28.0688 60.7883L28.3904 59.919C29.5379 56.6332 31.1112 52.0957 32.5803 50.505C34.2232 48.6882 38.5955 51.1047 39.091 51.3742C39.1775 51.4263 39.2436 51.5065 39.2784 51.6013C39.3132 51.6962 39.3145 51.8 39.2822 51.8958L37.961 55.7031C40.7592 56.899 43.6717 57.8077 46.6535 58.4152C49.74 58.7856 52.8559 58.8467 55.9545 58.5977L57.3019 55.1207C57.3341 55.0404 57.3891 54.9712 57.4602 54.9218C57.5313 54.8724 57.6152 54.8448 57.7017 54.8425C57.7852 54.8436 57.8667 54.8677 57.9373 54.9122C58.0078 54.9566 58.0647 55.0198 58.1016 55.0946L58.91 56.8331C59.2838 57.6502 59.7793 58.8759 60.2313 60.1711C60.7963 61.6662 61.3787 63.2135 61.8046 64.074C62.7608 65.9777 61.1353 69.2461 56.7717 71.4279C54.8593 72.4276 51.1302 73.0969 47.0186 73.0969ZM34.3535 50.6527C34.1495 50.6341 33.9439 50.6593 33.7505 50.7268C33.5571 50.7943 33.3803 50.9024 33.2322 51.0439C31.8762 52.5477 30.268 57.1287 29.2075 60.1624L29.1206 60.4058C29.0453 60.6318 28.9671 60.8491 28.8859 61.0577C27.9471 63.6655 27.5907 64.6217 33.3191 68.7767C39.5517 73.2969 52.3732 72.6971 56.4153 70.6804C60.4573 68.6637 61.7003 65.7865 61.0571 64.4913C60.6051 63.622 60.014 62.0226 59.449 60.5101C58.9622 59.2236 58.5102 58.0153 58.1451 57.2156L57.7626 56.3464L56.6934 59.1019C56.6618 59.1768 56.6102 59.2415 56.5443 59.289C56.4784 59.3365 56.4007 59.365 56.3196 59.3714C53.0629 59.6519 49.7859 59.5966 46.5405 59.2062C43.3496 58.5556 40.2353 57.5738 37.2482 56.2768C37.1487 56.2327 37.0693 56.1528 37.0259 56.053C36.9824 55.9532 36.978 55.8408 37.0135 55.7379L38.3434 51.8871C37.1095 51.2126 35.7527 50.7929 34.3535 50.6527Z" fill="#1C0038"/>
<path d="M37.422 56.3463C37.376 56.3546 37.3289 56.3546 37.2829 56.3463C36.205 55.9899 33.6668 55.0598 33.3104 54.1645C33.2174 53.9982 33.1752 53.8082 33.1891 53.6182C33.203 53.4281 33.2724 53.2463 33.3887 53.0953C33.7277 52.7128 34.3535 52.6694 35.4314 52.9389C35.4871 52.9509 35.5397 52.9743 35.586 53.0075C35.6324 53.0407 35.6714 53.0831 35.7007 53.1319C35.73 53.1808 35.749 53.2352 35.7565 53.2917C35.764 53.3481 35.7599 53.4056 35.7443 53.4604C35.7175 53.572 35.6476 53.6685 35.5499 53.7288C35.4522 53.789 35.3346 53.8082 35.2228 53.782C34.8505 53.6455 34.4495 53.6066 34.058 53.669C34.058 53.669 34.058 53.7386 34.1188 53.8429C34.2579 54.1732 35.8573 54.9642 37.5958 55.5292C37.7111 55.5477 37.8143 55.6112 37.8828 55.7057C37.9513 55.8003 37.9794 55.9181 37.9609 56.0334C37.9425 56.1487 37.879 56.2519 37.7845 56.3204C37.6899 56.3888 37.572 56.4169 37.4568 56.3985L37.422 56.3463Z" fill="#1C0038"/>
<path d="M79.3115 102.66C79.2034 102.661 79.0989 102.621 79.0186 102.549C78.9382 102.476 78.8877 102.377 78.8769 102.269C78.8709 102.212 78.8763 102.155 78.8929 102.101C78.9094 102.046 78.9368 101.996 78.9732 101.952C79.0097 101.908 79.0546 101.872 79.1052 101.846C79.1559 101.82 79.2112 101.804 79.268 101.8L83.9881 101.382C84.1034 101.372 84.218 101.408 84.3069 101.482C84.3957 101.556 84.4515 101.663 84.4618 101.778C84.4722 101.893 84.4364 102.008 84.3622 102.097C84.288 102.186 84.1816 102.241 84.0663 102.252L79.3376 102.712L79.3115 102.66Z" fill="#1C0038"/>
<path d="M87.8655 106.329C87.7816 106.332 87.699 106.308 87.6308 106.259C84.9707 104.527 81.7841 103.791 78.634 104.181C78.5212 104.202 78.4048 104.179 78.3092 104.115C78.2136 104.052 78.1462 103.954 78.1211 103.842C78.1097 103.787 78.1094 103.729 78.1202 103.673C78.1311 103.617 78.1529 103.563 78.1844 103.516C78.2158 103.468 78.2564 103.427 78.3037 103.395C78.351 103.363 78.4042 103.341 78.4601 103.33C81.831 102.87 85.2542 103.652 88.0915 105.529C88.1401 105.559 88.1822 105.598 88.2155 105.645C88.2488 105.691 88.2726 105.744 88.2855 105.8C88.2984 105.856 88.3002 105.913 88.2908 105.97C88.2814 106.026 88.2609 106.08 88.2305 106.129C88.1907 106.189 88.1366 106.239 88.0729 106.274C88.0093 106.309 87.938 106.328 87.8655 106.329Z" fill="#1C0038"/>
<path d="M75.0346 100.513C74.978 100.514 74.9217 100.504 74.869 100.483C74.8163 100.462 74.7683 100.431 74.7278 100.392C74.6873 100.352 74.6552 100.305 74.6332 100.252C74.6113 100.2 74.6 100.144 74.6 100.087C74.4262 93.5592 69.2106 83.7453 69.1498 83.6497C69.1226 83.599 69.1057 83.5433 69.1002 83.4861C69.0946 83.4288 69.1005 83.371 69.1175 83.316C69.1345 83.261 69.1622 83.2099 69.1991 83.1657C69.236 83.1215 69.2813 83.0851 69.3323 83.0586C69.3824 83.0315 69.4373 83.0148 69.494 83.0094C69.5506 83.004 69.6078 83.0099 69.662 83.027C69.7163 83.044 69.7667 83.0717 69.8101 83.1085C69.8535 83.1452 69.889 83.1904 69.9147 83.2411C70.1407 83.6497 75.3128 93.3332 75.4693 100.079C75.4704 100.136 75.4603 100.192 75.4395 100.246C75.4187 100.299 75.3877 100.347 75.3481 100.389C75.3086 100.43 75.2613 100.463 75.209 100.486C75.1567 100.508 75.1004 100.521 75.0433 100.522L75.0346 100.513Z" fill="#1C0038"/>
<path d="M71.5228 86.6052H71.4359C71.3794 86.5949 71.3256 86.5733 71.2777 86.5416C71.2297 86.51 71.1887 86.469 71.157 86.4211C71.1254 86.3732 71.1037 86.3193 71.0934 86.2629C71.083 86.2064 71.0842 86.1484 71.0969 86.0923C71.7315 82.7631 77.5815 78.3734 77.8249 78.1908C77.9179 78.1238 78.0333 78.0955 78.1467 78.1117C78.2601 78.1279 78.3629 78.1874 78.4334 78.2777C78.5026 78.3699 78.5323 78.4859 78.516 78.6C78.4997 78.7141 78.4387 78.817 78.3465 78.8862C78.2856 78.9297 72.5225 83.2325 71.9488 86.2575C71.9273 86.3549 71.8735 86.4423 71.7962 86.5054C71.7189 86.5685 71.6226 86.6036 71.5228 86.6052Z" fill="#1C0038"/>
<path d="M70.9487 81.2853C70.8916 81.281 70.8359 81.2653 70.7848 81.2393C70.7337 81.2133 70.6883 81.1775 70.6511 81.1338C70.614 81.0902 70.5858 81.0397 70.5683 80.9851C70.5507 80.9306 70.5441 80.8731 70.5489 80.8159C70.8308 79.0564 71.4762 77.3749 72.4438 75.8786C72.5078 75.7813 72.6075 75.7131 72.7214 75.6887C72.8352 75.6643 72.9541 75.6856 73.0523 75.7482C73.1476 75.8119 73.2138 75.9107 73.2366 76.023C73.2594 76.1354 73.2369 76.2521 73.174 76.348C72.2984 77.7266 71.7073 79.2664 71.4355 80.8768C71.4337 80.9368 71.4192 80.9957 71.393 81.0497C71.3668 81.1036 71.3296 81.1515 71.2836 81.1901C71.2376 81.2286 71.184 81.2571 71.1263 81.2735C71.0686 81.2899 71.0081 81.2939 70.9487 81.2853Z" fill="#1C0038"/>
<path d="M15.9079 92.3249C15.8378 92.3253 15.7689 92.3073 15.708 92.2727C14.575 91.6169 13.3414 91.1529 12.0571 90.8993C11.943 90.8841 11.8397 90.8244 11.7696 90.7332C11.6995 90.6419 11.6685 90.5266 11.6833 90.4125C11.7005 90.2978 11.7621 90.1943 11.8547 90.1244C11.9474 90.0546 12.0637 90.0238 12.1788 90.0387C13.5638 90.3063 14.8946 90.8028 16.1165 91.5078C16.1668 91.5351 16.2113 91.572 16.2473 91.6165C16.2833 91.6611 16.3101 91.7123 16.3263 91.7672C16.3424 91.8221 16.3476 91.8797 16.3414 91.9366C16.3352 91.9935 16.3179 92.0487 16.2904 92.0989C16.2521 92.1669 16.1966 92.2236 16.1295 92.2632C16.0623 92.3029 15.9859 92.3242 15.9079 92.3249Z" fill="#1C0038"/>
<path d="M27.6945 101.139C27.6397 101.139 27.5854 101.129 27.5346 101.108C27.4839 101.087 27.4378 101.056 27.399 101.017C24.3574 98.2505 21.1117 95.7167 17.6894 93.4375C17.6409 93.4072 17.5988 93.3677 17.5655 93.3212C17.5323 93.2747 17.5085 93.2221 17.4956 93.1664C17.4827 93.1107 17.4809 93.053 17.4903 92.9966C17.4997 92.9402 17.5201 92.8862 17.5503 92.8377C17.5806 92.7892 17.6201 92.7471 17.6666 92.7138C17.7131 92.6806 17.7657 92.6568 17.8214 92.6439C17.8771 92.631 17.9348 92.6292 17.9912 92.6386C18.0476 92.648 18.1016 92.6684 18.1501 92.6986C21.2614 94.7529 24.2216 97.0275 27.0078 99.5049C26.721 98.2618 26.1386 96.0279 24.9911 92.5508C23.0614 86.7616 18.4196 82.1198 18.3761 82.0328C18.2943 81.951 18.2483 81.84 18.2483 81.7242C18.2483 81.6085 18.2943 81.4975 18.3761 81.4157C18.4579 81.3338 18.5689 81.2878 18.6847 81.2878C18.8004 81.2878 18.9114 81.3338 18.9933 81.4157C21.9866 84.5298 24.309 88.225 25.8169 92.2727C26.8113 94.9808 27.5817 97.766 28.1205 100.6C28.1315 100.688 28.1158 100.777 28.0755 100.857C28.0352 100.936 27.9722 101.001 27.8945 101.043C27.8374 101.092 27.7684 101.125 27.6945 101.139Z" fill="#1C0038"/>
<path d="M28.3037 104.651C28.2006 104.652 28.1005 104.615 28.0222 104.548C27.9438 104.481 27.8925 104.388 27.8778 104.286L27.2606 100.809C27.2509 100.752 27.2526 100.693 27.2654 100.637C27.2783 100.58 27.3022 100.527 27.3357 100.48C27.3692 100.433 27.4117 100.392 27.4607 100.362C27.5097 100.331 27.5643 100.31 27.6214 100.3C27.6784 100.291 27.7369 100.292 27.7933 100.305C27.8498 100.318 27.9031 100.342 27.9503 100.375C27.9976 100.409 28.0377 100.451 28.0685 100.5C28.0993 100.549 28.1202 100.604 28.1299 100.661L28.7384 104.138C28.7587 104.251 28.7335 104.367 28.6684 104.462C28.6033 104.556 28.5034 104.621 28.3907 104.642L28.3037 104.651Z" fill="#1C0038"/>
</svg>
