<svg width="234" height="301" viewBox="0 0 234 301" fill="none" xmlns="http://www.w3.org/2000/svg">
<circle cx="117.5" cy="35.5" r="35.5" fill="#5000A0"/>
<path d="M111.243 47.4542L101.682 37.8986C101.319 37.5352 101.115 37.0426 101.115 36.529C101.115 36.0154 101.319 35.5228 101.682 35.1593L102.843 33.9962C103.207 33.6333 103.7 33.4295 104.213 33.4295C104.727 33.4295 105.219 33.6333 105.583 33.9962L112.533 40.9422L128.902 23.5474C129.254 23.1737 129.74 22.955 130.254 22.9394C130.767 22.9237 131.265 23.1124 131.64 23.4639L132.833 24.5898C133.207 24.9421 133.426 25.4285 133.442 25.9422C133.457 26.4558 133.268 26.9547 132.916 27.3291L114.029 47.4109C113.851 47.6005 113.637 47.7523 113.399 47.8574C113.162 47.9625 112.905 48.0188 112.645 48.0228C112.385 48.0269 112.127 47.9786 111.887 47.8809C111.646 47.7832 111.427 47.6381 111.243 47.4542Z" fill="white"/>
<path d="M3.55451 295.061H0.74201L5.86275 280.515H9.11559L14.2434 295.061H11.4309L7.54599 283.498H7.43235L3.55451 295.061ZM3.64684 289.357H11.3173V291.474H3.64684V289.357ZM16.0456 299.151V284.151H18.574V285.955H18.7232C18.8558 285.69 19.0428 285.409 19.2843 285.11C19.5257 284.807 19.8525 284.549 20.2644 284.336C20.6763 284.118 21.2019 284.009 21.8411 284.009C22.6839 284.009 23.4438 284.225 24.1209 284.656C24.8027 285.082 25.3425 285.714 25.7402 286.552C26.1427 287.385 26.3439 288.408 26.3439 289.62C26.3439 290.818 26.1474 291.836 25.7544 292.674C25.3614 293.512 24.8264 294.151 24.1493 294.592C23.4722 295.032 22.7052 295.252 21.8482 295.252C21.2232 295.252 20.7047 295.148 20.2928 294.94C19.8809 294.731 19.5494 294.481 19.2985 294.187C19.0523 293.889 18.8605 293.607 18.7232 293.342H18.6167V299.151H16.0456ZM18.5669 289.606C18.5669 290.311 18.6664 290.929 18.8652 291.46C19.0688 291.99 19.36 292.404 19.7388 292.703C20.1223 292.996 20.5864 293.143 21.1309 293.143C21.699 293.143 22.1749 292.991 22.5584 292.688C22.9419 292.381 23.2308 291.962 23.4249 291.431C23.6238 290.896 23.7232 290.288 23.7232 289.606C23.7232 288.929 23.6261 288.328 23.432 287.802C23.2379 287.276 22.949 286.865 22.5655 286.566C22.182 286.268 21.7038 286.119 21.1309 286.119C20.5816 286.119 20.1152 286.263 19.7317 286.552C19.3482 286.841 19.057 287.246 18.8581 287.767C18.664 288.287 18.5669 288.901 18.5669 289.606ZM28.5456 299.151V284.151H31.074V285.955H31.2232C31.3558 285.69 31.5428 285.409 31.7843 285.11C32.0257 284.807 32.3525 284.549 32.7644 284.336C33.1763 284.118 33.7019 284.009 34.3411 284.009C35.1839 284.009 35.9438 284.225 36.6209 284.656C37.3027 285.082 37.8425 285.714 38.2402 286.552C38.6427 287.385 38.8439 288.408 38.8439 289.62C38.8439 290.818 38.6474 291.836 38.2544 292.674C37.8614 293.512 37.3264 294.151 36.6493 294.592C35.9722 295.032 35.2052 295.252 34.3482 295.252C33.7232 295.252 33.2047 295.148 32.7928 294.94C32.3809 294.731 32.0494 294.481 31.7985 294.187C31.5523 293.889 31.3605 293.607 31.2232 293.342H31.1167V299.151H28.5456ZM31.0669 289.606C31.0669 290.311 31.1664 290.929 31.3652 291.46C31.5688 291.99 31.86 292.404 32.2388 292.703C32.6223 292.996 33.0864 293.143 33.6309 293.143C34.199 293.143 34.6749 292.991 35.0584 292.688C35.4419 292.381 35.7308 291.962 35.9249 291.431C36.1238 290.896 36.2232 290.288 36.2232 289.606C36.2232 288.929 36.1261 288.328 35.932 287.802C35.7379 287.276 35.449 286.865 35.0655 286.566C34.682 286.268 34.2038 286.119 33.6309 286.119C33.0816 286.119 32.6152 286.263 32.2317 286.552C31.8482 286.841 31.557 287.246 31.3581 287.767C31.164 288.287 31.0669 288.901 31.0669 289.606ZM45.8042 295.274C44.7388 295.274 43.8155 295.039 43.0343 294.57C42.253 294.102 41.647 293.446 41.2161 292.603C40.79 291.76 40.5769 290.776 40.5769 289.649C40.5769 288.522 40.79 287.535 41.2161 286.687C41.647 285.839 42.253 285.181 43.0343 284.713C43.8155 284.244 44.7388 284.009 45.8042 284.009C46.8695 284.009 47.7928 284.244 48.574 284.713C49.3553 285.181 49.959 285.839 50.3851 286.687C50.816 287.535 51.0314 288.522 51.0314 289.649C51.0314 290.776 50.816 291.76 50.3851 292.603C49.959 293.446 49.3553 294.102 48.574 294.57C47.7928 295.039 46.8695 295.274 45.8042 295.274ZM45.8184 293.214C46.396 293.214 46.879 293.055 47.2672 292.738C47.6555 292.416 47.9443 291.985 48.1337 291.445C48.3278 290.906 48.4249 290.304 48.4249 289.642C48.4249 288.974 48.3278 288.37 48.1337 287.83C47.9443 287.286 47.6555 286.853 47.2672 286.531C46.879 286.209 46.396 286.048 45.8184 286.048C45.2265 286.048 44.7341 286.209 44.3411 286.531C43.9528 286.853 43.6616 287.286 43.4675 287.83C43.2781 288.37 43.1834 288.974 43.1834 289.642C43.1834 290.304 43.2781 290.906 43.4675 291.445C43.6616 291.985 43.9528 292.416 44.3411 292.738C44.7341 293.055 45.2265 293.214 45.8184 293.214ZM53.2136 295.061V284.151H55.7846V295.061H53.2136ZM54.5062 282.603C54.099 282.603 53.7486 282.468 53.4551 282.198C53.1615 281.924 53.0147 281.595 53.0147 281.211C53.0147 280.823 53.1615 280.494 53.4551 280.224C53.7486 279.949 54.099 279.812 54.5062 279.812C54.9181 279.812 55.2685 279.949 55.5574 280.224C55.8509 280.494 55.9977 280.823 55.9977 281.211C55.9977 281.595 55.8509 281.924 55.5574 282.198C55.2685 282.468 54.9181 282.603 54.5062 282.603ZM60.9995 288.669V295.061H58.4284V284.151H60.8858V286.005H61.0137C61.2646 285.394 61.6647 284.909 62.214 284.549C62.7679 284.189 63.4521 284.009 64.2665 284.009C65.0194 284.009 65.6751 284.17 66.2338 284.492C66.7973 284.814 67.2329 285.281 67.5407 285.892C67.8532 286.502 68.007 287.243 68.0023 288.115V295.061H65.4313V288.512C65.4313 287.783 65.2419 287.213 64.8631 286.801C64.4891 286.389 63.9706 286.183 63.3077 286.183C62.8579 286.183 62.4578 286.282 62.1074 286.481C61.7618 286.675 61.4895 286.957 61.2907 287.326C61.0965 287.695 60.9995 288.143 60.9995 288.669ZM76.0634 284.151V286.14H69.7921V284.151H76.0634ZM71.3404 281.538H73.9114V291.779C73.9114 292.125 73.9635 292.39 74.0676 292.575C74.1766 292.755 74.3186 292.878 74.4938 292.944C74.669 293.01 74.8631 293.044 75.0762 293.044C75.2372 293.044 75.3839 293.032 75.5165 293.008C75.6538 292.984 75.758 292.963 75.829 292.944L76.2623 294.954C76.1249 295.001 75.9284 295.053 75.6728 295.11C75.4218 295.167 75.1141 295.2 74.7495 295.21C74.1055 295.229 73.5255 295.132 73.0094 294.919C72.4933 294.701 72.0837 294.365 71.7807 293.91C71.4824 293.455 71.3356 292.887 71.3404 292.205V281.538ZM78.2136 295.061V284.151H80.671V286.005H80.7988C81.0261 285.38 81.4025 284.892 81.9281 284.542C82.4537 284.187 83.081 284.009 83.8102 284.009C84.5488 284.009 85.1715 284.189 85.6781 284.549C86.1895 284.904 86.5493 285.39 86.7576 286.005H86.8713C87.1127 285.399 87.5199 284.916 88.0929 284.556C88.6705 284.192 89.3547 284.009 90.1454 284.009C91.1492 284.009 91.9683 284.327 92.6028 284.961C93.2373 285.596 93.5545 286.521 93.5545 287.738V295.061H90.9764V288.136C90.9764 287.459 90.7965 286.964 90.4366 286.651C90.0768 286.334 89.6364 286.176 89.1156 286.176C88.4953 286.176 88.01 286.37 87.6596 286.758C87.314 287.142 87.1412 287.641 87.1412 288.257V295.061H84.6199V288.029C84.6199 287.466 84.4494 287.016 84.1085 286.68C83.7723 286.344 83.332 286.176 82.7875 286.176C82.4181 286.176 82.082 286.27 81.7789 286.46C81.4759 286.644 81.2344 286.907 81.0545 287.248C80.8746 287.584 80.7846 287.977 80.7846 288.427V295.061H78.2136ZM100.992 295.274C99.8986 295.274 98.954 295.046 98.1586 294.592C97.3678 294.133 96.7594 293.484 96.3333 292.646C95.9071 291.803 95.6941 290.811 95.6941 289.67C95.6941 288.548 95.9071 287.563 96.3333 286.715C96.7641 285.863 97.3655 285.2 98.1373 284.727C98.909 284.249 99.8158 284.009 100.857 284.009C101.53 284.009 102.164 284.118 102.761 284.336C103.362 284.549 103.892 284.881 104.352 285.33C104.816 285.78 105.18 286.353 105.445 287.049C105.711 287.74 105.843 288.564 105.843 289.521V290.309H96.9015V288.576H103.379C103.374 288.084 103.267 287.646 103.059 287.262C102.851 286.874 102.56 286.569 102.186 286.346C101.816 286.124 101.385 286.012 100.893 286.012C100.367 286.012 99.9057 286.14 99.508 286.396C99.1103 286.647 98.8001 286.978 98.5776 287.39C98.3598 287.797 98.2485 288.245 98.2438 288.732V290.245C98.2438 290.88 98.3598 291.424 98.5918 291.879C98.8238 292.329 99.1481 292.674 99.5648 292.916C99.9815 293.152 100.469 293.271 101.028 293.271C101.402 293.271 101.74 293.219 102.044 293.115C102.347 293.006 102.609 292.847 102.832 292.639C103.054 292.43 103.222 292.172 103.336 291.865L105.737 292.134C105.585 292.769 105.296 293.323 104.87 293.796C104.449 294.265 103.909 294.63 103.251 294.89C102.593 295.146 101.84 295.274 100.992 295.274ZM110.589 288.669V295.061H108.018V284.151H110.476V286.005H110.604C110.854 285.394 111.255 284.909 111.804 284.549C112.358 284.189 113.042 284.009 113.856 284.009C114.609 284.009 115.265 284.17 115.824 284.492C116.387 284.814 116.823 285.281 117.131 285.892C117.443 286.502 117.597 287.243 117.592 288.115V295.061H115.021V288.512C115.021 287.783 114.832 287.213 114.453 286.801C114.079 286.389 113.56 286.183 112.898 286.183C112.448 286.183 112.048 286.282 111.697 286.481C111.352 286.675 111.079 286.957 110.881 287.326C110.686 287.695 110.589 288.143 110.589 288.669ZM125.653 284.151V286.14H119.382V284.151H125.653ZM120.93 281.538H123.501V291.779C123.501 292.125 123.553 292.39 123.657 292.575C123.766 292.755 123.908 292.878 124.084 292.944C124.259 293.01 124.453 293.044 124.666 293.044C124.827 293.044 124.974 293.032 125.106 293.008C125.244 292.984 125.348 292.963 125.419 292.944L125.852 294.954C125.715 295.001 125.518 295.053 125.263 295.11C125.012 295.167 124.704 295.2 124.339 295.21C123.695 295.229 123.115 295.132 122.599 294.919C122.083 294.701 121.674 294.365 121.371 293.91C121.072 293.455 120.925 292.887 120.93 292.205V281.538ZM145.328 285.423H142.672C142.596 284.987 142.457 284.601 142.253 284.265C142.049 283.924 141.796 283.635 141.493 283.399C141.19 283.162 140.844 282.984 140.456 282.866C140.073 282.743 139.658 282.681 139.213 282.681C138.423 282.681 137.722 282.88 137.111 283.278C136.5 283.671 136.022 284.249 135.676 285.011C135.331 285.768 135.158 286.694 135.158 287.788C135.158 288.901 135.331 289.838 135.676 290.6C136.027 291.358 136.505 291.931 137.111 292.319C137.722 292.703 138.42 292.894 139.206 292.894C139.642 292.894 140.049 292.838 140.428 292.724C140.811 292.606 141.155 292.433 141.458 292.205C141.765 291.978 142.023 291.699 142.232 291.367C142.445 291.036 142.592 290.657 142.672 290.231L145.328 290.245C145.229 290.936 145.013 291.585 144.682 292.191C144.355 292.797 143.927 293.332 143.396 293.796C142.866 294.256 142.246 294.615 141.536 294.876C140.825 295.132 140.037 295.259 139.171 295.259C137.892 295.259 136.751 294.963 135.747 294.372C134.744 293.78 133.953 292.925 133.375 291.808C132.798 290.69 132.509 289.35 132.509 287.788C132.509 286.221 132.8 284.881 133.382 283.768C133.965 282.651 134.758 281.796 135.762 281.204C136.765 280.612 137.902 280.316 139.171 280.316C139.98 280.316 140.733 280.43 141.429 280.657C142.125 280.884 142.745 281.218 143.29 281.659C143.834 282.094 144.282 282.629 144.632 283.264C144.987 283.893 145.219 284.613 145.328 285.423ZM152.386 295.274C151.321 295.274 150.398 295.039 149.616 294.57C148.835 294.102 148.229 293.446 147.798 292.603C147.372 291.76 147.159 290.776 147.159 289.649C147.159 288.522 147.372 287.535 147.798 286.687C148.229 285.839 148.835 285.181 149.616 284.713C150.398 284.244 151.321 284.009 152.386 284.009C153.452 284.009 154.375 284.244 155.156 284.713C155.937 285.181 156.541 285.839 156.967 286.687C157.398 287.535 157.613 288.522 157.613 289.649C157.613 290.776 157.398 291.76 156.967 292.603C156.541 293.446 155.937 294.102 155.156 294.57C154.375 295.039 153.452 295.274 152.386 295.274ZM152.4 293.214C152.978 293.214 153.461 293.055 153.849 292.738C154.238 292.416 154.526 291.985 154.716 291.445C154.91 290.906 155.007 290.304 155.007 289.642C155.007 288.974 154.91 288.37 154.716 287.83C154.526 287.286 154.238 286.853 153.849 286.531C153.461 286.209 152.978 286.048 152.4 286.048C151.809 286.048 151.316 286.209 150.923 286.531C150.535 286.853 150.244 287.286 150.05 287.83C149.86 288.37 149.765 288.974 149.765 289.642C149.765 290.304 149.86 290.906 150.05 291.445C150.244 291.985 150.535 292.416 150.923 292.738C151.316 293.055 151.809 293.214 152.4 293.214ZM162.367 288.669V295.061H159.796V284.151H162.253V286.005H162.381C162.632 285.394 163.032 284.909 163.581 284.549C164.135 284.189 164.819 284.009 165.634 284.009C166.387 284.009 167.042 284.17 167.601 284.492C168.164 284.814 168.6 285.281 168.908 285.892C169.22 286.502 169.374 287.243 169.369 288.115V295.061H166.798V288.512C166.798 287.783 166.609 287.213 166.23 286.801C165.856 286.389 165.338 286.183 164.675 286.183C164.225 286.183 163.825 286.282 163.475 286.481C163.129 286.675 162.857 286.957 162.658 287.326C162.464 287.695 162.367 288.143 162.367 288.669ZM177.509 284.151V286.14H171.06V284.151H177.509ZM172.672 295.061V283.122C172.672 282.388 172.824 281.777 173.127 281.289C173.434 280.802 173.846 280.437 174.362 280.195C174.878 279.954 175.451 279.833 176.081 279.833C176.526 279.833 176.922 279.869 177.267 279.94C177.613 280.011 177.869 280.075 178.034 280.132L177.523 282.12C177.414 282.087 177.277 282.054 177.111 282.021C176.945 281.983 176.761 281.964 176.557 281.964C176.079 281.964 175.74 282.08 175.541 282.312C175.347 282.539 175.25 282.866 175.25 283.292V295.061H172.672ZM179.522 295.061V284.151H182.093V295.061H179.522ZM180.815 282.603C180.408 282.603 180.057 282.468 179.764 282.198C179.47 281.924 179.323 281.595 179.323 281.211C179.323 280.823 179.47 280.494 179.764 280.224C180.057 279.949 180.408 279.812 180.815 279.812C181.227 279.812 181.577 279.949 181.866 280.224C182.16 280.494 182.306 280.823 182.306 281.211C182.306 281.595 182.16 281.924 181.866 282.198C181.577 282.468 181.227 282.603 180.815 282.603ZM184.737 295.061V284.151H187.23V285.97H187.344C187.542 285.34 187.883 284.855 188.366 284.514C188.854 284.168 189.41 283.995 190.035 283.995C190.177 283.995 190.336 284.002 190.511 284.017C190.691 284.026 190.84 284.043 190.959 284.066V286.431C190.85 286.393 190.677 286.36 190.44 286.332C190.208 286.299 189.983 286.282 189.765 286.282C189.297 286.282 188.875 286.384 188.501 286.588C188.132 286.786 187.841 287.063 187.628 287.419C187.415 287.774 187.308 288.183 187.308 288.647V295.061H184.737ZM192.667 295.061V284.151H195.124V286.005H195.252C195.479 285.38 195.856 284.892 196.381 284.542C196.907 284.187 197.534 284.009 198.263 284.009C199.002 284.009 199.625 284.189 200.131 284.549C200.643 284.904 201.002 285.39 201.211 286.005H201.324C201.566 285.399 201.973 284.916 202.546 284.556C203.124 284.192 203.808 284.009 204.599 284.009C205.602 284.009 206.421 284.327 207.056 284.961C207.69 285.596 208.008 286.521 208.008 287.738V295.061H205.43V288.136C205.43 287.459 205.25 286.964 204.89 286.651C204.53 286.334 204.09 286.176 203.569 286.176C202.948 286.176 202.463 286.37 202.113 286.758C201.767 287.142 201.594 287.641 201.594 288.257V295.061H199.073V288.029C199.073 287.466 198.903 287.016 198.562 286.68C198.225 286.344 197.785 286.176 197.241 286.176C196.871 286.176 196.535 286.27 196.232 286.46C195.929 286.644 195.688 286.907 195.508 287.248C195.328 287.584 195.238 287.977 195.238 288.427V295.061H192.667ZM215.445 295.274C214.352 295.274 213.407 295.046 212.612 294.592C211.821 294.133 211.213 293.484 210.786 292.646C210.36 291.803 210.147 290.811 210.147 289.67C210.147 288.548 210.36 287.563 210.786 286.715C211.217 285.863 211.819 285.2 212.59 284.727C213.362 284.249 214.269 284.009 215.311 284.009C215.983 284.009 216.617 284.118 217.214 284.336C217.815 284.549 218.346 284.881 218.805 285.33C219.269 285.78 219.633 286.353 219.899 287.049C220.164 287.74 220.296 288.564 220.296 289.521V290.309H211.355V288.576H217.832C217.827 288.084 217.721 287.646 217.512 287.262C217.304 286.874 217.013 286.569 216.639 286.346C216.269 286.124 215.838 286.012 215.346 286.012C214.82 286.012 214.359 286.14 213.961 286.396C213.563 286.647 213.253 286.978 213.031 287.39C212.813 287.797 212.702 288.245 212.697 288.732V290.245C212.697 290.88 212.813 291.424 213.045 291.879C213.277 292.329 213.601 292.674 214.018 292.916C214.435 293.152 214.922 293.271 215.481 293.271C215.855 293.271 216.194 293.219 216.497 293.115C216.8 293.006 217.062 292.847 217.285 292.639C217.508 292.43 217.676 292.172 217.789 291.865L220.19 292.134C220.038 292.769 219.749 293.323 219.323 293.796C218.902 294.265 218.362 294.63 217.704 294.89C217.046 295.146 216.293 295.274 215.445 295.274ZM226.52 295.252C225.663 295.252 224.896 295.032 224.219 294.592C223.541 294.151 223.006 293.512 222.613 292.674C222.22 291.836 222.024 290.818 222.024 289.62C222.024 288.408 222.223 287.385 222.621 286.552C223.023 285.714 223.565 285.082 224.247 284.656C224.929 284.225 225.689 284.009 226.527 284.009C227.166 284.009 227.692 284.118 228.104 284.336C228.515 284.549 228.842 284.807 229.084 285.11C229.325 285.409 229.512 285.69 229.645 285.955H229.751V280.515H232.329V295.061H229.801V293.342H229.645C229.512 293.607 229.32 293.889 229.069 294.187C228.818 294.481 228.487 294.731 228.075 294.94C227.663 295.148 227.145 295.252 226.52 295.252ZM227.237 293.143C227.782 293.143 228.246 292.996 228.629 292.703C229.013 292.404 229.304 291.99 229.503 291.46C229.702 290.929 229.801 290.311 229.801 289.606C229.801 288.901 229.702 288.287 229.503 287.767C229.309 287.246 229.02 286.841 228.636 286.552C228.257 286.263 227.791 286.119 227.237 286.119C226.664 286.119 226.186 286.268 225.802 286.566C225.419 286.865 225.13 287.276 224.936 287.802C224.742 288.328 224.645 288.929 224.645 289.606C224.645 290.288 224.742 290.896 224.936 291.431C225.135 291.962 225.426 292.381 225.809 292.688C226.198 292.991 226.674 293.143 227.237 293.143Z" fill="#1F043A"/>
<path d="M117.098 250.061C165.201 250.061 204.197 245.522 204.197 239.923C204.197 234.324 165.201 229.785 117.098 229.785C68.9952 229.785 30 234.324 30 239.923C30 245.522 68.9952 250.061 117.098 250.061Z" fill="#AC92E3"/>
<path opacity="0.5" d="M117.098 250.061C165.201 250.061 204.197 245.522 204.197 239.923C204.197 234.324 165.201 229.785 117.098 229.785C68.9952 229.785 30 234.324 30 239.923C30 245.522 68.9952 250.061 117.098 250.061Z" fill="white"/>
<path d="M174.77 177.543C175.601 177.908 177.635 177.863 177.639 177.863C177.643 177.863 177.199 176.53 177.162 176.447C176.717 175.513 175.306 173.956 174.156 174.126C173.966 174.157 173.784 174.228 173.623 174.333C173.463 174.439 173.326 174.578 173.222 174.74C173.118 174.902 173.05 175.084 173.021 175.275C172.992 175.465 173.004 175.659 173.056 175.845C173.247 176.642 174.06 177.236 174.77 177.543Z" fill="#AC92E3"/>
<path d="M201.427 170.618C200.272 170.493 198.902 172.071 198.483 173.018C198.446 173.101 198.022 174.442 198.043 174.442H198.068C197.852 174.691 197.62 174.96 197.375 175.272C196.922 175.828 196.42 176.459 195.913 177.181C195.363 177.954 194.859 178.758 194.402 179.589C193.886 180.518 193.454 181.49 193.111 182.495C193.111 182.495 193.111 182.52 193.111 182.533C193.111 182.192 193.111 181.242 193.111 181.171C192.978 180.142 192.119 178.236 190.977 178.024C190.787 177.996 190.593 178.007 190.408 178.058C190.222 178.109 190.049 178.198 189.9 178.319C189.751 178.441 189.63 178.592 189.543 178.764C189.456 178.935 189.406 179.123 189.396 179.315C189.329 180.146 189.923 180.947 190.496 181.466C191.147 182.043 192.953 182.607 193.099 182.653C192.773 183.683 192.517 184.735 192.335 185.8C192.223 186.423 192.131 187.045 192.048 187.681C192.048 187.386 192.048 187.124 192.048 187.087C191.915 186.062 191.056 184.156 189.914 183.944C189.724 183.914 189.53 183.925 189.344 183.975C189.158 184.025 188.984 184.114 188.835 184.236C188.686 184.358 188.564 184.51 188.477 184.682C188.391 184.854 188.341 185.043 188.333 185.235C188.266 186.066 188.856 186.867 189.433 187.382C190.01 187.896 191.55 188.415 191.957 188.544C191.924 188.789 191.895 189.03 191.866 189.271C191.724 190.433 191.592 191.595 191.426 192.733C191.367 193.148 191.293 193.526 191.222 193.916C191.222 193.655 191.222 193.435 191.222 193.401C191.089 192.376 190.23 190.47 189.088 190.259C188.898 190.229 188.704 190.24 188.518 190.291C188.332 190.342 188.159 190.431 188.01 190.552C187.861 190.674 187.739 190.826 187.652 190.998C187.566 191.169 187.516 191.358 187.507 191.55C187.44 192.38 188.03 193.181 188.607 193.696C189.184 194.211 190.575 194.68 191.056 194.838C190.969 195.253 190.886 195.635 190.786 196.021C190.712 196.278 190.658 196.536 190.57 196.793C190.483 197.051 190.404 197.304 190.325 197.557C190.151 198.034 189.973 198.528 189.794 198.993C189.67 199.313 189.545 199.62 189.42 199.928C189.483 199.512 189.591 198.748 189.591 198.682C189.579 197.772 189.333 196.88 188.877 196.092C188.887 195.991 188.887 195.889 188.877 195.788C188.852 195.599 188.789 195.417 188.69 195.253C188.591 195.09 188.46 194.949 188.304 194.839C188.147 194.729 187.97 194.653 187.783 194.616C187.595 194.578 187.402 194.581 187.216 194.622C186.095 194.921 185.385 196.889 185.331 197.922C185.331 197.985 185.369 198.649 185.402 199.068C185.344 198.823 185.294 198.587 185.232 198.337C185.115 197.843 184.982 197.349 184.845 196.822C184.767 196.569 184.688 196.312 184.613 196.054C184.538 195.797 184.43 195.535 184.339 195.27C184.119 194.668 183.866 194.061 183.596 193.459C184.011 193.356 185.564 192.965 186.182 192.492C186.801 192.019 187.428 191.247 187.428 190.416C187.433 190.224 187.398 190.032 187.324 189.855C187.25 189.677 187.14 189.516 187 189.384C186.86 189.251 186.694 189.15 186.512 189.086C186.331 189.022 186.138 188.997 185.946 189.013C184.792 189.138 183.791 190.973 183.583 191.986C183.583 192.052 183.5 192.795 183.471 193.206C183.305 192.845 183.143 192.484 182.965 192.123C182.45 191.085 181.898 190.047 181.35 189.017C181.18 188.702 181.018 188.386 180.852 188.067C181.005 188.033 182.84 187.606 183.529 187.079C184.144 186.605 184.796 185.833 184.775 185.003C184.78 184.81 184.745 184.619 184.671 184.44C184.598 184.262 184.487 184.102 184.347 183.969C184.208 183.836 184.042 183.734 183.86 183.67C183.678 183.606 183.485 183.58 183.293 183.596C182.139 183.72 181.138 185.559 180.931 186.572C180.931 186.647 180.819 187.718 180.806 187.992C180.441 187.295 180.088 186.593 179.764 185.891C179.325 184.948 178.948 183.977 178.635 182.985C178.705 182.985 180.623 182.533 181.329 181.989C181.944 181.52 182.575 180.743 182.575 179.913C182.58 179.721 182.545 179.529 182.471 179.351C182.397 179.173 182.287 179.013 182.147 178.88C182.007 178.748 181.841 178.647 181.659 178.583C181.478 178.519 181.284 178.494 181.093 178.51C179.938 178.635 178.942 180.469 178.73 181.487C178.73 181.565 178.61 182.732 178.606 182.927C178.606 182.869 178.564 182.811 178.548 182.753C178.261 181.744 178.065 180.712 177.962 179.668C177.896 179.091 177.867 178.539 177.85 178.008C178.216 177.962 179.88 177.742 180.574 177.323C181.267 176.903 181.964 176.227 182.047 175.413C182.075 175.218 182.06 175.019 182.004 174.83C181.947 174.642 181.85 174.467 181.72 174.32C181.59 174.172 181.43 174.054 181.25 173.974C181.07 173.894 180.874 173.854 180.677 173.856C179.519 173.856 178.319 175.567 178.004 176.555C177.983 176.604 177.867 177.169 177.788 177.584C177.788 177.339 177.788 177.086 177.788 176.854C177.788 175.978 177.842 175.193 177.9 174.462C177.933 174.047 177.971 173.694 178.012 173.354C178.348 173.125 179.673 172.179 180.088 171.502C180.503 170.826 180.819 169.887 180.503 169.128C180.438 168.946 180.336 168.781 180.203 168.641C180.07 168.502 179.909 168.392 179.731 168.319C179.553 168.246 179.362 168.211 179.169 168.216C178.977 168.222 178.788 168.268 178.614 168.351C177.605 168.874 177.335 170.95 177.522 171.988C177.522 172.075 177.937 173.429 177.937 173.416C177.892 173.74 177.85 174.093 177.809 174.479C177.738 175.189 177.663 175.99 177.643 176.87C177.61 177.819 177.632 178.768 177.709 179.714C177.793 180.773 177.969 181.824 178.236 182.852V182.89C178.054 182.603 177.518 181.819 177.468 181.761C176.792 180.98 175.023 179.863 173.956 180.316C173.781 180.396 173.624 180.512 173.497 180.657C173.369 180.802 173.274 180.971 173.216 181.155C173.158 181.339 173.14 181.534 173.163 181.725C173.185 181.917 173.247 182.101 173.346 182.267C173.74 182.985 174.687 183.338 175.451 183.45C176.314 183.575 178.128 183.035 178.274 183.006C178.573 184.045 178.94 185.063 179.374 186.053C179.627 186.634 179.897 187.207 180.171 187.78C180.009 187.539 179.855 187.324 179.835 187.295C179.154 186.51 177.385 185.397 176.318 185.85C176.143 185.93 175.987 186.046 175.86 186.19C175.733 186.335 175.638 186.504 175.581 186.688C175.524 186.872 175.506 187.065 175.528 187.256C175.551 187.447 175.614 187.632 175.712 187.797C176.107 188.515 177.049 188.872 177.813 188.98C178.577 189.088 180.15 188.677 180.557 188.565C180.669 188.785 180.773 189.005 180.885 189.221C181.408 190.267 181.939 191.297 182.425 192.351C182.6 192.716 182.753 193.082 182.911 193.447C182.766 193.235 182.637 193.053 182.616 193.032C181.939 192.247 180.171 191.135 179.104 191.587C178.929 191.667 178.772 191.784 178.645 191.928C178.517 192.073 178.421 192.243 178.364 192.427C178.306 192.611 178.288 192.805 178.31 192.996C178.333 193.188 178.395 193.373 178.494 193.538C178.888 194.252 179.835 194.609 180.599 194.722C181.362 194.834 182.782 194.456 183.268 194.306C183.417 194.688 183.571 195.066 183.683 195.444C183.762 195.701 183.862 195.942 183.928 196.208C183.994 196.473 184.073 196.723 184.144 196.98C184.26 197.474 184.389 197.985 184.493 198.47C184.567 198.807 184.63 199.13 184.696 199.454C184.53 199.089 184.19 198.379 184.152 198.325C183.6 197.449 182.022 196.079 180.897 196.366C180.712 196.418 180.541 196.509 180.393 196.632C180.245 196.755 180.125 196.908 180.041 197.081C179.956 197.254 179.909 197.442 179.902 197.634C179.895 197.827 179.929 198.018 180.001 198.196C180.283 198.969 181.163 199.442 181.902 199.687C182.732 199.936 184.518 199.707 184.742 199.687C184.85 200.226 184.949 200.75 185.036 201.248C185.34 202.966 185.53 204.415 185.647 205.424C185.647 205.607 185.684 205.765 185.701 205.918H182.209L183.484 230.777H189.429L190.703 205.918H187.486L187.561 205.769C188.005 204.839 188.623 203.502 189.292 201.87C189.503 201.351 189.707 200.799 189.939 200.21C190.155 200.255 191.94 200.625 192.771 200.43C193.526 200.26 194.431 199.832 194.776 199.085C194.862 198.913 194.91 198.724 194.918 198.532C194.926 198.34 194.893 198.148 194.822 197.969C194.751 197.79 194.642 197.629 194.504 197.495C194.366 197.361 194.201 197.257 194.02 197.192C192.92 196.822 191.243 198.068 190.629 198.902C190.591 198.952 190.259 199.529 190.056 199.894C190.143 199.662 190.23 199.433 190.317 199.193C190.492 198.715 190.653 198.234 190.828 197.715C190.903 197.462 190.981 197.204 191.056 196.947C191.131 196.689 191.193 196.411 191.264 196.146C191.413 195.514 191.534 194.875 191.641 194.223C192.057 194.377 193.555 194.896 194.332 194.842C195.108 194.788 196.071 194.502 196.515 193.817C196.625 193.659 196.701 193.48 196.738 193.291C196.774 193.102 196.771 192.907 196.727 192.72C196.684 192.532 196.601 192.356 196.486 192.202C196.37 192.049 196.223 191.921 196.055 191.828C195.025 191.297 193.178 192.276 192.443 193.007C192.397 193.053 191.932 193.634 191.679 193.962C191.741 193.572 191.803 193.177 191.853 192.783C191.994 191.633 192.106 190.462 192.219 189.3C192.252 188.943 192.293 188.586 192.331 188.233C192.476 188.287 194.24 188.943 195.112 188.885C195.88 188.831 196.847 188.544 197.296 187.859C197.407 187.702 197.483 187.522 197.52 187.333C197.557 187.144 197.553 186.95 197.51 186.762C197.466 186.574 197.384 186.398 197.267 186.244C197.151 186.091 197.004 185.963 196.835 185.871C195.805 185.339 193.958 186.319 193.223 187.05C193.169 187.104 192.497 187.946 192.335 188.166C192.418 187.382 192.509 186.605 192.63 185.837C192.785 184.804 193.008 183.782 193.298 182.778C193.364 182.803 195.203 183.496 196.092 183.434C196.864 183.38 197.831 183.097 198.28 182.412C198.39 182.255 198.466 182.075 198.502 181.886C198.539 181.698 198.535 181.503 198.492 181.316C198.448 181.128 198.366 180.952 198.25 180.798C198.134 180.645 197.987 180.517 197.819 180.424C196.785 179.892 194.938 180.872 194.207 181.603C194.149 181.657 193.427 182.562 193.306 182.736C193.306 182.678 193.335 182.616 193.352 182.558C193.671 181.556 194.076 180.583 194.564 179.652C194.83 179.137 195.112 178.659 195.394 178.199C195.722 178.365 197.238 179.095 198.043 179.129C198.848 179.162 199.807 178.983 200.326 178.352C200.454 178.208 200.55 178.038 200.608 177.854C200.665 177.671 200.683 177.477 200.66 177.285C200.638 177.094 200.575 176.91 200.476 176.744C200.377 176.579 200.244 176.437 200.086 176.326C199.122 175.683 197.18 176.455 196.37 177.098C196.324 177.136 195.918 177.543 195.623 177.842C195.756 177.634 195.884 177.426 196.017 177.227C196.499 176.496 196.989 175.857 197.429 175.297C197.678 174.977 197.914 174.695 198.134 174.433C198.55 174.433 200.181 174.375 200.899 174.039C201.618 173.703 202.398 173.096 202.56 172.299C202.605 172.114 202.611 171.921 202.578 171.733C202.544 171.545 202.472 171.366 202.365 171.208C202.258 171.05 202.12 170.915 201.958 170.814C201.797 170.712 201.615 170.645 201.427 170.618ZM188.665 201.584C187.967 203.186 187.324 204.49 186.863 205.407C186.772 205.59 186.689 205.752 186.61 205.902H186.535C186.51 205.723 186.485 205.528 186.456 205.312C186.315 204.291 186.095 202.821 185.751 201.102C185.643 200.559 185.518 199.973 185.381 199.375C185.923 199.158 186.453 198.91 186.967 198.632C187.561 199.276 189.08 200.027 189.279 200.123C189.072 200.629 188.864 201.123 188.665 201.584Z" fill="#AC92E3"/>
<path d="M195.374 178.008C195.374 178.008 195.743 176.654 195.756 176.567C195.897 175.542 195.569 173.474 194.51 172.972C194.334 172.893 194.144 172.852 193.951 172.852C193.758 172.852 193.567 172.892 193.391 172.97C193.215 173.049 193.057 173.163 192.928 173.307C192.799 173.45 192.702 173.619 192.642 173.802C192.364 174.57 192.717 175.517 193.14 176.164C193.626 176.907 195.349 178.008 195.374 178.008Z" fill="#AC92E3"/>
<g opacity="0.5">
<path d="M174.77 177.543C175.601 177.908 177.635 177.863 177.639 177.863C177.643 177.863 177.199 176.53 177.162 176.447C176.717 175.513 175.306 173.956 174.156 174.126C173.966 174.157 173.785 174.228 173.624 174.333C173.463 174.439 173.326 174.578 173.222 174.74C173.118 174.902 173.05 175.084 173.021 175.275C172.993 175.465 173.004 175.659 173.056 175.845C173.247 176.642 174.061 177.236 174.77 177.543Z" fill="white"/>
<path d="M201.427 170.618C200.273 170.493 198.903 172.071 198.483 173.018C198.446 173.101 198.022 174.442 198.043 174.442H198.068C197.852 174.691 197.62 174.96 197.375 175.272C196.922 175.828 196.42 176.459 195.913 177.181C195.363 177.954 194.859 178.758 194.402 179.589C193.886 180.518 193.454 181.49 193.111 182.495C193.111 182.495 193.111 182.52 193.111 182.533C193.111 182.192 193.111 181.242 193.111 181.171C192.978 180.142 192.119 178.236 190.977 178.024C190.787 177.996 190.593 178.007 190.408 178.058C190.222 178.109 190.049 178.198 189.9 178.319C189.752 178.441 189.63 178.592 189.543 178.764C189.456 178.935 189.406 179.123 189.396 179.315C189.329 180.146 189.923 180.947 190.496 181.466C191.148 182.043 192.953 182.607 193.099 182.653C192.773 183.683 192.517 184.735 192.335 185.8C192.223 186.423 192.131 187.045 192.048 187.681C192.048 187.386 192.048 187.124 192.048 187.087C191.916 186.062 191.056 184.156 189.915 183.944C189.724 183.914 189.53 183.925 189.344 183.975C189.158 184.025 188.984 184.114 188.835 184.236C188.686 184.358 188.564 184.51 188.477 184.682C188.391 184.854 188.342 185.043 188.333 185.235C188.266 186.066 188.856 186.867 189.433 187.382C190.01 187.896 191.55 188.415 191.957 188.544C191.924 188.789 191.895 189.03 191.866 189.271C191.725 190.433 191.592 191.595 191.426 192.733C191.368 193.148 191.293 193.526 191.222 193.916C191.222 193.655 191.222 193.435 191.222 193.401C191.089 192.376 190.23 190.47 189.088 190.259C188.898 190.229 188.704 190.24 188.518 190.291C188.332 190.342 188.159 190.431 188.01 190.552C187.861 190.674 187.739 190.826 187.653 190.998C187.566 191.169 187.516 191.358 187.507 191.55C187.44 192.38 188.03 193.181 188.607 193.696C189.184 194.211 190.575 194.68 191.056 194.838C190.969 195.253 190.886 195.635 190.786 196.021C190.712 196.278 190.658 196.536 190.571 196.793C190.483 197.051 190.404 197.304 190.326 197.557C190.151 198.034 189.973 198.528 189.794 198.993C189.67 199.313 189.545 199.62 189.421 199.928C189.483 199.512 189.591 198.748 189.591 198.682C189.579 197.772 189.333 196.88 188.877 196.092C188.887 195.991 188.887 195.889 188.877 195.788C188.852 195.599 188.789 195.417 188.69 195.253C188.592 195.09 188.46 194.949 188.304 194.839C188.147 194.729 187.97 194.653 187.783 194.616C187.595 194.578 187.403 194.581 187.216 194.622C186.095 194.921 185.385 196.889 185.331 197.922C185.331 197.985 185.369 198.649 185.402 199.068C185.344 198.823 185.294 198.587 185.232 198.337C185.115 197.843 184.983 197.349 184.846 196.822C184.767 196.569 184.688 196.312 184.613 196.054C184.538 195.797 184.43 195.535 184.339 195.27C184.119 194.668 183.866 194.061 183.596 193.459C184.011 193.356 185.564 192.965 186.182 192.492C186.801 192.019 187.428 191.247 187.428 190.416C187.433 190.224 187.398 190.032 187.324 189.855C187.25 189.677 187.14 189.516 187 189.384C186.86 189.251 186.694 189.15 186.513 189.086C186.331 189.022 186.138 188.997 185.946 189.013C184.792 189.138 183.791 190.973 183.584 191.986C183.584 192.052 183.501 192.795 183.471 193.206C183.305 192.845 183.143 192.484 182.965 192.123C182.45 191.085 181.898 190.047 181.35 189.017C181.18 188.702 181.018 188.386 180.852 188.067C181.005 188.033 182.84 187.606 183.53 187.079C184.144 186.605 184.796 185.833 184.775 185.003C184.78 184.81 184.745 184.619 184.671 184.44C184.598 184.262 184.487 184.102 184.348 183.969C184.208 183.836 184.042 183.734 183.86 183.67C183.678 183.606 183.485 183.58 183.293 183.596C182.139 183.72 181.138 185.559 180.931 186.572C180.931 186.647 180.819 187.718 180.806 187.992C180.441 187.295 180.088 186.593 179.764 185.891C179.326 184.948 178.948 183.977 178.635 182.985C178.706 182.985 180.624 182.533 181.329 181.989C181.944 181.52 182.575 180.743 182.575 179.913C182.58 179.721 182.545 179.529 182.471 179.351C182.397 179.173 182.287 179.013 182.147 178.88C182.007 178.748 181.841 178.647 181.659 178.583C181.478 178.519 181.285 178.494 181.093 178.51C179.939 178.635 178.942 180.469 178.73 181.487C178.73 181.565 178.61 182.732 178.606 182.927C178.606 182.869 178.564 182.811 178.548 182.753C178.261 181.744 178.066 180.712 177.962 179.668C177.896 179.091 177.867 178.539 177.85 178.008C178.216 177.962 179.88 177.742 180.574 177.323C181.267 176.903 181.964 176.227 182.047 175.413C182.075 175.218 182.06 175.019 182.004 174.83C181.947 174.642 181.851 174.467 181.72 174.32C181.59 174.172 181.43 174.054 181.25 173.974C181.07 173.894 180.874 173.854 180.678 173.856C179.519 173.856 178.319 175.567 178.004 176.555C177.983 176.604 177.867 177.169 177.788 177.584C177.788 177.339 177.788 177.086 177.788 176.854C177.788 175.978 177.842 175.193 177.9 174.462C177.933 174.047 177.971 173.694 178.012 173.354C178.349 173.125 179.673 172.179 180.088 171.502C180.503 170.826 180.819 169.887 180.503 169.128C180.438 168.946 180.336 168.781 180.203 168.641C180.07 168.502 179.91 168.392 179.731 168.319C179.553 168.246 179.362 168.211 179.169 168.216C178.977 168.222 178.788 168.268 178.614 168.351C177.605 168.874 177.336 170.95 177.522 171.988C177.522 172.075 177.938 173.429 177.938 173.416C177.892 173.74 177.85 174.093 177.809 174.479C177.738 175.189 177.664 175.99 177.643 176.87C177.61 177.819 177.632 178.768 177.709 179.714C177.793 180.773 177.969 181.824 178.236 182.852V182.89C178.054 182.603 177.518 181.819 177.468 181.761C176.792 180.98 175.023 179.863 173.956 180.316C173.781 180.396 173.624 180.512 173.497 180.657C173.369 180.802 173.274 180.971 173.216 181.155C173.159 181.339 173.14 181.534 173.163 181.725C173.185 181.917 173.248 182.101 173.346 182.267C173.74 182.985 174.687 183.338 175.451 183.45C176.314 183.575 178.128 183.035 178.274 183.006C178.573 184.045 178.94 185.063 179.374 186.053C179.627 186.634 179.897 187.207 180.171 187.78C180.009 187.539 179.856 187.324 179.835 187.295C179.154 186.51 177.385 185.397 176.318 185.85C176.144 185.93 175.987 186.046 175.86 186.19C175.733 186.335 175.638 186.504 175.581 186.688C175.524 186.872 175.506 187.065 175.529 187.256C175.551 187.447 175.614 187.632 175.712 187.797C176.107 188.515 177.049 188.872 177.813 188.98C178.577 189.088 180.15 188.677 180.557 188.565C180.669 188.785 180.773 189.005 180.885 189.221C181.408 190.267 181.94 191.297 182.425 192.351C182.6 192.716 182.753 193.082 182.911 193.447C182.766 193.235 182.637 193.053 182.616 193.032C181.94 192.247 180.171 191.135 179.104 191.587C178.929 191.667 178.772 191.784 178.645 191.928C178.517 192.073 178.422 192.243 178.364 192.427C178.306 192.611 178.288 192.805 178.311 192.996C178.333 193.188 178.395 193.373 178.494 193.538C178.888 194.252 179.835 194.609 180.599 194.722C181.363 194.834 182.782 194.456 183.268 194.306C183.417 194.688 183.571 195.066 183.683 195.444C183.762 195.701 183.862 195.942 183.928 196.208C183.995 196.473 184.073 196.723 184.144 196.98C184.26 197.474 184.389 197.985 184.493 198.47C184.567 198.807 184.63 199.13 184.696 199.454C184.53 199.089 184.19 198.379 184.152 198.325C183.6 197.449 182.023 196.079 180.898 196.366C180.713 196.418 180.541 196.509 180.393 196.632C180.245 196.755 180.125 196.908 180.041 197.081C179.956 197.254 179.909 197.442 179.902 197.634C179.895 197.827 179.929 198.018 180.001 198.196C180.283 198.969 181.163 199.442 181.902 199.687C182.732 199.936 184.518 199.707 184.742 199.687C184.85 200.226 184.949 200.75 185.037 201.248C185.34 202.966 185.531 204.415 185.647 205.424C185.647 205.607 185.684 205.765 185.701 205.918H182.209L183.484 230.777H189.429L190.703 205.918H187.486L187.561 205.769C188.005 204.839 188.623 203.502 189.292 201.87C189.504 201.351 189.707 200.799 189.939 200.21C190.155 200.255 191.941 200.625 192.771 200.43C193.526 200.26 194.431 199.832 194.776 199.085C194.862 198.913 194.91 198.724 194.918 198.532C194.926 198.34 194.894 198.148 194.822 197.969C194.751 197.79 194.643 197.629 194.504 197.495C194.366 197.361 194.201 197.257 194.02 197.192C192.92 196.822 191.243 198.068 190.629 198.902C190.591 198.952 190.259 199.529 190.056 199.894C190.143 199.662 190.23 199.433 190.317 199.193C190.492 198.715 190.654 198.234 190.828 197.715C190.903 197.462 190.982 197.204 191.056 196.947C191.131 196.689 191.193 196.411 191.264 196.146C191.413 195.514 191.534 194.875 191.642 194.223C192.057 194.377 193.555 194.896 194.332 194.842C195.108 194.788 196.071 194.502 196.515 193.817C196.626 193.659 196.701 193.48 196.738 193.291C196.774 193.102 196.771 192.907 196.727 192.72C196.684 192.532 196.602 192.356 196.486 192.202C196.37 192.049 196.223 191.921 196.055 191.828C195.025 191.297 193.178 192.276 192.443 193.007C192.397 193.053 191.932 193.634 191.679 193.962C191.741 193.572 191.803 193.177 191.853 192.783C191.994 191.633 192.107 190.462 192.219 189.3C192.252 188.943 192.293 188.586 192.331 188.233C192.476 188.287 194.24 188.943 195.112 188.885C195.88 188.831 196.848 188.544 197.296 187.859C197.407 187.702 197.483 187.522 197.52 187.333C197.557 187.144 197.553 186.95 197.51 186.762C197.466 186.574 197.384 186.398 197.268 186.244C197.151 186.091 197.004 185.963 196.835 185.871C195.806 185.339 193.958 186.319 193.223 187.05C193.169 187.104 192.497 187.946 192.335 188.166C192.418 187.382 192.509 186.605 192.63 185.837C192.785 184.804 193.008 183.782 193.298 182.778C193.364 182.803 195.204 183.496 196.092 183.434C196.864 183.38 197.831 183.097 198.28 182.412C198.39 182.255 198.466 182.075 198.502 181.886C198.539 181.698 198.535 181.503 198.492 181.316C198.448 181.128 198.366 180.952 198.25 180.798C198.134 180.645 197.987 180.517 197.819 180.424C196.785 179.892 194.938 180.872 194.207 181.603C194.149 181.657 193.427 182.562 193.306 182.736C193.306 182.678 193.335 182.616 193.352 182.558C193.671 181.556 194.077 180.583 194.564 179.652C194.83 179.137 195.112 178.659 195.395 178.199C195.723 178.365 197.238 179.095 198.043 179.129C198.849 179.162 199.808 178.983 200.327 178.352C200.454 178.208 200.55 178.038 200.608 177.854C200.665 177.671 200.683 177.477 200.661 177.285C200.638 177.094 200.575 176.91 200.476 176.744C200.377 176.579 200.244 176.437 200.086 176.326C199.123 175.683 197.18 176.455 196.37 177.098C196.324 177.136 195.918 177.543 195.623 177.842C195.756 177.634 195.884 177.426 196.017 177.227C196.499 176.496 196.989 175.857 197.429 175.297C197.678 174.977 197.914 174.695 198.135 174.433C198.55 174.433 200.181 174.375 200.899 174.039C201.618 173.703 202.398 173.096 202.56 172.299C202.605 172.114 202.612 171.921 202.578 171.733C202.544 171.545 202.472 171.366 202.365 171.208C202.259 171.05 202.12 170.915 201.958 170.814C201.797 170.712 201.616 170.645 201.427 170.618ZM188.665 201.584C187.968 203.186 187.324 204.49 186.863 205.407C186.772 205.59 186.689 205.752 186.61 205.902H186.535C186.51 205.723 186.485 205.528 186.456 205.312C186.315 204.291 186.095 202.821 185.751 201.102C185.643 200.559 185.518 199.973 185.381 199.375C185.924 199.158 186.453 198.91 186.967 198.632C187.561 199.276 189.08 200.027 189.279 200.123C189.072 200.629 188.864 201.123 188.665 201.584Z" fill="white"/>
<path d="M195.374 178.008C195.374 178.008 195.743 176.654 195.756 176.567C195.897 175.542 195.569 173.474 194.51 172.972C194.334 172.893 194.144 172.852 193.951 172.852C193.758 172.852 193.567 172.892 193.391 172.97C193.215 173.049 193.057 173.163 192.928 173.307C192.799 173.45 192.702 173.619 192.642 173.802C192.364 174.57 192.717 175.517 193.14 176.164C193.626 176.907 195.349 178.008 195.374 178.008Z" fill="white"/>
</g>
<path d="M144.374 145.563L131.995 157.943C131.995 157.943 126.182 146.423 125.701 144.463C125.219 142.504 124.356 140.669 123.986 140.669C123.617 140.669 120.561 139.934 120.561 139.934C120.561 139.934 116.887 139.689 116.642 140.054C116.397 140.42 118.552 141.976 119.548 143.077C120.545 144.177 120.358 145.044 122.072 146.024C123.787 147.004 123.758 146.788 123.758 146.788C123.758 146.788 128.204 159.575 129.018 161.613C129.336 162.364 129.876 163 130.566 163.435C130.995 163.715 131.505 163.843 132.015 163.799C132.525 163.756 133.006 163.543 133.381 163.195L141.804 155.494C141.804 155.494 145.611 151.413 145.885 148.021C146.159 144.629 144.374 145.563 144.374 145.563Z" fill="white" stroke="#263238" stroke-width="0.738736" stroke-linecap="round" stroke-linejoin="round"/>
<path d="M121.823 137.003H113.616C113.175 137.003 112.819 137.36 112.819 137.8V142.296C112.819 142.736 113.175 143.093 113.616 143.093H121.823C122.263 143.093 122.62 142.736 122.62 142.296V137.8C122.62 137.36 122.263 137.003 121.823 137.003Z" fill="#AC92E3" stroke="#263238" stroke-width="0.738736" stroke-linecap="round" stroke-linejoin="round"/>
<path d="M122.62 137.8H112.819V139.212H122.62V137.8Z" fill="#263238"/>
<path d="M124.775 143.251C124.775 143.251 123.887 141.59 123.555 141.59C123.222 141.59 119.569 140.594 119.017 140.702C118.465 140.81 119.017 141.698 119.569 141.81C120.121 141.923 122.338 143.139 122.338 143.139C122.338 143.139 122.558 145.576 124.219 146.02" fill="white"/>
<path d="M124.775 143.251C124.775 143.251 123.887 141.59 123.555 141.59C123.222 141.59 119.569 140.594 119.017 140.702C118.465 140.81 119.017 141.698 119.569 141.81C120.121 141.923 122.338 143.139 122.338 143.139C122.338 143.139 122.558 145.576 124.219 146.02" stroke="#263238" stroke-width="0.738736" stroke-linecap="round" stroke-linejoin="round"/>
<path d="M170.242 239.765C170.242 240.845 163.321 241.716 154.782 241.716C146.242 241.716 139.321 240.845 139.321 239.765C139.321 238.686 146.242 237.814 154.782 237.814C163.321 237.814 170.242 238.69 170.242 239.765Z" fill="#263238"/>
<path d="M140.417 193.738C140.417 193.738 143.805 205.818 144.05 209.737C144.295 213.656 145.009 224.919 145.32 229.814C145.632 234.709 143.315 236.992 142.377 237.702C141.439 238.412 138.42 239.919 139.583 240.172C140.745 240.425 145.47 239.964 146.856 238.565C148.243 237.166 150.414 235.244 150.651 233.737C150.887 232.23 148.882 231.715 148.675 228.452C148.467 225.189 150.219 216.554 150.431 212.116C150.642 207.678 148.127 201.609 147.94 198.504C147.753 195.398 147.732 192.617 147.732 192.617L140.417 193.738Z" fill="white" stroke="#263238" stroke-width="0.738736" stroke-linecap="round" stroke-linejoin="round"/>
<path d="M151.282 235.306L150.958 239.553H149.982L149.223 236.954L151.282 235.306Z" fill="#AC92E3" stroke="#263238" stroke-width="0.738736" stroke-linecap="round" stroke-linejoin="round"/>
<path d="M139.487 240.13C140.633 240.458 145.374 240.292 146.848 238.984C148.322 237.677 150.954 236.776 151.282 235.306C151.423 234.667 151.07 234.015 150.626 233.23C150.163 234.084 149.581 234.868 148.899 235.559C147.379 237.079 144.332 238.378 144.332 238.378L142.418 237.855C141.451 238.495 138.342 239.802 139.487 240.13Z" fill="#AC92E3" stroke="#263238" stroke-width="0.738736" stroke-linecap="round" stroke-linejoin="round"/>
<path d="M144.664 194.738C144.664 194.738 147.284 207.005 147.284 210.929V231.051C147.284 235.958 144.83 238.083 143.846 238.739C142.862 239.395 139.744 240.695 140.903 241.027C142.061 241.359 146.794 241.193 148.263 239.885C149.733 238.577 152.369 237.677 152.697 236.203C153.025 234.729 150.717 233.176 150.717 229.905C150.717 226.634 153.008 218.127 153.498 213.714C153.988 209.301 151.863 203.082 151.863 199.977C151.863 196.872 152.029 194.086 152.029 194.086L144.664 194.738Z" fill="white" stroke="#263238" stroke-width="0.738736" stroke-linecap="round" stroke-linejoin="round"/>
<path d="M144.952 131.959C144.952 131.959 139.513 129.51 139.783 126.247C140.053 122.984 147.808 120.534 153.931 120.534C160.055 120.534 162.65 125.977 162.65 129.103C162.65 132.229 159.656 135.633 161.288 138.759C162.919 141.885 170.006 142.471 172.621 149.487C174.66 154.929 172.891 158.205 170.853 160.912C168.815 163.618 168.541 164.992 170.438 168.123C172.335 171.253 168.661 181.179 159.673 181.453C150.685 181.727 146.617 172.735 147.16 166.354C147.704 159.973 151.374 149.894 152.055 143.367C152.736 136.841 152.013 136.447 149.979 134.545C147.945 132.644 144.952 131.959 144.952 131.959Z" fill="#263238" stroke="#263238" stroke-width="0.738736" stroke-linecap="round" stroke-linejoin="round"/>
<path d="M147.363 126.529C147.363 126.529 144.918 124.897 146.753 123.876C148.588 122.855 152.465 121.838 155.729 122.245" stroke="white" stroke-width="0.738736" stroke-linecap="round" stroke-linejoin="round"/>
<path d="M146.495 127.314C146.495 127.314 140.542 125.196 140.683 126.898C140.824 128.601 145.05 130.22 145.312 129.281C145.573 128.343 143.328 127.695 143.328 127.695" stroke="white" stroke-width="0.738736" stroke-linecap="round" stroke-linejoin="round"/>
<path d="M148.878 124.669C148.878 124.669 150.202 124.536 151.784 127.712C153.366 130.888 154.827 133.267 157.87 133.661C160.913 134.056 161.706 132.756 161.706 132.756" stroke="white" stroke-width="0.738736" stroke-linecap="round" stroke-linejoin="round"/>
<path d="M165.642 143.342C166.383 143.525 167.103 143.783 167.792 144.11" stroke="white" stroke-width="0.738736" stroke-linecap="round" stroke-linejoin="round"/>
<path d="M156.418 137.896C156.418 137.896 156.152 139.747 158.796 141.333C160.324 142.25 162.201 142.578 164.027 142.994" stroke="white" stroke-width="0.738736" stroke-linecap="round" stroke-linejoin="round"/>
<path d="M161.071 129.074C161.449 129.191 161.839 129.266 162.234 129.298" stroke="white" stroke-width="0.738736" stroke-linecap="round" stroke-linejoin="round"/>
<path d="M152.316 123.623C152.921 123.489 153.549 123.503 154.148 123.664C154.747 123.825 155.297 124.129 155.753 124.549C156.882 125.504 157.895 127.139 159.394 128.227" stroke="white" stroke-width="0.738736" stroke-linecap="round" stroke-linejoin="round"/>
<path d="M152.806 145.157C152.806 145.157 144.644 144.476 143.963 144.883C143.282 145.289 141.925 149.507 140.426 151.143C138.927 152.779 138.251 153.725 138.657 155.087C139.064 156.449 140.019 163.656 140.019 163.656L130.77 194.667C130.77 194.667 134.589 197.573 144.382 198.117C150.238 198.435 156.005 196.576 160.573 192.899L150.78 164.336C150.78 164.336 159.623 150.732 160.029 148.976C160.436 147.22 152.806 145.157 152.806 145.157Z" fill="#AC92E3" stroke="#263238" stroke-width="0.738736" stroke-linecap="round" stroke-linejoin="round"/>
<path d="M144.776 156.283C144.776 156.283 144.644 158.267 147.421 159.986" stroke="#263238" stroke-width="0.738736" stroke-linecap="round" stroke-linejoin="round"/>
<path d="M142.261 164.615L140.147 174.404" stroke="#263238" stroke-width="0.738736" stroke-linecap="round" stroke-linejoin="round"/>
<path d="M143.718 165.009L143.32 170.17" stroke="#263238" stroke-width="0.738736" stroke-linecap="round" stroke-linejoin="round"/>
<path d="M149.14 164.748L151.784 175.458" stroke="#263238" stroke-width="0.738736" stroke-linecap="round" stroke-linejoin="round"/>
<path d="M148.214 165.408L147.819 170.962" stroke="#263238" stroke-width="0.738736" stroke-linecap="round" stroke-linejoin="round"/>
<path d="M152.067 143.367C152.067 143.367 149.485 142.952 147.853 144.318C146.222 145.684 144.586 149.487 144.586 149.487L149.618 148.806L152.611 152.343C152.611 152.343 155.334 148.806 155.334 146.224C155.334 143.641 152.067 143.367 152.067 143.367Z" fill="white" stroke="#263238" stroke-width="0.738736" stroke-linecap="round" stroke-linejoin="round"/>
<path d="M173.339 152.908C173.339 152.908 174.667 151.313 174.713 150.118C174.758 148.922 174.588 149.088 174.14 149.823C173.691 150.558 173.339 152.908 173.339 152.908Z" fill="white" stroke="#263238" stroke-width="0.738736" stroke-linecap="round" stroke-linejoin="round"/>
<path d="M169.399 184.936L162.13 166.209" stroke="#263238" stroke-width="0.738736" stroke-linecap="round" stroke-linejoin="round"/>
<path d="M167.755 184.791L161.711 165.507" stroke="#263238" stroke-width="0.738736" stroke-linecap="round" stroke-linejoin="round"/>
<path d="M159.369 148.183C159.369 148.183 152.897 153.514 152.416 156.291C151.934 159.068 155.99 156.391 155.99 156.391C155.99 156.391 157.921 165.08 158.896 167.687C159.872 170.294 160.441 172.224 161.603 171.647C162.765 171.07 169.221 153.514 169.221 153.514C169.221 153.514 171.733 153.609 172.795 153.318C173.858 153.028 174.041 150.828 174.145 149.844C174.248 148.86 173.372 149.553 173.372 149.844C173.372 150.134 172.696 151.874 172.214 152.065C171.733 152.256 169.607 151.002 169.607 151.002C169.607 151.002 171.633 150.616 171.633 150.039C171.633 149.462 171.537 149.362 170.96 149.653C170.045 150.096 169.063 150.389 168.054 150.52C166.992 150.616 166.606 151.679 166.606 152.837C166.606 153.995 166.124 154.498 165.543 156.411C164.962 158.325 161.287 164.972 161.287 164.972C161.287 164.972 160.042 155.54 160.137 153.128C160.233 150.716 161.105 148.569 159.369 148.183Z" fill="white" stroke="#263238" stroke-width="0.738736" stroke-linecap="round" stroke-linejoin="round"/>
<path d="M155.99 156.391L155.408 154.942" stroke="#263238" stroke-width="0.738736" stroke-linecap="round" stroke-linejoin="round"/>
<path d="M167.478 153.202C167.478 153.202 168.154 152.044 168.831 151.853C169.508 151.662 172.21 152.044 172.21 152.044C172.21 152.044 172.484 149.25 172.982 149.246C173.481 149.242 173.078 152.239 172.791 152.912C172.505 153.584 169.221 153.514 169.221 153.514" fill="white"/>
<path d="M167.478 153.202C167.478 153.202 168.154 152.044 168.831 151.853C169.508 151.662 172.21 152.044 172.21 152.044C172.21 152.044 172.484 149.25 172.982 149.246C173.481 149.242 173.078 152.239 172.791 152.912C172.505 153.584 169.221 153.514 169.221 153.514" stroke="#263238" stroke-width="0.738736" stroke-linecap="round" stroke-linejoin="round"/>
<path d="M167.756 184.791L154.214 183.961L150.564 204.382L169.354 204.768L167.756 184.791Z" fill="white" stroke="#263238" stroke-width="0.738736" stroke-linecap="round" stroke-linejoin="round"/>
<path d="M154.213 183.961L148.118 203.568L149.455 202.863L150.563 204.382L154.213 183.961Z" fill="#263238" stroke="#263238" stroke-width="0.738736" stroke-linecap="round" stroke-linejoin="round"/>
<path d="M169.399 184.937L155.841 185.497L154.305 206.18L173.032 204.644L169.399 184.937Z" fill="white" stroke="#263238" stroke-width="0.738736" stroke-linecap="round" stroke-linejoin="round"/>
<path d="M155.84 185.497L151.788 205.619L153.046 204.784L154.304 206.179L155.84 185.497Z" fill="#263238" stroke="#263238" stroke-width="0.738736" stroke-linecap="round" stroke-linejoin="round"/>
<path d="M155.841 185.497L161.292 164.532" stroke="#263238" stroke-width="0.738736" stroke-linecap="round" stroke-linejoin="round"/>
<path d="M154.209 183.961L161.291 164.951" stroke="#263238" stroke-width="0.738736" stroke-linecap="round" stroke-linejoin="round"/>
<path d="M144.391 131.278C144.391 131.278 143.793 136.048 143.793 137.638C143.793 139.228 145.781 142.408 146.475 142.807C147.168 143.206 150.751 142.01 150.751 142.01C150.751 142.01 150.132 143.592 149.734 144.584C149.335 145.576 147.948 147.864 147.948 149.454C147.948 151.044 148.741 151.641 150.024 150.55C151.307 149.458 153.03 146.871 153.113 145.68C153.196 144.488 154.823 139.428 154.823 139.428L154.923 138.332C154.923 138.332 156.218 137.14 156.513 135.841C156.808 134.541 157.111 133.155 155.72 133.553C154.915 133.769 154.211 134.262 153.731 134.944C153.731 134.944 151.444 134.35 150.053 133.055C148.662 131.76 147.471 127.691 147.471 127.691L144.391 131.278Z" fill="white" stroke="#263238" stroke-width="0.738736" stroke-linecap="round" stroke-linejoin="round"/>
<path d="M151.938 132.777L155.72 133.561L154.728 134.014L151.814 133.831L151.938 132.777Z" fill="white" stroke="#263238" stroke-width="0.738736" stroke-linecap="round" stroke-linejoin="round"/>
<path d="M144.897 131.739C144.897 131.739 143.552 131.611 142.14 131.557C142.063 131.656 142.013 131.774 141.996 131.899C141.98 132.023 141.996 132.15 142.045 132.267C142.211 132.682 141.63 134.513 142.31 135.388C142.991 136.264 144.257 136.285 144.959 136.244C145.661 136.202 146.171 134.197 146.204 133.753C146.238 133.309 146.296 132.922 146.645 132.881C146.993 132.839 146.765 133.711 146.881 134.413C146.997 135.114 146.844 136.177 147.504 136.559C148.164 136.941 149.023 137.24 150.543 136.796C152.062 136.352 152.112 133.674 152.241 133.454C152.359 133.283 152.49 133.121 152.631 132.968C152.68 132.91 152.712 132.839 152.723 132.763C152.735 132.688 152.725 132.611 152.696 132.54C152.666 132.47 152.618 132.409 152.556 132.364C152.494 132.32 152.421 132.293 152.345 132.287L151.514 132.229C151.514 132.229 147.695 131.901 146.852 131.951L146.022 131.864L144.897 131.739Z" fill="white" stroke="#263238" stroke-width="0.738736" stroke-linecap="round" stroke-linejoin="round"/>
<path d="M145.631 135.592C144.613 134.411 143.412 133.4 142.074 132.599C142.045 133.292 141.746 134.674 142.31 135.388C142.999 136.26 144.257 136.285 144.959 136.244C145.212 136.227 145.441 135.953 145.631 135.592Z" fill="#263238" stroke="#263238" stroke-width="0.738736" stroke-linecap="round" stroke-linejoin="round"/>
<path d="M146.529 133.35C146.529 133.35 145.333 135.596 144.772 136.02C144.212 136.443 146.134 137.365 146.483 137.365" fill="white"/>
<path d="M146.529 133.35C146.529 133.35 145.333 135.596 144.772 136.02C144.212 136.443 146.134 137.365 146.483 137.365" stroke="#263238" stroke-width="0.738736" stroke-linecap="round" stroke-linejoin="round"/>
<path d="M145.927 138.85C145.927 138.85 146.483 139.78 148.281 138.788" stroke="#263238" stroke-width="0.738736" stroke-linecap="round" stroke-linejoin="round"/>
<path d="M150.98 136.609C149.887 135.188 148.529 133.993 146.982 133.088L146.861 133.358C146.844 133.717 146.855 134.076 146.894 134.433C147.007 135.131 146.857 136.198 147.517 136.58C148.177 136.962 149.037 137.261 150.556 136.816C150.707 136.77 150.85 136.7 150.98 136.609Z" fill="#263238" stroke="#263238" stroke-width="0.738736" stroke-linecap="round" stroke-linejoin="round"/>
<path d="M152.698 236.203L152.374 240.454H151.398L150.639 237.851L152.698 236.203Z" fill="#AC92E3" stroke="#263238" stroke-width="0.738736" stroke-linecap="round" stroke-linejoin="round"/>
<path d="M140.904 241.027C142.049 241.355 146.795 241.193 148.264 239.886C149.734 238.578 152.37 237.677 152.698 236.203C152.839 235.568 152.486 234.912 152.042 234.127C151.579 234.983 150.998 235.768 150.315 236.461C148.796 237.976 145.748 239.279 145.748 239.279L143.83 238.756C142.867 239.392 139.745 240.695 140.904 241.027Z" fill="#AC92E3" stroke="#263238" stroke-width="0.738736" stroke-linecap="round" stroke-linejoin="round"/>
<path d="M83.285 146.12C83.285 146.12 84.5761 146.722 84.4059 146.983C84.2357 147.245 83.285 148.532 83.285 148.532L80.7941 148.619C80.7941 148.619 80.379 147.585 80.5367 147.066C80.6945 146.547 82.9446 145.775 83.285 146.12Z" fill="white" stroke="#263238" stroke-width="0.738736" stroke-linecap="round" stroke-linejoin="round"/>
<path d="M77.684 148.793C77.684 148.793 80.3534 146.12 80.615 145.775C80.8765 145.431 85.5304 145.169 86.3067 145.086C87.083 145.003 87.3404 145.086 86.9958 145.601C86.6513 146.116 83.027 146.464 83.027 146.464L81.7359 147.153L80.9596 148.117H81.9933C82.8568 148.117 84.4842 148.029 84.4842 148.029C84.4842 148.029 84.7457 148.806 84.069 148.976C83.2793 149.182 82.4687 149.297 81.6529 149.321C80.8765 149.321 80.2746 149.927 79.4982 150.014C78.7219 150.101 78.1158 150.184 78.1158 150.184C78.1158 150.184 64.0588 159.226 63.3572 159.396C62.6556 159.566 54.1326 157.586 54.1326 157.586L55.7683 153.19L62.7553 154.223L77.684 148.793Z" fill="white" stroke="#263238" stroke-width="0.738736" stroke-linecap="round" stroke-linejoin="round"/>
<path d="M44.875 150.392C44.875 150.392 45.834 147.955 48.0592 148.316C50.2844 148.677 63.3574 153.061 63.3574 153.061L62.4067 160.023C62.4067 160.023 52.6507 158.595 49.9813 157.719C48.466 157.263 47.1104 156.388 46.0706 155.195" fill="#AC92E3"/>
<path d="M44.875 150.392C44.875 150.392 45.834 147.955 48.0592 148.316C50.2844 148.677 63.3574 153.061 63.3574 153.061L62.4067 160.023C62.4067 160.023 52.6507 158.595 49.9813 157.719C48.466 157.263 47.1104 156.388 46.0706 155.195" stroke="#263238" stroke-width="0.738736" stroke-linecap="round" stroke-linejoin="round"/>
<path d="M119.785 239.765C119.785 240.844 100.464 241.716 76.6091 241.716C52.7546 241.716 33.4336 240.844 33.4336 239.765C33.4336 238.685 52.7546 237.813 76.6091 237.813C100.464 237.813 119.785 238.689 119.785 239.765Z" fill="#263238"/>
<path d="M59.2058 199.632C59.1772 203.996 58.9209 208.356 58.4378 212.693C57.9687 216.575 57.6075 220.477 57.3501 224.375C57.2048 226.451 56.9349 228.502 56.9349 230.573C56.9349 231.441 56.7855 234.09 57.4705 234.779C58.2432 235.549 59.0761 236.255 59.9614 236.892C61.1155 237.66 64.5695 238.237 63.9966 239.196C63.4237 240.155 55.3532 238.81 55.3532 238.81C55.3532 238.81 53.6262 239.387 52.6631 238.237C51.6999 237.087 53.8172 234.588 54.0081 232.475C54.1991 230.362 54.0081 225.367 53.4311 218.264C52.854 211.161 54.0081 206.163 54.0081 206.163L53.2401 199.441L59.2058 199.632Z" fill="white" stroke="#263238" stroke-width="0.738736" stroke-linecap="round" stroke-linejoin="round"/>
<path d="M56.3005 235.298C56.019 235.654 55.7197 235.997 55.4038 236.323C55.4038 236.323 53.9632 235.705 53.0416 235.377C52.5642 236.543 52.149 237.594 52.6638 238.237C53.6269 239.387 55.354 238.81 55.354 238.81C55.354 238.81 63.4203 240.155 63.9974 239.196C64.5744 238.237 61.1162 237.66 59.9621 236.892C59.0768 236.255 58.2439 235.549 57.4712 234.779C57.2474 234.751 57.0202 234.785 56.8141 234.876C56.6079 234.968 56.4304 235.113 56.3005 235.298Z" fill="#263238" stroke="#263238" stroke-width="0.738736" stroke-linecap="round" stroke-linejoin="round"/>
<path d="M55.545 200.4C55.545 200.4 55.354 206.74 54.9679 208.662C54.5818 210.584 54.5196 213.121 48.4418 227.867C46.3121 233.027 45.8139 234.509 45.8139 234.509C45.8139 234.509 45.9467 236.892 49.1351 238.15C52.0411 239.3 51.8253 239.831 50.4802 239.831C49.1351 239.831 47.4745 240.334 45.3614 239.761C43.2483 239.188 42.364 238.1 41.405 237.731C39.8274 237.095 41.8617 234.895 42.3433 234.243C43.4475 232.761 44.0827 230.922 44.5311 229.133C46.4532 221.515 46.1336 217.094 46.9016 213.639C47.4191 211.47 48.4006 209.439 49.7786 207.686L48.4376 200.774L55.545 200.4Z" fill="white" stroke="#263238" stroke-width="0.738736" stroke-linecap="round" stroke-linejoin="round"/>
<path d="M50.4874 239.864C51.8324 239.864 52.0525 239.333 49.1423 238.183C45.9498 236.938 45.8211 234.542 45.8211 234.542L45.9166 234.281C45.7623 234.245 45.6014 234.25 45.4499 234.296C45.2984 234.342 45.1615 234.427 45.0531 234.542C44.7151 234.895 44.3277 235.197 43.9031 235.439L42.3006 234.347C41.7443 235.065 39.8844 237.149 41.4163 237.764C42.3753 238.15 43.2638 239.217 45.3727 239.794C47.4817 240.371 49.1381 239.864 50.4874 239.864Z" fill="#263238" stroke="#263238" stroke-width="0.738736" stroke-linecap="round" stroke-linejoin="round"/>
<path d="M51.5507 142.346C51.5507 142.346 53.9835 145.817 56.7193 149.528C59.4551 153.24 60.0945 154.767 59.4302 157.001C58.766 159.234 56.8397 162.485 56.9393 163.693C57.039 164.901 58.4339 167.272 56.5616 167.928C52.3478 169.406 47.6774 166.778 47.6774 166.778C47.6774 166.778 46.2451 162.298 44.7713 156.814C43.2975 151.33 44.6136 147.05 46.1579 145.634C47.7023 144.218 49.9856 140.49 51.5507 142.346Z" fill="#AC92E3" stroke="#263238" stroke-width="0.738736" stroke-linecap="round" stroke-linejoin="round"/>
<path d="M45.464 130.219C47.7384 130.219 49.5823 128.376 49.5823 126.101C49.5823 123.827 47.7384 121.983 45.464 121.983C43.1895 121.983 41.3457 123.827 41.3457 126.101C41.3457 128.376 43.1895 130.219 45.464 130.219Z" fill="#263238" stroke="#263238" stroke-width="0.738736" stroke-linecap="round" stroke-linejoin="round"/>
<path d="M61.8629 129.518C61.8629 129.518 64.6527 129.252 65.0512 127.127C65.4497 125.001 62.1452 122.88 60.8042 122.88C60.1726 122.92 59.5394 122.83 58.9444 122.614C58.9444 122.614 55.3575 120.754 51.5049 122.348C47.6523 123.942 46.4608 127.658 47.2579 130.846C48.055 134.035 50.3093 137.223 53.4851 137.489C56.661 137.754 61.8629 129.518 61.8629 129.518Z" fill="#263238" stroke="#263238" stroke-width="0.738736" stroke-linecap="round" stroke-linejoin="round"/>
<path d="M59.8165 124.611C58.7738 126.621 57.0743 128.213 55.0008 129.124C51.5426 130.626 47.9433 130.929 47.6319 129.124" stroke="white" stroke-width="0.738736" stroke-linecap="round" stroke-linejoin="round"/>
<path d="M56.8065 123.71C56.8065 123.71 54.3987 128.974 50.791 128.974" stroke="white" stroke-width="0.738736" stroke-linecap="round" stroke-linejoin="round"/>
<path d="M60.1652 125.541C60.1652 125.541 64.3167 123.108 63.8766 127.168" stroke="white" stroke-width="0.738736" stroke-linecap="round" stroke-linejoin="round"/>
<path d="M48.6824 124.009C48.6824 124.009 46.8018 126.799 47.0218 128.82" stroke="white" stroke-width="0.738736" stroke-linecap="round" stroke-linejoin="round"/>
<path d="M56.6861 139.614C56.0918 140.816 55.7098 142.111 55.5569 143.442C55.4853 144.556 55.6334 145.673 55.9928 146.73L51.5175 142.039C51.5175 142.039 51.8205 140.71 52.3478 138.547C52.875 136.385 53.012 135.405 53.012 135.405L56.6861 139.614Z" fill="white" stroke="#263238" stroke-width="0.738736" stroke-linecap="round" stroke-linejoin="round"/>
<path d="M51.0064 140.083L56.3742 145.119L55.8595 149.893L49.0801 142.454L51.0064 140.083Z" fill="white" stroke="#263238" stroke-width="0.738736" stroke-linecap="round" stroke-linejoin="round"/>
<path d="M60.165 125.541C60.165 125.541 62.5521 127.202 63.0253 129.277C63.4986 131.353 62.9548 132.623 63.4405 133.802C63.9262 134.982 64.989 135.251 64.1919 135.642C63.3948 136.032 62.3362 136.513 62.3362 136.513C62.3362 136.513 61.3108 140.354 60.8666 141.059C60.4224 141.765 59.206 141.337 57.6907 140.644C56.1754 139.951 53.0991 137.8 52.8127 137.14C52.6057 136.63 52.4269 136.109 52.2771 135.579C52.2771 135.579 60.3103 131.025 60.165 125.541Z" fill="white" stroke="#263238" stroke-width="0.738736" stroke-linecap="round" stroke-linejoin="round"/>
<path d="M54.4273 134.416C54.4273 134.416 53.2316 131.095 51.7703 132.158C50.309 133.221 50.7449 134.79 52.256 135.533C53.7672 136.276 54.2944 135.612 54.2944 135.612" fill="white"/>
<path d="M54.4273 134.416C54.4273 134.416 53.2316 131.095 51.7703 132.158C50.309 133.221 50.7449 134.79 52.256 135.533C53.7672 136.276 54.2944 135.612 54.2944 135.612" stroke="#263238" stroke-width="0.738736" stroke-linecap="round" stroke-linejoin="round"/>
<path d="M60.9988 133.096C60.949 133.466 61.032 133.781 61.1856 133.798C61.3392 133.815 61.5053 133.537 61.551 133.171C61.5966 132.806 61.5178 132.486 61.3642 132.465C61.2106 132.445 61.0445 132.727 60.9988 133.096Z" fill="#263238"/>
<path d="M61.4236 137.564C61.4236 137.564 59.9 137.148 59.46 136.173" stroke="#263238" stroke-width="0.738736" stroke-linecap="round" stroke-linejoin="round"/>
<path d="M62.498 131.145C62.498 131.145 61.759 129.9 60.8789 130.593" stroke="#263238" stroke-width="0.554052" stroke-linecap="round" stroke-linejoin="round"/>
<path d="M47.6732 166.798C45.9471 170.43 44.4077 174.148 43.0609 177.937C41.1429 183.508 47.4781 202.327 47.4781 202.327H60.5387V179.855C60.5387 170.634 57.5953 166.408 57.5953 166.408C57.5953 166.408 54.3945 167.944 47.6732 166.798Z" fill="#263238" stroke="#263238" stroke-width="0.738736" stroke-linecap="round" stroke-linejoin="round"/>
<path d="M88.3157 161.501H86.1943V149.304L88.3157 147.374V161.501Z" fill="#263238" stroke="#263238" stroke-width="0.738736" stroke-linecap="round" stroke-linejoin="round"/>
<path d="M95.3163 137.371L93.335 136.035L79.823 156.061L81.8043 157.398L95.3163 137.371Z" fill="#263238" stroke="#263238" stroke-width="0.739659" stroke-linecap="round" stroke-linejoin="round"/>
<path d="M100.551 151.633L86.0625 154.211V159.778H105.421V155.71C105.419 155.105 105.285 154.507 105.028 153.96C104.772 153.412 104.398 152.927 103.934 152.539C103.47 152.15 102.927 151.868 102.343 151.712C101.759 151.555 101.147 151.528 100.551 151.633Z" fill="#263238" stroke="#263238" stroke-width="0.738736" stroke-linecap="round" stroke-linejoin="round"/>
<path d="M105.421 158.985H72.0098V165.881H105.421V158.985Z" fill="#263238" stroke="#263238" stroke-width="0.738736" stroke-linecap="round" stroke-linejoin="round"/>
<path d="M119.614 168.654H60.2647V240.163H119.614V168.654Z" fill="#AC92E3" stroke="#263238" stroke-width="0.738736" stroke-linecap="round" stroke-linejoin="round"/>
<path d="M119.614 168.654H60.2647V171.448H119.614V168.654Z" fill="#263238" stroke="#263238" stroke-width="0.738736" stroke-linecap="round" stroke-linejoin="round"/>
<path d="M58.7161 157.134L61.2361 159.803L81.8483 164.249L87.0376 162.917L91.0397 165.732C90.0018 166.03 87.1829 164.843 87.1829 164.843C87.1829 164.843 85.7008 165.881 84.2188 165.881H79.7725C79.7725 165.881 61.3856 164.249 60.4971 164.249C59.6087 164.249 54.7141 160.397 54.7141 160.397L58.7161 157.134Z" fill="white" stroke="#263238" stroke-width="0.738736" stroke-linecap="round" stroke-linejoin="round"/>
<path d="M46.7843 145.962C46.7843 145.962 48.8351 144.331 50.5746 145.775C52.3141 147.22 60.1438 156.727 60.1438 156.727L56.2705 162.286C56.2705 162.286 49.4163 156.955 47.5523 154.863C46.467 153.707 45.7302 152.268 45.4268 150.711" fill="#AC92E3"/>
<path d="M46.7843 145.962C46.7843 145.962 48.8351 144.331 50.5746 145.775C52.3141 147.22 60.1438 156.727 60.1438 156.727L56.2705 162.286C56.2705 162.286 49.4163 156.955 47.5523 154.863C46.467 153.707 45.7302 152.268 45.4268 150.711" stroke="#263238" stroke-width="0.738736" stroke-linecap="round" stroke-linejoin="round"/>
<path d="M122.625 165.536H58.4551V169.434H122.625V165.536Z" fill="white" stroke="#263238" stroke-width="0.738736" stroke-linecap="round" stroke-linejoin="round"/>
</svg>
