<svg width="160" height="111" viewBox="0 0 160 111" fill="none" xmlns="http://www.w3.org/2000/svg">
<path d="M103.474 12.3446C100.722 11.5133 97.9687 10.6799 95.2173 9.84866C87.3866 3.98104 76.9458 3.05648 68.6295 7.49059C59.0551 12.5948 53.9909 23.8974 56.5947 34.952C54.9152 34.074 53.2356 33.1961 51.5561 32.3161C49.9836 19.8217 56.5305 7.80443 67.5084 2.63448C79.7871 -3.14619 95.1253 0.804431 103.474 12.3446Z" fill="white"/>
<path d="M56.6421 44.9375C59.3935 45.7687 62.1471 46.6021 64.8985 47.4334C72.7291 53.301 83.17 54.2256 91.4863 49.7914C101.061 44.6872 106.125 33.3846 103.521 22.3301C105.201 23.208 106.88 24.0859 108.56 24.9659C110.132 37.4603 103.585 49.4776 92.6074 54.6476C80.3287 60.4282 64.9905 56.4776 56.6421 44.9375Z" fill="white"/>
<path d="M65.8313 12.0669C65.0097 12.7943 64.0897 13.7104 63.1719 14.8406C62.2904 15.9264 61.6036 16.9718 61.073 17.8921C66.4903 16.1596 78.3731 13.1717 92.8384 16.3674C103.874 18.804 111.743 23.8064 116.067 27.0466C116.726 26.5907 117.439 26.0415 118.166 25.382C118.632 24.9579 119.052 24.538 119.426 24.133C115.128 20.6574 106.193 14.3826 93.1187 11.6492C81.0839 9.1363 71.1373 10.7925 65.8313 12.0669Z" fill="white"/>
<path d="M94.2375 45.0139C95.0591 44.2865 95.9791 43.3704 96.8969 42.2402C97.7784 41.1544 98.4652 40.109 98.9958 39.1887C93.5785 40.9212 81.6957 43.9091 67.2304 40.7134C56.1947 38.2768 48.3256 33.2744 44.0016 30.0342C43.3426 30.4901 42.6302 31.0393 41.9028 31.6988C41.4363 32.1229 41.017 32.5428 40.6426 32.9478C44.9409 36.4235 53.8755 42.6982 66.9501 45.4316C78.9849 47.9445 88.9315 46.2883 94.2375 45.0139Z" fill="white"/>
<path d="M50.9981 17.334L49.4598 23.1592C47.9963 24.0244 46.443 25.0338 44.8427 26.2107C42.4849 27.9453 40.4888 29.7033 38.8263 31.3425C37.7544 30.3776 36.6847 29.4149 35.6128 28.45C37.8058 26.3358 40.4952 24.0329 43.7237 21.7723C46.2826 19.9783 48.7452 18.5194 50.9981 17.334Z" fill="white"/>
<path d="M109.216 39.527L110.754 33.7018C112.218 32.8366 113.771 31.8272 115.371 30.6503C117.729 28.9157 119.725 27.1578 121.388 25.5186C122.46 26.4834 123.529 27.4461 124.601 28.411C122.408 30.5252 119.719 32.8281 116.49 35.0887C113.932 36.8827 111.469 38.3416 109.216 39.527Z" fill="white"/>
<path d="M80.1041 38.4204C85.5916 38.4204 90.0401 34.0114 90.0401 28.5725C90.0401 23.1337 85.5916 18.7246 80.1041 18.7246C74.6167 18.7246 70.1682 23.1337 70.1682 28.5725C70.1682 34.0114 74.6167 38.4204 80.1041 38.4204Z" fill="white"/>
<path d="M83.8822 27.3219C85.273 27.3219 86.4004 26.2044 86.4004 24.826C86.4004 23.4475 85.273 22.3301 83.8822 22.3301C82.4914 22.3301 81.364 23.4475 81.364 24.826C81.364 26.2044 82.4914 27.3219 83.8822 27.3219Z" fill="#5000A0"/>
<path d="M53.7174 31.3382C51.6592 14.2082 66.578 -0.472457 83.8889 2.34578C89.2248 3.1834 94.2869 5.64538 98.1937 9.33517C94.1864 5.79806 89.1478 3.42727 83.8397 2.6681C66.6486 0.0979741 52.2047 14.3906 53.7174 31.3382Z" fill="#5000A0"/>
<path d="M106.396 25.9561C108.455 43.086 93.5358 57.7667 76.225 54.9485C70.889 54.1108 65.8269 51.6489 61.9202 47.9591C65.9275 51.4962 70.9661 53.867 76.2742 54.6261C93.4652 57.1963 107.909 42.9036 106.396 25.9561Z" fill="#5000A0"/>
<path d="M65.459 14.4307C80.8036 10.1811 97.8192 12.6091 111.345 20.9472C113.277 22.1284 115.132 23.4304 116.912 24.8236C115.113 23.458 113.239 22.1856 111.292 21.0363C97.7293 12.8127 80.8207 10.4419 65.459 14.4307Z" fill="#5000A0"/>
<path d="M94.6591 42.5638C79.3145 46.8134 62.2989 44.3854 48.7728 36.0473C46.8409 34.8661 44.9859 33.5641 43.2058 32.1709C45.0051 33.5365 46.8794 34.8089 48.8263 35.9582C62.3887 44.1797 79.2973 46.5526 94.6591 42.5638Z" fill="#5000A0"/>
<path d="M38.2036 28.6361C41.43 25.5719 45.0693 22.9212 48.9847 20.79C45.2191 23.1672 41.6183 25.7861 38.2036 28.6361Z" fill="#5000A0"/>
<path d="M122.37 28.0049C119.144 31.0691 115.505 33.7198 111.589 35.851C115.355 33.4738 118.956 30.8549 122.37 28.0049Z" fill="#5000A0"/>
<path d="M151.541 110.031C150.091 110.031 148.668 109.867 147.272 109.538C145.902 109.182 144.788 108.744 143.928 108.223L144.935 105.84C145.15 105.374 145.473 105.046 145.902 104.854C146.359 104.635 146.815 104.607 147.272 104.772C148.722 105.347 150.199 105.635 151.702 105.635C153.502 105.635 154.401 105.237 154.401 104.443C154.401 104.114 154.213 103.868 153.837 103.703C153.488 103.512 153.005 103.375 152.387 103.292C151.796 103.21 151.139 103.128 150.413 103.046C149.688 102.936 148.963 102.786 148.238 102.594C147.54 102.375 146.882 102.087 146.265 101.731C145.674 101.375 145.191 100.868 144.815 100.211C144.466 99.5257 144.291 98.7039 144.291 97.7451C144.291 96.0467 145.029 94.6496 146.506 93.5538C147.983 92.458 150.024 91.9102 152.629 91.9102C155.395 91.9102 157.65 92.4169 159.396 93.4305L158.389 95.7727C158.174 96.2384 157.825 96.5809 157.342 96.8C156.885 96.9918 156.402 96.9918 155.891 96.8C154.871 96.4713 153.797 96.3069 152.669 96.3069C150.843 96.3069 149.93 96.7041 149.93 97.4986C149.93 97.8821 150.172 98.1834 150.655 98.4026C151.165 98.5943 151.783 98.7313 152.508 98.8135C153.26 98.8683 154.079 99.0052 154.965 99.2244C155.851 99.4162 156.657 99.6627 157.382 99.964C158.134 100.265 158.751 100.786 159.235 101.526C159.745 102.265 160 103.183 160 104.279C160 105.95 159.262 107.333 157.785 108.429C156.308 109.497 154.227 110.031 151.541 110.031Z" fill="white"/>
<path d="M136.003 109.743L131.169 103.58L129.397 105.429V109.743H125.248C124.738 109.743 124.295 109.552 123.919 109.168C123.57 108.785 123.396 108.333 123.396 107.812V85.7461H127.021C127.692 85.7461 128.256 85.9926 128.712 86.4857C129.169 86.9514 129.397 87.513 129.397 88.1705V96.512L126.457 101.196L135.56 92.2385H142.689L135.56 99.7171L143.294 109.743H136.003Z" fill="white"/>
<path d="M114.938 85.7461H119.329C119.785 85.7461 120.161 85.9105 120.457 86.2392C120.779 86.5679 120.94 86.9514 120.94 87.3897V109.743H116.388C115.986 109.743 115.636 109.606 115.341 109.332C115.072 109.031 114.938 108.675 114.938 108.264V85.7461Z" fill="white"/>
<path d="M103.726 91.9102C109.58 91.9102 112.506 94.6085 112.506 100.005V109.744H108.317C107.915 109.744 107.579 109.607 107.31 109.333C107.042 109.032 106.908 108.675 106.908 108.264V107.484C106.021 109.182 104.33 110.031 101.832 110.031C99.8184 110.031 98.2475 109.525 97.1197 108.511C95.9919 107.497 95.428 106.196 95.428 104.607C95.428 102.936 96.0456 101.649 97.2808 100.745C98.5429 99.8408 100.463 99.3888 103.041 99.3888H109.808C109.808 99.2792 109.23 99.1285 108.076 98.9368C106.921 98.7176 106.33 98.5669 106.303 98.4848C105.901 97.2246 104.746 96.5946 102.839 96.5946C101.846 96.5946 100.852 96.7863 99.8587 97.1698C99.3485 97.389 98.8383 97.4027 98.3281 97.2109C97.8447 97.0192 97.4822 96.6767 97.2406 96.1836L96.153 93.9647C97.1197 93.3073 98.2744 92.8005 99.6171 92.4443C100.987 92.0882 102.356 91.9102 103.726 91.9102ZM103.524 106.128C105.028 106.128 106.008 105.457 106.465 104.114V102.594H103.887C102.141 102.594 101.269 103.183 101.269 104.361C101.269 104.881 101.456 105.306 101.832 105.635C102.235 105.963 102.799 106.128 103.524 106.128Z" fill="white"/>
<path d="M81.7411 92.1978H76.545C76.1154 92.1978 75.7394 92.0334 75.4172 91.7047C75.095 91.376 74.9338 90.9924 74.9338 90.5541V87.1436H94.7916V92.1978H84.5204L88.0247 94.2934V109.744H83.4328C82.9763 109.744 82.5735 109.579 82.2244 109.251C81.9022 108.895 81.7411 108.484 81.7411 108.018V92.1978Z" fill="white"/>
<path d="M63.7214 91.9102C69.5754 91.9102 72.5023 94.6085 72.5023 100.005V109.744H68.3133C67.9105 109.744 67.5748 109.607 67.3063 109.333C67.0378 109.032 66.9035 108.675 66.9035 108.264V107.484C66.0173 109.182 64.3256 110.031 61.8283 110.031C59.8143 110.031 58.2434 109.525 57.1156 108.511C55.9877 107.497 55.4238 106.196 55.4238 104.607C55.4238 102.936 56.0414 101.649 57.2767 100.745C58.5388 99.8408 60.4588 99.3888 63.0367 99.3888H69.8036C69.8036 99.2792 69.2263 99.1285 68.0716 98.9368C66.9169 98.7176 66.3262 98.5669 66.2993 98.4848C65.8965 97.2246 64.7418 96.5946 62.8353 96.5946C61.8417 96.5946 60.8481 96.7863 59.8546 97.1698C59.3444 97.389 58.8342 97.4027 58.324 97.2109C57.8406 97.0192 57.4781 96.6767 57.2364 96.1836L56.1489 93.9647C57.1156 93.3073 58.2702 92.8005 59.6129 92.4443C60.9824 92.0882 62.3519 91.9102 63.7214 91.9102ZM63.52 106.128C65.0238 106.128 66.0039 105.457 66.4604 104.114V102.594H63.8825C62.1371 102.594 61.2644 103.183 61.2644 104.361C61.2644 104.881 61.4523 105.306 61.8283 105.635C62.2311 105.963 62.795 106.128 63.52 106.128Z" fill="white"/>
<path d="M44.8825 95.444C46.3057 93.9921 47.6215 93.047 48.8299 92.6087C50.0651 92.143 51.4481 91.9102 52.9787 91.9102V97.4575C52.4416 97.4027 51.9986 97.3753 51.6495 97.3753C50.3605 97.3753 49.3401 97.7314 48.5882 98.4437C47.8632 99.1285 47.5007 100.211 47.5007 101.69V108.182C47.5007 108.621 47.353 108.99 47.0576 109.292C46.7891 109.593 46.44 109.744 46.0103 109.744H41.499V93.6771C41.499 93.2662 41.6333 92.9237 41.9018 92.6498C42.1972 92.3759 42.5329 92.2389 42.9088 92.2389H47.2187L44.8825 95.444Z" fill="white"/>
<path d="M30.2861 91.9102C36.1401 91.9102 39.067 94.6085 39.067 100.005V109.744H34.878C34.4752 109.744 34.1395 109.607 33.871 109.333C33.6025 109.032 33.4682 108.675 33.4682 108.264V107.484C32.582 109.182 30.8903 110.031 28.393 110.031C26.379 110.031 24.8081 109.525 23.6803 108.511C22.5524 107.497 21.9885 106.196 21.9885 104.607C21.9885 102.936 22.6061 101.649 23.8414 100.745C25.1035 99.8408 27.0235 99.3888 29.6014 99.3888H36.3683C36.3683 99.2792 35.791 99.1285 34.6363 98.9368C33.4816 98.7176 32.8909 98.5669 32.864 98.4848C32.4612 97.2246 31.3065 96.5946 29.4 96.5946C28.4064 96.5946 27.4128 96.7863 26.4193 97.1698C25.9091 97.389 25.3989 97.4027 24.8887 97.2109C24.4053 97.0192 24.0428 96.6767 23.8011 96.1836L22.7136 93.9647C23.6803 93.3073 24.8349 92.8005 26.1776 92.4443C27.5471 92.0882 28.9166 91.9102 30.2861 91.9102ZM30.0847 106.128C31.5885 106.128 32.5686 105.457 33.0251 104.114V102.594H30.4472C28.7018 102.594 27.8291 103.183 27.8291 104.361C27.8291 104.881 28.017 105.306 28.393 105.635C28.7958 105.963 29.3597 106.128 30.0847 106.128Z" fill="white"/>
<path d="M10.1504 87.1436C13.158 87.1436 15.5479 87.8969 17.3202 89.4036C19.0925 90.8829 19.9786 92.91 19.9786 95.4851C19.9786 98.0601 19.0925 100.101 17.3202 101.608C15.5479 103.087 13.158 103.827 10.1504 103.827H6.28361V107.443C6.28361 108.073 6.05536 108.621 5.59886 109.086C5.16921 109.525 4.63215 109.744 3.98767 109.744H0V87.1436H10.1504ZM9.74765 98.7724C11.0366 98.7724 12.0033 98.4984 12.6478 97.9506C13.3191 97.3753 13.6548 96.5534 13.6548 95.4851C13.6548 94.4167 13.3191 93.5949 12.6478 93.0196C12.0033 92.4443 11.0366 92.1567 9.74765 92.1567H2.29593L6.28361 93.8414V98.7724H9.74765Z" fill="white"/>
</svg>
