<svg width="127" height="144" viewBox="0 0 127 144" fill="none" xmlns="http://www.w3.org/2000/svg">
<path opacity="0.2" d="M125.122 50.1714H111.607C110.771 50.1714 110.093 50.8494 110.093 51.6857V58.7216C110.093 59.558 110.771 60.2359 111.607 60.2359H125.122C125.958 60.2359 126.636 59.558 126.636 58.7216V51.6857C126.636 50.8494 125.958 50.1714 125.122 50.1714Z" fill="#5000A0"/>
<path d="M110.375 51.2786L117.568 54.9715C117.794 55.0852 118.044 55.1444 118.297 55.1444C118.55 55.1444 118.799 55.0852 119.025 54.9715L126.404 51.25" stroke="#5000A0" stroke-width="0.638963" stroke-linecap="round" stroke-linejoin="round"/>
<path opacity="0.2" d="M21.5586 49.4641C21.5046 49.3942 21.4354 49.3376 21.3561 49.2986C21.2769 49.2596 21.1898 49.2392 21.1015 49.2391H6.33678L5.75819 47.5283C5.71799 47.4185 5.64507 47.3237 5.54927 47.2566C5.45347 47.1896 5.3394 47.1535 5.22246 47.1533H1.47236C1.32815 47.1647 1.19352 47.23 1.09534 47.3363C0.997156 47.4425 0.942627 47.5819 0.942627 47.7265C0.942627 47.8712 0.997156 48.0106 1.09534 48.1168C1.19352 48.2231 1.32815 48.2884 1.47236 48.2998H4.79745L8.40112 59.1179C8.43872 59.2322 8.51145 59.3317 8.60892 59.4023C8.7064 59.4728 8.82366 59.5108 8.94399 59.5108H9.15471C8.96204 59.809 8.85332 60.1537 8.84002 60.5085C8.82671 60.8633 8.9093 61.2152 9.0791 61.527C9.24889 61.8389 9.49961 62.0992 9.80486 62.2805C10.1101 62.4619 10.4586 62.5576 10.8137 62.5576C11.1687 62.5576 11.5173 62.4619 11.8225 62.2805C12.1278 62.0992 12.3785 61.8389 12.5483 61.527C12.7181 61.2152 12.8007 60.8633 12.7873 60.5085C12.774 60.1537 12.6653 59.809 12.4727 59.5108H15.2263C15.0336 59.809 14.9249 60.1537 14.9116 60.5085C14.8983 60.8633 14.9809 61.2152 15.1507 61.527C15.3205 61.8389 15.5712 62.0992 15.8765 62.2805C16.1817 62.4619 16.5302 62.5576 16.8853 62.5576C17.2403 62.5576 17.5888 62.4619 17.8941 62.2805C18.1994 62.0992 18.4501 61.8389 18.6199 61.527C18.7897 61.2152 18.8722 60.8633 18.8589 60.5085C18.8456 60.1537 18.7369 59.809 18.5443 59.5108H18.9871C19.1313 59.4994 19.266 59.4341 19.3641 59.3278C19.4623 59.2216 19.5169 59.0822 19.5169 58.9376C19.5169 58.7929 19.4623 58.6535 19.3641 58.5473C19.266 58.4411 19.1313 58.3757 18.9871 58.3643H9.344L8.71541 56.475H19.43C19.5561 56.4747 19.6786 56.4329 19.7786 56.3561C19.8787 56.2793 19.9507 56.1717 19.9836 56.05L21.6158 49.9784C21.6474 49.8942 21.6587 49.8038 21.6487 49.7144C21.6388 49.625 21.6079 49.5393 21.5586 49.4641ZM10.844 61.3823C10.6802 61.3823 10.52 61.3337 10.3837 61.2426C10.2474 61.1516 10.1412 61.0222 10.0785 60.8708C10.0158 60.7194 9.9994 60.5528 10.0314 60.392C10.0633 60.2313 10.1423 60.0837 10.2581 59.9678C10.374 59.8519 10.5217 59.773 10.6824 59.741C10.8431 59.709 11.0097 59.7254 11.1611 59.7882C11.3125 59.8509 11.4419 59.9571 11.533 60.0933C11.624 60.2296 11.6726 60.3898 11.6726 60.5537C11.6727 60.664 11.6507 60.7732 11.6079 60.8749C11.5651 60.9767 11.5025 61.0688 11.4237 61.146C11.3448 61.2232 11.2514 61.2838 11.1488 61.3244C11.0462 61.365 10.9365 61.3846 10.8262 61.3823H10.844ZM16.9156 61.3823C16.7518 61.3823 16.5916 61.3337 16.4553 61.2426C16.319 61.1516 16.2128 61.0222 16.1501 60.8708C16.0874 60.7194 16.071 60.5528 16.103 60.392C16.1349 60.2313 16.2138 60.0837 16.3297 59.9678C16.4456 59.8519 16.5933 59.773 16.754 59.741C16.9147 59.709 17.0813 59.7254 17.2327 59.7882C17.3841 59.8509 17.5135 59.9571 17.6046 60.0933C17.6956 60.2296 17.7442 60.3898 17.7442 60.5537C17.7443 60.664 17.7222 60.7732 17.6795 60.8749C17.6367 60.9767 17.5741 61.0688 17.4953 61.146C17.4164 61.2232 17.323 61.2838 17.2204 61.3244C17.1178 61.365 17.0081 61.3846 16.8978 61.3823H16.9156ZM18.4442 55.3107H16.3228V50.3856H18.4442V55.3107ZM13.0548 50.3856H15.1763V55.3107H13.0548V50.3856ZM11.9084 55.3107H9.76544V50.3856H11.9084V55.3107ZM6.71893 50.3856H8.61541V55.3107H8.35826L6.71893 50.3856ZM19.5764 53.2856V50.3856H20.3586L19.5764 53.2856Z" fill="#5000A0"/>
<path opacity="0.2" d="M112.19 22.1526L113.515 21.549L113.233 19.9597L111.772 19.8454C111.587 19.3546 111.341 18.8891 111.04 18.4596L111.793 17.1881L110.654 16.0453L109.372 16.8096C108.634 16.3082 107.8 15.9674 106.922 15.8095L106.565 14.3452H104.95L104.593 15.8167C104.092 15.9123 103.604 16.0682 103.14 16.281L101.986 15.281L100.664 16.206L101.207 17.6346C100.854 17.9988 100.543 18.4026 100.282 18.8382L98.7608 18.681L98.2073 20.1989L99.468 21.0525C99.4064 21.4064 99.3753 21.7648 99.3751 22.124C99.3751 22.2776 99.3751 22.4276 99.393 22.5776L98.0715 23.3169L98.4894 24.8776H99.9859C100.208 25.3448 100.485 25.7837 100.811 26.1848L100.15 27.5099L101.386 28.5456L102.586 27.6884C103.036 27.9481 103.516 28.1531 104.015 28.2992L104.254 29.7278L105.865 29.8706L106.347 28.4992C106.875 28.4534 107.396 28.3418 107.897 28.167L108.911 29.1956L110.311 28.3884L109.925 26.9991C110.33 26.6544 110.69 26.2609 110.997 25.8277L112.425 26.0884L113.118 24.6526L112.004 23.7312C112.13 23.2145 112.193 22.6844 112.19 22.1526ZM109.8 22.124C109.8 22.9215 109.564 23.7011 109.121 24.3642C108.678 25.0273 108.048 25.5441 107.311 25.8493C106.574 26.1545 105.764 26.2344 104.982 26.0788C104.199 25.9232 103.481 25.5391 102.917 24.9752C102.353 24.4113 101.969 23.6928 101.813 22.9106C101.658 22.1285 101.738 21.3177 102.043 20.5809C102.348 19.8441 102.865 19.2144 103.528 18.7713C104.191 18.3282 104.971 18.0917 105.768 18.0917C106.301 18.0894 106.83 18.1929 107.323 18.3963C107.816 18.5997 108.263 18.899 108.64 19.2767C109.016 19.6544 109.314 20.1032 109.516 20.5968C109.717 21.0905 109.819 21.6193 109.815 22.1526L109.8 22.124Z" fill="#5000A0"/>
<path opacity="0.2" d="M107.157 92.9476C107.077 93.0961 107.058 93.2697 107.103 93.4321C107.149 93.5945 107.255 93.7331 107.4 93.819C107.576 93.9253 107.786 93.9591 107.986 93.913C108.186 93.867 108.36 93.7449 108.471 93.5726L110.354 90.669L110.389 90.6047L112.811 90.3475L112.564 90.8297C112.527 90.9002 112.515 90.9821 112.533 91.0602C112.551 91.1383 112.596 91.2074 112.661 91.2547C112.697 91.2803 112.739 91.2979 112.783 91.3063C112.827 91.3148 112.872 91.314 112.915 91.3039C112.959 91.2938 112.999 91.2746 113.035 91.2477C113.071 91.2207 113.1 91.1866 113.122 91.1475L113.611 90.2654L115.432 90.0725L115.075 90.7439C115.038 90.8161 115.029 90.8997 115.051 90.9778C115.073 91.056 115.124 91.123 115.193 91.1654C115.202 91.2036 115.222 91.2382 115.251 91.2646C115.279 91.2911 115.316 91.3082 115.354 91.3136C115.393 91.3191 115.433 91.3126 115.468 91.295C115.503 91.2775 115.531 91.2497 115.55 91.2154L116.232 89.9868L117.44 89.8582C117.662 89.8357 117.876 89.7641 118.067 89.6486C118.258 89.5331 118.42 89.3766 118.543 89.1903L118.743 88.8903L115.047 88.5046C115.047 88.5046 112.65 88.2867 112.275 87.1081L114.122 83.658L114.139 83.6116L116.7 83.333L117.261 82.5902L114.807 81.9866L114.975 81.583C114.979 81.5746 114.979 81.5651 114.977 81.5563C114.974 81.5475 114.969 81.5399 114.961 81.5348C114.953 81.5297 114.944 81.5275 114.935 81.5284C114.926 81.5294 114.917 81.5335 114.911 81.5401L114.554 81.8973L112.854 79.9365L112.368 80.8401L113.393 83.058L113.329 83.1223L111.332 86.0831C110.957 86.3974 110.261 86.7974 109.682 86.1403C108.804 85.1867 106.493 81.4687 106.493 81.4687L106.264 82.0366C106.118 82.4084 106.118 82.8219 106.264 83.1938L106.671 84.2652L106.118 85.2974C106.08 85.3679 106.069 85.4498 106.087 85.5279C106.104 85.606 106.15 85.6751 106.214 85.7224C106.252 85.7473 106.294 85.7643 106.338 85.7723C106.382 85.7802 106.427 85.779 106.471 85.7686C106.514 85.7582 106.555 85.7389 106.591 85.7119C106.627 85.6849 106.657 85.6507 106.679 85.6117L106.964 85.0974L107.564 86.6653L107.036 87.6939C106.997 87.7652 106.986 87.8482 107.005 87.9271C107.023 88.006 107.07 88.0755 107.136 88.1225C107.173 88.1473 107.214 88.1643 107.258 88.1722C107.302 88.1801 107.347 88.1788 107.39 88.1684C107.434 88.158 107.474 88.1387 107.51 88.1117C107.545 88.0848 107.575 88.0507 107.596 88.0117L107.904 87.5117L108.818 89.8939L107.157 92.9476Z" fill="#5000A0"/>
<path opacity="0.2" d="M40.4271 13.1279H23.491V23.3139H40.4271V13.1279Z" fill="#5000A0"/>
<path d="M31.7017 21.0631C33.3645 21.0631 34.7125 19.7151 34.7125 18.0523C34.7125 16.3895 33.3645 15.0415 31.7017 15.0415C30.0389 15.0415 28.6909 16.3895 28.6909 18.0523C28.6909 19.7151 30.0389 21.0631 31.7017 21.0631Z" fill="#5000A0"/>
<path opacity="0.2" d="M33.8879 18.0524L30.5771 16.1416V19.9631L33.8879 18.0524Z" fill="#5000A0"/>
<path opacity="0.2" d="M19.9085 81.3115V89.2975C19.5785 89.123 19.2103 89.0334 18.8371 89.0367C17.8013 89.0367 16.9656 89.6832 16.9656 90.4653C16.9656 91.2475 17.8013 91.9118 18.8371 91.9118C20.58 91.9118 20.7085 90.7189 20.7085 90.7189V83.7045L25.6801 82.9902V88.3474C25.3492 88.1758 24.9814 88.0875 24.6086 88.0903C23.5729 88.0903 22.7372 88.7367 22.7372 89.5368C22.7372 90.3368 23.5729 90.9654 24.6086 90.9654C25.5265 90.9654 26.2908 90.4475 26.4444 89.7725L26.473 82.8687V80.3687L19.9085 81.3115Z" fill="#5000A0"/>
<path opacity="0.2" d="M73.9922 8.58061V7.65558C73.9922 7.50308 73.9316 7.35682 73.8238 7.24898C73.7159 7.14115 73.5697 7.08057 73.4172 7.08057H72.4421C72.2896 7.08057 72.1434 7.14115 72.0356 7.24898C71.9277 7.35682 71.8671 7.50308 71.8671 7.65558V11.0021H62.224V7.65558C62.224 7.50308 62.1634 7.35682 62.0556 7.24898C61.9478 7.14115 61.8015 7.08057 61.649 7.08057H60.6097C60.4591 7.08337 60.3155 7.14519 60.21 7.25273C60.1045 7.36026 60.0454 7.50492 60.0454 7.65558V8.58061H58.5132C58.3399 8.58061 58.1736 8.64947 58.0511 8.77204C57.9285 8.89461 57.8596 9.06085 57.8596 9.2342V13.5807C57.8596 13.7544 57.9284 13.921 58.0508 14.0442C58.1733 14.1673 58.3395 14.237 58.5132 14.2379H60.0454V15.1522C60.0463 15.3017 60.1053 15.4449 60.21 15.5515C60.3146 15.6582 60.4567 15.7199 60.6061 15.7237H61.6454C61.7979 15.7237 61.9442 15.6631 62.052 15.5552C62.1599 15.4474 62.2204 15.3011 62.2204 15.1486V12.5093H71.8636V15.1308C71.8612 15.2081 71.8744 15.2851 71.9024 15.3572C71.9305 15.4292 71.9728 15.4949 72.0268 15.5503C72.0808 15.6056 72.1454 15.6495 72.2168 15.6793C72.2882 15.7091 72.3648 15.7242 72.4421 15.7237H73.4172C73.5697 15.7237 73.7159 15.6631 73.8238 15.5552C73.9316 15.4474 73.9922 15.3011 73.9922 15.1486V14.2236H75.4637C75.6349 14.2227 75.799 14.155 75.9211 14.035C76.0431 13.9149 76.1135 13.7519 76.1172 13.5807V9.22705C76.1154 9.05495 76.0457 8.89054 75.9233 8.76951C75.8009 8.64848 75.6358 8.5806 75.4637 8.58061H73.9922Z" fill="#5000A0"/>
<path opacity="0.2" d="M63.5432 98.7569C85.4616 98.7569 103.23 80.9885 103.23 59.0701C103.23 37.1517 85.4616 19.3833 63.5432 19.3833C41.6248 19.3833 23.8564 37.1517 23.8564 59.0701C23.8564 80.9885 41.6248 98.7569 63.5432 98.7569Z" fill="white"/>
<path d="M63.5434 95.6424C83.7417 95.6424 100.116 79.2683 100.116 59.07C100.116 38.8716 83.7417 22.4976 63.5434 22.4976C43.345 22.4976 26.9709 38.8716 26.9709 59.07C26.9709 79.2683 43.345 95.6424 63.5434 95.6424Z" fill="#5000A0" stroke="white" stroke-width="0.85195" stroke-miterlimit="10"/>
<g opacity="0.2">
<path d="M63.5433 60.2665C63.3838 60.2675 63.2257 60.2364 63.0784 60.1751C62.9312 60.1137 62.7978 60.0234 62.6862 59.9094L39.682 36.2838C39.4719 36.0544 39.3594 35.7522 39.3684 35.4412C39.3774 35.1303 39.5071 34.8351 39.73 34.6182C39.953 34.4013 40.2516 34.2797 40.5627 34.2793C40.8738 34.2789 41.1727 34.3996 41.3963 34.6159L64.4041 58.2236C64.5686 58.3921 64.6797 58.6055 64.7235 58.8368C64.7673 59.0682 64.7418 59.3074 64.6503 59.5244C64.5588 59.7413 64.4052 59.9265 64.209 60.0566C64.0127 60.1867 63.7824 60.256 63.5469 60.2558L63.5433 60.2665Z" fill="white"/>
</g>
<path opacity="0.2" d="M53.225 67.1709C52.9676 67.1721 52.7167 67.0903 52.5095 66.9376C52.3023 66.7848 52.1499 66.5693 52.0749 66.3231C51.9999 66.0768 52.0063 65.8129 52.0932 65.5706C52.1801 65.3283 52.3428 65.1205 52.5572 64.978L62.8789 58.0743C63.1427 57.9072 63.4614 57.8499 63.7669 57.9147C64.0724 57.9794 64.3404 58.161 64.5139 58.4206C64.6873 58.6803 64.7523 58.9975 64.6951 59.3045C64.6378 59.6115 64.4628 59.8839 64.2075 60.0636L53.8893 66.9674C53.6928 67.0992 53.4617 67.1701 53.225 67.1709Z" fill="white"/>
<path d="M65.0256 59.0707C65.0263 58.7774 64.94 58.4905 64.7776 58.2463C64.6152 58.0021 64.3839 57.8115 64.1131 57.6988C63.8424 57.5861 63.5442 57.5562 63.2565 57.613C62.9687 57.6698 62.7043 57.8107 62.4967 58.0178C62.289 58.225 62.1475 58.4891 62.09 58.7767C62.0325 59.0643 62.0617 59.3625 62.1738 59.6335C62.2858 59.9046 62.4758 60.1363 62.7196 60.2993C62.9634 60.4623 63.2502 60.5493 63.5435 60.5493C63.9359 60.5493 64.3124 60.3937 64.5903 60.1165C64.8681 59.8393 65.0247 59.4632 65.0256 59.0707Z" fill="white" stroke="white" stroke-width="0.85195" stroke-miterlimit="10" stroke-linecap="round"/>
<path d="M63.572 25.769V30.712" stroke="white" stroke-width="1.7039" stroke-miterlimit="10" stroke-linecap="round"/>
<path d="M63.572 87.0425V91.9855" stroke="white" stroke-width="1.7039" stroke-miterlimit="10" stroke-linecap="round"/>
<path d="M96.6802 58.8779H91.7336" stroke="white" stroke-width="1.7039" stroke-miterlimit="10" stroke-linecap="round"/>
<path d="M35.4066 58.8779H30.4636" stroke="white" stroke-width="1.7039" stroke-miterlimit="10" stroke-linecap="round"/>
<path d="M80.933 30.687L78.3401 34.8978" stroke="white" stroke-width="1.7039" stroke-miterlimit="10" stroke-linecap="round"/>
<path d="M48.8002 82.8569L46.2073 87.0678" stroke="white" stroke-width="1.7039" stroke-miterlimit="10" stroke-linecap="round"/>
<path d="M92.698 43.1377L88.3479 45.4878" stroke="white" stroke-width="1.7039" stroke-miterlimit="10" stroke-linecap="round"/>
<path d="M38.7927 72.2671L34.4426 74.6171" stroke="white" stroke-width="1.7039" stroke-miterlimit="10" stroke-linecap="round"/>
<path d="M91.7623 76.242L87.5515 73.6455" stroke="white" stroke-width="1.7039" stroke-miterlimit="10" stroke-linecap="round"/>
<path d="M39.5929 44.109L35.3821 41.5161" stroke="white" stroke-width="1.7039" stroke-miterlimit="10" stroke-linecap="round"/>
<path d="M79.3115 88.0065L76.9614 83.6528" stroke="white" stroke-width="1.7039" stroke-miterlimit="10" stroke-linecap="round"/>
<path d="M50.1823 34.1016L47.8323 29.7515" stroke="white" stroke-width="1.7039" stroke-miterlimit="10" stroke-linecap="round"/>
<path d="M63.7819 143.202C79.5046 143.202 92.2505 141.696 92.2505 139.838C92.2505 137.979 79.5046 136.473 63.7819 136.473C48.0591 136.473 35.3132 137.979 35.3132 139.838C35.3132 141.696 48.0591 143.202 63.7819 143.202Z" fill="#5000A0"/>
<path opacity="0.5" d="M63.7819 143.202C79.5046 143.202 92.2505 141.696 92.2505 139.838C92.2505 137.979 79.5046 136.473 63.7819 136.473C48.0591 136.473 35.3132 137.979 35.3132 139.838C35.3132 141.696 48.0591 143.202 63.7819 143.202Z" fill="white"/>
<path d="M70.8527 89.7782C70.8135 88.9853 70.8527 87.7639 70.8849 87.0603C70.9799 86.4914 71.0277 85.9156 71.0278 85.3388C71.0278 77.6815 68.0741 77.0386 64.424 77.0386C60.7739 77.0386 57.8203 78.2672 57.8203 85.3388C57.8203 85.5245 57.8203 85.696 57.8381 85.8924C57.8703 86.1995 58.1703 89.1353 57.8953 90.2425C57.6024 91.4104 55.263 91.6461 53.9202 94.4498C52.5773 97.2534 55.4988 101.346 65.024 101.871C74.5493 102.396 75.5386 96.0319 75.5386 93.8712C75.5386 91.7104 70.9135 90.9461 70.8527 89.7782Z" fill="#220044"/>
<path d="M57.5881 85.9214L57.8239 85.8964V85.8643L57.5881 85.9214Z" fill="#220044"/>
<path d="M58.931 96.4395C58.931 96.4395 55.0773 96.6502 53.7094 97.418C52.3415 98.1859 52.0844 102.718 52.0844 102.718L47.9843 111.518C47.9843 111.518 36.959 103.829 36.0196 103.061C35.0803 102.293 34.8232 101.693 33.8767 101.093C32.9303 100.493 32.5946 100.497 31.3981 100.497C30.2016 100.497 30.0302 100.668 30.1159 101.007C30.2016 101.347 30.6302 101.436 30.9695 101.436C31.3446 101.466 31.7171 101.523 32.0838 101.607L28.6623 102.975C27.8087 103.315 27.9801 101.947 27.2123 101.947C26.4444 101.947 26.5265 103.915 27.8087 104.854C29.0909 105.793 29.9516 105.536 30.9695 105.45C31.9874 105.365 34.391 105.025 34.391 105.025C34.391 105.025 40.9698 110.836 43.3627 112.972C45.7556 115.108 49.0021 117.158 50.1986 116.304C51.3951 115.451 55.913 107.075 55.913 107.075L58.8167 99.386C58.8167 99.386 59.6274 97.7716 58.931 96.4395Z" fill="white"/>
<mask id="mask0_758_233897" style="mask-type:luminance" maskUnits="userSpaceOnUse" x="26" y="96" width="34" height="21">
<path d="M58.931 96.4395C58.931 96.4395 55.0773 96.6502 53.7094 97.418C52.3415 98.1859 52.0844 102.718 52.0844 102.718L47.9843 111.518C47.9843 111.518 36.959 103.829 36.0196 103.061C35.0803 102.293 34.8232 101.693 33.8767 101.093C32.9303 100.493 32.5946 100.497 31.3981 100.497C30.2016 100.497 30.0302 100.668 30.1159 101.007C30.2016 101.347 30.6302 101.436 30.9695 101.436C31.3446 101.466 31.7171 101.523 32.0838 101.607L28.6623 102.975C27.8087 103.315 27.9801 101.947 27.2123 101.947C26.4444 101.947 26.5265 103.915 27.8087 104.854C29.0909 105.793 29.9516 105.536 30.9695 105.45C31.9874 105.365 34.391 105.025 34.391 105.025C34.391 105.025 40.9698 110.836 43.3627 112.972C45.7556 115.108 49.0021 117.158 50.1986 116.304C51.3951 115.451 55.913 107.075 55.913 107.075L58.8167 99.386C58.8167 99.386 59.6274 97.7716 58.931 96.4395Z" fill="white"/>
</mask>
<g mask="url(#mask0_758_233897)">
<path opacity="0.1" d="M58.931 96.4395C58.931 96.4395 55.0773 96.6502 53.7094 97.418C52.3415 98.1859 52.0844 102.718 52.0844 102.718L47.9843 111.518C47.9843 111.518 36.959 103.829 36.0196 103.061C35.0803 102.293 34.8232 101.693 33.8767 101.093C32.9303 100.493 32.5946 100.497 31.3981 100.497C30.2016 100.497 30.0302 100.668 30.1159 101.007C30.2016 101.347 30.6302 101.436 30.9695 101.436C31.3446 101.466 31.7171 101.523 32.0838 101.607L28.6623 102.975C27.8087 103.315 27.9801 101.947 27.2123 101.947C26.4444 101.947 26.5265 103.915 27.8087 104.854C29.0909 105.793 29.9516 105.536 30.9695 105.45C31.9874 105.365 34.391 105.025 34.391 105.025C34.391 105.025 40.9698 110.836 43.3627 112.972C45.7556 115.108 49.0021 117.158 50.1986 116.304C51.3951 115.451 55.913 107.075 55.913 107.075L58.8167 99.386C58.8167 99.386 59.6274 97.7716 58.931 96.4395Z" fill="black"/>
</g>
<path d="M58.931 96.4395C58.931 96.4395 55.0773 96.6502 53.7094 97.418C52.3415 98.1859 52.0844 102.718 52.0844 102.718L47.9843 111.518C47.9843 111.518 36.959 103.829 36.0196 103.061C35.0803 102.293 34.8232 101.693 33.8767 101.093C32.9303 100.493 32.5946 100.497 31.3981 100.497C30.2016 100.497 30.0302 100.668 30.1159 101.007C30.2016 101.347 30.6302 101.436 30.9695 101.436C31.3446 101.466 31.7171 101.523 32.0838 101.607L28.6623 102.975C27.8087 103.315 27.9801 101.947 27.2123 101.947C26.4444 101.947 26.5265 103.915 27.8087 104.854C29.0909 105.793 29.9516 105.536 30.9695 105.45C31.9874 105.365 34.391 105.025 34.391 105.025C34.391 105.025 40.9698 110.836 43.3627 112.972C45.7556 115.108 49.0021 117.158 50.1986 116.304C51.3951 115.451 55.913 107.075 55.913 107.075L58.8167 99.386C58.8167 99.386 59.6274 97.7716 58.931 96.4395Z" stroke="#220044" stroke-width="0.85195" stroke-miterlimit="10" stroke-linecap="round"/>
<path d="M28.0555 105.043C28.0555 105.043 26.3911 103.693 27.2876 102.372C27.509 102.043 28.0019 102.54 28.1448 103.443C28.2876 104.347 28.7376 104.697 28.9698 104.761" fill="white"/>
<mask id="mask1_758_233897" style="mask-type:luminance" maskUnits="userSpaceOnUse" x="27" y="102" width="2" height="4">
<path d="M28.0555 105.043C28.0555 105.043 26.3911 103.693 27.2876 102.372C27.509 102.043 28.0019 102.54 28.1448 103.443C28.2876 104.347 28.7376 104.697 28.9698 104.761" fill="white"/>
</mask>
<g mask="url(#mask1_758_233897)">
<path opacity="0.1" d="M28.0555 105.043C28.0555 105.043 26.3911 103.693 27.2876 102.372C27.509 102.043 28.0019 102.54 28.1448 103.443C28.2876 104.347 28.7376 104.697 28.9698 104.761" fill="black"/>
</g>
<path d="M28.0555 105.043C28.0555 105.043 26.3911 103.693 27.2876 102.372C27.509 102.043 28.0019 102.54 28.1448 103.443C28.2876 104.347 28.7376 104.697 28.9698 104.761" stroke="#220044" stroke-width="0.85195" stroke-miterlimit="10" stroke-linecap="round"/>
<path d="M29.2981 104.747C28.9016 104.747 28.9231 103.676 28.1766 103.165C27.5838 102.747 27.6588 103.568 27.798 104.236C27.8526 104.51 27.9884 104.761 28.1878 104.957C28.3872 105.153 28.641 105.284 28.9159 105.333C29.1717 105.397 29.4379 105.408 29.6981 105.365" fill="white"/>
<mask id="mask2_758_233897" style="mask-type:luminance" maskUnits="userSpaceOnUse" x="27" y="103" width="3" height="3">
<path d="M29.2981 104.747C28.9016 104.747 28.9231 103.676 28.1766 103.165C27.5838 102.747 27.6588 103.568 27.798 104.236C27.8526 104.51 27.9884 104.761 28.1878 104.957C28.3872 105.153 28.641 105.284 28.9159 105.333C29.1717 105.397 29.4379 105.408 29.6981 105.365" fill="white"/>
</mask>
<g mask="url(#mask2_758_233897)">
<path opacity="0.1" d="M29.2981 104.747C28.9016 104.747 28.9231 103.676 28.1766 103.165C27.5838 102.747 27.6588 103.568 27.798 104.236C27.8526 104.51 27.9884 104.761 28.1878 104.957C28.3872 105.153 28.641 105.284 28.9159 105.333C29.1717 105.397 29.4379 105.408 29.6981 105.365" fill="black"/>
</g>
<path d="M29.2981 104.747C28.9016 104.747 28.9231 103.676 28.1766 103.165C27.5838 102.747 27.6588 103.568 27.798 104.236C27.8526 104.51 27.9884 104.761 28.1878 104.957C28.3872 105.153 28.641 105.284 28.9159 105.333C29.1717 105.397 29.4379 105.408 29.6981 105.365" stroke="#220044" stroke-width="0.85195" stroke-miterlimit="10" stroke-linecap="round"/>
<path d="M34.3126 103.001C34.3126 103.001 33.7519 102.604 32.6626 102.968C31.5733 103.333 30.2875 104.915 29.9911 104.783C29.7138 104.624 29.5032 104.37 29.3982 104.068C29.2303 103.74 28.9053 103.265 28.6839 103.647C28.191 104.483 29.5339 105.433 29.5339 105.433C29.5339 105.433 29.7196 105.59 30.759 105.465C31.7983 105.34 34.1448 105.011 34.1448 105.011" fill="white"/>
<mask id="mask3_758_233897" style="mask-type:luminance" maskUnits="userSpaceOnUse" x="28" y="102" width="7" height="4">
<path d="M34.3126 103.001C34.3126 103.001 33.7519 102.604 32.6626 102.968C31.5733 103.333 30.2875 104.915 29.9911 104.783C29.7138 104.624 29.5032 104.37 29.3982 104.068C29.2303 103.74 28.9053 103.265 28.6839 103.647C28.191 104.483 29.5339 105.433 29.5339 105.433C29.5339 105.433 29.7196 105.59 30.759 105.465C31.7983 105.34 34.1448 105.011 34.1448 105.011" fill="white"/>
</mask>
<g mask="url(#mask3_758_233897)">
<path opacity="0.1" d="M34.3126 103.001C34.3126 103.001 33.7519 102.604 32.6626 102.968C31.5733 103.333 30.2875 104.915 29.9911 104.783C29.7138 104.624 29.5032 104.37 29.3982 104.068C29.2303 103.74 28.9053 103.265 28.6839 103.647C28.191 104.483 29.5339 105.433 29.5339 105.433C29.5339 105.433 29.7196 105.59 30.759 105.465C31.7983 105.34 34.1448 105.011 34.1448 105.011" fill="black"/>
</g>
<path d="M34.3126 103.001C34.3126 103.001 33.7519 102.604 32.6626 102.968C31.5733 103.333 30.2875 104.915 29.9911 104.783C29.7138 104.624 29.5032 104.37 29.3982 104.068C29.2303 103.74 28.9053 103.265 28.6839 103.647C28.191 104.483 29.5339 105.433 29.5339 105.433C29.5339 105.433 29.7196 105.59 30.759 105.465C31.7983 105.34 34.1448 105.011 34.1448 105.011" stroke="#220044" stroke-width="0.85195" stroke-miterlimit="10" stroke-linecap="round"/>
<path d="M55.9774 105.244L54.731 101.676" stroke="#220044" stroke-width="0.85195" stroke-miterlimit="10" stroke-linecap="round"/>
<path d="M68.9348 96.3608C68.9348 96.3608 72.9956 96.6501 74.3635 97.4323C75.7314 98.2145 75.9885 102.732 75.9885 102.732L80.0886 111.533C80.0886 111.533 91.1139 103.843 92.0532 103.075C92.9926 102.307 93.2497 101.707 94.1962 101.107C95.1426 100.507 95.4783 100.511 96.6748 100.511C97.8713 100.511 98.0427 100.682 97.957 101.022C97.8713 101.361 97.4427 101.45 97.0998 101.45C96.7259 101.48 96.3547 101.538 95.9891 101.622L99.407 102.99C100.264 103.329 100.093 101.961 100.861 101.961C101.629 101.961 101.546 103.929 100.264 104.868C98.982 105.808 98.1213 105.55 97.0998 105.465C96.0784 105.379 93.6819 105.04 93.6819 105.04C93.6819 105.04 87.1031 110.851 84.7102 112.986C82.3173 115.122 79.0708 117.172 77.8743 116.319C76.6778 115.465 72.1599 107.09 72.1599 107.09L69.2562 99.4002C69.2562 99.4002 68.2419 97.693 68.9348 96.3608Z" fill="white"/>
<mask id="mask4_758_233897" style="mask-type:luminance" maskUnits="userSpaceOnUse" x="68" y="96" width="34" height="21">
<path d="M68.9348 96.3608C68.9348 96.3608 72.9956 96.6501 74.3635 97.4323C75.7314 98.2145 75.9885 102.732 75.9885 102.732L80.0886 111.533C80.0886 111.533 91.1139 103.843 92.0532 103.075C92.9926 102.307 93.2497 101.707 94.1962 101.107C95.1426 100.507 95.4783 100.511 96.6748 100.511C97.8713 100.511 98.0427 100.682 97.957 101.022C97.8713 101.361 97.4427 101.45 97.0998 101.45C96.7259 101.48 96.3547 101.538 95.9891 101.622L99.407 102.99C100.264 103.329 100.093 101.961 100.861 101.961C101.629 101.961 101.546 103.929 100.264 104.868C98.982 105.808 98.1213 105.55 97.0998 105.465C96.0784 105.379 93.6819 105.04 93.6819 105.04C93.6819 105.04 87.1031 110.851 84.7102 112.986C82.3173 115.122 79.0708 117.172 77.8743 116.319C76.6778 115.465 72.1599 107.09 72.1599 107.09L69.2562 99.4002C69.2562 99.4002 68.2419 97.693 68.9348 96.3608Z" fill="white"/>
</mask>
<g mask="url(#mask4_758_233897)">
<path opacity="0.1" d="M68.9348 96.3608C68.9348 96.3608 72.9956 96.6501 74.3635 97.4323C75.7314 98.2145 75.9885 102.732 75.9885 102.732L80.0886 111.533C80.0886 111.533 91.1139 103.843 92.0532 103.075C92.9926 102.307 93.2497 101.707 94.1962 101.107C95.1426 100.507 95.4783 100.511 96.6748 100.511C97.8713 100.511 98.0427 100.682 97.957 101.022C97.8713 101.361 97.4427 101.45 97.0998 101.45C96.7259 101.48 96.3547 101.538 95.9891 101.622L99.407 102.99C100.264 103.329 100.093 101.961 100.861 101.961C101.629 101.961 101.546 103.929 100.264 104.868C98.982 105.808 98.1213 105.55 97.0998 105.465C96.0784 105.379 93.6819 105.04 93.6819 105.04C93.6819 105.04 87.1031 110.851 84.7102 112.986C82.3173 115.122 79.0708 117.172 77.8743 116.319C76.6778 115.465 72.1599 107.09 72.1599 107.09L69.2562 99.4002C69.2562 99.4002 68.2419 97.693 68.9348 96.3608Z" fill="black"/>
</g>
<path d="M68.9348 96.3608C68.9348 96.3608 72.9956 96.6501 74.3635 97.4323C75.7314 98.2145 75.9885 102.732 75.9885 102.732L80.0886 111.533C80.0886 111.533 91.1139 103.843 92.0532 103.075C92.9926 102.307 93.2497 101.707 94.1962 101.107C95.1426 100.507 95.4783 100.511 96.6748 100.511C97.8713 100.511 98.0427 100.682 97.957 101.022C97.8713 101.361 97.4427 101.45 97.0998 101.45C96.7259 101.48 96.3547 101.538 95.9891 101.622L99.407 102.99C100.264 103.329 100.093 101.961 100.861 101.961C101.629 101.961 101.546 103.929 100.264 104.868C98.982 105.808 98.1213 105.55 97.0998 105.465C96.0784 105.379 93.6819 105.04 93.6819 105.04C93.6819 105.04 87.1031 110.851 84.7102 112.986C82.3173 115.122 79.0708 117.172 77.8743 116.319C76.6778 115.465 72.1599 107.09 72.1599 107.09L69.2562 99.4002C69.2562 99.4002 68.2419 97.693 68.9348 96.3608Z" stroke="#220044" stroke-width="0.85195" stroke-miterlimit="10" stroke-linecap="round"/>
<path d="M72.1604 104.497L73.1533 101.593" stroke="#220044" stroke-width="0.85195" stroke-miterlimit="10" stroke-linecap="round"/>
<path d="M100.429 104.558C100.429 104.558 101.143 102.54 100.786 102.372C100.429 102.204 100.072 102.54 99.9288 103.443C99.7859 104.347 99.3359 104.697 99.1038 104.761" fill="white"/>
<mask id="mask5_758_233897" style="mask-type:luminance" maskUnits="userSpaceOnUse" x="99" y="102" width="2" height="3">
<path d="M100.429 104.558C100.429 104.558 101.143 102.54 100.786 102.372C100.429 102.204 100.072 102.54 99.9288 103.443C99.7859 104.347 99.3359 104.697 99.1038 104.761" fill="white"/>
</mask>
<g mask="url(#mask5_758_233897)">
<path opacity="0.1" d="M100.918 104.122C100.918 104.122 101.15 102.54 100.786 102.372C100.422 102.204 100.072 102.54 99.9288 103.443C99.7859 104.347 99.3359 104.697 99.1038 104.761" fill="black"/>
</g>
<path d="M100.429 104.558C100.429 104.558 101.143 102.54 100.786 102.372C100.429 102.204 100.072 102.54 99.9288 103.443C99.7859 104.347 99.3359 104.697 99.1038 104.761" stroke="#220044" stroke-width="0.85195" stroke-miterlimit="10" stroke-linecap="round"/>
<path d="M99.8859 104.918C99.8859 104.918 100.786 102.372 99.743 103.047C98.9751 103.543 99.1716 104.747 98.7751 104.747" fill="white"/>
<mask id="mask6_758_233897" style="mask-type:luminance" maskUnits="userSpaceOnUse" x="98" y="102" width="3" height="3">
<path d="M99.8859 104.918C99.8859 104.918 100.786 102.372 99.743 103.047C98.9751 103.543 99.1716 104.747 98.7751 104.747" fill="white"/>
</mask>
<g mask="url(#mask6_758_233897)">
<path opacity="0.1" d="M100.093 104.947C100.093 104.947 100.786 102.372 99.7362 103.047C98.9683 103.543 99.1647 104.747 98.7683 104.747" fill="black"/>
</g>
<path d="M99.8859 104.918C99.8859 104.918 100.786 102.372 99.743 103.047C98.9751 103.543 99.1716 104.747 98.7751 104.747" stroke="#220044" stroke-width="0.85195" stroke-miterlimit="10" stroke-linecap="round"/>
<path d="M93.7534 103.001C93.7534 103.001 94.3141 102.604 95.4035 102.968C96.4928 103.333 97.7785 104.915 98.075 104.783C98.3523 104.624 98.5628 104.37 98.6678 104.068C98.8321 103.74 99.1321 103.543 99.3286 103.936C99.525 104.329 98.9321 105.49 98.9321 105.49C98.9321 105.49 98.575 105.744 97.6999 105.54C96.712 105.302 95.7082 105.136 94.6963 105.043" fill="white"/>
<mask id="mask7_758_233897" style="mask-type:luminance" maskUnits="userSpaceOnUse" x="93" y="102" width="7" height="4">
<path d="M93.7534 103.001C93.7534 103.001 94.3141 102.604 95.4035 102.968C96.4928 103.333 97.7785 104.915 98.075 104.783C98.3523 104.624 98.5628 104.37 98.6678 104.068C98.8321 103.74 99.1321 103.543 99.3286 103.936C99.525 104.329 98.9321 105.49 98.9321 105.49C98.9321 105.49 98.575 105.744 97.6999 105.54C96.712 105.302 95.7082 105.136 94.6963 105.043" fill="white"/>
</mask>
<g mask="url(#mask7_758_233897)">
<path opacity="0.1" d="M93.7534 103.001C93.7534 103.001 94.3141 102.604 95.4035 102.968C96.4928 103.333 97.7785 104.915 98.075 104.783C98.3523 104.624 98.5628 104.37 98.6678 104.068C98.8321 103.74 99.1321 103.543 99.3286 103.936C99.525 104.329 98.9321 105.49 98.9321 105.49C98.9321 105.49 98.575 105.744 97.6999 105.54C96.8249 105.336 94.4606 104.708 93.9213 104.708" fill="black"/>
</g>
<path d="M93.7534 103.001C93.7534 103.001 94.3141 102.604 95.4035 102.968C96.4928 103.333 97.7785 104.915 98.075 104.783C98.3523 104.624 98.5628 104.37 98.6678 104.068C98.8321 103.74 99.1321 103.543 99.3286 103.936C99.525 104.329 98.9321 105.49 98.9321 105.49C98.9321 105.49 98.575 105.744 97.6999 105.54C96.712 105.302 95.7082 105.136 94.6963 105.043" stroke="#220044" stroke-width="0.85195" stroke-miterlimit="10" stroke-linecap="round"/>
<path d="M62.4387 91.2397C62.4387 91.2397 62.2637 93.2291 61.4458 94.572C60.6279 95.9149 58.9457 96.4399 58.9457 96.4399L55.6171 106.669L57.3564 113.583C57.3564 113.583 54.2563 118.298 53.0384 121.162C51.8205 124.026 53.2849 127.266 54.5706 128.609C55.8563 129.951 57.5635 131.773 61.9208 131.602C67.9924 131.362 72.2782 131.916 74.2247 129.637C76.1712 127.359 76.3676 123.055 74.0533 119.808C72.6532 117.833 70.7425 113.565 70.7425 113.565L72.6354 106.44L69.7353 96.4399C69.7353 96.4399 67.9888 96.3399 66.9388 95.0541C65.8888 93.7684 66.1209 91.429 66.1209 91.429L62.4387 91.2397Z" fill="white"/>
<mask id="mask8_758_233897" style="mask-type:luminance" maskUnits="userSpaceOnUse" x="52" y="91" width="24" height="41">
<path d="M62.4387 91.2397C62.4387 91.2397 62.2637 93.2291 61.4458 94.572C60.6279 95.9149 58.9457 96.4399 58.9457 96.4399L55.6171 106.669L57.3564 113.583C57.3564 113.583 54.2563 118.298 53.0384 121.162C51.8205 124.026 53.2849 127.266 54.5706 128.609C55.8563 129.951 57.5635 131.773 61.9208 131.602C67.9924 131.362 72.2782 131.916 74.2247 129.637C76.1712 127.359 76.3676 123.055 74.0533 119.808C72.6532 117.833 70.7425 113.565 70.7425 113.565L72.6354 106.44L69.7353 96.4399C69.7353 96.4399 67.9888 96.3399 66.9388 95.0541C65.8888 93.7684 66.1209 91.429 66.1209 91.429L62.4387 91.2397Z" fill="white"/>
</mask>
<g mask="url(#mask8_758_233897)">
<path opacity="0.1" d="M62.4387 91.2397C62.4387 91.2397 62.2637 93.2291 61.4458 94.572C60.6279 95.9149 58.9457 96.4399 58.9457 96.4399L55.6171 106.669L57.3564 113.583C57.3564 113.583 54.2563 118.298 53.0384 121.162C51.8205 124.026 53.2849 127.266 54.5706 128.609C55.8563 129.951 57.5635 131.773 61.9208 131.602C67.9924 131.362 72.2782 131.916 74.2247 129.637C76.1712 127.359 76.3676 123.055 74.0533 119.808C72.6532 117.833 70.7425 113.565 70.7425 113.565L72.6354 106.44L69.7353 96.4399C69.7353 96.4399 67.9888 96.3399 66.9388 95.0541C65.8888 93.7684 66.1209 91.429 66.1209 91.429L62.4387 91.2397Z" fill="black"/>
</g>
<path d="M62.4387 91.2397C62.4387 91.2397 62.2637 93.2291 61.4458 94.572C60.6279 95.9149 58.9457 96.4399 58.9457 96.4399L55.6171 106.669L57.3564 113.583C57.3564 113.583 54.2563 118.298 53.0384 121.162C51.8205 124.026 53.2849 127.266 54.5706 128.609C55.8563 129.951 57.5635 131.773 61.9208 131.602C67.9924 131.362 72.2782 131.916 74.2247 129.637C76.1712 127.359 76.3676 123.055 74.0533 119.808C72.6532 117.833 70.7425 113.565 70.7425 113.565L72.6354 106.44L69.7353 96.4399C69.7353 96.4399 67.9888 96.3399 66.9388 95.0541C65.8888 93.7684 66.1209 91.429 66.1209 91.429L62.4387 91.2397Z" stroke="#220044" stroke-width="0.85195" stroke-miterlimit="10" stroke-linecap="round"/>
<path d="M72.6351 106.44L69.7351 96.4396C69.4443 96.4191 69.1561 96.3713 68.8743 96.2968C69.21 98.6218 68.81 99.7862 68.81 99.7862C68.7526 100.296 68.5738 100.785 68.2886 101.212C68.0034 101.639 67.62 101.991 67.1707 102.24C65.5957 103.176 62.6134 103.351 60.742 101.833C59.3134 100.686 59.5812 97.5468 59.7919 96.0718C59.5164 96.2194 59.2284 96.3425 58.9312 96.4396L55.6025 106.668L57.3562 113.583H70.7351L72.6351 106.44Z" fill="#220044" stroke="#220044" stroke-width="0.85195" stroke-miterlimit="10" stroke-linecap="round"/>
<path d="M59.6063 86.6002C59.6063 86.6002 58.5348 85.2002 58.1563 86.2431C57.7777 87.2859 59.6599 88.211 59.6599 88.211L59.6063 86.6002Z" fill="white"/>
<mask id="mask9_758_233897" style="mask-type:luminance" maskUnits="userSpaceOnUse" x="58" y="85" width="2" height="4">
<path d="M59.6063 86.6002C59.6063 86.6002 58.5348 85.2002 58.1563 86.2431C57.7777 87.2859 59.6599 88.211 59.6599 88.211L59.6063 86.6002Z" fill="white"/>
</mask>
<g mask="url(#mask9_758_233897)">
<path opacity="0.1" d="M59.6063 86.6002C59.6063 86.6002 58.5348 85.2002 58.1563 86.2431C57.7777 87.2859 59.6599 88.211 59.6599 88.211L59.6063 86.6002Z" fill="black"/>
</g>
<path d="M59.6063 86.6002C59.6063 86.6002 58.5348 85.2002 58.1563 86.2431C57.7777 87.2859 59.6599 88.211 59.6599 88.211L59.6063 86.6002Z" stroke="#220044" stroke-width="0.85195" stroke-miterlimit="10" stroke-linecap="round"/>
<path d="M69.0815 86.6002C69.0815 86.6002 70.1708 85.2002 70.5315 86.2431C70.8923 87.2859 69.0315 88.211 69.0315 88.211L69.0815 86.6002Z" fill="white"/>
<mask id="mask10_758_233897" style="mask-type:luminance" maskUnits="userSpaceOnUse" x="69" y="85" width="2" height="4">
<path d="M69.0815 86.6002C69.0815 86.6002 70.1708 85.2002 70.5315 86.2431C70.8923 87.2859 69.0315 88.211 69.0315 88.211L69.0815 86.6002Z" fill="white"/>
</mask>
<g mask="url(#mask10_758_233897)">
<path opacity="0.1" d="M69.0815 86.6002C69.0815 86.6002 70.1708 85.2002 70.5315 86.2431C70.8923 87.2859 69.0315 88.211 69.0315 88.211L69.0815 86.6002Z" fill="black"/>
</g>
<path d="M69.0815 86.6002C69.0815 86.6002 70.1708 85.2002 70.5315 86.2431C70.8923 87.2859 69.0315 88.211 69.0315 88.211L69.0815 86.6002Z" stroke="#220044" stroke-width="0.85195" stroke-miterlimit="10" stroke-linecap="round"/>
<path d="M64.3923 92.6361C63.1457 92.6361 61.9502 92.1409 61.0688 91.2595C60.1873 90.3781 59.6921 89.1826 59.6921 87.936V80.7251C59.6917 80.495 59.7366 80.267 59.8243 80.0543C59.9121 79.8416 60.0409 79.6482 60.2035 79.4853C60.366 79.3224 60.5591 79.1932 60.7716 79.105C60.9842 79.0169 61.2121 78.9715 61.4422 78.9715H67.3245C67.5575 78.9672 67.789 79.0094 68.0054 79.0956C68.2219 79.1818 68.4191 79.3103 68.5853 79.4736C68.7516 79.6369 68.8836 79.8316 68.9738 80.0465C69.0639 80.2614 69.1103 80.4921 69.1103 80.7251V87.9467C69.1084 88.5644 68.9849 89.1757 68.7467 89.7457C68.5086 90.3156 68.1606 90.8331 67.7225 91.2686C67.2844 91.704 66.7648 92.0489 66.1934 92.2836C65.622 92.5182 65.01 92.638 64.3923 92.6361Z" fill="white"/>
<mask id="mask11_758_233897" style="mask-type:luminance" maskUnits="userSpaceOnUse" x="59" y="78" width="11" height="15">
<path d="M64.3923 92.6361C63.1457 92.6361 61.9502 92.1409 61.0688 91.2595C60.1873 90.3781 59.6921 89.1826 59.6921 87.936V80.7251C59.6917 80.495 59.7366 80.267 59.8243 80.0543C59.9121 79.8416 60.0409 79.6482 60.2035 79.4853C60.366 79.3224 60.5591 79.1932 60.7716 79.105C60.9842 79.0169 61.2121 78.9715 61.4422 78.9715H67.3245C67.5575 78.9672 67.789 79.0094 68.0054 79.0956C68.2219 79.1818 68.4191 79.3103 68.5853 79.4736C68.7516 79.6369 68.8836 79.8316 68.9738 80.0465C69.0639 80.2614 69.1103 80.4921 69.1103 80.7251V87.9467C69.1084 88.5644 68.9849 89.1757 68.7467 89.7457C68.5086 90.3156 68.1606 90.8331 67.7225 91.2686C67.2844 91.704 66.7648 92.0489 66.1934 92.2836C65.622 92.5182 65.01 92.638 64.3923 92.6361Z" fill="white"/>
</mask>
<g mask="url(#mask11_758_233897)">
<path opacity="0.1" d="M64.3923 92.6361C63.1457 92.6361 61.9502 92.1409 61.0688 91.2595C60.1873 90.3781 59.6921 89.1826 59.6921 87.936V80.7251C59.6917 80.495 59.7366 80.267 59.8243 80.0543C59.9121 79.8416 60.0409 79.6482 60.2035 79.4853C60.366 79.3224 60.5591 79.1932 60.7716 79.105C60.9842 79.0169 61.2121 78.9715 61.4422 78.9715H67.3245C67.5575 78.9672 67.789 79.0094 68.0054 79.0956C68.2219 79.1818 68.4191 79.3103 68.5853 79.4736C68.7516 79.6369 68.8836 79.8316 68.9738 80.0465C69.0639 80.2614 69.1103 80.4921 69.1103 80.7251V87.9467C69.1084 88.5644 68.9849 89.1757 68.7467 89.7457C68.5086 90.3156 68.1606 90.8331 67.7225 91.2686C67.2844 91.704 66.7648 92.0489 66.1934 92.2836C65.622 92.5182 65.01 92.638 64.3923 92.6361Z" fill="black"/>
</g>
<path d="M64.3923 92.6361C63.1457 92.6361 61.9502 92.1409 61.0688 91.2595C60.1873 90.3781 59.6921 89.1826 59.6921 87.936V80.7251C59.6917 80.495 59.7366 80.267 59.8243 80.0543C59.9121 79.8416 60.0409 79.6482 60.2035 79.4853C60.366 79.3224 60.5591 79.1932 60.7716 79.105C60.9842 79.0169 61.2121 78.9715 61.4422 78.9715H67.3245C67.5575 78.9672 67.789 79.0094 68.0054 79.0956C68.2219 79.1818 68.4191 79.3103 68.5853 79.4736C68.7516 79.6369 68.8836 79.8316 68.9738 80.0465C69.0639 80.2614 69.1103 80.4921 69.1103 80.7251V87.9467C69.1084 88.5644 68.9849 89.1757 68.7467 89.7457C68.5086 90.3156 68.1606 90.8331 67.7225 91.2686C67.2844 91.704 66.7648 92.0489 66.1934 92.2836C65.622 92.5182 65.01 92.638 64.3923 92.6361Z" stroke="#220044" stroke-width="0.85195" stroke-miterlimit="10" stroke-linecap="round"/>
<path d="M60.8955 84.7358C61.2179 84.9496 61.5962 85.0636 61.983 85.0636C62.3699 85.0636 62.7482 84.9496 63.0706 84.7358" stroke="#220044" stroke-width="0.85195" stroke-miterlimit="10" stroke-linecap="round"/>
<path d="M65.7671 84.7358C66.0888 84.9498 66.4665 85.0639 66.8528 85.0639C67.2392 85.0639 67.6169 84.9498 67.9386 84.7358" stroke="#220044" stroke-width="0.85195" stroke-miterlimit="10" stroke-linecap="round"/>
<path d="M64.835 83.9604L65.1457 86.9605H63.9028" stroke="#220044" stroke-width="0.85195" stroke-miterlimit="10" stroke-linecap="round"/>
<path d="M63.9526 88.6675H65.1955" stroke="#220044" stroke-width="0.85195" stroke-miterlimit="10" stroke-linecap="round"/>
<path d="M64.4387 78.9609H61.4422C61.2121 78.9609 60.9842 79.0063 60.7716 79.0945C60.5591 79.1827 60.366 79.3119 60.2035 79.4748C60.0409 79.6377 59.9121 79.831 59.8243 80.0437C59.7366 80.2565 59.6917 80.4844 59.6921 80.7146V84.2861C61.6101 82.6182 63.8423 79.7502 64.4387 78.9609Z" fill="#220044" stroke="#220044" stroke-width="0.85195" stroke-miterlimit="10"/>
<path d="M69.1101 84.4213V80.7248C69.1101 80.2597 68.9254 79.8137 68.5965 79.4848C68.2677 79.1559 67.8216 78.9712 67.3565 78.9712H64.6743C65.2922 80.9284 67.6815 83.2249 69.1101 84.4213Z" fill="#220044" stroke="#220044" stroke-width="0.85195" stroke-miterlimit="10"/>
<path d="M60.6921 83.3397C60.6921 83.3397 61.2529 82.354 63.0386 82.5111" stroke="#220044" stroke-width="1.7039" stroke-miterlimit="10" stroke-linecap="round"/>
<path d="M65.4028 82.5111C65.8778 82.313 66.4071 82.2874 66.899 82.4388C67.3909 82.5901 67.8143 82.9088 68.0958 83.3397" stroke="#220044" stroke-width="1.7039" stroke-miterlimit="10" stroke-linecap="round"/>
<path d="M53.0379 121.162C51.8093 124.019 53.2843 127.265 54.5701 128.608C55.8558 129.951 57.563 131.773 61.9203 131.601C67.9919 131.362 72.2777 131.915 74.2242 129.637C76.1707 127.358 76.3671 123.054 74.0527 119.808C73.5294 119.039 73.0524 118.24 72.6241 117.415H54.9844C54.2651 118.626 53.6152 119.877 53.0379 121.162Z" fill="#220044" stroke="#220044" stroke-width="0.85195" stroke-miterlimit="10" stroke-linecap="round"/>
<path d="M62.5959 126.958C59.5208 123.769 53.9385 122.172 51.2028 121.715C48.467 121.258 43.4561 118.501 43.4561 118.501C43.4561 118.501 40.4918 118.401 40.7203 121.933C40.9489 125.465 49.492 129.569 52.7992 131.39C54.2848 132.229 55.9496 132.698 57.6541 132.76C59.3587 132.823 61.0533 132.475 62.5959 131.748" fill="#220044"/>
<path d="M62.5959 126.958C59.5208 123.769 53.9385 122.172 51.2028 121.715C48.467 121.258 43.4561 118.501 43.4561 118.501C43.4561 118.501 40.4918 118.401 40.7203 121.933C40.9489 125.465 49.492 129.569 52.7992 131.39C54.2848 132.229 55.9496 132.698 57.6541 132.76C59.3587 132.823 61.0533 132.475 62.5959 131.748" stroke="#220044" stroke-width="0.85195" stroke-miterlimit="10" stroke-linecap="round"/>
<path d="M64.5205 127.072C67.5956 123.883 73.1779 122.287 75.9137 121.829C78.6495 121.372 82.9031 119.044 82.9031 119.044C82.9031 119.044 86.6247 118.526 86.3961 122.058C86.1675 125.59 77.6244 129.69 74.3172 131.515C72.8313 132.353 71.1666 132.822 69.4622 132.884C67.7579 132.946 66.0634 132.599 64.5205 131.873" fill="#220044"/>
<path d="M64.5205 127.072C67.5956 123.883 73.1779 122.287 75.9137 121.829C78.6495 121.372 82.9031 119.044 82.9031 119.044C82.9031 119.044 86.6247 118.526 86.3961 122.058C86.1675 125.59 77.6244 129.69 74.3172 131.515C72.8313 132.353 71.1666 132.822 69.4622 132.884C67.7579 132.946 66.0634 132.599 64.5205 131.873" stroke="#220044" stroke-width="0.85195" stroke-miterlimit="10" stroke-linecap="round"/>
<path d="M77.357 132.647C77.357 132.647 77.7784 132.369 77.5677 131.665C77.357 130.962 76.2319 131.522 75.4569 131.522C74.6819 131.522 71.7282 131.24 70.3246 131.101C69.121 130.98 67.1531 131.015 66.6067 131.026C66.686 131.891 66.5084 132.761 66.0959 133.526L66.371 133.555C68.7639 133.79 69.8032 133.837 70.5353 133.99C71.8711 134.272 73.3461 135.397 74.8212 135.33C76.2962 135.262 77.6355 134.258 77.6355 133.64C77.6501 133.288 77.5526 132.941 77.357 132.647Z" fill="white"/>
<mask id="mask12_758_233897" style="mask-type:luminance" maskUnits="userSpaceOnUse" x="66" y="131" width="12" height="5">
<path d="M77.357 132.647C77.357 132.647 77.7784 132.369 77.5677 131.665C77.357 130.962 76.2319 131.522 75.4569 131.522C74.6819 131.522 71.7282 131.24 70.3246 131.101C69.121 130.98 67.1531 131.015 66.6067 131.026C66.686 131.891 66.5084 132.761 66.0959 133.526L66.371 133.555C68.7639 133.79 69.8032 133.837 70.5353 133.99C71.8711 134.272 73.3461 135.397 74.8212 135.33C76.2962 135.262 77.6355 134.258 77.6355 133.64C77.6501 133.288 77.5526 132.941 77.357 132.647Z" fill="white"/>
</mask>
<g mask="url(#mask12_758_233897)">
<path opacity="0.1" d="M77.357 132.647C77.357 132.647 77.7784 132.369 77.5677 131.665C77.357 130.962 76.2319 131.522 75.4569 131.522C74.6819 131.522 71.7282 131.24 70.3246 131.101C69.121 130.98 67.1531 131.015 66.6067 131.026C66.686 131.891 66.5084 132.761 66.0959 133.526L66.371 133.555C68.7639 133.79 69.8032 133.837 70.5353 133.99C71.8711 134.272 73.3461 135.397 74.8212 135.33C76.2962 135.262 77.6355 134.258 77.6355 133.64C77.6501 133.288 77.5526 132.941 77.357 132.647Z" fill="black"/>
</g>
<path d="M77.357 132.647C77.357 132.647 77.7784 132.369 77.5677 131.665C77.357 130.962 76.2319 131.522 75.4569 131.522C74.6819 131.522 71.7282 131.24 70.3246 131.101C69.121 130.98 67.1531 131.015 66.6067 131.026C66.686 131.891 66.5084 132.761 66.0959 133.526L66.371 133.555C68.7639 133.79 69.8032 133.837 70.5353 133.99C71.8711 134.272 73.3461 135.397 74.8212 135.33C76.2962 135.262 77.6355 134.258 77.6355 133.64C77.6501 133.288 77.5526 132.941 77.357 132.647Z" stroke="#220044" stroke-width="0.85195" stroke-miterlimit="10" stroke-linecap="round"/>
<path d="M77.3568 132.647C76.9466 132.717 76.5276 132.717 76.1174 132.647" stroke="#220044" stroke-width="0.85195" stroke-miterlimit="10" stroke-linecap="round"/>
<path d="M77.6386 133.633C77.093 133.675 76.5449 133.675 75.9993 133.633" stroke="#220044" stroke-width="0.85195" stroke-miterlimit="10" stroke-linecap="round"/>
<path d="M75.7246 134.262C76.1089 134.477 76.5562 134.55 76.9889 134.469" stroke="#220044" stroke-width="0.85195" stroke-miterlimit="10" stroke-linecap="round"/>
<path d="M75.1814 134.723C75.5454 134.898 75.953 134.961 76.3529 134.905" stroke="#220044" stroke-width="0.85195" stroke-miterlimit="10" stroke-linecap="round"/>
<path d="M66.0958 133.519C66.5083 132.754 66.6859 131.885 66.6066 131.019H66.453C66.453 131.019 61.0386 129.905 56.5384 127.155C52.0383 124.405 46.3382 120.194 43.4559 118.505C40.5737 116.815 37.8272 119.347 38.0987 122.023C38.3701 124.698 40.5594 126.101 44.4988 127.737C48.4382 129.373 55.6134 131.887 59.4099 132.659C61.3779 133.048 63.9136 133.316 66.0958 133.519Z" fill="#220044" stroke="#220044" stroke-width="0.85195" stroke-miterlimit="10" stroke-linecap="round"/>
<path d="M59.7703 134.262C59.3591 133.497 59.1827 132.627 59.2631 131.762H59.4131C59.4131 131.762 64.8276 130.637 69.3313 127.894C73.8349 125.151 79.528 120.93 82.4137 119.241C85.2995 117.551 88.0389 120.087 87.771 122.758C87.5032 125.43 85.3103 126.837 81.3709 128.455C77.4315 130.073 70.2598 132.605 66.4597 133.38C64.4883 133.787 61.9668 134.055 59.7703 134.262Z" fill="#220044" stroke="#220044" stroke-width="0.85195" stroke-miterlimit="10" stroke-linecap="round"/>
<path d="M59.2633 131.769C59.2633 131.769 54.0524 131.973 52.3988 131.858C50.7452 131.744 49.4916 130.944 49.038 131.344C48.5844 131.744 49.1523 132.369 49.1523 132.369C49.1523 132.369 48.9809 133.337 49.438 133.851C49.8952 134.366 50.5095 134.819 52.456 135.391C54.4024 135.962 56.3846 135.155 57.4561 134.869L59.7597 134.262C59.7597 134.262 59.2311 133.444 59.2633 131.769Z" fill="white"/>
<mask id="mask13_758_233897" style="mask-type:luminance" maskUnits="userSpaceOnUse" x="48" y="131" width="12" height="5">
<path d="M59.2633 131.769C59.2633 131.769 54.0524 131.973 52.3988 131.858C50.7452 131.744 49.4916 130.944 49.038 131.344C48.5844 131.744 49.1523 132.369 49.1523 132.369C49.1523 132.369 48.9809 133.337 49.438 133.851C49.8952 134.366 50.5095 134.819 52.456 135.391C54.4024 135.962 56.3846 135.155 57.4561 134.869L59.7597 134.262C59.7597 134.262 59.2311 133.444 59.2633 131.769Z" fill="white"/>
</mask>
<g mask="url(#mask13_758_233897)">
<path opacity="0.1" d="M59.2633 131.769C59.2633 131.769 54.0524 131.973 52.3988 131.858C50.7452 131.744 49.4916 130.944 49.038 131.344C48.5844 131.744 49.1523 132.369 49.1523 132.369C49.1523 132.369 48.9809 133.337 49.438 133.851C49.8952 134.366 50.5095 134.819 52.456 135.391C54.4024 135.962 56.3846 135.155 57.4561 134.869L59.7597 134.262C59.7597 134.262 59.2311 133.444 59.2633 131.769Z" fill="black"/>
</g>
<path d="M59.2633 131.769C59.2633 131.769 54.0524 131.973 52.3988 131.858C50.7452 131.744 49.4916 130.944 49.038 131.344C48.5844 131.744 49.1523 132.369 49.1523 132.369C49.1523 132.369 48.9809 133.337 49.438 133.851C49.8952 134.366 50.5095 134.819 52.456 135.391C54.4024 135.962 56.3846 135.155 57.4561 134.869L59.7597 134.262C59.7597 134.262 59.2311 133.444 59.2633 131.769Z" stroke="#220044" stroke-width="0.85195" stroke-miterlimit="10" stroke-linecap="round"/>
<path d="M49.1526 132.369C49.2703 132.29 49.409 132.248 49.5508 132.248C49.6927 132.248 49.8313 132.29 49.949 132.369C50.2219 132.555 50.5332 132.677 50.8598 132.726" stroke="#220044" stroke-width="0.85195" stroke-miterlimit="10" stroke-linecap="round"/>
<path d="M49.2168 133.476C49.3078 133.394 49.4176 133.335 49.5365 133.305C49.6555 133.275 49.7799 133.275 49.899 133.305C50.1709 133.382 50.452 133.423 50.7347 133.426" stroke="#220044" stroke-width="0.85195" stroke-miterlimit="10" stroke-linecap="round"/>
<path d="M50.0881 134.38C50.0881 134.38 50.1881 134.09 50.3774 134.09C50.5667 134.09 51.3489 134.194 51.5525 134.176" stroke="#220044" stroke-width="0.85195" stroke-miterlimit="10" stroke-linecap="round"/>
<path d="M51.1953 134.944C51.1953 134.944 51.3846 134.687 51.5525 134.673C51.7679 134.643 51.985 134.625 52.2025 134.619" stroke="#220044" stroke-width="0.85195" stroke-miterlimit="10" stroke-linecap="round"/>
<path d="M61.9136 131.601C61.9136 131.601 72.8139 126.244 77.2176 123.197" stroke="white" stroke-width="0.85195" stroke-miterlimit="10" stroke-linecap="round"/>
<path d="M49.6094 122.512C49.6094 122.512 58.9239 129.794 64.1741 130.301" stroke="white" stroke-width="0.85195" stroke-miterlimit="10" stroke-linecap="round"/>
<path d="M53.9702 122.315C53.9702 122.315 61.0561 124.511 62.899 127.347" stroke="white" stroke-width="0.85195" stroke-miterlimit="10" stroke-linecap="round"/>
<path d="M65.3813 126.354C65.3813 126.354 69.7743 123.236 74.3102 122.315" stroke="white" stroke-width="0.85195" stroke-miterlimit="10" stroke-linecap="round"/>
</svg>
