<svg width="249" height="242" viewBox="0 0 249 242" fill="none" xmlns="http://www.w3.org/2000/svg">
<path d="M107.414 241.641C159.791 241.641 202.251 238.996 202.251 235.733C202.251 232.47 159.791 229.825 107.414 229.825C55.037 229.825 12.577 232.47 12.577 235.733C12.577 238.996 55.037 241.641 107.414 241.641Z" fill="#B192E3"/>
<path opacity="0.8" d="M107.414 241.641C159.791 241.641 202.251 238.996 202.251 235.733C202.251 232.47 159.791 229.825 107.414 229.825C55.037 229.825 12.577 232.47 12.577 235.733C12.577 238.996 55.037 241.641 107.414 241.641Z" fill="white"/>
<path d="M178.68 11.0702H83.3213C76.7378 11.0702 71.4008 16.4072 71.4008 22.9908V224.309C71.4008 230.893 76.7378 236.23 83.3213 236.23H178.68C185.264 236.23 190.601 230.893 190.601 224.309V22.9908C190.601 16.4072 185.264 11.0702 178.68 11.0702Z" fill="#263238"/>
<path d="M185.3 35.7948H76.6954V211.505H185.3V35.7948Z" fill="white" stroke="#263238" stroke-width="0.698841" stroke-miterlimit="10"/>
<path d="M147.646 106.945C156.839 97.752 156.839 82.8469 147.646 73.6538C138.453 64.4606 123.548 64.4606 114.355 73.6538C105.162 82.8469 105.162 97.752 114.355 106.945C123.548 116.138 138.453 116.138 147.646 106.945Z" fill="#B192E3"/>
<path d="M161.906 200.456H100.101C99.9619 200.457 99.824 200.43 99.6953 200.377C99.5666 200.325 99.4495 200.247 99.3509 200.149C99.2522 200.051 99.1739 199.934 99.1205 199.806C99.0671 199.678 99.0396 199.54 99.0396 199.401C99.0388 199.261 99.0657 199.123 99.1188 198.994C99.1718 198.864 99.25 198.747 99.3487 198.648C99.4474 198.55 99.5647 198.472 99.6939 198.419C99.823 198.365 99.9614 198.339 100.101 198.339H161.906C162.046 198.339 162.183 198.367 162.312 198.42C162.44 198.474 162.557 198.552 162.655 198.651C162.753 198.749 162.83 198.866 162.883 198.995C162.936 199.124 162.963 199.262 162.962 199.401C162.962 199.681 162.851 199.949 162.653 200.147C162.455 200.345 162.186 200.456 161.906 200.456Z" fill="#B192E3"/>
<path d="M163.919 127.074H98.0825C96.7238 127.074 95.6223 128.175 95.6223 129.534V137.295C95.6223 138.653 96.7238 139.755 98.0825 139.755H163.919C165.278 139.755 166.379 138.653 166.379 137.295V129.534C166.379 128.175 165.278 127.074 163.919 127.074Z" fill="#B192E3"/>
<path d="M163.919 150.792H98.0825C96.7238 150.792 95.6223 151.893 95.6223 153.252V161.013C95.6223 162.372 96.7238 163.473 98.0825 163.473H163.919C165.278 163.473 166.379 162.372 166.379 161.013V153.252C166.379 151.893 165.278 150.792 163.919 150.792Z" fill="#B192E3"/>
<path d="M142.722 102.042L135.795 98.0543V94.7597C136.798 93.5463 137.525 92.1289 137.924 90.6062C138.163 90.6909 138.414 90.7345 138.666 90.735C139.525 90.735 140.071 88.0724 140.163 86.1705C141.163 84.0539 139.801 82.8146 139.801 82.8146C139.801 82.8146 140.366 82.2501 140.74 79.9863C141.114 77.7224 139.421 78.6672 138.102 76.5935C136.783 74.5198 135.838 72.2621 131.507 72.2621C130.313 72.2229 129.136 72.5436 128.127 73.1826C127.118 73.8215 126.325 74.7492 125.85 75.845C124.772 75.8489 123.698 75.9745 122.648 76.2193C121.322 76.5935 120.948 80.9311 122.077 82.6305C122.582 83.5593 122.852 84.5979 122.862 85.6551C122.562 85.287 122.249 85.1889 122.077 86.0232C121.703 87.9067 123.212 90.5448 123.212 90.5448L123.991 90.324C124.384 91.9513 125.141 93.4681 126.206 94.7597V98.0543L119.279 102.042C118.471 102.509 117.799 103.181 117.331 103.989C116.864 104.798 116.618 105.716 116.617 106.65V108.932C120.736 112.114 125.795 113.841 131.001 113.841C136.206 113.841 141.265 112.114 145.384 108.932V106.65C145.385 105.715 145.139 104.797 144.672 103.988C144.204 103.18 143.532 102.508 142.722 102.042Z" fill="#263238"/>
<path d="M104.586 160.32C104.427 160.318 104.275 160.254 104.162 160.142C104.102 160.088 104.054 160.022 104.021 159.948C103.988 159.874 103.972 159.794 103.972 159.713C103.974 159.602 104.006 159.494 104.064 159.4L105.169 157.633L103.015 157.7C102.934 157.705 102.853 157.693 102.777 157.665C102.7 157.636 102.631 157.592 102.573 157.535C102.473 157.422 102.418 157.277 102.418 157.127C102.418 156.976 102.473 156.831 102.573 156.719C102.63 156.659 102.699 156.613 102.775 156.583C102.852 156.554 102.933 156.541 103.015 156.547L105.138 156.627L104.046 154.866C103.986 154.77 103.955 154.66 103.954 154.547C103.953 154.466 103.97 154.386 104.003 154.312C104.036 154.237 104.084 154.171 104.144 154.117C104.257 154.005 104.409 153.942 104.567 153.939C104.672 153.94 104.774 153.97 104.862 154.027C104.95 154.083 105.02 154.164 105.064 154.258L106.113 156.154L107.15 154.271C107.199 154.17 107.275 154.085 107.369 154.024C107.463 153.964 107.572 153.93 107.684 153.927C107.762 153.928 107.838 153.944 107.909 153.976C107.98 154.008 108.043 154.054 108.095 154.111C108.208 154.228 108.269 154.385 108.267 154.547C108.267 154.652 108.239 154.756 108.187 154.847L107.077 156.627L109.23 156.547C109.312 156.541 109.394 156.554 109.47 156.583C109.546 156.613 109.615 156.659 109.672 156.719C109.776 156.827 109.834 156.973 109.831 157.124C109.831 157.276 109.774 157.422 109.672 157.535C109.614 157.592 109.545 157.636 109.469 157.665C109.393 157.693 109.311 157.705 109.23 157.7L107.064 157.633L108.144 159.381C108.205 159.479 108.237 159.592 108.236 159.706C108.236 159.869 108.172 160.025 108.057 160.14C107.941 160.255 107.785 160.32 107.623 160.32C107.517 160.319 107.415 160.286 107.328 160.228C107.241 160.169 107.173 160.086 107.132 159.989L106.107 158.148L105.089 159.989C105.044 160.085 104.973 160.167 104.884 160.225C104.795 160.284 104.692 160.316 104.586 160.32Z" fill="#263238"/>
<path d="M114.537 160.32C114.378 160.318 114.226 160.254 114.114 160.142C114.053 160.088 114.005 160.022 113.972 159.948C113.94 159.874 113.923 159.794 113.923 159.713C113.925 159.602 113.957 159.494 114.015 159.4L115.12 157.633L112.972 157.7C112.891 157.704 112.809 157.691 112.732 157.663C112.655 157.634 112.584 157.591 112.525 157.535C112.443 157.451 112.389 157.344 112.369 157.229C112.349 157.113 112.364 156.995 112.412 156.888C112.461 156.782 112.54 156.692 112.64 156.631C112.74 156.57 112.856 156.541 112.972 156.547L115.089 156.627L113.997 154.866C113.938 154.77 113.906 154.66 113.905 154.547C113.904 154.466 113.921 154.386 113.954 154.312C113.987 154.237 114.035 154.171 114.095 154.117C114.208 154.005 114.36 153.942 114.519 153.939C114.623 153.94 114.725 153.97 114.813 154.027C114.901 154.083 114.971 154.164 115.016 154.258L116.065 156.154L117.101 154.271C117.151 154.17 117.226 154.085 117.32 154.024C117.415 153.964 117.523 153.93 117.635 153.927C117.713 153.927 117.79 153.943 117.861 153.975C117.931 154.007 117.995 154.053 118.046 154.111C118.103 154.168 118.148 154.236 118.179 154.311C118.209 154.386 118.225 154.466 118.224 154.547C118.222 154.653 118.192 154.756 118.138 154.847L117.028 156.627L119.187 156.559C119.268 156.554 119.349 156.566 119.425 156.596C119.5 156.626 119.568 156.672 119.623 156.731C119.728 156.839 119.785 156.985 119.783 157.136C119.782 157.288 119.725 157.434 119.623 157.547C119.566 157.604 119.498 157.648 119.423 157.677C119.348 157.705 119.268 157.717 119.187 157.712L117.016 157.645L118.095 159.394C118.156 159.491 118.188 159.604 118.187 159.719C118.187 159.881 118.123 160.037 118.008 160.153C117.893 160.268 117.737 160.332 117.574 160.332C117.469 160.331 117.366 160.299 117.279 160.24C117.192 160.181 117.124 160.098 117.083 160.001L116.058 158.16L115.04 160.001C114.993 160.095 114.922 160.174 114.833 160.23C114.744 160.287 114.642 160.318 114.537 160.32Z" fill="#263238"/>
<path d="M124.494 160.32C124.333 160.319 124.179 160.255 124.065 160.142C124.004 160.088 123.956 160.022 123.924 159.948C123.891 159.874 123.874 159.794 123.875 159.713C123.877 159.602 123.908 159.494 123.967 159.4L125.071 157.633L122.924 157.7C122.808 157.705 122.694 157.675 122.595 157.614C122.497 157.554 122.418 157.465 122.37 157.36C122.322 157.254 122.307 157.137 122.325 157.023C122.344 156.909 122.397 156.803 122.476 156.719C122.534 156.66 122.604 156.614 122.681 156.584C122.758 156.554 122.841 156.542 122.924 156.547L125.04 156.627L123.948 154.866C123.889 154.77 123.857 154.66 123.856 154.547C123.858 154.466 123.876 154.387 123.909 154.313C123.941 154.239 123.988 154.173 124.046 154.117C124.161 154.004 124.315 153.94 124.476 153.939C124.579 153.941 124.68 153.972 124.767 154.029C124.854 154.085 124.923 154.165 124.967 154.258L126.016 156.154L127.053 154.271C127.102 154.17 127.178 154.085 127.272 154.024C127.366 153.964 127.475 153.93 127.586 153.927C127.664 153.927 127.741 153.943 127.812 153.975C127.883 154.007 127.946 154.053 127.997 154.111C128.054 154.168 128.099 154.236 128.13 154.311C128.16 154.386 128.176 154.466 128.175 154.547C128.173 154.653 128.144 154.756 128.09 154.847L126.979 156.627L129.139 156.547C129.218 156.539 129.298 156.548 129.374 156.574C129.449 156.599 129.518 156.641 129.577 156.696C129.635 156.75 129.681 156.817 129.711 156.89C129.741 156.964 129.755 157.044 129.752 157.124C129.753 157.275 129.699 157.421 129.599 157.535C129.541 157.592 129.472 157.636 129.396 157.665C129.319 157.693 129.238 157.705 129.157 157.7L126.991 157.633L128.065 159.381C128.125 159.479 128.157 159.592 128.157 159.706C128.155 159.787 128.137 159.866 128.105 159.94C128.072 160.014 128.025 160.08 127.967 160.136C127.913 160.193 127.849 160.239 127.777 160.271C127.705 160.303 127.628 160.319 127.55 160.32C127.445 160.318 127.344 160.286 127.258 160.227C127.171 160.168 127.104 160.085 127.065 159.989L126.034 158.148L125.016 159.989C124.97 160.088 124.896 160.172 124.804 160.231C124.711 160.29 124.604 160.321 124.494 160.32Z" fill="#263238"/>
<path d="M134.446 160.32C134.285 160.319 134.13 160.255 134.016 160.142C133.9 160.029 133.834 159.874 133.832 159.713C133.83 159.602 133.86 159.494 133.918 159.4L135.022 157.633L132.875 157.7C132.793 157.704 132.711 157.691 132.634 157.663C132.557 157.634 132.487 157.591 132.427 157.535C132.327 157.422 132.272 157.277 132.272 157.127C132.272 156.976 132.327 156.831 132.427 156.719C132.486 156.661 132.557 156.617 132.633 156.587C132.71 156.558 132.793 156.544 132.875 156.547L134.998 156.627L133.912 154.866C133.852 154.77 133.82 154.66 133.82 154.547C133.822 154.466 133.839 154.387 133.872 154.313C133.905 154.239 133.952 154.173 134.01 154.117C134.124 154.004 134.278 153.94 134.439 153.939C134.544 153.94 134.646 153.97 134.734 154.027C134.822 154.083 134.892 154.164 134.936 154.258L135.979 156.154L137.016 154.271C137.065 154.17 137.141 154.085 137.235 154.024C137.329 153.964 137.438 153.93 137.55 153.927C137.628 153.927 137.704 153.943 137.775 153.975C137.846 154.007 137.909 154.053 137.961 154.111C138.018 154.168 138.063 154.236 138.093 154.311C138.124 154.386 138.139 154.466 138.139 154.547C138.137 154.653 138.107 154.756 138.053 154.847L136.943 156.627L139.102 156.547C139.181 156.539 139.262 156.548 139.337 156.574C139.413 156.599 139.482 156.641 139.54 156.696C139.598 156.75 139.644 156.817 139.674 156.89C139.705 156.964 139.719 157.044 139.716 157.124C139.717 157.275 139.662 157.421 139.562 157.535C139.504 157.592 139.435 157.636 139.359 157.665C139.283 157.693 139.202 157.705 139.12 157.7L136.955 157.633L138.028 159.381C138.089 159.479 138.121 159.592 138.12 159.706C138.121 159.787 138.104 159.868 138.072 159.942C138.039 160.016 137.991 160.082 137.93 160.136C137.877 160.193 137.812 160.239 137.741 160.271C137.669 160.303 137.591 160.319 137.513 160.32C137.409 160.318 137.307 160.286 137.221 160.227C137.135 160.168 137.068 160.085 137.028 159.989L135.998 158.148L134.979 159.989C134.932 160.09 134.857 160.175 134.762 160.234C134.667 160.293 134.557 160.323 134.446 160.32Z" fill="#263238"/>
<path d="M144.397 160.32C144.236 160.319 144.082 160.255 143.967 160.142C143.872 160.046 143.812 159.921 143.795 159.786C143.778 159.652 143.807 159.516 143.875 159.4L144.973 157.633L142.826 157.7C142.744 157.704 142.662 157.691 142.585 157.663C142.509 157.634 142.438 157.591 142.378 157.535C142.278 157.422 142.223 157.277 142.223 157.127C142.223 156.976 142.278 156.831 142.378 156.719C142.438 156.661 142.508 156.617 142.585 156.587C142.662 156.558 142.744 156.544 142.826 156.547L144.949 156.627L143.857 154.866C143.797 154.77 143.766 154.66 143.765 154.547C143.767 154.385 143.833 154.231 143.949 154.117C144.063 154.004 144.217 153.94 144.378 153.939C144.483 153.94 144.585 153.97 144.673 154.027C144.761 154.083 144.831 154.164 144.875 154.258L145.918 156.154L146.955 154.271C147.004 154.17 147.08 154.085 147.174 154.024C147.268 153.964 147.377 153.93 147.489 153.927C147.567 153.927 147.645 153.943 147.717 153.975C147.789 154.006 147.853 154.053 147.906 154.111C148.019 154.228 148.08 154.385 148.078 154.547C148.076 154.653 148.046 154.756 147.992 154.847L146.881 156.627L149.041 156.547C149.12 156.539 149.201 156.548 149.276 156.574C149.352 156.599 149.421 156.641 149.479 156.696C149.537 156.75 149.583 156.817 149.613 156.891C149.643 156.964 149.658 157.044 149.655 157.124C149.656 157.275 149.601 157.421 149.501 157.535C149.443 157.592 149.374 157.636 149.298 157.665C149.222 157.693 149.141 157.705 149.059 157.7L146.894 157.633L147.967 159.381C148.028 159.479 148.06 159.592 148.059 159.706C148.06 159.787 148.043 159.868 148.011 159.942C147.978 160.016 147.93 160.082 147.869 160.136C147.816 160.193 147.751 160.239 147.68 160.271C147.608 160.303 147.53 160.319 147.452 160.32C147.348 160.318 147.246 160.286 147.16 160.227C147.074 160.168 147.007 160.085 146.967 159.989L145.937 158.148L144.918 159.989C144.872 160.088 144.799 160.172 144.706 160.231C144.614 160.29 144.506 160.321 144.397 160.32Z" fill="#263238"/>
<path d="M154.348 160.32C154.189 160.318 154.037 160.254 153.925 160.142C153.864 160.088 153.816 160.022 153.783 159.948C153.75 159.874 153.734 159.794 153.734 159.713C153.736 159.602 153.768 159.494 153.826 159.4L154.925 157.633L152.777 157.7C152.698 157.706 152.619 157.696 152.544 157.669C152.47 157.643 152.401 157.601 152.344 157.547C152.286 157.493 152.24 157.427 152.209 157.354C152.178 157.281 152.163 157.203 152.164 157.124C152.163 157.048 152.178 156.974 152.206 156.905C152.235 156.835 152.277 156.772 152.329 156.719C152.386 156.659 152.455 156.613 152.531 156.583C152.608 156.554 152.689 156.541 152.771 156.547L154.894 156.627L153.802 154.866C153.742 154.77 153.711 154.66 153.71 154.547C153.712 154.385 153.778 154.231 153.894 154.117C154.008 154.004 154.162 153.94 154.323 153.939C154.428 153.94 154.53 153.97 154.618 154.027C154.706 154.083 154.776 154.164 154.82 154.258L155.863 156.154L156.906 154.271C156.955 154.171 157.03 154.087 157.123 154.026C157.216 153.966 157.323 153.931 157.434 153.927C157.512 153.927 157.59 153.943 157.662 153.975C157.734 154.006 157.798 154.053 157.851 154.111C157.964 154.228 158.025 154.385 158.023 154.547C158.023 154.652 157.995 154.756 157.943 154.847L156.833 156.627L158.986 156.547C159.068 156.541 159.15 156.554 159.226 156.583C159.302 156.613 159.371 156.659 159.428 156.719C159.532 156.827 159.59 156.973 159.587 157.124C159.587 157.276 159.53 157.422 159.428 157.535C159.37 157.592 159.301 157.636 159.225 157.665C159.149 157.693 159.067 157.705 158.986 157.7L156.82 157.633L157.894 159.381C157.955 159.479 157.986 159.592 157.986 159.706C157.984 159.868 157.918 160.023 157.802 160.136C157.69 160.25 157.538 160.316 157.379 160.32C157.274 160.318 157.173 160.286 157.087 160.227C157.001 160.168 156.934 160.085 156.894 159.989L155.863 158.148L154.845 159.989C154.801 160.084 154.731 160.166 154.643 160.225C154.555 160.283 154.453 160.316 154.348 160.32Z" fill="#263238"/>
<g style="mix-blend-mode:multiply">
<path d="M185.3 36.028H76.6954V42.8318H185.3V36.028Z" fill="#B192E3"/>
</g>
<path d="M142.808 23.4938H119.187C118.761 23.4938 118.352 23.3245 118.051 23.023C117.749 22.7216 117.58 22.3127 117.58 21.8864C117.58 21.4601 117.749 21.0513 118.051 20.7498C118.352 20.4484 118.761 20.279 119.187 20.279H142.808C143.234 20.279 143.643 20.4484 143.944 20.7498C144.246 21.0513 144.415 21.4601 144.415 21.8864C144.415 22.3127 144.246 22.7216 143.944 23.023C143.643 23.3245 143.234 23.4938 142.808 23.4938Z" fill="#B192E3" stroke="#263238" stroke-width="0.698841" stroke-linecap="round" stroke-linejoin="round"/>
<path d="M137.439 221.432C137.441 220.157 137.064 218.911 136.356 217.851C135.649 216.791 134.643 215.964 133.466 215.476C132.288 214.987 130.992 214.859 129.742 215.108C128.492 215.356 127.344 215.97 126.442 216.871C125.541 217.772 124.928 218.921 124.679 220.171C124.431 221.421 124.559 222.717 125.047 223.894C125.536 225.071 126.362 226.077 127.422 226.785C128.483 227.492 129.729 227.869 131.004 227.868C132.71 227.866 134.346 227.188 135.553 225.981C136.759 224.775 137.438 223.138 137.439 221.432Z" fill="#B192E3"/>
<path d="M134.268 218.168H127.74V224.696H134.268V218.168Z" fill="#B192E3" stroke="#263238" stroke-width="0.698841" stroke-linecap="round" stroke-linejoin="round"/>
<path d="M208.761 147.356C208.761 147.356 200.208 125.626 207.822 123.043C215.748 120.349 215.399 134.699 215.092 141.694C214.448 156.639 212.797 159.418 211.564 155.768L208.761 147.356ZM206.19 164.308C208.54 167.375 209.202 164.197 204.963 149.847C202.975 143.098 198.656 129.448 192.03 134.571C185.668 139.479 200.809 157.271 200.809 157.271L206.19 164.308ZM201.65 176.762C203.889 178.75 203.932 176.241 198.613 165.878C196.116 161.025 190.834 151.203 186.508 156.062C182.355 160.749 196.509 172.142 196.509 172.142L201.65 176.762ZM196.742 191.572C198.981 193.566 199.024 191.051 193.705 180.695C191.208 175.842 185.926 166.013 181.6 170.878C177.471 175.578 191.582 186.971 191.582 186.971L196.742 191.572ZM210.914 161.424C207.331 162.823 210.178 164.345 225.141 164.302C232.16 164.302 246.492 163.983 243.436 156.185C240.51 148.694 219.196 158.234 219.196 158.234L210.914 161.424ZM206.834 171.388C203.043 172.044 205.533 174.106 220.209 177.038C227.086 178.419 241.191 180.965 239.749 172.744C238.369 164.817 215.583 169.934 215.583 169.934L206.834 171.388ZM202.27 183.554C199.042 184.02 201.104 185.818 213.442 188.64C219.227 189.965 231.099 192.45 230.068 185.437C229.086 178.688 209.699 182.505 209.699 182.505L202.27 183.554ZM198.803 194.824C195.644 195.628 197.883 197.198 210.46 198.695C216.35 199.395 228.418 200.609 226.657 193.744C224.957 187.155 206.086 192.99 206.086 192.99L198.803 194.824ZM217.295 149.197C215.454 153.32 219.276 152.694 232.27 141.356C238.356 136.037 250.565 124.908 240.896 119.368C231.614 114.042 221.632 139.736 221.632 139.736L217.295 149.197ZM199.282 209.505C197.337 210.64 199.245 211.082 208.165 209.303C212.35 208.475 220.859 206.634 217.982 203.002C215.196 199.505 203.785 206.867 203.785 206.867L199.282 209.505Z" fill="#B192E3"/>
<path opacity="0.3" d="M208.761 147.356C208.761 147.356 200.208 125.626 207.822 123.043C215.748 120.349 215.399 134.699 215.092 141.694C214.448 156.639 212.797 159.418 211.564 155.768L208.761 147.356ZM206.19 164.308C208.54 167.375 209.202 164.197 204.963 149.847C202.975 143.098 198.656 129.448 192.03 134.571C185.668 139.479 200.809 157.271 200.809 157.271L206.19 164.308ZM201.65 176.762C203.889 178.75 203.932 176.241 198.613 165.878C196.116 161.025 190.834 151.203 186.508 156.062C182.355 160.749 196.509 172.142 196.509 172.142L201.65 176.762ZM196.742 191.572C198.981 193.566 199.024 191.051 193.705 180.695C191.208 175.842 185.926 166.013 181.6 170.878C177.471 175.578 191.582 186.971 191.582 186.971L196.742 191.572ZM210.914 161.424C207.331 162.823 210.178 164.345 225.141 164.302C232.16 164.302 246.492 163.983 243.436 156.185C240.51 148.694 219.196 158.234 219.196 158.234L210.914 161.424ZM206.834 171.388C203.043 172.044 205.533 174.106 220.209 177.038C227.086 178.419 241.191 180.965 239.749 172.744C238.369 164.817 215.583 169.934 215.583 169.934L206.834 171.388ZM202.27 183.554C199.042 184.02 201.104 185.818 213.442 188.64C219.227 189.965 231.099 192.45 230.068 185.437C229.086 178.688 209.699 182.505 209.699 182.505L202.27 183.554ZM198.803 194.824C195.644 195.628 197.883 197.198 210.46 198.695C216.35 199.395 228.418 200.609 226.657 193.744C224.957 187.155 206.086 192.99 206.086 192.99L198.803 194.824ZM217.295 149.197C215.454 153.32 219.276 152.694 232.27 141.356C238.356 136.037 250.565 124.908 240.896 119.368C231.614 114.042 221.632 139.736 221.632 139.736L217.295 149.197ZM199.282 209.505C197.337 210.64 199.245 211.082 208.165 209.303C212.35 208.475 220.859 206.634 217.982 203.002C215.196 199.505 203.785 206.867 203.785 206.867L199.282 209.505Z" fill="white"/>
<path d="M212.534 157.473L211.043 132.669L212.534 157.473ZM207.816 165.657L198.392 144.326L207.816 165.657ZM232.135 159.455L209.552 162.694L232.135 159.455ZM202.932 177.155L190.705 161.467L202.932 177.155ZM205.079 172.345L221.927 173.191L205.079 172.345ZM201.092 184.376L213.975 185.652L201.092 184.376ZM197.981 192.02L191.582 182.394L197.981 192.02ZM197.245 195.419L212.393 195.56L197.245 195.419ZM194.177 223.837C194.279 223.829 194.373 223.782 194.44 223.705C194.506 223.628 194.54 223.528 194.533 223.426C193.57 208.959 199.165 185.265 208.141 165.817C213.877 153.387 236.363 128.957 236.602 128.712C236.674 128.639 236.715 128.541 236.715 128.439C236.715 128.336 236.674 128.238 236.602 128.166C236.567 128.13 236.524 128.102 236.478 128.082C236.432 128.063 236.382 128.053 236.332 128.053C236.282 128.053 236.232 128.063 236.186 128.082C236.139 128.102 236.097 128.13 236.062 128.166C235.835 128.411 213.258 152.933 207.472 165.473C198.331 185.394 192.809 208.659 193.791 223.475C193.798 223.573 193.842 223.664 193.914 223.731C193.985 223.798 194.079 223.836 194.177 223.837ZM212.528 157.854C212.629 157.847 212.724 157.801 212.792 157.725C212.859 157.65 212.895 157.55 212.89 157.449L211.423 132.632C211.421 132.581 211.409 132.532 211.387 132.486C211.365 132.441 211.334 132.4 211.297 132.366C211.259 132.332 211.215 132.306 211.167 132.29C211.119 132.273 211.069 132.267 211.018 132.27C210.917 132.276 210.822 132.322 210.754 132.398C210.686 132.474 210.651 132.573 210.656 132.675L212.147 157.479C212.152 157.577 212.194 157.669 212.265 157.736C212.336 157.804 212.43 157.841 212.528 157.841V157.854ZM207.951 166.007C208.043 165.966 208.115 165.89 208.151 165.796C208.188 165.702 208.186 165.597 208.147 165.504L198.717 144.172C198.677 144.079 198.601 144.007 198.506 143.97C198.412 143.933 198.307 143.935 198.214 143.976C198.122 144.017 198.049 144.092 198.012 144.187C197.975 144.281 197.977 144.386 198.018 144.479L207.442 165.811C207.471 165.879 207.52 165.938 207.582 165.979C207.644 166.02 207.717 166.043 207.791 166.044C207.855 166.047 207.918 166.035 207.975 166.007H207.951ZM209.583 163.062L232.154 159.835C232.208 159.834 232.262 159.821 232.311 159.798C232.361 159.775 232.404 159.741 232.44 159.7C232.475 159.658 232.501 159.61 232.517 159.558C232.532 159.505 232.536 159.45 232.529 159.396C232.521 159.342 232.503 159.29 232.474 159.244C232.445 159.198 232.407 159.158 232.361 159.128C232.316 159.098 232.265 159.077 232.211 159.068C232.157 159.059 232.102 159.061 232.05 159.074L209.478 162.302C209.378 162.308 209.283 162.354 209.217 162.43C209.15 162.506 209.116 162.606 209.123 162.706C209.129 162.807 209.175 162.901 209.251 162.968C209.327 163.035 209.427 163.069 209.527 163.062H209.583ZM203.147 177.461C203.227 177.399 203.279 177.307 203.292 177.205C203.304 177.104 203.277 177.002 203.214 176.922L190.981 161.203C190.918 161.122 190.826 161.069 190.724 161.056C190.622 161.042 190.519 161.07 190.438 161.133C190.357 161.195 190.303 161.288 190.29 161.39C190.277 161.491 190.305 161.594 190.367 161.676L202.625 177.419C202.661 177.464 202.707 177.501 202.759 177.527C202.811 177.553 202.868 177.566 202.926 177.566C203.018 177.561 203.105 177.524 203.171 177.461H203.147ZM222.264 173.21C222.267 173.108 222.231 173.01 222.162 172.935C222.093 172.86 221.997 172.816 221.896 172.811L205.079 171.958C204.985 171.965 204.896 172.006 204.83 172.073C204.764 172.141 204.724 172.231 204.72 172.325C204.715 172.42 204.746 172.513 204.805 172.587C204.865 172.66 204.949 172.71 205.043 172.725L221.89 173.578C221.991 173.581 222.09 173.545 222.165 173.476C222.239 173.407 222.284 173.311 222.289 173.21H222.264ZM214.331 185.689C214.337 185.638 214.333 185.587 214.319 185.538C214.305 185.489 214.281 185.444 214.249 185.405C214.217 185.365 214.177 185.332 214.132 185.309C214.088 185.285 214.038 185.27 213.988 185.265L201.104 183.995C201.054 183.99 201.003 183.995 200.955 184.01C200.907 184.024 200.862 184.048 200.824 184.08C200.785 184.112 200.753 184.151 200.729 184.196C200.706 184.24 200.691 184.289 200.687 184.339C200.678 184.44 200.709 184.54 200.773 184.618C200.838 184.696 200.93 184.745 201.03 184.756L213.914 186.032H213.951C214.05 186.039 214.148 186.007 214.223 185.943C214.299 185.879 214.346 185.787 214.356 185.689H214.331ZM198.165 192.339C198.25 192.283 198.31 192.195 198.33 192.095C198.351 191.995 198.331 191.891 198.276 191.805L191.907 182.179C191.849 182.096 191.761 182.039 191.661 182.02C191.562 182 191.459 182.02 191.374 182.075C191.288 182.131 191.229 182.219 191.208 182.319C191.188 182.419 191.207 182.523 191.263 182.609L197.631 192.235C197.668 192.288 197.716 192.331 197.773 192.361C197.83 192.39 197.893 192.406 197.957 192.407C198.04 192.411 198.122 192.387 198.19 192.339H198.165ZM212.779 195.56C212.778 195.459 212.737 195.363 212.666 195.291C212.596 195.219 212.5 195.177 212.399 195.174L197.251 195.033C197.15 195.033 197.053 195.073 196.982 195.144C196.911 195.215 196.871 195.312 196.871 195.413C196.869 195.464 196.878 195.514 196.896 195.561C196.915 195.609 196.942 195.652 196.978 195.688C197.014 195.724 197.056 195.752 197.103 195.772C197.15 195.791 197.2 195.8 197.251 195.799L212.399 195.941C212.45 195.943 212.502 195.935 212.551 195.917C212.599 195.899 212.644 195.872 212.682 195.836C212.72 195.801 212.75 195.758 212.771 195.711C212.792 195.663 212.803 195.612 212.804 195.56H212.779ZM192.453 218.211C192.484 218.144 195.067 211.027 202.834 209.327C202.934 209.305 203.021 209.245 203.076 209.158C203.132 209.072 203.15 208.967 203.129 208.867C203.104 208.769 203.042 208.684 202.956 208.631C202.871 208.577 202.767 208.558 202.668 208.579C194.478 210.37 191.76 217.886 191.729 217.96C191.698 218.056 191.705 218.162 191.75 218.253C191.794 218.345 191.873 218.416 191.969 218.45H192.091C192.173 218.457 192.255 218.438 192.324 218.395C192.394 218.352 192.448 218.287 192.478 218.211H192.453ZM194.177 223.837C194.279 223.829 194.373 223.782 194.44 223.705C194.506 223.628 194.54 223.528 194.533 223.426C193.57 208.959 199.165 185.265 208.141 165.817C213.877 153.387 236.363 128.957 236.602 128.712C236.674 128.639 236.715 128.541 236.715 128.439C236.715 128.336 236.674 128.238 236.602 128.166C236.567 128.13 236.524 128.102 236.478 128.082C236.432 128.063 236.382 128.053 236.332 128.053C236.282 128.053 236.232 128.063 236.186 128.082C236.139 128.102 236.097 128.13 236.062 128.166C235.835 128.411 213.258 152.933 207.472 165.473C198.331 185.394 192.809 208.659 193.791 223.475C193.798 223.573 193.842 223.664 193.914 223.731C193.985 223.798 194.079 223.836 194.177 223.837ZM212.528 157.854C212.629 157.847 212.724 157.801 212.792 157.725C212.859 157.65 212.895 157.55 212.89 157.449L211.423 132.632C211.421 132.581 211.409 132.532 211.387 132.486C211.365 132.441 211.334 132.4 211.297 132.366C211.259 132.332 211.215 132.306 211.167 132.29C211.119 132.273 211.069 132.267 211.018 132.27C210.917 132.276 210.822 132.322 210.754 132.398C210.686 132.474 210.651 132.573 210.656 132.675L212.147 157.479C212.152 157.577 212.194 157.669 212.265 157.736C212.336 157.804 212.43 157.841 212.528 157.841V157.854ZM207.951 166.007C208.043 165.966 208.115 165.89 208.151 165.796C208.188 165.702 208.186 165.597 208.147 165.504L198.717 144.172C198.677 144.079 198.601 144.007 198.506 143.97C198.412 143.933 198.307 143.935 198.214 143.976C198.122 144.017 198.049 144.092 198.012 144.187C197.975 144.281 197.977 144.386 198.018 144.479L207.442 165.811C207.471 165.879 207.52 165.938 207.582 165.979C207.644 166.02 207.717 166.043 207.791 166.044C207.855 166.047 207.918 166.035 207.975 166.007H207.951ZM209.583 163.062L232.154 159.835C232.208 159.834 232.262 159.821 232.311 159.798C232.361 159.775 232.404 159.741 232.44 159.7C232.475 159.658 232.501 159.61 232.517 159.558C232.532 159.505 232.536 159.45 232.529 159.396C232.521 159.342 232.503 159.29 232.474 159.244C232.445 159.198 232.407 159.158 232.361 159.128C232.316 159.098 232.265 159.077 232.211 159.068C232.157 159.059 232.102 159.061 232.05 159.074L209.478 162.302C209.378 162.308 209.283 162.354 209.217 162.43C209.15 162.506 209.116 162.606 209.123 162.706C209.129 162.807 209.175 162.901 209.251 162.968C209.327 163.035 209.427 163.069 209.527 163.062H209.583ZM203.147 177.461C203.227 177.399 203.279 177.307 203.292 177.205C203.304 177.104 203.277 177.002 203.214 176.922L190.981 161.203C190.95 161.163 190.911 161.129 190.867 161.104C190.823 161.079 190.774 161.062 190.724 161.056C190.674 161.049 190.622 161.053 190.573 161.066C190.524 161.079 190.478 161.102 190.438 161.133C190.398 161.164 190.364 161.202 190.339 161.247C190.313 161.291 190.297 161.339 190.29 161.39C190.284 161.44 190.287 161.491 190.3 161.54C190.314 161.589 190.336 161.635 190.367 161.676L202.625 177.419C202.661 177.464 202.707 177.501 202.759 177.527C202.811 177.553 202.868 177.566 202.926 177.566C203.018 177.561 203.105 177.524 203.171 177.461H203.147ZM222.264 173.21C222.267 173.108 222.231 173.01 222.162 172.935C222.093 172.86 221.997 172.816 221.896 172.811L205.079 171.958C204.985 171.965 204.896 172.006 204.83 172.073C204.764 172.141 204.724 172.231 204.72 172.325C204.715 172.42 204.746 172.513 204.805 172.587C204.865 172.66 204.949 172.71 205.043 172.725L221.89 173.578C221.991 173.581 222.09 173.545 222.165 173.476C222.239 173.407 222.284 173.311 222.289 173.21H222.264ZM214.331 185.689C214.337 185.638 214.333 185.587 214.319 185.538C214.305 185.489 214.281 185.444 214.249 185.405C214.217 185.365 214.177 185.332 214.132 185.309C214.088 185.285 214.038 185.27 213.988 185.265L201.104 183.995C201.054 183.99 201.003 183.995 200.955 184.01C200.907 184.024 200.862 184.048 200.824 184.08C200.785 184.112 200.753 184.151 200.729 184.196C200.706 184.24 200.691 184.289 200.687 184.339C200.678 184.44 200.709 184.54 200.773 184.618C200.838 184.696 200.93 184.745 201.03 184.756L213.914 186.032H213.951C214.05 186.039 214.148 186.007 214.223 185.943C214.299 185.879 214.346 185.787 214.356 185.689H214.331ZM198.165 192.339C198.25 192.283 198.31 192.195 198.33 192.095C198.351 191.995 198.331 191.891 198.276 191.805L191.907 182.179C191.849 182.096 191.761 182.039 191.661 182.02C191.562 182 191.459 182.02 191.374 182.075C191.288 182.131 191.229 182.219 191.208 182.319C191.188 182.419 191.207 182.523 191.263 182.609L197.631 192.235C197.668 192.288 197.716 192.331 197.773 192.361C197.83 192.39 197.893 192.406 197.957 192.407C198.04 192.411 198.122 192.387 198.19 192.339H198.165ZM212.779 195.56C212.778 195.459 212.737 195.363 212.666 195.291C212.596 195.219 212.5 195.177 212.399 195.174L197.251 195.033C197.15 195.033 197.053 195.073 196.982 195.144C196.911 195.215 196.871 195.312 196.871 195.413C196.869 195.464 196.878 195.514 196.896 195.561C196.915 195.609 196.942 195.652 196.978 195.688C197.014 195.724 197.056 195.752 197.103 195.772C197.15 195.791 197.2 195.8 197.251 195.799L212.399 195.941C212.45 195.943 212.502 195.935 212.551 195.917C212.599 195.899 212.644 195.872 212.682 195.836C212.72 195.801 212.75 195.758 212.771 195.711C212.792 195.663 212.803 195.612 212.804 195.56H212.779ZM192.453 218.211C192.484 218.144 195.067 211.027 202.834 209.327C202.934 209.305 203.021 209.245 203.076 209.158C203.132 209.072 203.15 208.967 203.129 208.867C203.104 208.769 203.042 208.684 202.956 208.631C202.871 208.577 202.767 208.558 202.668 208.579C194.478 210.37 191.76 217.886 191.729 217.96C191.698 218.056 191.705 218.162 191.75 218.253C191.794 218.345 191.873 218.416 191.969 218.45H192.091C192.173 218.457 192.255 218.438 192.324 218.395C192.394 218.352 192.448 218.287 192.478 218.211H192.453Z" fill="#B192E3"/>
<path opacity="0.2" d="M212.534 157.473L211.043 132.669L212.534 157.473ZM207.816 165.657L198.392 144.326L207.816 165.657ZM232.135 159.455L209.552 162.694L232.135 159.455ZM202.932 177.155L190.705 161.467L202.932 177.155ZM205.079 172.345L221.927 173.191L205.079 172.345ZM201.092 184.376L213.975 185.652L201.092 184.376ZM197.981 192.02L191.582 182.394L197.981 192.02ZM197.245 195.419L212.393 195.56L197.245 195.419ZM194.177 223.837C194.279 223.829 194.373 223.782 194.44 223.705C194.506 223.628 194.54 223.528 194.533 223.426C193.57 208.959 199.165 185.265 208.141 165.817C213.877 153.387 236.363 128.957 236.602 128.712C236.674 128.639 236.715 128.541 236.715 128.439C236.715 128.336 236.674 128.238 236.602 128.166C236.567 128.13 236.524 128.102 236.478 128.082C236.432 128.063 236.382 128.053 236.332 128.053C236.282 128.053 236.232 128.063 236.186 128.082C236.139 128.102 236.097 128.13 236.062 128.166C235.835 128.411 213.258 152.933 207.472 165.473C198.331 185.394 192.809 208.659 193.791 223.475C193.798 223.573 193.842 223.664 193.914 223.731C193.985 223.798 194.079 223.836 194.177 223.837ZM212.528 157.854C212.629 157.847 212.724 157.801 212.792 157.725C212.859 157.65 212.895 157.55 212.89 157.449L211.423 132.632C211.421 132.581 211.409 132.532 211.387 132.486C211.365 132.441 211.334 132.4 211.297 132.366C211.259 132.332 211.215 132.306 211.167 132.29C211.119 132.273 211.069 132.267 211.018 132.27C210.917 132.276 210.822 132.322 210.754 132.398C210.686 132.474 210.651 132.573 210.656 132.675L212.147 157.479C212.152 157.577 212.194 157.669 212.265 157.736C212.336 157.804 212.43 157.841 212.528 157.841V157.854ZM207.951 166.007C208.043 165.966 208.115 165.89 208.151 165.796C208.188 165.702 208.186 165.597 208.147 165.504L198.717 144.172C198.677 144.079 198.601 144.007 198.506 143.97C198.412 143.933 198.307 143.935 198.214 143.976C198.122 144.017 198.049 144.092 198.012 144.187C197.975 144.281 197.977 144.386 198.018 144.479L207.442 165.811C207.471 165.879 207.52 165.938 207.582 165.979C207.644 166.02 207.717 166.043 207.791 166.044C207.855 166.047 207.918 166.035 207.975 166.007H207.951ZM209.583 163.062L232.154 159.835C232.208 159.834 232.262 159.821 232.311 159.798C232.361 159.775 232.404 159.741 232.44 159.7C232.475 159.658 232.501 159.61 232.517 159.558C232.532 159.505 232.536 159.45 232.529 159.396C232.521 159.342 232.503 159.29 232.474 159.244C232.445 159.198 232.407 159.158 232.361 159.128C232.316 159.098 232.265 159.077 232.211 159.068C232.157 159.059 232.102 159.061 232.05 159.074L209.478 162.302C209.378 162.308 209.283 162.354 209.217 162.43C209.15 162.506 209.116 162.606 209.123 162.706C209.129 162.807 209.175 162.901 209.251 162.968C209.327 163.035 209.427 163.069 209.527 163.062H209.583ZM203.147 177.461C203.227 177.399 203.279 177.307 203.292 177.205C203.304 177.104 203.277 177.002 203.214 176.922L190.981 161.203C190.918 161.122 190.826 161.069 190.724 161.056C190.622 161.042 190.519 161.07 190.438 161.133C190.357 161.195 190.303 161.288 190.29 161.39C190.277 161.491 190.305 161.594 190.367 161.676L202.625 177.419C202.661 177.464 202.707 177.501 202.759 177.527C202.811 177.553 202.868 177.566 202.926 177.566C203.018 177.561 203.105 177.524 203.171 177.461H203.147ZM222.264 173.21C222.267 173.108 222.231 173.01 222.162 172.935C222.093 172.86 221.997 172.816 221.896 172.811L205.079 171.958C204.985 171.965 204.896 172.006 204.83 172.073C204.764 172.141 204.724 172.231 204.72 172.325C204.715 172.42 204.746 172.513 204.805 172.587C204.865 172.66 204.949 172.71 205.043 172.725L221.89 173.578C221.991 173.581 222.09 173.545 222.165 173.476C222.239 173.407 222.284 173.311 222.289 173.21H222.264ZM214.331 185.689C214.337 185.638 214.333 185.587 214.319 185.538C214.305 185.489 214.281 185.444 214.249 185.405C214.217 185.365 214.177 185.332 214.132 185.309C214.088 185.285 214.038 185.27 213.988 185.265L201.104 183.995C201.054 183.99 201.003 183.995 200.955 184.01C200.907 184.024 200.862 184.048 200.824 184.08C200.785 184.112 200.753 184.151 200.729 184.196C200.706 184.24 200.691 184.289 200.687 184.339C200.678 184.44 200.709 184.54 200.773 184.618C200.838 184.696 200.93 184.745 201.03 184.756L213.914 186.032H213.951C214.05 186.039 214.148 186.007 214.223 185.943C214.299 185.879 214.346 185.787 214.356 185.689H214.331ZM198.165 192.339C198.25 192.283 198.31 192.195 198.33 192.095C198.351 191.995 198.331 191.891 198.276 191.805L191.907 182.179C191.849 182.096 191.761 182.039 191.661 182.02C191.562 182 191.459 182.02 191.374 182.075C191.288 182.131 191.229 182.219 191.208 182.319C191.188 182.419 191.207 182.523 191.263 182.609L197.631 192.235C197.668 192.288 197.716 192.331 197.773 192.361C197.83 192.39 197.893 192.406 197.957 192.407C198.04 192.411 198.122 192.387 198.19 192.339H198.165ZM212.779 195.56C212.778 195.459 212.737 195.363 212.666 195.291C212.596 195.219 212.5 195.177 212.399 195.174L197.251 195.033C197.15 195.033 197.053 195.073 196.982 195.144C196.911 195.215 196.871 195.312 196.871 195.413C196.869 195.464 196.878 195.514 196.896 195.561C196.915 195.609 196.942 195.652 196.978 195.688C197.014 195.724 197.056 195.752 197.103 195.772C197.15 195.791 197.2 195.8 197.251 195.799L212.399 195.941C212.45 195.943 212.502 195.935 212.551 195.917C212.599 195.899 212.644 195.872 212.682 195.836C212.72 195.801 212.75 195.758 212.771 195.711C212.792 195.663 212.803 195.612 212.804 195.56H212.779ZM192.453 218.211C192.484 218.144 195.067 211.027 202.834 209.327C202.934 209.305 203.021 209.245 203.076 209.158C203.132 209.072 203.15 208.967 203.129 208.867C203.104 208.769 203.042 208.684 202.956 208.631C202.871 208.577 202.767 208.558 202.668 208.579C194.478 210.37 191.76 217.886 191.729 217.96C191.698 218.056 191.705 218.162 191.75 218.253C191.794 218.345 191.873 218.416 191.969 218.45H192.091C192.173 218.457 192.255 218.438 192.324 218.395C192.394 218.352 192.448 218.287 192.478 218.211H192.453ZM194.177 223.837C194.279 223.829 194.373 223.782 194.44 223.705C194.506 223.628 194.54 223.528 194.533 223.426C193.57 208.959 199.165 185.265 208.141 165.817C213.877 153.387 236.363 128.957 236.602 128.712C236.674 128.639 236.715 128.541 236.715 128.439C236.715 128.336 236.674 128.238 236.602 128.166C236.567 128.13 236.524 128.102 236.478 128.082C236.432 128.063 236.382 128.053 236.332 128.053C236.282 128.053 236.232 128.063 236.186 128.082C236.139 128.102 236.097 128.13 236.062 128.166C235.835 128.411 213.258 152.933 207.472 165.473C198.331 185.394 192.809 208.659 193.791 223.475C193.798 223.573 193.842 223.664 193.914 223.731C193.985 223.798 194.079 223.836 194.177 223.837ZM212.528 157.854C212.629 157.847 212.724 157.801 212.792 157.725C212.859 157.65 212.895 157.55 212.89 157.449L211.423 132.632C211.421 132.581 211.409 132.532 211.387 132.486C211.365 132.441 211.334 132.4 211.297 132.366C211.259 132.332 211.215 132.306 211.167 132.29C211.119 132.273 211.069 132.267 211.018 132.27C210.917 132.276 210.822 132.322 210.754 132.398C210.686 132.474 210.651 132.573 210.656 132.675L212.147 157.479C212.152 157.577 212.194 157.669 212.265 157.736C212.336 157.804 212.43 157.841 212.528 157.841V157.854ZM207.951 166.007C208.043 165.966 208.115 165.89 208.151 165.796C208.188 165.702 208.186 165.597 208.147 165.504L198.717 144.172C198.677 144.079 198.601 144.007 198.506 143.97C198.412 143.933 198.307 143.935 198.214 143.976C198.122 144.017 198.049 144.092 198.012 144.187C197.975 144.281 197.977 144.386 198.018 144.479L207.442 165.811C207.471 165.879 207.52 165.938 207.582 165.979C207.644 166.02 207.717 166.043 207.791 166.044C207.855 166.047 207.918 166.035 207.975 166.007H207.951ZM209.583 163.062L232.154 159.835C232.208 159.834 232.262 159.821 232.311 159.798C232.361 159.775 232.404 159.741 232.44 159.7C232.475 159.658 232.501 159.61 232.517 159.558C232.532 159.505 232.536 159.45 232.529 159.396C232.521 159.342 232.503 159.29 232.474 159.244C232.445 159.198 232.407 159.158 232.361 159.128C232.316 159.098 232.265 159.077 232.211 159.068C232.157 159.059 232.102 159.061 232.05 159.074L209.478 162.302C209.378 162.308 209.283 162.354 209.217 162.43C209.15 162.506 209.116 162.606 209.123 162.706C209.129 162.807 209.175 162.901 209.251 162.968C209.327 163.035 209.427 163.069 209.527 163.062H209.583ZM203.147 177.461C203.227 177.399 203.279 177.307 203.292 177.205C203.304 177.104 203.277 177.002 203.214 176.922L190.981 161.203C190.95 161.163 190.911 161.129 190.867 161.104C190.823 161.079 190.774 161.062 190.724 161.056C190.674 161.049 190.622 161.053 190.573 161.066C190.524 161.079 190.478 161.102 190.438 161.133C190.398 161.164 190.364 161.202 190.339 161.247C190.313 161.291 190.297 161.339 190.29 161.39C190.284 161.44 190.287 161.491 190.3 161.54C190.314 161.589 190.336 161.635 190.367 161.676L202.625 177.419C202.661 177.464 202.707 177.501 202.759 177.527C202.811 177.553 202.868 177.566 202.926 177.566C203.018 177.561 203.105 177.524 203.171 177.461H203.147ZM222.264 173.21C222.267 173.108 222.231 173.01 222.162 172.935C222.093 172.86 221.997 172.816 221.896 172.811L205.079 171.958C204.985 171.965 204.896 172.006 204.83 172.073C204.764 172.141 204.724 172.231 204.72 172.325C204.715 172.42 204.746 172.513 204.805 172.587C204.865 172.66 204.949 172.71 205.043 172.725L221.89 173.578C221.991 173.581 222.09 173.545 222.165 173.476C222.239 173.407 222.284 173.311 222.289 173.21H222.264ZM214.331 185.689C214.337 185.638 214.333 185.587 214.319 185.538C214.305 185.489 214.281 185.444 214.249 185.405C214.217 185.365 214.177 185.332 214.132 185.309C214.088 185.285 214.038 185.27 213.988 185.265L201.104 183.995C201.054 183.99 201.003 183.995 200.955 184.01C200.907 184.024 200.862 184.048 200.824 184.08C200.785 184.112 200.753 184.151 200.729 184.196C200.706 184.24 200.691 184.289 200.687 184.339C200.678 184.44 200.709 184.54 200.773 184.618C200.838 184.696 200.93 184.745 201.03 184.756L213.914 186.032H213.951C214.05 186.039 214.148 186.007 214.223 185.943C214.299 185.879 214.346 185.787 214.356 185.689H214.331ZM198.165 192.339C198.25 192.283 198.31 192.195 198.33 192.095C198.351 191.995 198.331 191.891 198.276 191.805L191.907 182.179C191.849 182.096 191.761 182.039 191.661 182.02C191.562 182 191.459 182.02 191.374 182.075C191.288 182.131 191.229 182.219 191.208 182.319C191.188 182.419 191.207 182.523 191.263 182.609L197.631 192.235C197.668 192.288 197.716 192.331 197.773 192.361C197.83 192.39 197.893 192.406 197.957 192.407C198.04 192.411 198.122 192.387 198.19 192.339H198.165ZM212.779 195.56C212.778 195.459 212.737 195.363 212.666 195.291C212.596 195.219 212.5 195.177 212.399 195.174L197.251 195.033C197.15 195.033 197.053 195.073 196.982 195.144C196.911 195.215 196.871 195.312 196.871 195.413C196.869 195.464 196.878 195.514 196.896 195.561C196.915 195.609 196.942 195.652 196.978 195.688C197.014 195.724 197.056 195.752 197.103 195.772C197.15 195.791 197.2 195.8 197.251 195.799L212.399 195.941C212.45 195.943 212.502 195.935 212.551 195.917C212.599 195.899 212.644 195.872 212.682 195.836C212.72 195.801 212.75 195.758 212.771 195.711C212.792 195.663 212.803 195.612 212.804 195.56H212.779ZM192.453 218.211C192.484 218.144 195.067 211.027 202.834 209.327C202.934 209.305 203.021 209.245 203.076 209.158C203.132 209.072 203.15 208.967 203.129 208.867C203.104 208.769 203.042 208.684 202.956 208.631C202.871 208.577 202.767 208.558 202.668 208.579C194.478 210.37 191.76 217.886 191.729 217.96C191.698 218.056 191.705 218.162 191.75 218.253C191.794 218.345 191.873 218.416 191.969 218.45H192.091C192.173 218.457 192.255 218.438 192.324 218.395C192.394 218.352 192.448 218.287 192.478 218.211H192.453Z" fill="black"/>
<path d="M204.196 213.021H186.827V216.616H188.343L191.478 236.23H199.546L202.681 216.616H204.196V213.021Z" fill="#B192E3"/>
<path opacity="0.3" d="M204.196 213.021H186.827V216.616H188.343L191.478 236.23H199.546L202.681 216.616H204.196V213.021Z" fill="white"/>
<path d="M47.8234 104.306L27.6203 97.7107L25.8227 92.9621L21.7183 92.8333L14.2703 91.4222L15.166 92.9621L24.5405 99.766L26.8535 100.919L47.9829 111.957L47.8234 104.306Z" fill="white" stroke="#263238" stroke-width="0.524611" stroke-miterlimit="10"/>
<path d="M25.8227 92.9621L23.8963 91.8087L20.0496 93.2198L20.6876 93.9867L25.8227 92.9621Z" fill="white" stroke="#263238" stroke-width="0.524611" stroke-linejoin="round"/>
<path d="M47.8234 104.306L27.6203 97.7107L25.8227 92.9621L21.7183 92.8333L14.2703 91.4222L15.166 92.9621L24.5405 99.766L26.8535 100.919L47.9829 111.957L47.8234 104.306Z" fill="white"/>
<mask id="mask0_223_16298" style="mask-type:luminance" maskUnits="userSpaceOnUse" x="14" y="91" width="34" height="21">
<path d="M47.8234 104.306L27.6203 97.7107L25.8227 92.9621L21.7183 92.8333L14.2703 91.4222L15.166 92.9621L24.5405 99.766L26.8535 100.919L47.9829 111.957L47.8234 104.306Z" fill="white"/>
</mask>
<g mask="url(#mask0_223_16298)">
<path opacity="0.5" d="M47.8234 104.306L27.6203 97.7107L25.8227 92.9621L21.7183 92.8333L14.2703 91.4222L15.166 92.9621L24.5405 99.766L26.8535 100.919L47.9829 111.957L47.8234 104.306Z" fill="#B192E3" stroke="#263238" stroke-width="0.524611" stroke-miterlimit="10"/>
</g>
<path d="M47.8234 104.306L27.6203 97.7107L25.8227 92.9621L21.7183 92.8333L14.2703 91.4222L15.166 92.9621L24.5405 99.766L26.8535 100.919L47.9829 111.957L47.8234 104.306Z" stroke="#263238" stroke-width="0.524611" stroke-miterlimit="10"/>
<path d="M25.8227 92.9621L23.8963 91.8087L20.0496 93.2198L20.6876 93.9867L25.8227 92.9621Z" fill="white"/>
<mask id="mask1_223_16298" style="mask-type:luminance" maskUnits="userSpaceOnUse" x="20" y="91" width="6" height="3">
<path d="M25.8227 92.9621L23.8963 91.8087L20.0496 93.2198L20.6876 93.9867L25.8227 92.9621Z" fill="white"/>
</mask>
<g mask="url(#mask1_223_16298)">
<path opacity="0.5" d="M25.8227 92.9621L23.8963 91.8087L20.0496 93.2198L20.6876 93.9867L25.8227 92.9621Z" fill="#B192E3" stroke="#263238" stroke-width="0.524611" stroke-linejoin="round"/>
</g>
<path d="M25.8227 92.9621L23.8963 91.8087L20.0496 93.2198L20.6876 93.9867L25.8227 92.9621Z" stroke="#263238" stroke-width="0.524611" stroke-linejoin="round"/>
<path d="M52.1118 61.501C52.1118 61.501 51.7989 64.2619 52.5781 66.0349C53.3573 67.808 57.6825 73.8143 57.6825 73.8143L49.6087 80.2869C49.6087 80.2869 46.2589 73.5382 45.6208 72.4461C44.9828 71.3541 44.2159 66.6546 46.2957 63.2864C48.3755 59.9182 51.3695 59.0102 52.1118 61.501Z" fill="white"/>
<mask id="mask2_223_16298" style="mask-type:luminance" maskUnits="userSpaceOnUse" x="44" y="60" width="14" height="21">
<path d="M52.1118 61.501C52.1118 61.501 51.7989 64.2619 52.5781 66.0349C53.3573 67.808 57.6825 73.8143 57.6825 73.8143L49.6087 80.2869C49.6087 80.2869 46.2589 73.5382 45.6208 72.4461C44.9828 71.3541 44.2159 66.6546 46.2957 63.2864C48.3755 59.9182 51.3695 59.0102 52.1118 61.501Z" fill="white"/>
</mask>
<g mask="url(#mask2_223_16298)">
<g style="mix-blend-mode:multiply" opacity="0.5">
<path d="M47.9645 70.3725L51.4677 77.6365L49.6026 80.293L46.081 74.0045L47.9645 70.3725Z" fill="#B192E3"/>
</g>
</g>
<path d="M52.1118 61.501C52.1118 61.501 51.7989 64.2619 52.5781 66.0349C53.3573 67.808 57.6825 73.8143 57.6825 73.8143L49.6087 80.2869C49.6087 80.2869 46.2589 73.5382 45.6208 72.4461C44.9828 71.3541 44.2159 66.6546 46.2957 63.2864C48.3755 59.9182 51.3695 59.0102 52.1118 61.501Z" stroke="#263238" stroke-width="0.524611" stroke-miterlimit="10"/>
<path d="M54.615 56.4457C54.1181 53.3781 50.6026 47.1387 45.0258 47.378C41.406 47.5375 39.7127 48.2676 38.1421 49.1572C36.8619 49.9114 35.6686 50.8044 34.5837 51.8198C31.8597 55.0898 30.9027 55.9856 31.4303 58.4887C31.387 59.4871 31.5434 60.4841 31.8904 61.4213C32.7248 63.6484 33.2954 65.1024 34.0193 66.1638C33.7984 67.2006 33.2217 69.9369 33.1911 70.5627C33.1604 71.1885 35.0316 70.7529 35.9764 70.5136C37.7311 74.4401 40.9459 77.1641 41.9459 77.477C43.6883 78.023 46.443 75.1579 47.9031 72.937C49.3633 70.7161 48.259 68.2191 48.2651 67.2252C48.2713 66.2313 51.5474 64.0472 52.7622 63.3539C53.9769 62.6606 55.1058 59.5072 54.615 56.4457Z" fill="white"/>
<mask id="mask3_223_16298" style="mask-type:luminance" maskUnits="userSpaceOnUse" x="31" y="47" width="24" height="31">
<path d="M54.615 56.4457C54.1181 53.3781 50.6026 47.1387 45.0258 47.378C41.406 47.5375 39.7127 48.2676 38.1421 49.1572C36.8619 49.9114 35.6686 50.8044 34.5837 51.8198C31.8597 55.0898 30.9027 55.9856 31.4303 58.4887C31.387 59.4871 31.5434 60.4841 31.8904 61.4213C32.7248 63.6484 33.2954 65.1024 34.0193 66.1638C33.7984 67.2006 33.2217 69.9369 33.1911 70.5627C33.1604 71.1885 35.0316 70.7529 35.9764 70.5136C37.7311 74.4401 40.9459 77.1641 41.9459 77.477C43.6883 78.023 46.443 75.1579 47.9031 72.937C49.3633 70.7161 48.259 68.2191 48.2651 67.2252C48.2713 66.2313 51.5474 64.0472 52.7622 63.3539C53.9769 62.6606 55.1058 59.5072 54.615 56.4457Z" fill="white"/>
</mask>
<g mask="url(#mask3_223_16298)">
<g style="mix-blend-mode:multiply" opacity="0.5">
<path d="M31.4548 58.4887C31.4115 59.4871 31.568 60.4841 31.9149 61.4213C32.7493 63.6483 33.3199 65.1024 34.0438 66.1637C33.823 67.2006 33.2463 69.9368 33.2156 70.5626C33.1849 71.1884 35.0561 70.7528 36.001 70.5136C37.7556 74.44 40.9704 77.1641 41.9705 77.4769C43.7128 78.023 46.4675 75.1579 47.9277 72.9369C48.2925 72.3825 48.5293 71.7537 48.621 71.0964C48.5412 70.808 48.486 70.6301 48.486 70.6301C48.486 70.6301 47.6639 73.7897 46.0319 73.3787C44.4 72.9676 41.903 69.6976 40.5103 68.5687C39.1176 67.4398 39.6882 65.9551 39.4121 64.2741C39.136 62.5931 35.0132 61.1145 34.7371 60.1513C34.461 59.1881 35.4243 55.2002 35.4243 55.2002C35.4243 55.2002 36.9887 53.1143 36.6513 53.9732C36.4128 54.7179 36.3263 55.503 36.3969 56.2818C36.4675 57.0606 36.6938 57.8173 37.0623 58.5071C37.321 59.0513 37.7312 59.5093 38.2438 59.826C38.7564 60.1427 39.3496 60.3046 39.952 60.2924L41.449 52.875L38.2894 50.2614L34.6083 51.7952C31.8597 55.0898 30.9211 55.9855 31.4548 58.4887Z" fill="#B192E3"/>
</g>
</g>
<path d="M54.615 56.4457C54.1181 53.3781 50.6026 47.1387 45.0258 47.378C41.406 47.5375 39.7127 48.2676 38.1421 49.1572C36.8619 49.9114 35.6686 50.8044 34.5837 51.8198C31.8597 55.0898 30.9027 55.9856 31.4303 58.4887C31.387 59.4871 31.5434 60.4841 31.8904 61.4213C32.7248 63.6484 33.2954 65.1024 34.0193 66.1638C33.7984 67.2006 33.2217 69.9369 33.1911 70.5627C33.1604 71.1885 35.0316 70.7529 35.9764 70.5136C37.7311 74.4401 40.9459 77.1641 41.9459 77.477C43.6883 78.023 46.443 75.1579 47.9031 72.937C49.3633 70.7161 48.259 68.2191 48.2651 67.2252C48.2713 66.2313 51.5474 64.0472 52.7622 63.3539C53.9769 62.6606 55.1058 59.5072 54.615 56.4457Z" stroke="#263238" stroke-width="0.522541" stroke-miterlimit="10"/>
<path d="M34.78 64.3109L35.3935 66.0656C35.3935 66.0656 36.7126 66.5012 38.32 64.7465" stroke="#263238" stroke-width="0.522541" stroke-miterlimit="10" stroke-linecap="round"/>
<path d="M39.3139 72.5075C39.3139 72.5075 40.7741 72.3603 41.363 70.3112" stroke="#263238" stroke-width="0.522541" stroke-miterlimit="10" stroke-linecap="round"/>
<path d="M33.7555 62.8447C33.7555 62.8447 34.1911 61.5256 36.8231 61.5256" stroke="#263238" stroke-width="0.522541" stroke-miterlimit="10" stroke-linecap="round"/>
<path d="M47.2467 44.9362C45.3342 44.6611 43.4055 44.5136 41.4735 44.4944C41.4735 44.4944 35.6942 41.163 30.1419 44.7153C24.5896 48.2675 27.2584 54.4886 27.2584 56.0408C27.2584 57.593 25.4792 57.5991 26.5896 59.5992C27.7001 61.5992 31.4548 60.4949 31.4548 60.4949C31.4945 59.7405 31.6938 59.0032 32.0397 58.3316C32.3855 57.66 32.8699 57.0695 33.461 56.5991C35.461 55.0469 37.0562 54.7095 37.7188 55.1573C37.7188 55.1573 37.277 58.4887 37.9396 59.82C37.9396 59.82 40.1606 60.9305 40.8293 60.9305C41.498 60.9305 40.3937 61.8692 42.6085 62.7036C43.012 62.8485 43.4436 62.8978 43.8694 62.8478C44.2952 62.7978 44.7036 62.6497 45.0625 62.4152C45.3877 61.0655 46.0994 59.0347 47.4246 59.5071C49.3694 60.2004 51.1425 64.9858 48.5105 66.6178C51.6762 67.1945 55.5107 61.5931 55.7377 56.4886C55.9647 51.3842 50.5351 45.5129 47.2467 44.9362Z" fill="#263238"/>
<path d="M37.817 52.967C37.817 52.967 39.4489 52.0897 41.449 53.9671C43.449 55.8444 47.3387 58.3537 52.4922 56.9733" stroke="white" stroke-width="0.261271" stroke-linecap="round" stroke-linejoin="round"/>
<path d="M37.59 51.464C37.59 51.464 38.7127 49.7093 40.5901 49.7093C42.4674 49.7093 46.854 52.3413 50.3572 52.3413" stroke="white" stroke-width="0.261271" stroke-linecap="round" stroke-linejoin="round"/>
<path d="M36.3138 54.8444C36.3138 54.8444 34.1849 52.2186 32.1849 54.3475C30.1848 56.4764 31.4548 58.4887 31.4548 58.4887" stroke="white" stroke-width="0.261271" stroke-linecap="round" stroke-linejoin="round"/>
<path d="M27.8044 56.5991C29.0244 55.4989 29.7827 53.9778 29.9271 52.3413C30.1787 49.5866 33.9395 47.2062 36.3138 49.4639" stroke="white" stroke-width="0.261271" stroke-linecap="round" stroke-linejoin="round"/>
<path d="M31.6818 46.5803C31.6818 46.5803 35.4427 42.9483 38.5716 47.5804" stroke="white" stroke-width="0.261271" stroke-linecap="round" stroke-linejoin="round"/>
<path d="M62.2901 225.156C62.2901 225.156 64.603 228.751 64.3453 231.064L64.0938 233.377C64.0938 233.377 55.6089 235.702 53.8113 235.702C52.0137 235.702 42.4981 234.801 42.4981 234.801L42.087 233.169C42.0582 233.048 42.0718 232.921 42.1254 232.81C42.1791 232.698 42.2695 232.608 42.3815 232.555L50.8664 228.598L53.5413 225.672L62.2901 225.156Z" fill="white" stroke="#263238" stroke-width="0.524611" stroke-miterlimit="10"/>
<path d="M55.0996 233.893C57.4003 234.07 61.7685 232.666 64.3023 231.77L64.1244 233.377C64.1244 233.377 55.6089 235.702 53.8113 235.702C52.0137 235.702 42.498 234.801 42.498 234.801L42.2036 233.635C43.7251 233.641 52.0566 233.659 55.0996 233.893Z" fill="#B192E3" stroke="#263238" stroke-width="0.524611" stroke-miterlimit="10"/>
<path d="M50.8787 228.598L38.5286 233.972C38.5286 233.972 37.4734 236.617 38.5286 237.144C39.5839 237.672 62.5907 237.144 62.5907 237.144C62.5907 237.144 64.1797 232.966 61.6704 230.162C59.1611 227.359 50.8787 228.598 50.8787 228.598Z" fill="white" stroke="#263238" stroke-width="0.524611" stroke-miterlimit="10"/>
<path d="M62.5907 237.144C62.5907 237.144 39.5839 237.672 38.5286 237.144C38.0194 236.887 38.001 236.144 38.1176 235.439H62.9956C62.9143 236.019 62.7787 236.59 62.5907 237.144Z" fill="#B192E3" stroke="#263238" stroke-width="0.524611" stroke-miterlimit="10"/>
<path d="M45.038 135.215C45.038 135.215 41.8109 149.516 40.59 158.461C39.3691 167.406 38.6513 185.327 38.909 187.382C39.1667 189.437 52.0137 223.874 52.0137 223.874L53.2959 226.941L62.29 225.144C62.29 225.144 58.1795 212.039 56.6396 204.843C55.0997 197.646 51.7315 185.824 51.7315 183.768C51.7315 181.713 59.7071 142.46 60.2777 139.884C60.8483 137.307 63.4373 133.35 63.4373 133.35L46.216 133L45.038 135.215Z" fill="#B192E3" stroke="#263238" stroke-width="0.524611" stroke-miterlimit="10"/>
<path d="M45.038 135.215C45.038 135.215 43.1484 148.277 43.9275 157.357C44.7067 166.437 46.3816 185.768 46.3816 188.646C46.3816 191.523 51.0259 208.708 51.2897 214.107C51.7008 221.904 51.1241 225.763 51.1241 225.763L50.848 228.592C50.848 228.592 56.2653 229.365 57.4494 229.702C58.817 230.055 60.2283 230.208 61.6397 230.156C61.6397 230.156 63.6091 221.487 63.6091 214.101C63.6091 206.714 61.971 191.511 61.155 185.351C60.339 179.192 62.9097 155.43 64.3698 150.994C65.83 146.559 69.0203 137.166 66.873 132.368C64.7257 127.57 45.038 135.215 45.038 135.215Z" fill="#B192E3" stroke="#263238" stroke-width="0.524611" stroke-miterlimit="10"/>
<path d="M69.2596 129.963L69.0632 135.804C69.0632 135.804 65.5662 136.497 60.8544 137.313C56.9647 137.988 47.1976 137.135 43.9091 136.816C43.6095 136.79 43.3324 136.646 43.1382 136.416C42.9441 136.186 42.8485 135.889 42.8723 135.589L43.1913 130.313L69.2596 129.963Z" fill="#263238"/>
<path d="M55.5905 71.7406C55.5905 71.7406 50.0689 77.7101 47.989 81.4219C45.9092 85.1336 45.0871 90.8209 44.308 95.2996C43.5288 99.7782 45.6393 110.294 45.0442 115.122L43.1607 130.331C43.1607 130.331 42.7558 131.362 44.1116 132.491C45.4675 133.62 52.0873 134.031 58.0691 134.331C60.2532 134.442 66.7749 133.037 67.8424 132.969C69.1308 132.89 69.1737 131.252 69.2289 129.963C69.4866 123.908 70.5787 107.766 71.2965 100.735C72.775 86.3975 64.6828 72.5566 55.5905 71.7406Z" fill="white" stroke="#263238" stroke-width="0.524611" stroke-miterlimit="10"/>
<g style="mix-blend-mode:multiply">
<path d="M70.6215 108.889C70.8669 105.705 71.1123 102.815 71.3271 100.735C71.3884 100.122 71.4252 99.5083 71.4559 98.8947L56.7868 101.349L44.1852 97.0542C44.1866 99.6617 44.334 102.267 44.6269 104.858L56.9892 108.318L70.6215 108.889Z" fill="#B192E3"/>
</g>
<g style="mix-blend-mode:multiply">
<path d="M55.0444 72.3419C54.21 73.2683 52.5535 75.1518 50.9768 77.1519L60.29 86.6184L63.3575 85.3914L55.0444 72.3419Z" fill="#B192E3"/>
</g>
<path d="M55.5905 71.7406C55.5905 71.7406 50.0688 77.7101 47.989 81.4219C47.3723 82.5499 46.8727 83.7382 46.4982 84.968L57.6028 72.1394C56.9467 71.9407 56.2727 71.8071 55.5905 71.7406Z" fill="#263238"/>
<g style="mix-blend-mode:multiply">
<path d="M44.7374 92.8824L56.7868 96.8457L71.4192 95.1646C71.1898 91.5196 70.38 87.9345 69.0203 84.5447L57.2224 89.2749L46.6761 84.4956C45.8138 87.2368 45.1656 90.0408 44.7374 92.8824Z" fill="#B192E3"/>
</g>
<g style="mix-blend-mode:multiply">
<path d="M65.4803 123.908C59.3689 124.934 53.0982 124.422 47.2344 122.417L44.2957 121.411L43.3815 128.773L46.7313 129.712C53.0994 131.492 59.7552 132.005 66.3208 131.221L69.0264 130.896C69.1672 130.598 69.2465 130.274 69.2596 129.945C69.3332 128.307 69.462 125.926 69.6277 123.196L65.4803 123.908Z" fill="#B192E3"/>
</g>
<g style="mix-blend-mode:multiply">
<path d="M67.1184 113.883C61.0067 114.913 54.7345 114.399 48.8725 112.386L45.13 111.104C45.2229 112.44 45.2044 113.783 45.0748 115.116L44.6392 118.656L48.3694 119.699C54.735 121.481 61.3887 121.996 67.9528 121.214L69.7933 120.994C69.9467 118.54 70.1246 115.926 70.3148 113.343L67.1184 113.883Z" fill="#B192E3"/>
</g>
<path d="M9.55922 87.9387L21.4218 97.4764L21.933 96.8405L10.0705 87.3027L9.55922 87.9387Z" fill="#263238"/>
<path d="M61.3023 78.3604C61.3023 78.3604 65.6522 81.3237 65.7503 88.3239C65.7933 91.3915 65.4742 94.2566 64.7687 99.2813C64.0632 104.306 59.6827 120.668 56.2715 122.656C52.8604 124.644 47.5658 120.889 47.5658 120.889L21.9576 103.889L15.7673 98.8886L12.6997 93.097L13.6629 91.2565L21.2153 97.0481L17.1477 93.2872L17.9453 92.2749L19.4177 93.2995L23.7123 94.9069L24.651 101.042L25.9762 101.95L50.4738 110.901C50.4738 110.901 50.1671 97.7168 50.3941 95.1952C50.6211 92.6737 50.9339 86.3361 53.6334 81.7409" fill="white"/>
<mask id="mask4_223_16298" style="mask-type:luminance" maskUnits="userSpaceOnUse" x="12" y="78" width="54" height="46">
<path d="M61.3023 78.3604C61.3023 78.3604 65.6522 81.3237 65.7503 88.3239C65.7933 91.3915 65.4742 94.2566 64.7687 99.2813C64.0632 104.306 59.6827 120.668 56.2715 122.656C52.8604 124.644 47.5658 120.889 47.5658 120.889L21.9576 103.889L15.7673 98.8886L12.6997 93.097L13.6629 91.2565L21.2153 97.0481L17.1477 93.2872L17.9453 92.2749L19.4177 93.2995L23.7123 94.9069L24.651 101.042L25.9762 101.95L50.4738 110.901C50.4738 110.901 50.1671 97.7168 50.3941 95.1952C50.6211 92.6737 50.9339 86.3361 53.6334 81.7409" fill="white"/>
</mask>
<g mask="url(#mask4_223_16298)">
<g style="mix-blend-mode:multiply" opacity="0.5">
<path d="M50.302 100.938C50.302 105.49 50.4554 110.901 50.4554 110.901L25.9823 101.987L24.6571 101.079L23.7184 94.9437L19.4238 93.3362L17.9575 92.2933L17.1599 93.3056L21.2153 97.048L13.6629 91.2564L12.7488 93.0663L15.8164 98.8579L22.0067 103.889L23.565 104.926L57.4004 115.828L50.302 100.938Z" fill="#B192E3"/>
</g>
</g>
<path d="M61.3023 78.3604C61.3023 78.3604 65.6522 81.3237 65.7503 88.3239C65.7933 91.3915 65.4742 94.2566 64.7687 99.2813C64.0632 104.306 59.6827 120.668 56.2715 122.656C52.8604 124.644 47.5657 120.889 47.5657 120.889L21.9576 103.889L15.7673 98.8886L12.6997 93.097L13.6629 91.2565L21.2153 97.0481L17.1477 93.2872L17.9453 92.2749L19.4177 93.2995L23.7123 94.9069L24.651 101.042L25.9762 101.95L50.4738 110.901C50.4738 110.901 50.1671 97.7168 50.3941 95.1952C50.6211 92.6737 50.9339 86.3361 53.6334 81.7409" stroke="#263238" stroke-width="0.524611" stroke-miterlimit="10"/>
<path d="M50.4738 110.901L59.8237 117.65L62.2471 113.355C62.2471 113.355 63.922 112.036 64.1674 111.042C64.4128 110.048 64.0999 108.435 64.3515 107.441C64.603 106.447 65.8546 105.515 65.9711 103.11C66.0877 100.705 65.9711 98.6985 65.9711 98.6985C65.9711 98.6985 67.9957 90.3731 67.7749 86.7533C67.554 83.1336 64.0631 76.7346 61.2655 76.5935C58.4679 76.4524 54.8297 76.8758 52.0075 81.1458C49.1854 85.4159 49.7621 97.8825 49.3204 98.6617C48.8786 99.4408 49.4921 103.288 49.4921 103.288C49.2469 103.47 49.0435 103.703 48.8954 103.971C48.7473 104.239 48.6579 104.535 48.6332 104.84C48.5841 105.84 49.6639 108.3 49.6639 108.3L50.4738 110.901Z" fill="white" stroke="#263238" stroke-width="0.524611" stroke-miterlimit="10"/>
<g style="mix-blend-mode:multiply">
<path d="M49.5657 95.4591C49.585 96.5297 49.5049 97.5997 49.3265 98.6555C48.9338 99.3549 49.3817 102.515 49.4798 103.159C54.7388 104.792 60.2996 105.212 65.7441 104.386C65.8611 103.959 65.931 103.521 65.9527 103.079C66.0754 100.68 65.9527 98.6678 65.9527 98.6678C65.9527 98.6678 66.1306 97.9254 66.376 96.7966C60.7375 97.155 55.0767 96.7046 49.5657 95.4591Z" fill="#B192E3"/>
</g>
<g style="mix-blend-mode:multiply">
<path d="M51.6272 81.8268C50.7498 83.5876 50.259 86.2318 49.9768 88.9129C55.5464 91.0385 61.5513 91.7693 67.4681 91.0418C67.7042 89.6229 67.8089 88.1853 67.781 86.7472C67.6748 85.6104 67.4062 84.4948 66.9834 83.4342C61.8171 83.5548 56.6565 83.0146 51.6272 81.8268Z" fill="#B192E3"/>
</g>
<path d="M49.6639 108.367L50.4554 110.901L59.8053 117.65L62.2287 113.355C62.2287 113.355 63.9036 112.036 64.149 111.042C64.1928 110.87 64.2195 110.693 64.2288 110.515C59.3016 110.43 54.4061 109.708 49.6639 108.367Z" fill="#263238"/>
<path d="M56.431 229.623C56.431 229.623 56.6396 224.309 57.658 216.542C58.6764 208.775 56.2285 197.744 55.8175 195.904C55.4064 194.063 56.026 189.977 55.615 188.542C55.2039 187.106 53.2161 180.983 54.388 173.879C55.5598 166.774 56.5107 147.994 56.5107 147.994C56.5107 147.994 53.5597 145.596 52.6947 142.473C51.8296 139.35 52.4922 138.368 52.4922 138.368" stroke="#263238" stroke-width="0.524611" stroke-miterlimit="10"/>
<path d="M57.7991 138.657L56.6641 144.939" stroke="#263238" stroke-width="0.524611" stroke-miterlimit="10"/>
</svg>
