<svg width="338" height="256" viewBox="0 0 338 256" fill="none" xmlns="http://www.w3.org/2000/svg">
<path d="M101.243 207.672L0.551392 223.736L186.059 255.873L338 229.578L101.243 207.672Z" fill="#440088"/>
<path opacity="0.15" d="M165.311 232.693C193.62 232.693 216.569 229.959 216.569 226.587C216.569 223.215 193.62 220.482 165.311 220.482C137.002 220.482 114.053 223.215 114.053 226.587C114.053 229.959 137.002 232.693 165.311 232.693Z" fill="black"/>
<path d="M161.038 160.375C161.038 160.375 156.765 161.599 143.651 161.295C130.537 160.991 111.604 154.886 104.291 154.886C96.9782 154.886 89.0241 157.63 85.9838 163.735C82.9435 169.841 80.1826 177.466 97.8821 184.483C115.582 191.501 129 193.637 154.325 200.038C179.65 206.439 189.716 206.751 202.805 203.399C215.895 200.046 224.769 191.501 223.553 179.57C222.337 167.638 219.584 160.35 213.183 158.518C206.782 156.685 161.038 160.375 161.038 160.375Z" fill="#221A2A" stroke="#221A2A" stroke-width="1.69955" stroke-linecap="round" stroke-linejoin="round"/>
<path d="M181.507 63.1918C181.507 63.1918 181.967 68.993 180.348 72.2305C178.729 75.468 172.221 78.7302 166.65 81.7458C161.079 84.7615 153.191 84.3013 149.945 89.4041C146.699 94.5068 146.929 103.094 146.929 103.094C146.929 103.094 141.818 110.99 137.644 117.95C133.47 124.91 131.145 132.108 136.486 136.027C141.827 139.947 148.318 134.17 151.802 128.632C155.286 123.094 158.532 116.8 158.532 116.8C158.532 116.8 162.977 138.353 161.778 144.179C160.578 150.005 157.833 155.551 157.833 158.148C157.833 160.744 159.921 162.56 163.175 163.25C166.428 163.941 177.563 164.894 185.221 164.417C192.879 163.941 214.695 162.56 215.624 159.536C216.552 156.513 217.941 135.633 217.941 135.633C217.941 135.633 231.631 140.276 235.813 131.927C239.996 123.579 240.217 104.811 237.202 95.4847C234.186 86.1583 226.52 82.7236 221.885 80.4064C217.251 78.0892 204.482 72.0497 202.164 69.4942C199.847 66.9387 199.132 54.3667 199.132 50.1924C199.132 46.0182 198.672 49.9623 194.26 53.2081C189.847 56.4538 181.507 63.1918 181.507 63.1918Z" fill="white"/>
<mask id="mask0_84_383332" style="mask-type:luminance" maskUnits="userSpaceOnUse" x="133" y="48" width="107" height="117">
<path d="M181.507 63.1918C181.507 63.1918 181.967 68.993 180.348 72.2305C178.729 75.468 172.221 78.7302 166.65 81.7458C161.079 84.7615 153.191 84.3013 149.945 89.4041C146.699 94.5068 146.929 103.094 146.929 103.094C146.929 103.094 141.818 110.99 137.644 117.95C133.47 124.91 131.145 132.108 136.486 136.027C141.827 139.947 148.318 134.17 151.802 128.632C155.286 123.094 158.532 116.8 158.532 116.8C158.532 116.8 162.977 138.353 161.778 144.179C160.578 150.005 157.833 155.551 157.833 158.148C157.833 160.744 159.921 162.56 163.175 163.25C166.428 163.941 177.563 164.894 185.221 164.417C192.879 163.941 214.695 162.56 215.624 159.536C216.552 156.513 217.941 135.633 217.941 135.633C217.941 135.633 231.631 140.276 235.813 131.927C239.996 123.579 240.217 104.811 237.202 95.4847C234.186 86.1583 226.52 82.7236 221.885 80.4064C217.251 78.0892 204.482 72.0497 202.164 69.4942C199.847 66.9387 199.132 54.3667 199.132 50.1924C199.132 46.0182 198.672 49.9623 194.26 53.2081C189.847 56.4538 181.507 63.1918 181.507 63.1918Z" fill="white"/>
</mask>
<g mask="url(#mask0_84_383332)">
<path d="M237.202 95.4436C234.186 86.1666 226.52 82.6825 221.885 80.3653C217.251 78.0481 204.482 72.0086 202.164 69.4531C199.847 66.8976 199.132 54.3667 199.132 50.1924C199.132 46.0182 198.672 49.9623 194.26 53.2081C189.847 56.4538 181.499 63.1917 181.499 63.1917C181.585 64.5078 181.585 65.8281 181.499 67.1441C184.136 68.2863 187.628 69.6092 189.576 69.6092C192.969 69.6092 193.988 71.984 195.328 74.3587C196.667 76.7334 194.309 79.445 194.309 79.445C194.309 79.445 205.164 80.127 208.894 81.1377C212.625 82.1484 222.46 83.5125 228.566 88.607C233.389 92.6169 236.725 100.004 238.919 104.778C238.682 101.614 238.106 98.4847 237.202 95.4436Z" fill="#440088"/>
<path opacity="0.6" d="M237.202 95.4436C234.186 86.1666 226.52 82.6825 221.885 80.3653C217.251 78.0481 204.482 72.0086 202.164 69.4531C199.847 66.8976 199.132 54.3667 199.132 50.1924C199.132 46.0182 198.672 49.9623 194.26 53.2081C189.847 56.4538 181.499 63.1917 181.499 63.1917C181.585 64.5078 181.585 65.8281 181.499 67.1441C184.136 68.2863 187.628 69.6092 189.576 69.6092C192.969 69.6092 193.988 71.984 195.328 74.3587C196.667 76.7334 194.309 79.445 194.309 79.445C194.309 79.445 205.164 80.127 208.894 81.1377C212.625 82.1484 222.46 83.5125 228.566 88.607C233.389 92.6169 236.725 100.004 238.919 104.778C238.682 101.614 238.106 98.4847 237.202 95.4436Z" fill="white"/>
</g>
<path d="M181.507 63.1918C181.507 63.1918 181.967 68.993 180.348 72.2305C178.729 75.468 172.221 78.7302 166.65 81.7458C161.079 84.7615 153.191 84.3013 149.945 89.4041C146.699 94.5068 146.929 103.094 146.929 103.094C146.929 103.094 141.818 110.99 137.644 117.95C133.47 124.91 131.145 132.108 136.486 136.027C141.827 139.947 148.318 134.17 151.802 128.632C155.286 123.094 158.532 116.8 158.532 116.8C158.532 116.8 162.977 138.353 161.778 144.179C160.578 150.005 157.833 155.551 157.833 158.148C157.833 160.744 159.921 162.56 163.175 163.25C166.428 163.941 177.563 164.894 185.221 164.417C192.879 163.941 214.695 162.56 215.624 159.536C216.552 156.513 217.941 135.633 217.941 135.633C217.941 135.633 231.631 140.276 235.813 131.927C239.996 123.579 240.217 104.811 237.202 95.4847C234.186 86.1583 226.52 82.7236 221.885 80.4064C217.251 78.0892 204.482 72.0497 202.164 69.4942C199.847 66.9387 199.132 54.3667 199.132 50.1924C199.132 46.0182 198.672 49.9623 194.26 53.2081C189.847 56.4538 181.507 63.1918 181.507 63.1918Z" stroke="#221A2A" stroke-width="1.69955" stroke-linecap="round" stroke-linejoin="round"/>
<path d="M213.997 36.0345C215.854 32.5587 218.639 26.5192 214.925 22.345C211.211 18.1707 208.894 20.7015 208.426 16.5437C207.957 12.3859 207.037 7.95694 202.855 7.95694C198.672 7.95694 195.665 9.60034 193.109 7.95694C190.554 6.31353 188.467 1.68735 181.967 1.68735C175.467 1.68735 175.475 11.671 174.309 12.8296C173.735 13.2435 173.092 13.5523 172.41 13.7417C172.169 13.6814 171.943 13.5684 171.75 13.4107C171.557 13.253 171.401 13.0546 171.293 12.8296C170.134 10.5124 173.38 10.7425 174.777 7.25849C176.174 3.77447 172.221 1.45727 169.436 3.5444C166.65 5.63152 172.452 5.40145 169.206 8.88547C165.96 12.3695 164.103 16.5437 167.086 21.6712C170.069 26.7986 173.586 23.7583 173.586 23.7583C174.276 23.2981 174.9 25.9111 181.088 27.0451C186.979 28.1215 191.006 26.2234 191.474 32.6984C191.942 39.1734 197.719 42.7971 199.346 43.7257C200.973 44.6542 196.79 49.7652 197.702 52.0824C198.615 54.3996 201.647 54.1695 203.504 53.9394C205.361 53.7094 204.202 50.9238 208.146 50.4554C212.091 49.987 213.479 48.812 215.106 44.4241C216.733 40.0362 212.14 39.5185 213.997 36.0345Z" fill="#221A2A" stroke="#221A2A" stroke-width="1.69955" stroke-linecap="round" stroke-linejoin="round"/>
<path d="M213.2 29.7813C213.908 29.8645 214.622 29.6831 215.205 29.2719" stroke="white" stroke-width="1.69955" stroke-linecap="round" stroke-linejoin="round"/>
<path d="M198.943 20.3318C198.943 20.3318 203.052 17.045 205.451 21.1535C206.922 23.6186 208.837 26.9055 210.924 28.6639" stroke="white" stroke-width="1.69955" stroke-linecap="round" stroke-linejoin="round"/>
<path d="M196.914 31.7124C199.459 31.2364 202.056 31.0982 204.638 31.3015C208.294 31.7124 207.924 34.5884 211.951 34.5884" stroke="white" stroke-width="1.69955" stroke-linecap="round" stroke-linejoin="round"/>
<path d="M179.945 16.3054C180.288 16.7232 180.673 17.1034 181.096 17.4394" stroke="white" stroke-width="1.69955" stroke-linecap="round" stroke-linejoin="round"/>
<path d="M196.749 16.3465C196.749 16.3465 195.698 19.9209 191.63 15.0482C187.563 10.1755 184.744 4.53043 180.126 9.37025C179.574 9.86639 179.146 10.4858 178.877 11.1782C178.609 11.8706 178.508 12.6166 178.581 13.3555" stroke="white" stroke-width="1.69955" stroke-linecap="round" stroke-linejoin="round"/>
<path d="M169.682 17.6694C169.281 16.8408 169.004 15.9575 168.861 15.0482" stroke="white" stroke-width="1.69955" stroke-linecap="round" stroke-linejoin="round"/>
<path d="M176.996 21.5479C176.996 21.5479 173.092 22.008 170.636 19.1238" stroke="white" stroke-width="1.69955" stroke-linecap="round" stroke-linejoin="round"/>
<path d="M221.885 80.3654C218.27 78.5494 209.708 74.482 205.016 71.5732C203.471 76.2076 198.935 86.8568 189.863 86.8568C181.499 86.8568 179.042 79.0342 178.36 74.6546C175.582 77.1197 170.874 79.4862 166.683 81.7541C161.12 84.7697 153.224 84.3096 149.978 89.4123C146.732 94.5151 146.962 103.102 146.962 103.102C146.962 103.102 145.237 105.772 142.977 109.363C152.353 108.895 158.589 116.8 158.589 116.8C158.589 116.8 162.977 138.353 161.778 144.179C160.578 150.005 157.833 155.551 157.833 158.148C157.833 160.744 159.921 162.56 163.175 163.251C166.428 163.941 177.563 164.894 185.221 164.417C192.879 163.941 214.695 162.56 215.624 159.536C216.552 156.513 217.941 135.633 217.941 135.633L216.552 117.301C228.212 109.593 236.364 114.992 239.034 117.301C239.609 109.421 238.952 100.867 237.202 95.4765C234.186 86.1666 226.528 82.6826 221.885 80.3654Z" fill="#440088"/>
<mask id="mask1_84_383332" style="mask-type:luminance" maskUnits="userSpaceOnUse" x="142" y="71" width="98" height="94">
<path d="M221.885 80.3654C218.27 78.5494 209.708 74.482 205.016 71.5732C203.471 76.2076 198.935 86.8568 189.863 86.8568C181.499 86.8568 179.042 79.0342 178.36 74.6546C175.582 77.1197 170.874 79.4862 166.683 81.7541C161.12 84.7697 153.224 84.3096 149.978 89.4123C146.732 94.5151 146.962 103.102 146.962 103.102C146.962 103.102 145.237 105.772 142.977 109.363C152.353 108.895 158.589 116.8 158.589 116.8C158.589 116.8 162.977 138.353 161.778 144.179C160.578 150.005 157.833 155.551 157.833 158.148C157.833 160.744 159.921 162.56 163.175 163.251C166.428 163.941 177.563 164.894 185.221 164.417C192.879 163.941 214.695 162.56 215.624 159.536C216.552 156.513 217.941 135.633 217.941 135.633L216.552 117.301C228.212 109.593 236.364 114.992 239.034 117.301C239.609 109.421 238.952 100.867 237.202 95.4765C234.186 86.1666 226.528 82.6826 221.885 80.3654Z" fill="white"/>
</mask>
<g mask="url(#mask1_84_383332)">
<path opacity="0.15" d="M237.202 95.4437C234.186 86.1666 226.52 82.6826 221.885 80.3654C217.251 78.0482 204.482 72.0087 202.164 69.4532C199.847 66.8977 199.132 54.3667 199.132 50.1925C199.132 46.0182 198.672 49.9624 194.26 53.2081C189.847 56.4539 181.499 63.1918 181.499 63.1918C181.585 64.5079 181.585 65.8282 181.499 67.1442C184.136 68.2864 187.628 69.6093 189.576 69.6093C192.97 69.6093 193.988 71.984 195.328 74.3588C196.667 76.7335 194.309 79.4451 194.309 79.4451C194.309 79.4451 205.164 80.1271 208.894 81.1378C212.625 82.1485 222.46 83.5125 228.566 88.6071C233.389 92.617 236.725 100.004 238.919 104.778C238.682 101.614 238.106 98.4848 237.202 95.4437Z" fill="black"/>
<path opacity="0.15" d="M205.517 80.8337C205.517 80.8337 202.123 87.2759 195.656 89.3137C191.946 90.5359 187.981 90.771 184.153 89.9957C184.153 89.9957 188.902 92.7074 196.026 91.0146C203.15 89.3219 205.517 80.8337 205.517 80.8337Z" fill="black"/>
<path opacity="0.15" d="M215.016 112.708C215.016 112.708 215.353 123.562 211.285 126.274C207.218 128.986 194.325 131.36 189.239 130.005C184.153 128.649 179.379 121.525 174.654 122.88C169.929 124.236 161.761 133.061 161.761 133.061L162.098 139.166L176.683 132.042C176.683 132.042 186.544 137.794 197.374 144.927C208.204 152.059 198.056 153.752 198.056 153.752L184.49 158.838C184.49 158.838 193.306 155.444 200.102 155.444C206.897 155.444 202.477 156.8 202.477 156.8H215.361L215.632 159.495L218.097 142.897L217.415 122.88C217.415 122.88 216.717 109.314 215.016 112.708Z" fill="black"/>
</g>
<path d="M221.885 80.3654C218.27 78.5494 209.708 74.482 205.016 71.5732C203.471 76.2076 198.935 86.8568 189.863 86.8568C181.498 86.8568 179.042 79.0342 178.36 74.6546C175.582 77.1197 170.874 79.4862 166.683 81.7541C161.12 84.7697 153.224 84.3096 149.978 89.4123C146.732 94.5151 146.962 103.102 146.962 103.102C146.962 103.102 145.237 105.772 142.977 109.363C152.353 108.895 158.589 116.8 158.589 116.8C158.589 116.8 162.977 138.353 161.778 144.179C160.578 150.005 157.833 155.551 157.833 158.148C157.833 160.744 159.921 162.56 163.175 163.251C166.428 163.941 177.563 164.894 185.221 164.417C192.879 163.941 214.695 162.56 215.624 159.536C216.552 156.513 217.941 135.633 217.941 135.633L216.552 117.301C228.212 109.593 236.364 114.992 239.034 117.301C239.609 109.421 238.952 100.867 237.202 95.4765C234.186 86.1666 226.528 82.6826 221.885 80.3654Z" stroke="#221A2A" stroke-width="1.69955" stroke-linecap="round" stroke-linejoin="round"/>
<path d="M158.532 116.8C158.532 116.8 154.941 105.764 156.461 99.963" stroke="#221A2A" stroke-width="1.69955" stroke-linecap="round" stroke-linejoin="round"/>
<path d="M216.552 117.26C215.698 112.932 215.912 108.462 217.177 104.236" stroke="#221A2A" stroke-width="1.69955" stroke-linecap="round" stroke-linejoin="round"/>
<path d="M163.175 163.209C163.175 163.209 174.465 161.566 182.074 159.767" stroke="#221A2A" stroke-width="1.69955" stroke-linecap="round" stroke-linejoin="round"/>
<path d="M136.173 122.741C136.173 122.741 133.881 123.957 132.065 128.386C130.249 132.815 127.956 141.04 130.232 143.636C132.509 146.233 137.71 143.94 142.558 143.332C147.406 142.724 167.727 130.826 171.079 128.838C174.432 126.849 177.185 126.093 178.253 124.261C179.321 122.428 179.017 115.871 179.165 112.666C179.313 109.462 178.557 95.1231 178.557 95.1231C178.557 95.1231 177.489 91.6145 175.656 91.9185C175.656 91.9185 173.52 90.7024 173.068 91.9185L172.148 94.3836C172.148 94.3836 170.167 93.7755 169.682 94.8437C169.351 95.8836 169.147 96.9596 169.074 98.0484C169.074 98.0484 166.79 99.1166 166.79 100.513C166.79 101.91 167.242 110.127 167.242 112.412C167.242 114.696 166.938 118.213 167.702 119.733C168.466 121.253 169.231 122.634 169.231 122.634C169.231 122.634 158.088 124.162 153.363 124.162C148.639 124.162 140.397 124.31 138.869 125.074" fill="white"/>
<mask id="mask2_84_383332" style="mask-type:luminance" maskUnits="userSpaceOnUse" x="129" y="91" width="51" height="54">
<path d="M136.173 122.741C136.173 122.741 133.881 123.957 132.065 128.386C130.249 132.815 127.956 141.04 130.232 143.636C132.509 146.233 137.71 143.94 142.558 143.332C147.406 142.724 167.727 130.826 171.079 128.838C174.432 126.849 177.185 126.093 178.253 124.261C179.321 122.428 179.017 115.871 179.165 112.666C179.313 109.462 178.557 95.1231 178.557 95.1231C178.557 95.1231 177.489 91.6145 175.656 91.9185C175.656 91.9185 173.52 90.7024 173.068 91.9185L172.148 94.3836C172.148 94.3836 170.167 93.7755 169.682 94.8437C169.351 95.8836 169.147 96.9596 169.074 98.0484C169.074 98.0484 166.79 99.1166 166.79 100.513C166.79 101.91 167.242 110.127 167.242 112.412C167.242 114.696 166.938 118.213 167.702 119.733C168.466 121.253 169.231 122.634 169.231 122.634C169.231 122.634 158.088 124.162 153.363 124.162C148.639 124.162 140.397 124.31 138.869 125.074" fill="white"/>
</mask>
<g mask="url(#mask2_84_383332)">
<path d="M178.277 124.22C178.812 123.299 179.009 121.179 179.099 118.887L171.77 120.481C171.77 120.481 172.517 123.833 168.409 126.446C164.3 129.059 141.942 136.512 140.471 136.882C139 137.252 154.645 130.177 148.688 130.547C142.731 130.916 135.631 137.26 131.531 137.26C130.875 137.265 130.221 137.173 129.592 136.989C129.14 139.799 129.172 142.346 130.274 143.562C132.558 146.159 137.751 143.866 142.599 143.258C147.447 142.65 167.768 130.752 171.12 128.764C174.473 126.775 177.209 126.027 178.277 124.22Z" fill="#440088"/>
<path opacity="0.6" d="M178.277 124.22C178.812 123.299 179.009 121.179 179.099 118.887L171.77 120.481C171.77 120.481 172.517 123.833 168.409 126.446C164.3 129.059 141.942 136.512 140.471 136.882C139 137.252 154.645 130.177 148.688 130.547C142.731 130.916 135.631 137.26 131.531 137.26C130.875 137.265 130.221 137.173 129.592 136.989C129.14 139.799 129.172 142.346 130.274 143.562C132.558 146.159 137.751 143.866 142.599 143.258C147.447 142.65 167.768 130.752 171.12 128.764C174.473 126.775 177.209 126.027 178.277 124.22Z" fill="white"/>
</g>
<path d="M136.173 122.741C136.173 122.741 133.881 123.957 132.065 128.386C130.249 132.815 127.956 141.04 130.232 143.636C132.509 146.233 137.71 143.94 142.558 143.332C147.406 142.724 167.727 130.826 171.079 128.838C174.432 126.849 177.185 126.093 178.253 124.261C179.321 122.428 179.017 115.871 179.165 112.666C179.313 109.462 178.557 95.1231 178.557 95.1231C178.557 95.1231 177.489 91.6145 175.656 91.9185C175.656 91.9185 173.52 90.7024 173.068 91.9185L172.148 94.3836C172.148 94.3836 170.167 93.7755 169.682 94.8437C169.351 95.8836 169.147 96.9596 169.074 98.0484C169.074 98.0484 166.79 99.1166 166.79 100.513C166.79 101.91 167.242 110.127 167.242 112.412C167.242 114.696 166.938 118.213 167.702 119.733C168.466 121.253 169.231 122.634 169.231 122.634C169.231 122.634 158.088 124.162 153.363 124.162C148.639 124.162 140.397 124.31 138.869 125.074" stroke="#221A2A" stroke-width="1.69955" stroke-linecap="round" stroke-linejoin="round"/>
<path d="M228.927 130.136C221.606 125.411 206.347 129.068 201.466 128.764C196.585 128.46 183.01 120.982 183.01 120.982C183.01 120.982 185.755 118.238 185.903 116.561C186.051 114.885 185.903 110.308 185.903 107.712C185.903 105.115 186.667 102.527 186.823 100.546C186.979 98.5661 184.358 99.9301 183.923 100.546C183.487 101.163 182.394 107.251 182.394 107.251C182.394 107.251 181.022 103.143 181.022 102.683C181.022 102.223 180.718 96.5775 179.954 94.285C179.19 91.9924 177.365 94.285 177.365 94.285C177.209 92.9127 176.749 91.8199 175.681 91.8199C174.613 91.8199 173.701 95.6408 173.701 95.6408C173.701 93.3483 172.936 93.5044 172.172 94.2603C171.408 95.0163 171.416 100.062 171.416 100.062L170.496 98.6893C169.428 98.3853 168.852 100.062 168.852 101.59C168.852 103.118 169.461 107.687 169.461 111.5C169.416 113.444 169.57 115.388 169.921 117.301C170.589 119.971 171.724 122.503 173.273 124.778C175.87 128.591 184.563 133.316 189.904 137.433C195.246 141.549 210.957 148.419 218.738 149.643C226.52 150.867 231.885 153.752 233.685 150.407C235.484 147.063 238.87 130.571 237.193 125.082" fill="white"/>
<mask id="mask3_84_383332" style="mask-type:luminance" maskUnits="userSpaceOnUse" x="168" y="91" width="70" height="61">
<path d="M228.927 130.136C221.606 125.411 206.347 129.068 201.466 128.764C196.585 128.46 183.01 120.982 183.01 120.982C183.01 120.982 185.755 118.238 185.903 116.561C186.051 114.885 185.903 110.308 185.903 107.712C185.903 105.115 186.667 102.527 186.823 100.546C186.979 98.5661 184.358 99.9301 183.923 100.546C183.487 101.163 182.394 107.251 182.394 107.251C182.394 107.251 181.022 103.143 181.022 102.683C181.022 102.223 180.718 96.5775 179.954 94.285C179.19 91.9924 177.365 94.285 177.365 94.285C177.209 92.9127 176.749 91.8199 175.681 91.8199C174.613 91.8199 173.701 95.6408 173.701 95.6408C173.701 93.3483 172.936 93.5044 172.172 94.2603C171.408 95.0163 171.416 100.062 171.416 100.062L170.496 98.6893C169.428 98.3853 168.852 100.062 168.852 101.59C168.852 103.118 169.461 107.687 169.461 111.5C169.416 113.444 169.57 115.388 169.921 117.301C170.589 119.971 171.724 122.503 173.273 124.778C175.87 128.591 184.563 133.316 189.904 137.433C195.246 141.549 210.957 148.419 218.738 149.643C226.52 150.867 231.885 153.752 233.685 150.407C235.484 147.063 238.87 130.571 237.193 125.082" fill="white"/>
</mask>
<g mask="url(#mask3_84_383332)">
<path d="M218.705 149.701C226.487 150.917 231.852 153.809 233.652 150.465C234.95 148.09 236.996 139.175 237.506 132.207C235.953 135.288 231.663 143.365 228.927 143.916C225.534 144.59 210.948 140.522 209.247 140.185C207.546 139.848 230.612 139.166 222.14 137.129C213.668 135.091 207.218 136.447 196.667 133.398C186.116 130.349 177.571 128.139 173.208 124.836C175.804 128.649 184.498 133.373 189.839 137.49C195.18 141.607 210.924 148.476 218.705 149.701Z" fill="#440088"/>
<path opacity="0.6" d="M218.705 149.701C226.487 150.917 231.852 153.809 233.652 150.465C234.95 148.09 236.996 139.175 237.506 132.207C235.953 135.288 231.663 143.365 228.927 143.916C225.534 144.59 210.948 140.522 209.247 140.185C207.546 139.848 230.612 139.166 222.14 137.129C213.668 135.091 207.218 136.447 196.667 133.398C186.116 130.349 177.571 128.139 173.208 124.836C175.804 128.649 184.498 133.373 189.839 137.49C195.18 141.607 210.924 148.476 218.705 149.701Z" fill="white"/>
</g>
<path d="M228.927 130.136C221.606 125.411 206.347 129.068 201.466 128.764C196.585 128.46 183.01 120.982 183.01 120.982C183.01 120.982 185.755 118.238 185.903 116.561C186.051 114.885 185.903 110.308 185.903 107.712C185.903 105.115 186.667 102.527 186.823 100.546C186.979 98.5661 184.358 99.9301 183.923 100.546C183.487 101.163 182.394 107.251 182.394 107.251C182.394 107.251 181.022 103.143 181.022 102.683C181.022 102.223 180.718 96.5775 179.954 94.285C179.19 91.9924 177.365 94.285 177.365 94.285C177.209 92.9127 176.749 91.8199 175.681 91.8199C174.613 91.8199 173.701 95.6408 173.701 95.6408C173.701 93.3483 172.936 93.5044 172.172 94.2603C171.408 95.0163 171.416 100.062 171.416 100.062L170.496 98.6893C169.428 98.3853 168.852 100.062 168.852 101.59C168.852 103.118 169.461 107.687 169.461 111.5C169.416 113.444 169.57 115.388 169.921 117.301C170.589 119.971 171.724 122.503 173.273 124.778C175.87 128.591 184.563 133.316 189.904 137.433C195.246 141.549 210.957 148.419 218.738 149.643C226.52 150.867 231.885 153.752 233.685 150.407C235.484 147.063 238.87 130.571 237.193 125.082" stroke="#221A2A" stroke-width="1.69955" stroke-linecap="round" stroke-linejoin="round"/>
<path d="M182.394 107.284C183.218 109.268 183.634 111.398 183.618 113.546" stroke="#221A2A" stroke-width="1.69955" stroke-linecap="round" stroke-linejoin="round"/>
<path d="M177.365 94.3179C177.827 96.2736 178.132 98.2629 178.277 100.267C178.277 102.256 178.581 106.841 178.581 106.841" stroke="#221A2A" stroke-width="1.69955" stroke-linecap="round" stroke-linejoin="round"/>
<path d="M173.701 95.6983C173.701 95.6983 174.309 99.207 174.613 101.45C174.802 103.375 174.854 105.311 174.769 107.243" stroke="#221A2A" stroke-width="1.69955" stroke-linecap="round" stroke-linejoin="round"/>
<path d="M171.416 100.119C171.416 100.119 171.868 102.864 172.172 104.088C172.397 105.705 172.502 107.336 172.484 108.969" stroke="#221A2A" stroke-width="1.69955" stroke-linecap="round" stroke-linejoin="round"/>
<path d="M161.646 188.477C159.97 187.708 158.425 186.679 157.069 185.428C155.245 183.596 157.069 179.019 154.604 177.211C152.139 175.403 147.283 174.746 146.387 177.523C145.492 180.301 144.859 182.1 143.026 182.708C141.194 183.316 139.066 183.316 135.705 184.845C132.344 186.373 132.352 191.862 132.352 191.862C138.795 192.722 145.129 194.256 151.252 196.439C160.101 199.792 164.062 197.959 164.062 197.959C164.062 197.959 164.399 191.805 161.646 188.477Z" fill="white"/>
<mask id="mask4_84_383332" style="mask-type:luminance" maskUnits="userSpaceOnUse" x="132" y="175" width="33" height="24">
<path d="M161.646 188.477C159.97 187.708 158.425 186.679 157.069 185.428C155.245 183.596 157.069 179.019 154.604 177.211C152.139 175.403 147.283 174.746 146.387 177.523C145.492 180.301 144.859 182.1 143.026 182.708C141.194 183.316 139.066 183.316 135.705 184.845C132.344 186.373 132.352 191.862 132.352 191.862C138.795 192.722 145.129 194.256 151.252 196.439C160.101 199.792 164.062 197.959 164.062 197.959C164.062 197.959 164.399 191.805 161.646 188.477Z" fill="white"/>
</mask>
<g mask="url(#mask4_84_383332)">
<path d="M157.957 191.698C157.957 191.698 152.739 190.95 151.621 189.085C150.504 187.22 152.361 183.867 149.378 183.867C146.395 183.867 146.773 186.102 144.16 186.85C141.547 187.598 137.447 186.472 139.312 188.715C141.178 190.958 148.639 195.42 153.109 196.168C157.579 196.916 160.939 194.303 157.957 191.698Z" fill="#440088"/>
<path opacity="0.6" d="M157.957 191.698C157.957 191.698 152.739 190.95 151.621 189.085C150.504 187.22 152.361 183.867 149.378 183.867C146.395 183.867 146.773 186.102 144.16 186.85C141.547 187.598 137.447 186.472 139.312 188.715C141.178 190.958 148.639 195.42 153.109 196.168C157.579 196.916 160.939 194.303 157.957 191.698Z" fill="white"/>
</g>
<path d="M161.646 188.477C159.97 187.708 158.425 186.679 157.069 185.428C155.245 183.596 157.069 179.019 154.604 177.211C152.139 175.403 147.283 174.746 146.387 177.523C145.492 180.301 144.859 182.1 143.026 182.708C141.194 183.316 139.066 183.316 135.705 184.845C132.344 186.373 132.352 191.862 132.352 191.862C138.795 192.722 145.129 194.256 151.252 196.439C160.101 199.792 164.062 197.959 164.062 197.959C164.062 197.959 164.399 191.805 161.646 188.477Z" stroke="#221A2A" stroke-width="1.69955" stroke-linecap="round" stroke-linejoin="round"/>
<path d="M184.342 197.458C188.982 196.263 193.532 194.742 197.957 192.906C203.791 190.539 209.691 188.214 215.32 185.395C223.865 181.123 226.914 174.713 224.778 166.784C222.641 158.854 218.985 152.749 203.413 155.494C187.842 158.238 182.912 167.606 176.297 174.713C168.121 183.464 161.383 187.967 158.294 187.532C154.769 187.039 154.021 193.629 158.902 196.078C166.79 200.022 175.788 199.562 184.342 197.458Z" fill="#221A2A" stroke="#221A2A" stroke-width="1.69955" stroke-linecap="round" stroke-linejoin="round"/>
<path d="M160.94 187.22C160.94 187.22 168.392 185.732 176.223 176.784C184.054 167.836 185.163 166.34 185.163 166.34" stroke="white" stroke-width="1.69955" stroke-linecap="round" stroke-linejoin="round"/>
<path d="M216.93 184.82C218.254 183.742 219.481 182.548 220.595 181.254" stroke="white" stroke-width="1.69955" stroke-linecap="round" stroke-linejoin="round"/>
<path d="M192.633 196.916C192.633 196.916 204.186 193.58 213.405 187.433" stroke="white" stroke-width="1.69955" stroke-linecap="round" stroke-linejoin="round"/>
<path d="M100.018 155.609C97.3113 155.093 94.5445 154.966 91.8015 155.231C84.4801 155.839 79.5992 160.416 78.383 164.384C77.1669 168.353 81.4316 178.419 90.8894 185.132C100.347 191.846 110.109 193.349 123.232 197.031C134.859 200.276 147.061 204.097 146.239 203.884C145.409 203.071 144.751 202.099 144.307 201.026C143.862 199.953 143.639 198.8 143.651 197.639C143.823 194.829 145.713 192.635 147.291 191.271C144.826 190.137 140.775 187.573 134.497 181.772C124.39 172.454 114.07 163.127 108.014 158.838" fill="#221A2A"/>
<path d="M100.018 155.609C97.3113 155.093 94.5445 154.966 91.8015 155.231C84.4801 155.839 79.5992 160.416 78.383 164.384C77.1669 168.353 81.4316 178.419 90.8894 185.132C100.347 191.846 110.109 193.349 123.232 197.031C134.859 200.276 147.061 204.097 146.239 203.884C145.409 203.071 144.751 202.099 144.307 201.026C143.862 199.953 143.639 198.8 143.651 197.639C143.823 194.829 145.713 192.635 147.291 191.271C144.826 190.137 140.775 187.573 134.497 181.772C124.39 172.454 114.07 163.127 108.014 158.838" stroke="#221A2A" stroke-width="1.69955" stroke-linecap="round" stroke-linejoin="round"/>
<path d="M104.76 159.388C103.067 158.567 102.032 158.139 102.032 158.139" stroke="white" stroke-width="1.69955" stroke-linecap="round" stroke-linejoin="round"/>
<path d="M136.33 182.002C136.33 182.002 120.298 169.323 113.963 164.853C111.956 163.437 109.874 162.131 107.726 160.942" stroke="white" stroke-width="1.69955" stroke-linecap="round" stroke-linejoin="round"/>
<path d="M183.923 196.078C179.954 195.157 179.65 196.078 170.192 195.765C160.734 195.453 150.364 192.109 150.364 192.109C150.364 192.109 149.477 192.24 147.291 191.23C145.713 192.594 143.823 194.788 143.651 197.598C143.639 198.759 143.862 199.912 144.307 200.985C144.751 202.058 145.409 203.03 146.239 203.843C147.883 204.278 149.469 204.664 150.972 204.919C157.686 206.143 165.919 209.192 170.192 211.024C173.636 212.619 177.382 213.46 181.178 213.489C184.531 213.489 183.224 213.991 185.673 213.374C188.121 212.758 187.275 211.049 187.275 211.049C188.318 210.996 189.348 210.791 190.332 210.441C192.156 209.825 191.548 207.384 191.548 207.384C192.746 207.427 193.941 207.235 195.065 206.817C196.93 205.839 196.93 203.785 196.125 201.887C194.909 199.011 187.891 196.99 183.923 196.078Z" fill="white"/>
<mask id="mask5_84_383332" style="mask-type:luminance" maskUnits="userSpaceOnUse" x="143" y="191" width="54" height="23">
<path d="M183.923 196.078C179.954 195.157 179.65 196.078 170.192 195.765C160.734 195.453 150.364 192.109 150.364 192.109C150.364 192.109 149.477 192.24 147.291 191.23C145.713 192.594 143.823 194.788 143.651 197.598C143.639 198.759 143.862 199.912 144.307 200.985C144.751 202.058 145.409 203.03 146.239 203.843C147.883 204.278 149.469 204.664 150.972 204.919C157.686 206.143 165.919 209.192 170.192 211.024C173.636 212.619 177.382 213.46 181.178 213.489C184.531 213.489 183.224 213.991 185.673 213.374C188.121 212.758 187.275 211.049 187.275 211.049C188.318 210.996 189.348 210.791 190.332 210.441C192.156 209.825 191.548 207.384 191.548 207.384C192.746 207.427 193.941 207.235 195.065 206.817C196.93 205.839 196.93 203.785 196.125 201.887C194.909 199.011 187.891 196.99 183.923 196.078Z" fill="white"/>
</mask>
<g mask="url(#mask5_84_383332)">
<path d="M185.673 213.35C187.193 212.972 187.439 212.158 187.415 211.6C186.55 211.735 185.677 211.812 184.802 211.83C179.954 211.83 174.366 207.721 165.04 206.234C159.937 205.412 151.819 204.048 145.516 202.947C145.754 203.259 145.993 203.555 146.239 203.826C147.883 204.262 149.469 204.648 150.972 204.903C157.686 206.127 165.919 209.176 170.192 211.008C173.636 212.603 177.382 213.443 181.178 213.473C184.531 213.465 183.224 213.95 185.673 213.35Z" fill="#440088"/>
<path opacity="0.6" d="M185.673 213.35C187.193 212.972 187.439 212.158 187.415 211.6C186.55 211.735 185.677 211.812 184.802 211.83C179.954 211.83 174.366 207.721 165.04 206.234C159.937 205.412 151.819 204.048 145.516 202.947C145.754 203.259 145.993 203.555 146.239 203.826C147.883 204.262 149.469 204.648 150.972 204.903C157.686 206.127 165.919 209.176 170.192 211.008C173.636 212.603 177.382 213.443 181.178 213.473C184.531 213.465 183.224 213.95 185.673 213.35Z" fill="white"/>
</g>
<path d="M183.923 196.078C179.954 195.157 179.65 196.078 170.192 195.765C160.734 195.453 150.364 192.109 150.364 192.109C150.364 192.109 149.477 192.24 147.291 191.23C145.713 192.594 143.823 194.788 143.651 197.598C143.639 198.759 143.862 199.912 144.307 200.985C144.751 202.058 145.409 203.03 146.239 203.843C147.883 204.278 149.469 204.664 150.972 204.919C157.686 206.143 165.919 209.192 170.192 211.024C173.636 212.619 177.382 213.46 181.178 213.489C184.531 213.489 183.224 213.991 185.673 213.374C188.121 212.758 187.275 211.049 187.275 211.049C188.318 210.996 189.348 210.791 190.332 210.441C192.156 209.825 191.548 207.384 191.548 207.384C192.746 207.427 193.941 207.235 195.065 206.817C196.93 205.839 196.93 203.785 196.125 201.887C194.909 199.011 187.891 196.99 183.923 196.078Z" stroke="#221A2A" stroke-width="1.69955" stroke-linecap="round" stroke-linejoin="round"/>
<path d="M191.548 207.376C190.145 206.125 188.598 205.046 186.938 204.163" stroke="#221A2A" stroke-width="1.69955" stroke-linecap="round" stroke-linejoin="round"/>
<path d="M187.275 211.024C187.275 211.024 184.531 209.192 183.923 207.976" stroke="#221A2A" stroke-width="1.69955" stroke-linecap="round" stroke-linejoin="round"/>
<path d="M183.01 213.128C181.844 212.508 180.88 211.567 180.233 210.416" stroke="#221A2A" stroke-width="1.69955" stroke-linecap="round" stroke-linejoin="round"/>
<path d="M179.346 213.465C177.917 213.188 176.625 212.435 175.681 211.328" stroke="#221A2A" stroke-width="1.69955" stroke-linecap="round" stroke-linejoin="round"/>
<path d="M176.166 20.0278C176.166 20.0278 170.364 25.3606 170.833 31.1618C171.301 36.9631 169.436 40.2006 170.134 44.3912C170.833 48.5819 171.778 56.7168 173.421 58.7793C175.065 60.8417 175.278 63.1918 176.905 64.3504C178.532 65.509 184.103 65.509 185.262 63.652C186.421 61.7949 198.721 54.6132 199.65 52.0495C200.578 49.4858 200.348 48.8038 200.348 48.8038C200.348 48.8038 208.467 43.9311 207.308 39.7651C206.15 35.599 202.896 33.9638 201.039 35.3607C199.182 36.7576 198.951 37.4478 198.951 37.4478C198.951 37.4478 194.095 34.2514 195.024 31.2358C195.952 28.2201 198.853 27.1848 197.924 23.7008C196.996 20.2167 190.052 21.9588 182.665 22.5257C176.839 22.953 178.754 17.8913 176.166 20.0278Z" fill="white"/>
<mask id="mask6_84_383332" style="mask-type:luminance" maskUnits="userSpaceOnUse" x="169" y="19" width="39" height="47">
<path d="M176.166 20.0278C176.166 20.0278 170.364 25.3606 170.833 31.1618C171.301 36.9631 169.436 40.2006 170.134 44.3912C170.833 48.5819 171.778 56.7168 173.421 58.7793C175.065 60.8417 175.278 63.1918 176.905 64.3504C178.532 65.509 184.103 65.509 185.262 63.652C186.421 61.7949 198.721 54.6132 199.65 52.0495C200.578 49.4858 200.348 48.8038 200.348 48.8038C200.348 48.8038 208.467 43.9311 207.308 39.7651C206.15 35.599 202.896 33.9638 201.039 35.3607C199.182 36.7576 198.951 37.4478 198.951 37.4478C198.951 37.4478 194.095 34.2514 195.024 31.2358C195.952 28.2201 198.853 27.1848 197.924 23.7008C196.996 20.2167 190.052 21.9588 182.665 22.5257C176.839 22.953 178.754 17.8913 176.166 20.0278Z" fill="white"/>
</mask>
<g mask="url(#mask6_84_383332)">
<path d="M207.267 39.7486C206.108 35.5743 202.855 33.9474 200.997 35.3443C199.14 36.7412 198.91 37.4314 198.91 37.4314C198.91 37.4314 194.054 34.235 194.983 31.2193C195.911 28.2037 198.812 27.1683 197.883 23.6843C196.955 20.2003 192.378 16.4369 184.991 17.0039C183.29 17.1353 182.057 17.2668 181.096 17.4394C184.177 17.1928 189.502 17.2093 192.287 19.7566C196.396 23.4871 192.633 27.2176 191.614 30.9564C190.595 34.6951 192.969 39.7732 192.287 43.5038C191.605 47.2343 188.22 49.9459 188.22 54.6954C188.22 59.4448 188.557 61.1457 184.112 64.1942L183.241 64.8187C184.008 64.6734 184.698 64.2598 185.188 63.6519C186.347 61.7949 198.647 54.6132 199.576 52.0495C200.504 49.4858 200.274 48.8038 200.274 48.8038C200.274 48.8038 208.426 43.9311 207.267 39.7486Z" fill="#440088"/>
<path opacity="0.6" d="M207.267 39.7486C206.108 35.5743 202.855 33.9474 200.997 35.3443C199.14 36.7412 198.91 37.4314 198.91 37.4314C198.91 37.4314 194.054 34.235 194.983 31.2193C195.911 28.2037 198.812 27.1683 197.883 23.6843C196.955 20.2003 192.378 16.4369 184.991 17.0039C183.29 17.1353 182.057 17.2668 181.096 17.4394C184.177 17.1928 189.502 17.2093 192.287 19.7566C196.396 23.4871 192.633 27.2176 191.614 30.9564C190.595 34.6951 192.969 39.7732 192.287 43.5038C191.605 47.2343 188.22 49.9459 188.22 54.6954C188.22 59.4448 188.557 61.1457 184.112 64.1942L183.241 64.8187C184.008 64.6734 184.698 64.2598 185.188 63.6519C186.347 61.7949 198.647 54.6132 199.576 52.0495C200.504 49.4858 200.274 48.8038 200.274 48.8038C200.274 48.8038 208.426 43.9311 207.267 39.7486Z" fill="white"/>
</g>
<path d="M176.166 20.0278C176.166 20.0278 170.364 25.3606 170.833 31.1618C171.301 36.9631 169.436 40.2006 170.134 44.3912C170.833 48.5819 171.778 56.7168 173.421 58.7793C175.065 60.8417 175.278 63.1918 176.905 64.3504C178.532 65.509 184.103 65.509 185.262 63.6519C186.421 61.7949 198.721 54.6132 199.65 52.0495C200.578 49.4858 200.348 48.8038 200.348 48.8038C200.348 48.8038 208.467 43.9311 207.308 39.7651C206.15 35.599 202.896 33.9638 201.039 35.3607C199.182 36.7576 198.951 37.4479 198.951 37.4479C198.951 37.4479 194.095 34.2514 195.024 31.2358C195.952 28.2201 198.853 27.1848 197.924 23.7008C196.996 20.2167 190.052 21.9588 182.665 22.5257C176.839 22.953 178.754 17.8913 176.166 20.0278Z" stroke="#221A2A" stroke-width="1.69955" stroke-linecap="round" stroke-linejoin="round"/>
<path d="M181.876 40.4635C181.876 40.4635 184.416 43.9393 188.582 40.4635" stroke="#221A2A" stroke-width="1.69955" stroke-linecap="round" stroke-linejoin="round"/>
<path d="M171.523 39.9787C171.737 40.2594 172.009 40.4908 172.32 40.6574C172.631 40.824 172.974 40.9219 173.326 40.9445C173.678 40.9671 174.031 40.9138 174.36 40.7883C174.69 40.6628 174.989 40.468 175.237 40.217" stroke="#221A2A" stroke-width="1.69955" stroke-linecap="round" stroke-linejoin="round"/>
<path d="M179.88 50.4308C178.023 50.8991 175.475 50.2007 175.237 49.5023C174.999 48.8038 176.404 39.7486 176.404 39.7486L174.761 36.9631C174.761 36.9631 173.364 34.8759 171.474 36.2728" stroke="#221A2A" stroke-width="1.69955" stroke-linecap="round" stroke-linejoin="round"/>
<path d="M175.706 54.605L181.194 54.5803" stroke="#221A2A" stroke-width="1.69955" stroke-linecap="round" stroke-linejoin="round"/>
<path d="M190.093 36.733C188.542 35.7375 186.747 35.1893 184.904 35.1487C183.061 35.1081 181.243 35.5767 179.65 36.5029" stroke="#221A2A" stroke-width="1.69955" stroke-linecap="round" stroke-linejoin="round"/>
<path d="M205.468 40.5704C205.468 40.5704 204.498 38.056 202.559 38.8284C200.62 39.6008 200.233 42.1152 200.233 42.1152C200.233 42.1152 201.786 41.5318 201.786 43.471C201.786 45.4102 200.044 44.6296 200.044 44.6296" stroke="#221A2A" stroke-width="1.69955" stroke-linecap="round" stroke-linejoin="round"/>
<path d="M205.964 107.827C205.699 107.746 205.434 107.665 205.168 107.584C204.414 107.013 203.408 106.923 202.606 107.355C201.684 107.851 201.196 108.95 201.447 110.025C201.285 109.939 201.123 109.854 200.961 109.768C200.809 108.554 201.44 107.385 202.498 106.882C203.681 106.32 205.16 106.705 205.964 107.827Z" fill="white"/>
<path d="M201.451 110.995C201.716 111.076 201.982 111.157 202.247 111.238C203.001 111.809 204.007 111.898 204.809 111.467C205.731 110.971 206.219 109.872 205.969 108.797C206.13 108.883 206.292 108.968 206.454 109.054C206.606 110.268 205.975 111.437 204.917 111.939C203.734 112.502 202.256 112.117 201.451 110.995Z" fill="white"/>
<path d="M202.337 107.8C202.257 107.87 202.169 107.959 202.08 108.069C201.995 108.175 201.929 108.276 201.878 108.366C202.4 108.197 203.545 107.907 204.939 108.218C206.003 108.455 206.761 108.941 207.178 109.256C207.241 109.212 207.31 109.158 207.38 109.094C207.425 109.053 207.465 109.012 207.501 108.973C207.087 108.635 206.226 108.025 204.966 107.759C203.806 107.515 202.848 107.676 202.337 107.8Z" fill="white"/>
<path d="M205.074 111.003C205.153 110.932 205.242 110.843 205.33 110.733C205.415 110.628 205.481 110.526 205.532 110.437C205.01 110.605 203.865 110.895 202.471 110.585C201.408 110.348 200.65 109.861 200.233 109.546C200.169 109.591 200.101 109.644 200.031 109.708C199.986 109.75 199.945 109.79 199.909 109.83C200.323 110.168 201.184 110.778 202.444 111.043C203.604 111.288 204.563 111.127 205.074 111.003Z" fill="white"/>
<path d="M200.907 108.312L200.759 108.878C200.618 108.962 200.468 109.06 200.314 109.175C200.087 109.343 199.894 109.514 199.734 109.674C199.631 109.58 199.528 109.486 199.425 109.392C199.636 109.187 199.895 108.963 200.206 108.743C200.453 108.569 200.69 108.427 200.907 108.312Z" fill="white"/>
<path d="M206.517 110.469L206.666 109.903C206.807 109.819 206.956 109.721 207.111 109.606C207.338 109.438 207.53 109.267 207.69 109.107C207.794 109.201 207.897 109.295 208 109.389C207.789 109.594 207.529 109.818 207.218 110.038C206.972 110.212 206.734 110.354 206.517 110.469Z" fill="white"/>
<path d="M203.712 110.362C204.241 110.362 204.669 109.933 204.669 109.404C204.669 108.875 204.241 108.447 203.712 108.447C203.183 108.447 202.755 108.875 202.755 109.404C202.755 109.933 203.183 110.362 203.712 110.362Z" fill="white"/>
<path d="M204.076 109.283C204.21 109.283 204.319 109.174 204.319 109.04C204.319 108.906 204.21 108.797 204.076 108.797C203.942 108.797 203.833 108.906 203.833 109.04C203.833 109.174 203.942 109.283 204.076 109.283Z" fill="#5000A0"/>
<path d="M201.169 109.673C200.971 108.008 202.409 106.58 204.077 106.854C204.591 106.936 205.079 107.175 205.455 107.534C205.069 107.19 204.583 106.959 204.072 106.886C202.415 106.636 201.023 108.025 201.169 109.673Z" fill="#5000A0"/>
<path d="M206.246 109.15C206.444 110.815 205.006 112.243 203.338 111.969C202.824 111.887 202.336 111.648 201.96 111.289C202.346 111.633 202.831 111.864 203.343 111.937C205 112.187 206.391 110.798 206.246 109.15Z" fill="#5000A0"/>
<path d="M202.301 108.029C203.779 107.616 205.419 107.852 206.723 108.663C206.909 108.778 207.087 108.904 207.259 109.04C207.086 108.907 206.905 108.783 206.717 108.672C205.41 107.872 203.781 107.642 202.301 108.029Z" fill="#5000A0"/>
<path d="M205.115 110.765C203.636 111.178 201.996 110.942 200.693 110.131C200.507 110.016 200.328 109.89 200.156 109.754C200.33 109.887 200.51 110.011 200.698 110.122C202.005 110.922 203.634 111.152 205.115 110.765Z" fill="#5000A0"/>
<path d="M199.674 109.411C199.985 109.113 200.336 108.855 200.713 108.648C200.35 108.879 200.003 109.133 199.674 109.411Z" fill="#5000A0"/>
<path d="M207.785 109.349C207.474 109.647 207.123 109.905 206.746 110.112C207.109 109.881 207.456 109.626 207.785 109.349Z" fill="#5000A0"/>
</svg>
