<svg width="309" height="310" viewBox="0 0 309 310" fill="none" xmlns="http://www.w3.org/2000/svg">
<path d="M60.669 273.544C56.7261 207.172 82.1709 161.27 82.4272 160.81L83.84 161.651C83.5837 162.104 58.3755 207.619 62.279 273.511L60.669 273.544Z" fill="#9E9E9E"/>
<path d="M60.1367 268.129C57.1993 218.56 65.2428 153.042 65.3216 152.385L66.9382 152.648C66.8528 153.305 58.829 218.678 61.7599 268.102L60.1367 268.129Z" fill="#9E9E9E"/>
<path d="M56.989 266.624C54.1567 240.377 54.6824 222.049 55.6287 211.299C56.6539 199.595 58.3296 194.213 58.4019 193.97L59.9528 194.515C59.887 194.732 53.2236 216.635 58.6056 266.519L56.989 266.624Z" fill="#9E9E9E"/>
<path d="M63.0216 253.704L61.405 253.474C65.7554 210.865 61.6482 190.257 61.6022 190.053L63.1925 189.784C63.2385 189.987 67.4114 210.806 63.0216 253.704Z" fill="#9E9E9E"/>
<path d="M64.9996 264.179L63.3764 264.022C64.9667 236.132 59.2561 221.241 59.197 221.097L60.7018 220.558C60.945 221.169 66.6096 235.889 64.9996 264.179Z" fill="#9E9E9E"/>
<path d="M65.4991 159.778C61.3356 152.368 58.3995 144.332 56.805 135.983C54.4064 122.689 59.2299 112.181 65.4596 105.688C71.6894 99.1955 81.6978 94.5626 87.6647 89.312C93.6316 84.0614 102.897 76.6356 102.897 76.6356C102.897 76.6356 99.329 95.1804 99.4013 112.181C99.4736 129.181 89.6755 139.071 82.4732 144.328C75.2709 149.586 65.4991 159.778 65.4991 159.778Z" fill="#5000A0"/>
<path d="M82.2761 162.775C82.2761 162.775 78.1295 144.434 90.5825 141.148C103.035 137.862 106.163 144.348 109.252 144.795C112.341 145.242 117.02 145.754 120.424 149.395C123.828 153.036 123.302 155.461 125.714 157.629C128.125 159.798 130.432 161 131.437 165.344C132.443 169.688 134.066 174.189 132.226 176.89C132.226 176.89 127.081 163.327 115.199 160.724C103.318 158.122 84.7076 161.802 82.2761 162.775Z" fill="#5000A0"/>
<path d="M61.4576 182.036C61.4576 182.036 59.5453 165.344 56.1018 156.689C52.6584 148.035 41.822 139.998 34.5868 136.909C27.3516 133.821 22.0221 131.948 20.3595 129.181C18.6969 126.415 15.1746 123.306 16.4166 130.417C17.6586 137.527 19.0452 148.961 22.6267 153.91L26.2279 158.851C26.2279 158.851 39.2065 158.851 46.5995 166.271C53.9924 173.69 61.9439 186.36 61.9439 186.36L61.4576 182.036Z" fill="#5000A0"/>
<path d="M61.9439 186.36C61.9439 186.36 48.0649 171.837 41.3686 166.888C34.6723 161.94 25.9979 161.329 21.0299 160.711C16.0618 160.093 10.7849 152.057 10.7849 152.057C10.7849 152.057 14.6292 170.601 19.985 180.491C25.3407 190.381 39.2329 190.073 46.6521 190.073C54.0713 190.073 61.9439 186.36 61.9439 186.36Z" fill="#5000A0"/>
<path d="M57.4556 197.492C57.4556 197.492 58.1127 190.073 61.9439 186.36C65.7751 182.647 72.6488 183.58 77.0583 185.124C81.4678 186.669 83.4852 183.58 86.9155 184.507C90.3458 185.433 95.4585 188.837 98.6522 191.926C101.846 195.014 106.249 203.978 106.315 205.529C106.38 207.08 99.2633 199.345 93.9207 197.183C88.5781 195.021 78.6552 194.377 71.8537 194.377C65.0522 194.377 57.4556 197.492 57.4556 197.492Z" fill="#5000A0"/>
<path d="M60.7479 217.581C60.7479 217.581 58.9211 210.806 53.2696 208.617C47.6181 206.429 39.6206 207.382 37.1826 207.382C34.7446 207.382 30.2563 204.287 25.1896 208.926C22.1888 211.634 19.8869 215.027 18.4802 218.816C22.4053 215.502 27.3543 213.645 32.4906 213.559C40.8298 213.559 44.2075 212.941 48.6761 216.345C53.1447 219.749 62.2857 225 62.2857 225L60.7479 217.581Z" fill="#5000A0"/>
<path d="M63.2319 240.607C63.2319 240.607 64.4411 224.836 67.0434 220.518C69.6457 216.201 78.9312 208.768 83.4721 205.989C88.013 203.209 94.6962 200.732 94.6962 200.732C93.4556 206.794 91.2902 212.63 88.2758 218.034C83.3735 226.689 71.2622 232.873 69.8757 236.277C69.0708 238.175 68.4289 240.138 67.9568 242.145C67.9568 242.145 67.4968 238.439 75.79 237.203C84.0832 235.968 91.279 238.13 94.1902 241.218C97.1013 244.307 100.946 247.711 101.872 247.711C102.799 247.711 108.838 251.726 108.838 251.726C108.838 251.726 104.277 253.579 97.397 251.726C90.5167 249.873 84.5366 247.126 80.2126 247.126C75.8886 247.126 67.2931 248.67 67.2931 248.67C67.2931 248.67 80.9815 250.832 83.1961 252.068C85.4107 253.303 93.2833 257.016 93.2833 257.016C93.2833 257.016 83.4261 257.634 78.2675 260.105C73.1088 262.576 70.7891 266.289 70.546 267.833C70.3028 269.377 70.0925 271.855 70.0925 271.855L70.2765 276.488H49.9049C49.9049 276.488 50.0429 264.744 43.9906 259.796C37.9383 254.848 28.3242 254.539 28.3242 254.539L21.917 256.701C21.917 256.701 23.3298 253.297 29.0865 250.517C34.8431 247.737 39.108 246.193 42.512 246.193C44.3924 246.165 46.2689 246.373 48.0978 246.811C48.0978 246.811 41.9731 240.627 35.4674 240.318C28.9616 240.009 20.3398 242.46 19.4395 243.078C18.5392 243.696 35.4148 233.188 40.994 233.497C44.4781 233.75 47.8323 234.925 50.7132 236.901L47.6969 231.335C47.6969 231.335 50.3255 228.246 56.7918 234.424L63.2319 240.607Z" fill="#5000A0"/>
<g opacity="0.2">
<path d="M89.3207 98.4333C91.2922 95.4498 92.7182 93.5507 92.7182 93.5507" stroke="#5000A0" stroke-width="1.54913" stroke-miterlimit="10"/>
<path d="M66.9382 152.648C66.9382 152.648 73.8449 133.17 77.5709 121.059C79.5423 114.573 83.7678 107.147 87.2375 101.653" stroke="#5000A0" stroke-width="1.54913" stroke-miterlimit="10"/>
<path d="M83.6298 136.436C83.6298 136.436 78.9706 139.926 73.1154 144.322C67.2602 148.718 68.2197 147.351 68.2197 147.351L62.8639 138.033" stroke="#5000A0" stroke-width="1.54913" stroke-miterlimit="10"/>
<path d="M68.7256 125.481C70.1254 129.214 72.4517 136.653 72.4517 136.653L87.3558 127.348" stroke="#5000A0" stroke-width="1.54913" stroke-miterlimit="10"/>
<path d="M87.7041 115.099L93.4147 111.741" stroke="#5000A0" stroke-width="1.54913" stroke-miterlimit="10"/>
<path d="M74.0815 106.845L77.5709 121.059L84.8587 116.774" stroke="#5000A0" stroke-width="1.54913" stroke-miterlimit="10"/>
<path d="M116.106 152.372C116.922 152.681 117.679 153.125 118.347 153.686C121.14 156.019 119.747 156.249 123.939 159.049C128.132 161.848 133.705 172.277 132.2 176.962" stroke="#5000A0" stroke-width="1.54913" stroke-miterlimit="10"/>
<path d="M107.859 146.688C107.898 147.485 108.131 148.261 108.537 148.948C108.944 149.635 109.512 150.213 110.192 150.631C111.039 151.099 111.962 151.414 112.919 151.564" stroke="#5000A0" stroke-width="1.54913" stroke-miterlimit="10"/>
<path d="M29.9539 145.091C27.1084 142.383 25.413 140.622 25.413 140.622" stroke="#5000A0" stroke-width="1.54913" stroke-miterlimit="10"/>
<path d="M52.0013 168.374C49.3727 164.28 45.2787 158.516 40.2975 154.376C37.3404 151.899 34.6526 149.5 32.4117 147.424" stroke="#5000A0" stroke-width="1.54913" stroke-miterlimit="10"/>
<path d="M54.9715 173.48C54.9715 173.48 54.4261 172.402 53.4207 170.7" stroke="#5000A0" stroke-width="1.54913" stroke-miterlimit="10"/>
<path d="M46.1199 159.969L37.0315 144.355" stroke="#5000A0" stroke-width="1.54913" stroke-miterlimit="10"/>
<path d="M35.6383 150.88L27.7131 148.547" stroke="#5000A0" stroke-width="1.54913" stroke-miterlimit="10"/>
<path d="M38.0434 180.163C36.4941 179.603 34.9893 178.926 33.542 178.139C27.9496 174.853 21.1876 170.22 19.0847 167.421" stroke="#5000A0" stroke-width="1.54913" stroke-miterlimit="10"/>
<path d="M58.7041 186.524C58.7041 186.524 48.8469 183.935 41.0925 181.267" stroke="#5000A0" stroke-width="1.54913" stroke-miterlimit="10"/>
<path d="M23.054 177.909L33.5355 178.139L28.6463 170.917" stroke="#5000A0" stroke-width="1.54913" stroke-miterlimit="10"/>
<path d="M35.8683 183.731L47.053 183.035L40.994 174.643" stroke="#5000A0" stroke-width="1.54913" stroke-miterlimit="10"/>
<path d="M84.5958 188.844C85.1543 189.126 85.8312 189.442 86.6592 189.79C91.0884 191.65 91.3184 190.02 95.511 192.819C99.7036 195.619 100.637 198.405 102.74 200.738" stroke="#5000A0" stroke-width="1.54913" stroke-miterlimit="10"/>
<path d="M82.0001 186.991C82.0001 186.991 82.1053 187.418 83.551 188.272" stroke="#5000A0" stroke-width="1.54913" stroke-miterlimit="10"/>
<path d="M82.0066 214.052C83.1997 212.731 84.2873 211.318 85.2595 209.827" stroke="#5000A0" stroke-width="1.54913" stroke-miterlimit="10"/>
<path d="M65.4398 233.359C65.4398 233.359 72.0113 223.337 77.3408 218.691C77.8994 218.205 78.4316 217.719 78.9311 217.246" stroke="#5000A0" stroke-width="1.54913" stroke-miterlimit="10"/>
</g>
<path d="M308 276.461H1" stroke="#263238" stroke-width="1.54913" stroke-linecap="round" stroke-linejoin="round"/>
<path d="M286.511 175.425H210.781C209.928 175.396 209.091 175.661 208.409 176.176C207.727 176.69 207.243 177.422 207.036 178.251L186.355 276.461H269.879L290.25 179.565C290.71 177.416 288.91 175.425 286.511 175.425Z" fill="#E8D5FF" stroke="#263238" stroke-width="1.54913" stroke-linecap="round" stroke-linejoin="round"/>
<path d="M191.961 108.172C191.961 108.172 182.209 114.744 182.761 119.692C183.313 124.64 188.609 128.734 188.609 128.734C188.609 128.734 195.877 111.188 196.41 110.991C196.942 110.794 191.961 108.172 191.961 108.172Z" fill="#263238" stroke="#263238" stroke-width="1.54913" stroke-linecap="round" stroke-linejoin="round"/>
<path d="M187.486 149.776C187.486 149.776 189.168 157.478 187.965 161.329L186.763 165.18C186.763 165.18 197.829 168.544 201.443 166.619C205.058 164.693 205.531 163.491 205.531 163.491C205.531 163.491 191.573 147.851 187.486 149.776Z" fill="#263238" stroke="#263238" stroke-width="1.54913" stroke-linecap="round" stroke-linejoin="round"/>
<path d="M185.632 187.556C185.632 187.556 204.729 186.241 214.277 187.556C223.826 188.87 224.976 189.12 224.976 189.12C224.976 189.12 216.571 218.337 211.222 229.797C205.873 241.258 193.656 250.99 193.656 250.99C193.656 250.99 174.743 218.494 185.632 187.556Z" fill="#263238" stroke="#263238" stroke-width="1.54913" stroke-linecap="round" stroke-linejoin="round"/>
<path d="M194.083 109.769C194.083 109.769 188.235 122.531 187.702 125.363C187.17 128.195 187.525 133.696 187.525 135.825C187.525 137.954 185.757 145.57 185.757 147.522C185.757 149.474 193.196 164.891 195.148 165.594C197.1 166.297 199.577 165.245 199.577 165.245C199.577 165.245 200.464 171.817 200.287 173.256C200.109 174.695 195.687 176.627 195.687 176.627C195.687 176.627 189.838 188.147 191.087 192.221C192.335 196.296 196.935 200.199 205.261 199.135C213.587 198.07 217.491 195.409 219.798 188.502C222.104 181.595 223.872 174.702 223.872 174.702C223.872 174.702 221.243 175.017 221.243 172.001C221.243 168.985 221.421 154.632 221.421 154.632C221.421 154.632 223.898 129.825 216.275 119.718C208.652 109.611 196.745 105.005 194.083 109.769Z" fill="white" stroke="#263238" stroke-width="1.54913" stroke-linecap="round" stroke-linejoin="round"/>
<path d="M190.719 107.817C190.719 107.817 205.781 123.241 210.919 132.099C216.058 140.957 211.452 165.949 213.403 165.949C215.355 165.949 221.946 165.758 237.212 158.49C252.477 151.222 252.103 137.047 248.383 126.769C244.664 116.492 235.562 104.426 227.414 100.378C219.265 96.3304 196.745 94.7072 190.719 107.817Z" fill="#263238" stroke="#263238" stroke-width="1.54913" stroke-linecap="round" stroke-linejoin="round"/>
<path d="M215.079 136.804C217.905 142.58 223.432 155.033 222.479 162.295" stroke="#B2B2B2" stroke-width="1.54913" stroke-linecap="round" stroke-linejoin="round"/>
<path d="M213.495 133.696C213.495 133.696 213.732 134.136 214.153 134.911" stroke="#B2B2B2" stroke-width="1.54913" stroke-linecap="round" stroke-linejoin="round"/>
<path d="M239.019 149.743C239.438 151.453 239.519 153.228 239.256 154.968" stroke="#B2B2B2" stroke-width="1.54913" stroke-linecap="round" stroke-linejoin="round"/>
<path d="M197.185 108.409C197.185 108.409 193.899 110.295 218.214 126.369C230.792 134.668 235.99 141.772 238.073 146.832" stroke="#B2B2B2" stroke-width="1.54913" stroke-linecap="round" stroke-linejoin="round"/>
<path d="M200.464 136.548C201.372 137.291 202.477 137.754 203.644 137.88C204.811 138.006 205.99 137.79 207.036 137.258" stroke="#263238" stroke-width="1.54913" stroke-linecap="round" stroke-linejoin="round"/>
<path d="M188.944 136.173C188.944 136.173 190.364 137.947 192.841 136.351" stroke="#263238" stroke-width="1.54913" stroke-linecap="round" stroke-linejoin="round"/>
<path d="M192.493 129.799C192.493 129.799 194.261 134.051 194.261 136.002C194.256 137.181 193.951 138.339 193.374 139.367" stroke="#263238" stroke-width="1.54913" stroke-linecap="round" stroke-linejoin="round"/>
<path d="M191.428 147.87C192.273 148.562 193.232 149.102 194.261 149.467" stroke="#263238" stroke-width="1.54913" stroke-linecap="round" stroke-linejoin="round"/>
<path d="M193.196 152.319C193.196 152.319 199.045 154.948 203.126 151.787" stroke="#263238" stroke-width="1.54913" stroke-linecap="round" stroke-linejoin="round"/>
<path d="M198.342 129.799C198.342 129.799 205.781 127.492 208.619 131.922" stroke="#263238" stroke-width="1.54913" stroke-linecap="round" stroke-linejoin="round"/>
<path d="M188.59 128.734C188.59 128.734 190.364 127.315 191.428 128.557" stroke="#263238" stroke-width="1.54913" stroke-linecap="round" stroke-linejoin="round"/>
<path d="M199.577 165.245L207.91 163.471L200.109 170.384L199.577 165.245Z" fill="#263238" stroke="#263238" stroke-width="1.54913" stroke-linecap="round" stroke-linejoin="round"/>
<path d="M200.201 174.235C200.201 174.495 200.124 174.749 199.98 174.965C199.835 175.182 199.63 175.35 199.39 175.45C199.15 175.549 198.886 175.575 198.631 175.524C198.376 175.474 198.142 175.348 197.958 175.165C197.774 174.981 197.649 174.747 197.598 174.492C197.547 174.237 197.573 173.972 197.673 173.732C197.772 173.492 197.941 173.287 198.157 173.143C198.373 172.998 198.627 172.921 198.887 172.921C199.236 172.921 199.57 173.059 199.816 173.306C200.063 173.552 200.201 173.887 200.201 174.235Z" fill="white" stroke="#263238" stroke-width="1.54913" stroke-linecap="round" stroke-linejoin="round"/>
<path d="M199.846 176.45C199.846 176.71 199.769 176.964 199.625 177.18C199.481 177.396 199.275 177.565 199.035 177.664C198.795 177.764 198.531 177.79 198.276 177.739C198.021 177.688 197.787 177.563 197.603 177.379C197.419 177.195 197.294 176.961 197.243 176.706C197.192 176.451 197.218 176.187 197.318 175.947C197.417 175.707 197.586 175.501 197.802 175.357C198.018 175.213 198.272 175.136 198.532 175.136C198.881 175.136 199.215 175.274 199.462 175.52C199.708 175.767 199.846 176.101 199.846 176.45Z" fill="white" stroke="#263238" stroke-width="1.54913" stroke-linecap="round" stroke-linejoin="round"/>
<path d="M199.498 178.664C199.498 178.924 199.421 179.179 199.277 179.395C199.132 179.611 198.927 179.779 198.687 179.879C198.447 179.978 198.182 180.004 197.928 179.954C197.673 179.903 197.438 179.778 197.255 179.594C197.071 179.41 196.946 179.176 196.895 178.921C196.844 178.666 196.87 178.402 196.97 178.162C197.069 177.921 197.238 177.716 197.454 177.572C197.67 177.427 197.924 177.35 198.184 177.35C198.533 177.35 198.867 177.489 199.113 177.735C199.36 177.982 199.498 178.316 199.498 178.664Z" fill="white" stroke="#263238" stroke-width="1.54913" stroke-linecap="round" stroke-linejoin="round"/>
<path d="M223.754 173.348C223.754 173.608 223.676 173.862 223.532 174.078C223.388 174.294 223.182 174.463 222.942 174.562C222.702 174.662 222.438 174.688 222.183 174.637C221.928 174.586 221.694 174.461 221.51 174.277C221.326 174.094 221.201 173.859 221.15 173.604C221.099 173.35 221.126 173.085 221.225 172.845C221.324 172.605 221.493 172.4 221.709 172.255C221.925 172.111 222.179 172.034 222.439 172.034C222.788 172.034 223.122 172.172 223.369 172.419C223.615 172.665 223.754 173 223.754 173.348Z" fill="white" stroke="#263238" stroke-width="1.54913" stroke-linecap="round" stroke-linejoin="round"/>
<path d="M222.498 174.662C222.498 174.922 222.421 175.176 222.277 175.393C222.132 175.609 221.927 175.777 221.687 175.877C221.447 175.976 221.183 176.002 220.928 175.951C220.673 175.901 220.439 175.776 220.255 175.592C220.071 175.408 219.946 175.174 219.895 174.919C219.844 174.664 219.87 174.4 219.97 174.159C220.069 173.919 220.238 173.714 220.454 173.57C220.67 173.425 220.924 173.348 221.184 173.348C221.533 173.348 221.867 173.487 222.113 173.733C222.36 173.98 222.498 174.314 222.498 174.662Z" fill="white" stroke="#263238" stroke-width="1.54913" stroke-linecap="round" stroke-linejoin="round"/>
<path d="M219.752 177.449C220.485 177.449 221.079 176.854 221.079 176.121C221.079 175.388 220.485 174.794 219.752 174.794C219.018 174.794 218.424 175.388 218.424 176.121C218.424 176.854 219.018 177.449 219.752 177.449Z" fill="white" stroke="#263238" stroke-width="1.54913" stroke-linecap="round" stroke-linejoin="round"/>
<path d="M219.502 177.554C219.502 177.814 219.425 178.068 219.28 178.284C219.136 178.5 218.931 178.669 218.69 178.768C218.45 178.868 218.186 178.894 217.931 178.843C217.676 178.792 217.442 178.667 217.258 178.483C217.074 178.299 216.949 178.065 216.898 177.81C216.848 177.555 216.874 177.291 216.973 177.051C217.073 176.811 217.241 176.605 217.457 176.461C217.673 176.317 217.928 176.24 218.188 176.24C218.536 176.24 218.87 176.378 219.117 176.625C219.363 176.871 219.502 177.205 219.502 177.554Z" fill="white" stroke="#263238" stroke-width="1.54913" stroke-linecap="round" stroke-linejoin="round"/>
<path d="M217.839 178.914C217.839 179.174 217.762 179.428 217.618 179.644C217.473 179.861 217.268 180.029 217.028 180.128C216.788 180.228 216.523 180.254 216.268 180.203C216.014 180.153 215.779 180.027 215.596 179.844C215.412 179.66 215.287 179.426 215.236 179.171C215.185 178.916 215.211 178.651 215.311 178.411C215.41 178.171 215.579 177.966 215.795 177.821C216.011 177.677 216.265 177.6 216.525 177.6C216.873 177.6 217.208 177.738 217.454 177.985C217.701 178.231 217.839 178.566 217.839 178.914Z" fill="white" stroke="#263238" stroke-width="1.54913" stroke-linecap="round" stroke-linejoin="round"/>
<path d="M214.554 181.825C215.287 181.825 215.881 181.231 215.881 180.498C215.881 179.765 215.287 179.17 214.554 179.17C213.82 179.17 213.226 179.765 213.226 180.498C213.226 181.231 213.82 181.825 214.554 181.825Z" fill="white" stroke="#263238" stroke-width="1.54913" stroke-linecap="round" stroke-linejoin="round"/>
<path d="M214.297 181.733C214.297 181.993 214.22 182.247 214.076 182.463C213.931 182.68 213.726 182.848 213.486 182.948C213.246 183.047 212.981 183.073 212.726 183.022C212.472 182.972 212.237 182.846 212.054 182.663C211.87 182.479 211.745 182.245 211.694 181.99C211.643 181.735 211.669 181.47 211.769 181.23C211.868 180.99 212.037 180.785 212.253 180.64C212.469 180.496 212.723 180.419 212.983 180.419C213.331 180.419 213.666 180.557 213.912 180.804C214.159 181.05 214.297 181.385 214.297 181.733Z" fill="white" stroke="#263238" stroke-width="1.54913" stroke-linecap="round" stroke-linejoin="round"/>
<path d="M212.411 183.514C212.411 183.774 212.334 184.028 212.19 184.244C212.045 184.46 211.84 184.629 211.6 184.728C211.36 184.828 211.095 184.854 210.84 184.803C210.585 184.752 210.351 184.627 210.167 184.444C209.984 184.26 209.858 184.026 209.808 183.771C209.757 183.516 209.783 183.251 209.883 183.011C209.982 182.771 210.151 182.566 210.367 182.421C210.583 182.277 210.837 182.2 211.097 182.2C211.445 182.2 211.78 182.338 212.026 182.585C212.273 182.831 212.411 183.166 212.411 183.514Z" fill="white" stroke="#263238" stroke-width="1.54913" stroke-linecap="round" stroke-linejoin="round"/>
<path d="M210.479 184.645C210.479 184.904 210.402 185.159 210.258 185.375C210.113 185.591 209.908 185.759 209.668 185.859C209.428 185.958 209.163 185.984 208.908 185.934C208.654 185.883 208.419 185.758 208.236 185.574C208.052 185.39 207.927 185.156 207.876 184.901C207.825 184.646 207.851 184.382 207.951 184.142C208.05 183.901 208.219 183.696 208.435 183.552C208.651 183.407 208.905 183.33 209.165 183.33C209.513 183.33 209.848 183.469 210.094 183.715C210.341 183.962 210.479 184.296 210.479 184.645Z" fill="white" stroke="#263238" stroke-width="1.54913" stroke-linecap="round" stroke-linejoin="round"/>
<path d="M208.37 185.834C208.37 186.094 208.293 186.348 208.148 186.564C208.004 186.78 207.799 186.949 207.558 187.048C207.318 187.148 207.054 187.174 206.799 187.123C206.544 187.072 206.31 186.947 206.126 186.763C205.942 186.579 205.817 186.345 205.766 186.09C205.716 185.835 205.742 185.571 205.841 185.331C205.941 185.091 206.109 184.886 206.325 184.741C206.541 184.597 206.795 184.52 207.055 184.52C207.404 184.52 207.738 184.658 207.985 184.905C208.231 185.151 208.37 185.485 208.37 185.834Z" fill="white" stroke="#263238" stroke-width="1.54913" stroke-linecap="round" stroke-linejoin="round"/>
<path d="M199.294 181.234C199.294 181.494 199.217 181.748 199.073 181.964C198.929 182.18 198.723 182.349 198.483 182.448C198.243 182.548 197.979 182.574 197.724 182.523C197.469 182.472 197.235 182.347 197.051 182.163C196.867 181.979 196.742 181.745 196.691 181.49C196.64 181.235 196.666 180.971 196.766 180.731C196.865 180.491 197.034 180.285 197.25 180.141C197.466 179.997 197.72 179.92 197.98 179.92C198.329 179.92 198.663 180.058 198.91 180.304C199.156 180.551 199.294 180.885 199.294 181.234Z" fill="white" stroke="#263238" stroke-width="1.54913" stroke-linecap="round" stroke-linejoin="round"/>
<path d="M198.19 184.763C198.924 184.763 199.518 184.169 199.518 183.435C199.518 182.702 198.924 182.108 198.19 182.108C197.457 182.108 196.863 182.702 196.863 183.435C196.863 184.169 197.457 184.763 198.19 184.763Z" fill="white" stroke="#263238" stroke-width="1.54913" stroke-linecap="round" stroke-linejoin="round"/>
<path d="M200.011 185.538C200.011 185.798 199.934 186.052 199.789 186.268C199.645 186.485 199.44 186.653 199.199 186.752C198.959 186.852 198.695 186.878 198.44 186.827C198.185 186.777 197.951 186.651 197.767 186.468C197.583 186.284 197.458 186.05 197.407 185.795C197.357 185.54 197.383 185.275 197.482 185.035C197.582 184.795 197.75 184.59 197.966 184.445C198.182 184.301 198.436 184.224 198.696 184.224C199.045 184.224 199.379 184.362 199.626 184.609C199.872 184.855 200.011 185.19 200.011 185.538Z" fill="white" stroke="#263238" stroke-width="1.54913" stroke-linecap="round" stroke-linejoin="round"/>
<path d="M200.379 188.233C201.112 188.233 201.706 187.638 201.706 186.905C201.706 186.172 201.112 185.578 200.379 185.578C199.646 185.578 199.051 186.172 199.051 186.905C199.051 187.638 199.646 188.233 200.379 188.233Z" fill="white" stroke="#263238" stroke-width="1.54913" stroke-linecap="round" stroke-linejoin="round"/>
<path d="M206.155 186.682C206.155 186.942 206.078 187.196 205.934 187.412C205.789 187.628 205.584 187.796 205.344 187.896C205.104 187.995 204.839 188.021 204.584 187.971C204.329 187.92 204.095 187.795 203.911 187.611C203.728 187.427 203.602 187.193 203.552 186.938C203.501 186.683 203.527 186.419 203.627 186.179C203.726 185.939 203.895 185.733 204.111 185.589C204.327 185.444 204.581 185.367 204.841 185.367C205.189 185.367 205.524 185.506 205.77 185.752C206.017 185.999 206.155 186.333 206.155 186.682Z" fill="white" stroke="#263238" stroke-width="1.54913" stroke-linecap="round" stroke-linejoin="round"/>
<path d="M204.098 187.359C204.098 187.618 204.021 187.873 203.877 188.089C203.732 188.305 203.527 188.473 203.287 188.573C203.047 188.672 202.782 188.698 202.528 188.648C202.273 188.597 202.038 188.472 201.855 188.288C201.671 188.104 201.546 187.87 201.495 187.615C201.444 187.36 201.47 187.096 201.57 186.856C201.669 186.615 201.838 186.41 202.054 186.266C202.27 186.121 202.524 186.044 202.784 186.044C203.132 186.044 203.467 186.183 203.713 186.429C203.96 186.676 204.098 187.01 204.098 187.359Z" fill="white" stroke="#263238" stroke-width="1.54913" stroke-linecap="round" stroke-linejoin="round"/>
<path d="M223.754 173.348C223.754 173.348 217.708 193.365 214.166 202.532C210.624 211.699 201.253 231.9 201.253 231.9C201.253 231.9 192.506 219.822 191.047 205.029C189.588 190.237 195.68 176.64 195.68 176.64C195.68 176.64 179.606 182.167 175.65 183.626C171.694 185.085 167.193 187.181 165.53 191.137C163.868 195.093 145.277 247.58 144.442 249.663C143.608 251.746 141.945 251.956 144.239 255.498C146.532 259.04 157.566 259.244 159.649 257.371C161.732 255.498 173.758 237.749 173.758 237.749L178.134 246.292L180.007 272.118L179.593 276.494H235.641L234.984 261.288C234.984 261.288 255.829 208.808 257.498 199.851C259.167 190.894 256.664 186.103 252.898 183.422C249.133 180.741 223.754 173.348 223.754 173.348Z" fill="#5000A0" stroke="#263238" stroke-width="1.54913" stroke-linecap="round" stroke-linejoin="round"/>
<path d="M188.222 189.185C187.752 189.056 187.251 189.111 186.82 189.339C186.39 189.568 186.064 189.953 185.908 190.414C185.297 192.11 184.831 193.654 184.831 193.654C184.831 193.654 182.675 196.743 182.202 198.254C181.729 199.765 180.507 212.133 180.198 213.217C179.889 214.302 178.811 219.848 178.811 219.848L177.116 222.476L181.584 230.185C181.584 230.185 184.055 230.034 186.368 226.485C188.682 222.936 188.682 223.245 189.142 218.777C189.602 214.308 190.068 189.934 190.068 189.934C190.068 189.934 189.148 188.876 188.222 189.185Z" fill="white" stroke="#263238" stroke-width="1.54913" stroke-linecap="round" stroke-linejoin="round"/>
<path d="M197.323 227.891C197.323 227.891 196.863 224.652 197.632 223.574C198.401 222.496 199.945 222.339 200.26 218.796C200.576 215.254 199.492 211.85 200.109 208C200.727 204.149 202.422 204.911 202.265 203.215C202.107 201.52 199.636 201.211 198.874 202.447C198.112 203.682 197.33 205.22 197.33 205.22C197.33 205.22 196.712 195.363 196.403 192.11C196.094 188.857 193.939 187.95 193.939 187.95C193.939 187.95 193.012 185.321 191.777 185.946C190.541 186.57 190.39 187.332 190.39 187.332C189.529 187.765 188.787 188.401 188.228 189.185C187.845 190.057 187.687 191.01 187.768 191.959C186.855 192.804 186.167 193.863 185.764 195.041C185.304 196.743 183.451 207.691 183.293 212.008C183.135 216.326 183.293 223.883 184.068 225.269C184.844 226.656 186.842 229.587 186.842 229.587L188.077 233.293C188.077 233.293 193.932 228.509 197.323 227.891Z" fill="white" stroke="#263238" stroke-width="1.54913" stroke-linecap="round" stroke-linejoin="round"/>
<path d="M187.762 191.959C187.762 191.959 188.688 192.419 188.53 194.587C188.373 196.756 187.302 206.62 187.302 206.62" fill="white"/>
<path d="M187.762 191.959C187.762 191.959 188.688 192.419 188.53 194.587C188.373 196.756 187.302 206.62 187.302 206.62" stroke="#263238" stroke-width="1.54913" stroke-linecap="round" stroke-linejoin="round"/>
<path d="M190.384 187.332C190.384 187.332 191.612 186.609 191.304 189.304C190.995 191.998 191.001 205.397 191.001 205.397" fill="white"/>
<path d="M190.384 187.332C190.384 187.332 191.612 186.609 191.304 189.304C190.995 191.998 191.001 205.397 191.001 205.397" stroke="#263238" stroke-width="1.54913" stroke-linecap="round" stroke-linejoin="round"/>
<path d="M193.932 187.95C193.932 187.95 194.55 200.436 194.241 203.991L193.932 187.95Z" fill="white"/>
<path d="M193.932 187.95C193.932 187.95 194.55 200.436 194.241 203.991" stroke="#263238" stroke-width="1.54913" stroke-linecap="round" stroke-linejoin="round"/>
<path d="M197.323 205.22C197.323 205.22 198.072 209.754 198.375 210.832L197.323 205.22Z" fill="white"/>
<path d="M197.323 205.22C197.323 205.22 198.072 209.754 198.375 210.832" stroke="#263238" stroke-width="1.54913" stroke-linecap="round" stroke-linejoin="round"/>
<path d="M177.517 220.518L184.18 229.528C184.18 229.528 169.841 251.358 167.6 254.92C165.359 258.482 158.104 266.814 154.017 267.866C149.929 268.917 147.689 267.866 145.474 264.705C143.259 261.544 139.934 256.162 141.387 252.567C142.839 248.973 153.78 238.695 157.211 236.848C160.641 235.002 177.517 220.518 177.517 220.518Z" fill="#5000A0" stroke="#263238" stroke-width="1.54913" stroke-linecap="round" stroke-linejoin="round"/>
<path d="M248.364 182.903C248.364 182.903 251.65 183.166 252.924 183.363C254.199 183.56 256.545 186.728 257.465 188.706C258.385 190.684 258.392 198.201 257.991 202.42C257.59 206.639 248.909 238.189 247.063 247.948C245.216 257.706 238.875 272.262 237.692 273.964C236.509 275.666 234.261 277.25 232.02 277.125C229.78 277 215.874 267.314 210.729 262.306C205.583 257.299 185.928 231.42 185.928 231.42C185.928 231.42 188.438 227.477 190.679 226.163C192.92 224.849 197.671 224.054 197.671 224.054C197.671 224.054 206.372 231.571 213.101 237.091C217.296 240.524 221.756 243.618 226.441 246.344C226.441 246.344 229.346 229.534 229.727 227.556C230.108 225.578 233.243 208.571 233.243 208.571" fill="#5000A0"/>
<path d="M248.364 182.903C248.364 182.903 251.65 183.166 252.924 183.363C254.199 183.56 256.545 186.728 257.465 188.706C258.385 190.684 258.392 198.201 257.991 202.42C257.59 206.639 248.909 238.189 247.063 247.948C245.216 257.706 238.875 272.262 237.692 273.964C236.509 275.666 234.261 277.25 232.02 277.125C229.78 277 215.874 267.314 210.729 262.306C205.583 257.299 185.928 231.42 185.928 231.42C185.928 231.42 188.438 227.477 190.679 226.163C192.92 224.849 197.671 224.054 197.671 224.054C197.671 224.054 206.372 231.571 213.101 237.091C217.296 240.524 221.756 243.618 226.441 246.344C226.441 246.344 229.346 229.534 229.727 227.556C230.108 225.578 233.243 208.571 233.243 208.571" stroke="#263238" stroke-width="1.54913" stroke-linecap="round" stroke-linejoin="round"/>
<path d="M226.441 246.344C226.441 246.344 231.192 248.191 232.356 255.183" stroke="#263238" stroke-width="1.54913" stroke-linecap="round" stroke-linejoin="round"/>
<path d="M226.684 248.059C226.684 248.059 229.458 250.031 228.8 254.388" stroke="#263238" stroke-width="1.54913" stroke-linecap="round" stroke-linejoin="round"/>
<path d="M170.498 225.769C169.824 222.604 170.052 219.314 171.155 216.273C173.002 211.259 177.07 197.275 177.07 197.275" stroke="#263238" stroke-width="1.54913" stroke-linecap="round" stroke-linejoin="round"/>
<g opacity="0.3">
<path d="M276.22 109.388C287.392 116.531 281.596 122.321 274.453 111.156C267.316 122.327 261.526 116.531 272.691 109.388C261.52 102.251 267.316 96.4617 274.453 107.627C281.596 96.4617 287.379 102.251 276.22 109.388Z" stroke="#5000A0" stroke-width="1.54913" stroke-miterlimit="10"/>
<path d="M275.727 108.146C288.667 105.3 288.667 113.482 275.727 110.636C278.573 123.582 270.391 123.582 273.237 110.636C260.291 113.482 260.291 105.3 273.237 108.146C270.365 95.2 278.547 95.2 275.727 108.146Z" stroke="#5000A0" stroke-width="1.54913" stroke-miterlimit="10"/>
</g>
<g opacity="0.3">
<path d="M187.946 75.433C195.338 80.1579 191.501 83.9759 186.776 76.6027C182.051 83.9956 178.233 80.1579 185.606 75.433C178.213 70.7081 182.051 66.8901 186.776 74.2633C191.501 66.8901 195.338 70.7147 187.946 75.433Z" stroke="#5000A0" stroke-width="1.54913" stroke-miterlimit="10"/>
<path d="M186.776 76.6092C187.422 76.6092 187.946 76.0855 187.946 75.4395C187.946 74.7935 187.422 74.2698 186.776 74.2698C186.13 74.2698 185.606 74.7935 185.606 75.4395C185.606 76.0855 186.13 76.6092 186.776 76.6092Z" stroke="#5000A0" stroke-width="1.54913" stroke-miterlimit="10"/>
</g>
<g opacity="0.3">
<path d="M145.481 204.648C146.127 204.648 146.65 204.124 146.65 203.478C146.65 202.832 146.127 202.309 145.481 202.309C144.835 202.309 144.311 202.832 144.311 203.478C144.311 204.124 144.835 204.648 145.481 204.648Z" stroke="#5000A0" stroke-width="1.54913" stroke-miterlimit="10"/>
<path d="M146.309 202.657C154.852 200.771 154.852 206.192 146.309 204.306C148.195 212.849 142.773 212.849 144.659 204.306C136.083 206.192 136.083 200.771 144.659 202.657C142.773 194.088 148.195 194.088 146.309 202.657Z" stroke="#5000A0" stroke-width="1.54913" stroke-miterlimit="10"/>
</g>
<g opacity="0.3">
<path d="M255.034 160.356C255.68 160.356 256.204 159.833 256.204 159.187C256.204 158.541 255.68 158.017 255.034 158.017C254.388 158.017 253.864 158.541 253.864 159.187C253.864 159.833 254.388 160.356 255.034 160.356Z" stroke="#5000A0" stroke-width="1.54913" stroke-miterlimit="10"/>
<path d="M255.034 160.356C255.68 160.356 256.204 159.833 256.204 159.187C256.204 158.541 255.68 158.017 255.034 158.017C254.388 158.017 253.864 158.541 253.864 159.187C253.864 159.833 254.388 160.356 255.034 160.356Z" stroke="#5000A0" stroke-width="1.54913" stroke-miterlimit="10"/>
</g>
<g opacity="0.3">
<path d="M145.034 111.445C156.908 119.041 150.751 125.192 143.154 113.318C135.558 125.192 129.4 119.041 141.281 111.445C129.4 103.848 135.558 97.6906 143.154 109.565C150.751 97.6906 156.908 103.848 145.034 111.445Z" stroke="#5000A0" stroke-width="1.54913" stroke-miterlimit="10"/>
<path d="M143.154 113.318C144.189 113.318 145.027 112.479 145.027 111.445C145.027 110.41 144.189 109.572 143.154 109.572C142.12 109.572 141.281 110.41 141.281 111.445C141.281 112.479 142.12 113.318 143.154 113.318Z" stroke="#5000A0" stroke-width="1.54913" stroke-miterlimit="10"/>
</g>
<path d="M148.95 289.44L189.155 279.313C189.779 279.162 190.016 277.25 189.378 277.25L130.071 278.249L148.95 289.44Z" fill="white" stroke="#263238" stroke-width="1.54913" stroke-linecap="round" stroke-linejoin="round"/>
<path d="M148.95 288.421L189.155 278.295C189.285 278.265 189.401 278.189 189.478 278.079C189.555 277.97 189.589 277.836 189.572 277.703C189.556 277.57 189.49 277.448 189.389 277.36C189.288 277.273 189.157 277.227 189.023 277.23H130.071L148.95 288.421Z" fill="white" stroke="#263238" stroke-width="1.54913" stroke-linecap="round" stroke-linejoin="round"/>
<path d="M144.896 280.831H165.189L142.583 285.458L144.896 280.831Z" fill="#E8D5FF" stroke="#263238" stroke-width="1.54913" stroke-linecap="round" stroke-linejoin="round"/>
<path d="M148.95 289.44H57.6067L47.0924 235.205C47.0033 234.744 47.0172 234.269 47.1331 233.814C47.2491 233.359 47.4642 232.935 47.7631 232.573C48.062 232.21 48.4373 231.919 48.8621 231.718C49.2869 231.518 49.7507 231.414 50.2204 231.414H135.098C135.837 231.414 136.553 231.672 137.123 232.144C137.692 232.615 138.08 233.27 138.219 233.996L148.95 289.44Z" fill="white" stroke="#263238" stroke-width="1.54913" stroke-linecap="round" stroke-linejoin="round"/>
<path d="M147.518 289.44H56.24L45.7256 235.206C45.6366 234.745 45.6504 234.27 45.766 233.816C45.8816 233.361 46.0961 232.937 46.3943 232.575C46.6924 232.213 47.0669 231.921 47.4908 231.72C47.9148 231.52 48.3779 231.415 48.847 231.414H133.645C134.386 231.414 135.103 231.672 135.673 232.143C136.244 232.614 136.633 233.27 136.773 233.996L147.518 289.44Z" fill="#E8D5FF" stroke="#263238" stroke-width="1.54913" stroke-linecap="round" stroke-linejoin="round"/>
<path d="M93.1322 267.695C96.8123 267.695 99.7957 264.712 99.7957 261.031C99.7957 257.351 96.8123 254.368 93.1322 254.368C89.452 254.368 86.4687 257.351 86.4687 261.031C86.4687 264.712 89.452 267.695 93.1322 267.695Z" fill="#5000A0"/>
<path d="M277.646 260.683C277.646 260.683 281.175 258.823 282.903 260.157C284.632 261.491 285.854 265.073 285.854 268.313C285.854 271.552 284.54 274.792 282.233 276.323C279.927 277.854 275.747 276.704 275.747 276.704L275.938 273.458C275.938 273.458 279.184 274.772 281.09 272.315C282.995 269.857 281.852 265.086 280.709 263.929C279.565 262.773 276.897 265.454 276.897 265.454L277.646 260.683Z" fill="white" stroke="#263238" stroke-width="1.54913" stroke-linecap="round" stroke-linejoin="round"/>
<path d="M279.309 255.183H254.554L257.032 285.78H276.838L279.309 255.183Z" fill="white" stroke="#263238" stroke-width="1.54913" stroke-linecap="round" stroke-linejoin="round"/>
<path d="M260.541 233.747C260.541 238.537 257.912 238.537 257.912 243.328C257.912 248.118 260.541 248.125 260.541 252.916" stroke="#263238" stroke-width="1.54913" stroke-linecap="round" stroke-linejoin="round"/>
<path d="M265.614 239.431C265.022 240.643 264.733 241.98 264.773 243.328C264.773 248.125 267.401 248.125 267.401 252.916" stroke="#263238" stroke-width="1.54913" stroke-linecap="round" stroke-linejoin="round"/>
<path d="M267.401 233.747C267.433 234.9 267.227 236.047 266.797 237.118" stroke="#263238" stroke-width="1.54913" stroke-linecap="round" stroke-linejoin="round"/>
<path d="M272.271 246.778C273.053 248.618 274.242 249.656 274.242 252.916" stroke="#263238" stroke-width="1.54913" stroke-linecap="round" stroke-linejoin="round"/>
<path d="M274.269 233.747C274.269 238.537 271.64 238.537 271.64 243.328" stroke="#263238" stroke-width="1.54913" stroke-linecap="round" stroke-linejoin="round"/>
<path d="M225.254 212.048C225.041 211.938 224.827 211.827 224.614 211.717C224.061 211.113 223.219 210.878 222.469 211.119C221.605 211.397 221.017 212.256 221.062 213.211C220.938 213.113 220.814 213.015 220.689 212.916C220.751 211.858 221.471 210.962 222.451 210.7C223.547 210.408 224.745 210.967 225.254 212.048Z" fill="white"/>
<path d="M220.914 214.038C221.127 214.149 221.34 214.259 221.553 214.37C222.106 214.974 222.949 215.208 223.699 214.967C224.562 214.689 225.15 213.83 225.105 212.876C225.23 212.974 225.354 213.072 225.478 213.17C225.417 214.228 224.696 215.124 223.717 215.386C222.621 215.679 221.423 215.12 220.914 214.038Z" fill="white"/>
<path d="M222.169 211.456C222.091 211.504 222.001 211.566 221.909 211.645C221.82 211.722 221.748 211.798 221.69 211.866C222.161 211.805 223.182 211.737 224.32 212.22C225.188 212.589 225.757 213.122 226.063 213.456C226.124 213.428 226.191 213.393 226.26 213.35C226.305 213.322 226.346 213.293 226.383 213.265C226.083 212.913 225.446 212.258 224.415 211.834C223.466 211.444 222.624 211.431 222.169 211.456Z" fill="white"/>
<path d="M223.997 214.613C224.076 214.565 224.165 214.503 224.258 214.424C224.347 214.347 224.419 214.271 224.477 214.203C224.006 214.264 222.985 214.332 221.847 213.849C220.979 213.48 220.409 212.947 220.104 212.613C220.043 212.641 219.976 212.676 219.906 212.719C219.862 212.747 219.821 212.776 219.784 212.804C220.084 213.156 220.721 213.811 221.752 214.235C222.701 214.625 223.543 214.638 223.997 214.613Z" fill="white"/>
<path d="M220.872 211.668L220.657 212.127C220.524 212.176 220.381 212.236 220.231 212.309C220.012 212.417 219.821 212.533 219.659 212.643C219.586 212.547 219.513 212.451 219.44 212.355C219.652 212.213 219.908 212.063 220.207 211.925C220.445 211.815 220.669 211.732 220.872 211.668Z" fill="white"/>
<path d="M225.31 214.385L225.525 213.926C225.658 213.877 225.801 213.817 225.951 213.744C226.171 213.636 226.361 213.52 226.523 213.41C226.596 213.506 226.669 213.602 226.742 213.698C226.53 213.84 226.274 213.99 225.975 214.128C225.737 214.238 225.513 214.321 225.31 214.385Z" fill="white"/>
<path d="M222.938 213.853C223.389 213.936 223.821 213.639 223.904 213.188C223.987 212.738 223.689 212.306 223.239 212.223C222.789 212.14 222.356 212.438 222.273 212.888C222.19 213.338 222.488 213.77 222.938 213.853Z" fill="white"/>
<path d="M223.418 212.992C223.532 213.013 223.641 212.937 223.662 212.823C223.683 212.709 223.608 212.6 223.494 212.579C223.38 212.558 223.27 212.633 223.249 212.747C223.228 212.861 223.304 212.971 223.418 212.992Z" fill="#5000A0"/>
<path d="M220.881 212.868C220.974 211.419 222.422 210.429 223.799 210.924C224.224 211.074 224.602 211.355 224.866 211.719C224.592 211.366 224.214 211.093 223.79 210.95C222.419 210.477 221.016 211.442 220.881 212.868Z" fill="#5000A0"/>
<path d="M225.286 213.219C225.193 214.668 223.745 215.658 222.368 215.163C221.943 215.013 221.565 214.733 221.301 214.368C221.576 214.721 221.953 214.994 222.377 215.137C223.748 215.61 225.151 214.645 225.286 213.219Z" fill="#5000A0"/>
<path d="M222.103 211.646C223.427 211.526 224.786 211.985 225.768 212.879C225.909 213.006 226.041 213.142 226.166 213.285C226.039 213.144 225.905 213.011 225.763 212.886C224.775 212 223.424 211.548 222.103 211.646Z" fill="#5000A0"/>
<path d="M224.069 214.417C222.746 214.536 221.386 214.078 220.404 213.183C220.263 213.056 220.131 212.92 220.006 212.778C220.133 212.918 220.267 213.052 220.41 213.177C221.397 214.062 222.748 214.514 224.069 214.417Z" fill="#5000A0"/>
<path d="M219.65 212.41C219.961 212.205 220.3 212.041 220.654 211.923C220.309 212.063 219.973 212.225 219.65 212.41Z" fill="#5000A0"/>
<path d="M226.565 213.63C226.254 213.835 225.915 214 225.561 214.117C225.906 213.977 226.242 213.815 226.565 213.63Z" fill="#5000A0"/>
</svg>
