<svg width="356" height="246" viewBox="0 0 356 246" fill="none" xmlns="http://www.w3.org/2000/svg">
<path d="M50.5735 168.27C48.7048 171.044 46.0989 174.65 44.7339 177.548C45.2667 175.635 45.785 173.832 46.2522 172.204C47.5478 169.58 49.1663 167.128 51.0699 164.905C53.8657 161.912 55.0628 159.992 53.5591 159.795C52.5152 159.678 49.464 163.744 47.5515 167.781C47.9676 166.401 48.2815 165.343 48.4932 164.729C48.588 164.452 48.6756 164.145 48.7632 163.817C50.7415 161.05 52.5433 158.161 54.1576 155.167C56.9826 149.889 57.895 144.911 56.0117 147.05C54.2744 149.021 51.2597 158.824 48.8581 163.437C49.0625 162.642 49.2523 161.766 49.4275 160.897C49.7633 160.058 50.2086 159.204 50.4641 158.43C50.8509 157.24 51.194 156.036 51.4787 154.817C51.9343 152.903 52.1646 150.944 52.1649 148.977C52.2111 146.677 51.5845 144.414 50.3619 142.466C50.0334 141.977 48.0552 139.013 47.442 140.539C47.3653 140.792 47.3503 141.06 47.3982 141.32C47.6902 143.845 48.6027 146.159 49.172 148.619C50.0188 152.269 49.4494 158.466 49.172 161.094C49.0625 161.51 48.9311 162.021 48.7705 162.62C49.1647 158.043 47.1792 152.627 45.347 151.67C43.0769 150.495 45.3032 155.101 47.0551 159.116C47.8863 160.877 48.2771 162.813 48.1939 164.759C47.8362 166.073 47.4201 167.562 46.9967 169.065C46.9091 169.27 46.8288 169.474 46.7559 169.679C46.9533 168.699 47.0341 167.699 46.9967 166.7C46.8289 164.073 43.8506 158.817 41.887 159.561C39.9234 160.306 43.252 163.072 45.0404 166.299C45.9729 168.076 46.3348 170.097 46.077 172.087C46.077 172.204 46.0332 172.321 46.0186 172.438C45.8142 173.124 45.6098 173.781 45.4127 174.409C44.9528 175.869 44.5222 177.256 44.1061 178.606C44.6123 176.653 44.836 174.637 44.7704 172.62C44.5222 168.773 42.2666 165.138 40.3906 164.642C38.5146 164.146 42.0768 170.423 43.2739 173.949C43.9185 176.009 44.0265 178.2 43.5878 180.314C43.0111 182.219 42.471 184.103 41.9162 186.095C42.0698 183.487 42.0137 180.87 41.7483 178.27C41.3833 173.993 38.8285 171.255 37.0839 171.365C35.3393 171.474 37.1569 173.912 39.6898 179.11C41.0242 181.843 41.6182 184.878 41.4125 187.913C41.1862 188.752 40.9527 189.614 40.7191 190.519C40.449 191.541 40.2227 192.658 40.0402 193.804C39.7847 192.789 39.4052 191.293 38.9672 189.65C38.4561 187.827 38.0851 185.968 37.8576 184.088C37.6167 181.898 37.0401 179.183 34.9378 178.044C34.7927 177.942 34.627 177.873 34.4524 177.842C34.2778 177.811 34.0986 177.819 33.9274 177.865C33.7561 177.911 33.597 177.994 33.4614 178.108C33.3257 178.222 33.2167 178.365 33.1421 178.526C32.9463 178.987 32.9003 179.497 33.0107 179.986C33.2963 181.472 33.7877 182.912 34.4706 184.263C34.0458 185.068 33.8537 185.976 33.9158 186.884C33.9158 187.227 33.9158 187.563 33.9669 187.906C33.7772 187.555 33.602 187.234 33.4268 186.949C33.1193 186.436 32.7409 185.97 32.3026 185.563C32.4169 184.755 32.473 183.94 32.4705 183.124C32.4705 182.059 31.2223 179.351 30.1055 181.358C29.6529 182.161 29.7405 183.738 29.6967 184.789C29.3901 185.073 29.2952 185.665 29.558 186.599C29.2974 189.02 29.4231 191.466 29.9303 193.848C29.8062 193.621 29.6748 193.395 29.5434 193.169C28.9996 190.369 28.6774 187.53 28.5798 184.679C28.4338 179.964 29.1857 176.095 27.901 174.65C26.6162 173.204 25.9009 178.299 26.4411 183.869C26.6989 186.413 27.3772 188.897 28.4484 191.22C27.1929 188.957 25.9447 186.65 24.7986 184.424C23.7319 182.047 23.2202 179.458 23.3022 176.854C23.6745 172.752 23.9446 169.394 22.3898 167.08C20.835 164.766 20.5065 166.27 21.2729 171.087C21.7912 174.394 22.3533 178.81 23.3095 181.876C22.3971 180.117 21.543 178.445 20.7766 176.927C19.9347 174.13 19.4443 171.239 19.3166 168.321C19.3166 164.226 18.8787 162.007 17.6669 162.905C16.8275 163.532 17.3676 168.591 18.7254 172.847C18.0903 171.547 17.6085 170.555 17.3384 169.971C17.2144 169.708 17.0684 169.423 16.9078 169.124C16.4689 165.75 15.8155 162.407 14.9515 159.116C13.4113 153.335 10.6739 149.072 10.7615 151.919C10.8418 154.547 15.3238 163.766 16.7253 168.781C16.3311 168.051 15.8639 167.284 15.4041 166.532C15.0756 165.693 14.8201 164.766 14.477 164.029C13.9514 162.89 13.3821 161.773 12.747 160.693C11.78 158.986 10.6163 157.398 9.27968 155.963C7.74224 154.25 5.73781 153.025 3.51299 152.437C2.94363 152.298 -0.523687 151.488 0.0675808 153.021C0.182498 153.257 0.35277 153.463 0.563954 153.619C2.49835 155.269 4.75393 156.335 6.84161 157.744C9.97314 159.853 13.7689 164.751 15.3457 166.876L16.0756 168.27C13.2434 164.656 8.09715 162.043 6.10436 162.605C3.64439 163.299 8.41833 165.146 12.4404 166.883C14.2474 167.603 15.853 168.75 17.1195 170.226C17.7545 171.438 18.4699 172.803 19.1779 174.19C19.2582 174.401 19.3385 174.606 19.4261 174.803C18.9001 173.954 18.2753 173.169 17.5647 172.467C15.6522 170.664 9.89285 168.817 8.9512 170.737C8.00955 172.657 12.3528 172.372 15.8639 173.511C17.7575 174.172 19.3997 175.404 20.5649 177.037L20.762 177.329C21.0831 177.971 21.3824 178.591 21.6671 179.183C22.3314 180.577 22.9591 181.876 23.5796 183.146C22.6169 181.372 21.4023 179.747 19.9736 178.321C17.1706 175.672 13.039 174.555 11.3309 175.474C9.62276 176.394 16.5063 178.548 19.7838 180.307C21.6645 181.37 23.2405 182.898 24.3607 184.745C25.2439 186.533 26.1272 188.278 27.0834 190.117C25.4177 188.104 23.5917 186.23 21.6233 184.511C18.4334 181.628 14.7106 181.373 13.5062 182.65C12.3017 183.927 15.2946 184.453 20.6963 186.526C23.5376 187.612 26.0426 189.427 27.9594 191.789L29.2295 194.169C29.7332 195.103 30.3317 196.067 30.9814 197.03C30.0982 196.461 28.7915 195.621 27.3316 194.724C25.7146 193.74 24.1748 192.634 22.7256 191.417C21.0612 189.957 18.7838 188.388 16.4406 189.015C16.2647 189.04 16.0966 189.104 15.9479 189.201C15.7993 189.298 15.6739 189.427 15.5806 189.578C15.4873 189.729 15.4283 189.899 15.4079 190.076C15.3875 190.252 15.4061 190.431 15.4624 190.599C15.6332 191.079 15.9562 191.489 16.3822 191.767C18.5721 193.483 21.5576 194.3 24.1271 195.315C26.485 196.242 28.9015 197.013 31.361 197.621C31.9669 198.497 32.6092 199.366 33.2443 200.191H32.0909C30.7259 200.227 24.5651 197.439 21.4335 196.541C18.302 195.643 15.3822 197.344 18.6597 199.111C21.9372 200.877 30.8573 200.483 30.8573 200.483L33.4341 200.403C34.0326 201.176 34.6239 201.914 35.186 202.593H22.9883V205.98H25.4045L27.3608 218.038H43.6024L45.566 205.98H47.9822V202.593H39.8796C39.8134 201.132 39.8524 199.668 39.9964 198.213C40.5358 197.663 41.133 197.174 41.7775 196.753C45.3324 194.3 51.3619 194.096 52.9678 189.366C53.3547 188.227 52.9167 186.76 51.5517 186.825C50.5067 187.02 49.5707 187.595 48.9238 188.439C46.8872 190.789 45.3543 193.22 42.7119 195.008C42.5951 195.089 40.9235 196.417 40.0986 197.242C40.1862 196.468 40.303 195.643 40.4563 194.76C41.0979 193.627 41.8302 192.548 42.6462 191.534C44.8361 188.847 48.099 187.271 50.4421 184.708C51.1721 183.927 52.1065 181.102 49.9166 181.789C48.9384 182.103 47.7924 183.577 47.0332 184.249C44.8798 186.176 42.6535 188.256 41.2665 190.818C41.3249 190.563 41.3833 190.315 41.449 190.088C42.9638 187.664 44.6726 185.367 46.5588 183.219C49.6684 179.679 52.8583 177.38 52.9094 175.423C52.9605 173.467 48.953 176.737 45.5441 181.175C43.9962 183.208 42.7995 185.485 42.0038 187.913C42.6243 185.395 43.2885 182.862 43.9455 180.431C44.8254 177.946 46.2667 175.698 48.1574 173.861C51.2305 171.109 53.7197 168.846 54.1576 166.094C54.5956 163.343 53.3036 164.226 50.5735 168.27ZM33.3684 199.424C32.9085 198.797 32.434 198.118 31.9085 197.373C31.6048 196.107 31.4022 194.818 31.3026 193.519C31.237 192.407 31.2884 191.292 31.4559 190.19C32.2821 191.207 33.1592 192.182 34.0837 193.11C34.0617 194.078 33.9444 195.042 33.7334 195.986C33.5532 197.125 33.4314 198.273 33.3684 199.424ZM36.0035 202.614C35.3831 201.95 34.6969 201.154 33.9596 200.198C33.9797 199.432 34.085 198.671 34.2735 197.928C34.5687 196.753 34.9947 195.614 35.5437 194.534C36.6897 195.621 37.5365 196.344 37.5365 196.344L39.4708 198.045C39.3176 199.738 39.23 201.322 39.1789 202.614H36.0035ZM39.5 197.738C39.3614 197.621 39.1059 197.402 38.6314 197.008C38.1569 196.614 37.2737 194.891 36.3247 192.95C36.7311 192.132 37.0894 191.291 37.3978 190.431C38.4197 192.337 39.3467 193.811 39.8723 194.614C39.719 195.636 39.5949 196.694 39.5 197.738Z" fill="#5000A0"/>
<path d="M340.619 213.257C340.619 214.42 338.921 215.358 336.867 215.358C334.813 215.358 333.068 214.42 333.068 213.257C333.068 212.094 334.775 211.147 336.867 211.147C338.959 211.147 340.619 212.094 340.619 213.257Z" fill="white" stroke="#263238" stroke-width="1.76484" stroke-linecap="round" stroke-linejoin="round"/>
<path d="M314.908 214.101C314.908 215.265 313.21 216.203 311.109 216.203C309.008 216.203 307.357 215.265 307.357 214.101C307.357 212.938 309.055 211.991 311.109 211.991C313.163 211.991 314.908 212.966 314.908 214.101Z" fill="white" stroke="#263238" stroke-width="1.76484" stroke-linecap="round" stroke-linejoin="round"/>
<path d="M318.491 215.358C318.491 216.522 316.793 217.469 314.739 217.469C312.685 217.469 310.987 216.531 310.987 215.358C310.987 214.186 312.685 213.257 314.739 213.257C316.793 213.257 318.491 214.195 318.491 215.358Z" fill="white" stroke="#263238" stroke-width="1.76484" stroke-linecap="round" stroke-linejoin="round"/>
<path d="M330.291 214.524C330.291 215.687 328.594 216.625 326.539 216.625C324.485 216.625 322.74 215.687 322.74 214.524C322.74 213.36 324.438 212.413 326.539 212.413C328.641 212.413 330.291 213.351 330.291 214.524Z" fill="white" stroke="#263238" stroke-width="1.76484" stroke-linecap="round" stroke-linejoin="round"/>
<path d="M323.969 214.101C323.969 215.265 322.271 216.203 320.217 216.203C318.163 216.203 316.418 215.265 316.418 214.101C316.418 212.938 318.116 211.991 320.217 211.991C322.318 211.991 323.969 212.966 323.969 214.101Z" fill="white" stroke="#263238" stroke-width="1.76484" stroke-linecap="round" stroke-linejoin="round"/>
<path d="M336.829 215.781C336.829 216.944 335.132 217.891 333.03 217.891C330.929 217.891 329.278 216.953 329.278 215.781C329.278 214.608 330.976 213.679 333.03 213.679C335.085 213.679 336.829 214.617 336.829 215.781Z" fill="white" stroke="#263238" stroke-width="1.76484" stroke-linecap="round" stroke-linejoin="round"/>
<path d="M346.313 215.996C346.313 217.159 344.615 218.107 342.561 218.107C340.506 218.107 338.762 217.169 338.762 215.996C338.762 214.824 340.46 213.886 342.561 213.886C344.662 213.886 346.313 214.843 346.313 215.996Z" fill="white" stroke="#263238" stroke-width="1.76484" stroke-linecap="round" stroke-linejoin="round"/>
<path d="M309.852 216.418C309.852 217.582 308.154 218.52 306.053 218.52C303.952 218.52 302.301 217.582 302.301 216.418C302.301 215.255 303.999 214.308 306.053 214.308C308.107 214.308 309.852 215.255 309.852 216.418Z" fill="white" stroke="#263238" stroke-width="1.76484" stroke-linecap="round" stroke-linejoin="round"/>
<path d="M314.692 217.469C314.692 218.632 312.994 219.579 310.94 219.579C308.886 219.579 307.188 218.641 307.188 217.469C307.188 216.296 308.886 215.358 310.94 215.358C312.994 215.358 314.692 216.306 314.692 217.469Z" fill="white" stroke="#263238" stroke-width="1.76484" stroke-linecap="round" stroke-linejoin="round"/>
<path d="M339.568 218.107C339.568 219.27 337.871 220.208 335.816 220.208C333.762 220.208 332.017 219.27 332.017 218.107C332.017 216.944 333.715 215.996 335.816 215.996C337.918 215.996 339.568 216.934 339.568 218.107Z" fill="white" stroke="#263238" stroke-width="1.76484" stroke-linecap="round" stroke-linejoin="round"/>
<path d="M323.763 217.047C323.763 218.21 322.065 219.157 319.964 219.157C317.863 219.157 316.212 218.219 316.212 217.047C316.212 215.874 317.91 214.936 319.964 214.936C322.018 214.936 323.763 215.884 323.763 217.047Z" fill="white" stroke="#263238" stroke-width="1.76484" stroke-linecap="round" stroke-linejoin="round"/>
<path d="M329.447 217.047C329.447 218.21 327.749 219.157 325.695 219.157C323.641 219.157 321.896 218.219 321.896 217.047C321.896 215.874 323.603 214.936 325.695 214.936C327.787 214.936 329.447 215.884 329.447 217.047Z" fill="white" stroke="#263238" stroke-width="1.76484" stroke-linecap="round" stroke-linejoin="round"/>
<path d="M310.115 185.032H319.495C320.241 185.032 320.957 185.329 321.485 185.857C322.012 186.384 322.309 187.1 322.309 187.846V218.538C322.309 218.911 322.161 219.269 321.897 219.533C321.633 219.797 321.275 219.945 320.902 219.945H308.708C308.335 219.945 307.977 219.797 307.713 219.533C307.449 219.269 307.301 218.911 307.301 218.538V187.846C307.301 187.1 307.597 186.384 308.125 185.857C308.653 185.329 309.368 185.032 310.115 185.032Z" fill="white" stroke="#263238" stroke-width="1.76484" stroke-linecap="round" stroke-linejoin="round"/>
<path d="M314.889 185.211C314.196 184.659 313.659 183.936 313.33 183.114C313.001 182.292 312.892 181.398 313.013 180.521C313.435 177.575 315.968 174.836 315.968 174.836C316.844 176.536 317.346 178.404 317.441 180.314C317.413 183.1 314.889 185.211 314.889 185.211Z" fill="#5000A0" stroke="#263238" stroke-width="1.76484" stroke-linecap="round" stroke-linejoin="round"/>
<path d="M327.205 176.14H336.586C337.332 176.14 338.048 176.436 338.575 176.964C339.103 177.492 339.4 178.208 339.4 178.954V218.529C339.4 218.902 339.251 219.26 338.988 219.524C338.724 219.788 338.366 219.936 337.993 219.936H325.798C325.425 219.936 325.067 219.788 324.803 219.524C324.54 219.26 324.391 218.902 324.391 218.529V178.954C324.391 178.208 324.688 177.492 325.216 176.964C325.743 176.436 326.459 176.14 327.205 176.14Z" fill="white" stroke="#263238" stroke-width="1.76484" stroke-linecap="round" stroke-linejoin="round"/>
<path d="M331.961 176.328C331.276 175.78 330.744 175.065 330.416 174.251C330.087 173.438 329.973 172.554 330.085 171.684C330.498 168.739 333.03 166 333.03 166C333.907 167.7 334.409 169.568 334.503 171.478C334.484 174.217 331.961 176.328 331.961 176.328Z" fill="#5000A0" stroke="#263238" stroke-width="1.76484" stroke-linecap="round" stroke-linejoin="round"/>
<path d="M323.528 220.836C325.621 220.836 327.318 219.891 327.318 218.726C327.318 217.56 325.621 216.615 323.528 216.615C321.435 216.615 319.739 217.56 319.739 218.726C319.739 219.891 321.435 220.836 323.528 220.836Z" fill="white" stroke="#263238" stroke-width="1.76484" stroke-linecap="round" stroke-linejoin="round"/>
<path d="M301.607 219.533C301.607 220.705 299.909 221.643 297.855 221.643C295.801 221.643 294.056 220.705 294.056 219.533C294.056 218.36 295.754 217.431 297.855 217.431C299.956 217.431 301.607 218.398 301.607 219.533Z" fill="white" stroke="#263238" stroke-width="1.76484" stroke-linecap="round" stroke-linejoin="round"/>
<path d="M305.19 220.827C305.19 221.99 303.492 222.938 301.438 222.938C299.384 222.938 297.639 222 297.639 220.827C297.639 219.655 299.337 218.726 301.438 218.726C303.539 218.726 305.19 219.664 305.19 220.827Z" fill="white" stroke="#263238" stroke-width="1.76484" stroke-linecap="round" stroke-linejoin="round"/>
<path d="M316.99 219.983C316.99 221.146 315.293 222.093 313.238 222.093C311.184 222.093 309.439 221.155 309.439 219.983C309.439 218.81 311.137 217.882 313.238 217.882C315.339 217.882 316.99 218.82 316.99 219.983Z" fill="white" stroke="#263238" stroke-width="1.76484" stroke-linecap="round" stroke-linejoin="round"/>
<path d="M310.668 219.533C310.668 220.705 308.97 221.643 306.916 221.643C304.862 221.643 303.117 220.705 303.117 219.533C303.117 218.36 304.815 217.431 306.916 217.431C309.017 217.431 310.668 218.398 310.668 219.533Z" fill="white" stroke="#263238" stroke-width="1.76484" stroke-linecap="round" stroke-linejoin="round"/>
<path d="M323.528 221.249C323.528 222.412 321.831 223.36 319.729 223.36C317.628 223.36 315.977 222.422 315.977 221.249C315.977 220.077 317.675 219.139 319.729 219.139C321.784 219.139 323.528 220.086 323.528 221.249Z" fill="white" stroke="#263238" stroke-width="1.76484" stroke-linecap="round" stroke-linejoin="round"/>
<path d="M333.012 221.465C333.012 222.628 331.314 223.566 329.26 223.566C327.205 223.566 325.508 222.628 325.508 221.465C325.508 220.302 327.205 219.354 329.26 219.354C331.314 219.354 333.012 220.302 333.012 221.465Z" fill="white" stroke="#263238" stroke-width="1.76484" stroke-linecap="round" stroke-linejoin="round"/>
<path d="M296.551 221.887C296.551 223.05 294.853 223.988 292.752 223.988C290.651 223.988 289 223.05 289 221.887C289 220.724 290.698 219.776 292.752 219.776C294.806 219.776 296.551 220.715 296.551 221.887Z" fill="white" stroke="#263238" stroke-width="1.76484" stroke-linecap="round" stroke-linejoin="round"/>
<path d="M301.401 222.938C301.401 224.101 299.693 225.048 297.602 225.048C295.51 225.048 293.85 224.11 293.85 222.938C293.85 221.765 295.547 220.827 297.602 220.827C299.656 220.827 301.401 221.774 301.401 222.938Z" fill="white" stroke="#263238" stroke-width="1.76484" stroke-linecap="round" stroke-linejoin="round"/>
<path d="M326.267 223.566C326.267 224.729 324.57 225.677 322.515 225.677C320.461 225.677 318.763 224.739 318.763 223.566C318.763 222.394 320.461 221.465 322.515 221.465C324.57 221.465 326.267 222.403 326.267 223.566Z" fill="white" stroke="#263238" stroke-width="1.76484" stroke-linecap="round" stroke-linejoin="round"/>
<path d="M306.663 224.626C308.756 224.626 310.452 223.681 310.452 222.515C310.452 221.35 308.756 220.405 306.663 220.405C304.57 220.405 302.873 221.35 302.873 222.515C302.873 223.681 304.57 224.626 306.663 224.626Z" fill="white" stroke="#263238" stroke-width="1.76484" stroke-linecap="round" stroke-linejoin="round"/>
<path d="M312.357 224.626C314.45 224.626 316.146 223.681 316.146 222.515C316.146 221.35 314.45 220.405 312.357 220.405C310.264 220.405 308.567 221.35 308.567 222.515C308.567 223.681 310.264 224.626 312.357 224.626Z" fill="white" stroke="#263238" stroke-width="1.76484" stroke-linecap="round" stroke-linejoin="round"/>
<path d="M345.028 220.836C347.121 220.836 348.817 219.891 348.817 218.726C348.817 217.56 347.121 216.615 345.028 216.615C342.935 216.615 341.238 217.56 341.238 218.726C341.238 219.891 342.935 220.836 345.028 220.836Z" fill="white" stroke="#263238" stroke-width="1.76484" stroke-linecap="round" stroke-linejoin="round"/>
<path d="M323.106 219.533C323.106 220.705 321.408 221.643 319.354 221.643C317.3 221.643 315.602 220.705 315.602 219.533C315.602 218.36 317.3 217.431 319.354 217.431C321.408 217.431 323.106 218.398 323.106 219.533Z" fill="white" stroke="#263238" stroke-width="1.76484" stroke-linecap="round" stroke-linejoin="round"/>
<path d="M326.69 220.827C326.69 221.99 324.992 222.938 322.937 222.938C320.883 222.938 319.138 222 319.138 220.827C319.138 219.655 320.836 218.726 322.937 218.726C325.039 218.726 326.69 219.664 326.69 220.827Z" fill="white" stroke="#263238" stroke-width="1.76484" stroke-linecap="round" stroke-linejoin="round"/>
<path d="M338.462 219.983C338.462 221.146 336.764 222.093 334.71 222.093C332.655 222.093 330.911 221.155 330.911 219.983C330.911 218.81 332.608 217.882 334.71 217.882C336.811 217.882 338.462 218.82 338.462 219.983Z" fill="white" stroke="#263238" stroke-width="1.76484" stroke-linecap="round" stroke-linejoin="round"/>
<path d="M332.168 219.533C332.168 220.705 330.47 221.643 328.415 221.643C326.361 221.643 324.616 220.705 324.616 219.533C324.616 218.36 326.314 217.431 328.415 217.431C330.517 217.431 332.168 218.398 332.168 219.533Z" fill="white" stroke="#263238" stroke-width="1.76484" stroke-linecap="round" stroke-linejoin="round"/>
<path d="M345.028 221.249C345.028 222.412 343.33 223.36 341.229 223.36C339.128 223.36 337.477 222.422 337.477 221.249C337.477 220.077 339.174 219.139 341.229 219.139C343.283 219.139 345.028 220.086 345.028 221.249Z" fill="white" stroke="#263238" stroke-width="1.76484" stroke-linecap="round" stroke-linejoin="round"/>
<path d="M354.511 221.465C354.511 222.628 352.813 223.566 350.759 223.566C348.705 223.566 346.96 222.628 346.96 221.465C346.96 220.302 348.658 219.354 350.759 219.354C352.86 219.354 354.511 220.302 354.511 221.465Z" fill="white" stroke="#263238" stroke-width="1.76484" stroke-linecap="round" stroke-linejoin="round"/>
<path d="M318.05 221.887C318.05 223.05 316.353 223.988 314.251 223.988C312.15 223.988 310.499 223.05 310.499 221.887C310.499 220.724 312.197 219.776 314.251 219.776C316.306 219.776 318.05 220.715 318.05 221.887Z" fill="white" stroke="#263238" stroke-width="1.76484" stroke-linecap="round" stroke-linejoin="round"/>
<path d="M322.9 222.938C322.9 224.101 321.193 225.048 319.101 225.048C317.009 225.048 315.349 224.11 315.349 222.938C315.349 221.765 317.047 220.827 319.101 220.827C321.155 220.827 322.9 221.774 322.9 222.938Z" fill="white" stroke="#263238" stroke-width="1.76484" stroke-linecap="round" stroke-linejoin="round"/>
<path d="M347.767 223.566C347.767 224.729 346.069 225.677 344.015 225.677C341.96 225.677 340.216 224.739 340.216 223.566C340.216 222.394 341.913 221.465 344.015 221.465C346.116 221.465 347.767 222.403 347.767 223.566Z" fill="white" stroke="#263238" stroke-width="1.76484" stroke-linecap="round" stroke-linejoin="round"/>
<path d="M328.162 224.626C330.255 224.626 331.952 223.681 331.952 222.515C331.952 221.35 330.255 220.405 328.162 220.405C326.069 220.405 324.373 221.35 324.373 222.515C324.373 223.681 326.069 224.626 328.162 224.626Z" fill="white" stroke="#263238" stroke-width="1.76484" stroke-linecap="round" stroke-linejoin="round"/>
<path d="M333.856 224.626C335.949 224.626 337.646 223.681 337.646 222.515C337.646 221.35 335.949 220.405 333.856 220.405C331.763 220.405 330.066 221.35 330.066 222.515C330.066 223.681 331.763 224.626 333.856 224.626Z" fill="white" stroke="#263238" stroke-width="1.76484" stroke-linecap="round" stroke-linejoin="round"/>
<path d="M316.345 244.083H38L93.6716 217.182H260.674L316.345 244.083Z" fill="#440088" stroke="#440088" stroke-width="2.35963" stroke-linecap="round" stroke-linejoin="round"/>
<path d="M172.092 54.1553C172.092 54.1553 173.22 71.2242 171.64 74.1464C170.06 77.0686 160.19 79.3135 154.346 80.2165C148.501 81.1195 140.199 81.5584 137.954 85.6093C135.709 89.6602 136.148 98.8656 139.07 105.826C141.992 112.787 155.7 148.956 155.7 148.956L138.142 191.183C138.142 191.183 162.635 220.844 177.685 225.108C192.735 229.372 212.952 214.548 217.442 208.478C220.179 204.649 221.811 200.141 222.157 195.447L204.888 146.711C204.888 146.711 220.577 109.363 221.706 101.725C222.834 94.0873 223.537 85.2205 217.943 82.7498C212.35 80.2792 200.385 78.6362 196.823 76.8428C193.262 75.0494 191.882 74.1464 191.656 69.4308C191.431 64.7152 191.882 54.381 191.882 54.381C191.882 54.381 177.71 57.3032 172.092 54.1553Z" fill="white"/>
<mask id="mask0_84_376450" style="mask-type:luminance" maskUnits="userSpaceOnUse" x="136" y="54" width="87" height="172">
<path d="M172.092 54.1553C172.092 54.1553 173.22 71.2242 171.64 74.1464C170.06 77.0686 160.19 79.3135 154.346 80.2165C148.501 81.1195 140.199 81.5584 137.954 85.6093C135.709 89.6602 136.148 98.8656 139.07 105.826C141.992 112.787 155.7 148.956 155.7 148.956L138.142 191.183C138.142 191.183 162.635 220.844 177.685 225.108C192.735 229.372 212.952 214.548 217.442 208.478C220.179 204.649 221.811 200.141 222.157 195.447L204.888 146.711C204.888 146.711 220.577 109.363 221.706 101.725C222.834 94.0873 223.537 85.2205 217.943 82.7498C212.35 80.2792 200.385 78.6362 196.823 76.8428C193.262 75.0494 191.882 74.1464 191.656 69.4308C191.431 64.7152 191.882 54.381 191.882 54.381C191.882 54.381 177.71 57.3032 172.092 54.1553Z" fill="white"/>
</mask>
<g mask="url(#mask0_84_376450)">
<path d="M191.631 69.4308C191.406 64.7152 191.857 54.381 191.857 54.381C191.857 54.381 177.71 57.3032 172.092 54.1553C172.092 54.1553 172.995 67.9508 172.092 72.8546C174.554 74.4174 177.344 75.3916 180.244 75.7015C184.47 76.2533 189.023 74.8487 192.497 73.4189C191.938 72.1629 191.643 70.8054 191.631 69.4308Z" fill="#5000A0"/>
<path opacity="0.5" d="M191.631 69.4308C191.406 64.7152 191.857 54.381 191.857 54.381C191.857 54.381 177.71 57.3032 172.092 54.1553C172.092 54.1553 172.995 67.9508 172.092 72.8546C174.554 74.4174 177.344 75.3916 180.244 75.7015C184.47 76.2533 189.023 74.8487 192.497 73.4189C191.938 72.1629 191.643 70.8054 191.631 69.4308Z" fill="white"/>
<path d="M202.655 87.3024L189.324 89.3467C185.561 89.9362 185.197 92.8457 185.197 92.8457" stroke="#263238" stroke-width="2.35963" stroke-linecap="round" stroke-linejoin="round"/>
<path d="M178.525 91.9804C178.525 91.9804 178.212 90.2246 175.352 89.0582C172.493 87.8919 158.835 87.6034 155.976 87.014" stroke="#263238" stroke-width="2.35963" stroke-linecap="round" stroke-linejoin="round"/>
</g>
<path d="M172.092 54.1553C172.092 54.1553 173.22 71.2242 171.64 74.1464C170.06 77.0686 160.19 79.3135 154.346 80.2165C148.501 81.1195 140.199 81.5584 137.954 85.6093C135.709 89.6602 136.148 98.8656 139.07 105.826C141.992 112.787 155.7 148.956 155.7 148.956L138.142 191.183C138.142 191.183 162.635 220.844 177.685 225.108C192.735 229.372 212.952 214.548 217.442 208.478C220.179 204.649 221.811 200.141 222.157 195.447L204.888 146.711C204.888 146.711 220.577 109.363 221.706 101.725C222.834 94.0873 223.537 85.2205 217.943 82.7498C212.35 80.2792 200.385 78.6362 196.823 76.8428C193.262 75.0494 191.882 74.1464 191.656 69.4308C191.431 64.7152 191.882 54.381 191.882 54.381C191.882 54.381 177.71 57.3032 172.092 54.1553Z" stroke="#263238" stroke-width="2.35963" stroke-linecap="round" stroke-linejoin="round"/>
<path d="M214.131 123.861C209.917 119.12 204.599 111.006 204.7 101.386C204.63 94.0273 204.981 86.6701 205.753 79.3512C204.273 79.0125 202.843 78.6864 201.552 78.3604C200.297 86.0232 196.234 102.189 183.028 102.39C169.232 102.653 165.808 85.1077 164.956 77.8211C164.203 78.0594 163.413 78.2851 162.623 78.4983C161.833 78.7115 161.03 78.8996 160.227 79.0878C167.439 94.3256 152.514 118.631 147.197 126.495C147.435 127.147 147.686 127.749 147.937 128.438C148 128.589 148.05 128.752 148.112 128.902C148.338 129.479 148.551 130.044 148.765 130.608L148.827 130.759C149.592 132.79 150.357 134.772 151.072 136.641C151.285 137.205 151.499 137.757 151.712 138.283L151.8 138.547L153.054 141.695C153.054 141.87 153.179 142.046 153.254 142.222L155.035 146.912L155.424 147.953L155.713 148.705L155.8 148.919L138.242 191.146C138.242 191.146 162.736 220.806 177.786 225.07C192.835 229.335 213.052 214.511 217.542 208.44C220.28 204.612 221.911 200.104 222.258 195.41L204.888 146.711C204.888 146.711 209.666 135.336 214.131 123.861Z" fill="#5000A0"/>
<mask id="mask1_84_376450" style="mask-type:luminance" maskUnits="userSpaceOnUse" x="138" y="77" width="85" height="149">
<path d="M214.131 123.861C209.917 119.12 204.599 111.006 204.7 101.386C204.63 94.0273 204.981 86.6701 205.753 79.3512C204.273 79.0125 202.843 78.6864 201.552 78.3604C200.297 86.0232 196.234 102.189 183.028 102.39C169.232 102.653 165.808 85.1077 164.956 77.8211C164.203 78.0594 163.413 78.2851 162.623 78.4983C161.833 78.7115 161.03 78.8996 160.227 79.0878C167.439 94.3256 152.514 118.631 147.197 126.495C147.435 127.147 147.686 127.749 147.937 128.438C148 128.589 148.05 128.752 148.112 128.902C148.338 129.479 148.551 130.044 148.765 130.608L148.827 130.759C149.592 132.79 150.357 134.772 151.072 136.641C151.285 137.205 151.499 137.757 151.712 138.283L151.8 138.547L153.054 141.695C153.054 141.87 153.179 142.046 153.254 142.222L155.035 146.912L155.424 147.953L155.713 148.705L155.8 148.919L138.242 191.146C138.242 191.146 162.736 220.806 177.786 225.07C192.835 229.335 213.052 214.511 217.542 208.44C220.28 204.612 221.911 200.104 222.258 195.41L204.888 146.711C204.888 146.711 209.666 135.336 214.131 123.861Z" fill="white"/>
</mask>
<g mask="url(#mask1_84_376450)">
<path opacity="0.15" d="M204.888 146.711C204.888 146.711 209.666 135.336 214.131 123.861C213.104 122.698 212.137 121.484 211.234 120.224C210.192 121.092 209.306 122.131 208.612 123.296C208.612 123.296 205.878 131.197 201.088 135.449C196.297 139.701 188.032 137.569 182.865 136.967C177.698 136.365 170.725 141.218 165.871 132.113C161.118 123.221 156.954 117.239 152.251 118.317C150.433 121.515 148.727 124.174 147.473 126.055C147.473 126.294 147.372 126.545 147.335 126.795C147.536 127.322 147.736 127.861 147.949 128.401C148.012 128.551 148.062 128.714 148.125 128.865C148.351 129.442 148.564 130.006 148.777 130.57L148.84 130.721C149.605 132.753 150.37 134.734 151.085 136.603C151.298 137.167 151.511 137.719 151.724 138.246L151.812 138.509L153.066 141.657C153.066 141.833 153.192 142.008 153.267 142.184L155.048 146.874C155.198 147.288 155.336 147.627 155.437 147.915L155.725 148.668L155.813 148.881L146.582 170.866C146.582 171.418 146.908 171.518 147.573 170.966C150.909 168.245 158.497 163.078 164.579 167.329C170.662 171.581 175.202 179.771 185.524 175.218C195.845 170.665 196.811 160.645 203.746 161.861C206.412 162.414 208.959 163.433 211.271 164.871L204.888 146.711Z" fill="black"/>
</g>
<path d="M214.131 123.861C209.917 119.12 204.599 111.006 204.7 101.386C204.63 94.0273 204.981 86.6701 205.753 79.3512C204.273 79.0125 202.843 78.6864 201.552 78.3604C200.297 86.0232 196.234 102.189 183.028 102.39C169.232 102.653 165.808 85.1077 164.956 77.8211C164.203 78.0594 163.413 78.2851 162.623 78.4983C161.833 78.7115 161.03 78.8996 160.227 79.0878C167.439 94.3256 152.514 118.631 147.197 126.495C147.435 127.147 147.686 127.749 147.937 128.438C148 128.589 148.05 128.752 148.112 128.902C148.338 129.479 148.551 130.044 148.765 130.608L148.827 130.759C149.592 132.79 150.357 134.772 151.072 136.641C151.285 137.205 151.499 137.757 151.712 138.283L151.8 138.547L153.054 141.695C153.054 141.87 153.179 142.046 153.254 142.222L155.035 146.912L155.424 147.953L155.713 148.705L155.8 148.919L138.242 191.146C138.242 191.146 162.736 220.806 177.786 225.07C192.835 229.335 213.052 214.511 217.542 208.44C220.28 204.612 221.911 200.104 222.258 195.41L204.888 146.711C204.888 146.711 209.666 135.336 214.131 123.861Z" stroke="#263238" stroke-width="2.35963" stroke-linecap="round" stroke-linejoin="round"/>
<path d="M208.362 42.3037C208.308 42.2918 208.252 42.2918 208.199 42.3037C210.519 33.5247 208.123 22.2374 203.997 15.0511C198.604 5.61993 192.534 0.452847 187.819 0.452847C183.103 0.452847 181.548 5.61992 181.548 5.61992C181.548 5.61992 179.04 0.2271 171.665 0.00135311C164.291 -0.224393 152.577 27.8559 153.919 39.7703C155.261 51.6847 166.272 57.7423 177.961 59.0842C189.65 60.4261 197.501 57.968 204.687 49.4273C205.583 48.3537 206.338 47.1693 206.932 45.9031C205.753 50.2299 203.006 57.8426 197.877 60.5515C197.804 60.5909 197.74 60.6443 197.688 60.7085C197.636 60.7727 197.598 60.8466 197.574 60.9258C197.551 61.0051 197.544 61.0881 197.552 61.1703C197.561 61.2524 197.586 61.332 197.626 61.4044C197.679 61.5042 197.759 61.5875 197.856 61.645C197.954 61.7026 198.065 61.7321 198.178 61.7304C198.278 61.7349 198.377 61.7133 198.466 61.6677C206.292 57.5165 208.801 43.608 208.901 43.0186C208.913 42.9361 208.909 42.852 208.889 42.7712C208.868 42.6904 208.832 42.6145 208.781 42.5479C208.731 42.4813 208.668 42.4255 208.596 42.3835C208.524 42.3416 208.444 42.3145 208.362 42.3037Z" fill="#263238"/>
<path d="M176.293 7.08727C176.293 7.08727 171.703 2.4971 167.953 9.16916C164.203 15.8412 152.903 35.5062 157.105 42.5671" stroke="white" stroke-width="2.35963" stroke-linecap="round" stroke-linejoin="round"/>
<path d="M183.805 9.1692C183.805 9.1692 185.06 5.00542 191.33 5.83316C197.601 6.6609 207.007 23.617 207.634 32.9604" stroke="white" stroke-width="2.35963" stroke-linecap="round" stroke-linejoin="round"/>
<path d="M166.022 39.3313C166.022 39.3313 164.454 35.5688 163.112 39.557C161.77 43.5452 164.68 47.1948 166.022 48.336C167.364 49.4773 168.279 47.4456 167.828 46.0911C167.376 44.7366 166.022 39.3313 166.022 39.3313Z" fill="white" stroke="#263238" stroke-width="2.35963" stroke-linecap="round" stroke-linejoin="round"/>
<path d="M197.701 39.3313C197.701 39.3313 199.269 35.5688 200.611 39.557C201.953 43.5452 199.043 47.1948 197.701 48.336C196.359 49.4773 195.444 47.4456 195.895 46.0911C196.347 44.7366 197.701 39.3313 197.701 39.3313Z" fill="white" stroke="#263238" stroke-width="2.35963" stroke-linecap="round" stroke-linejoin="round"/>
<path d="M179.729 7.65153C179.729 7.65153 175.24 9.23176 170.75 17.76C166.152 26.2744 164.7 36.1363 166.649 45.6146C168.668 55.284 175.867 60.8901 182.827 61.3415C189.788 61.793 196.748 52.5625 198.103 45.1756C199.457 37.7887 195.858 20.9079 191.581 13.9474C190.338 11.9446 188.586 10.307 186.504 9.20117C184.423 8.0953 182.085 7.56061 179.729 7.65153Z" fill="white"/>
<mask id="mask2_84_376450" style="mask-type:luminance" maskUnits="userSpaceOnUse" x="165" y="7" width="34" height="55">
<path d="M179.729 7.65153C179.729 7.65153 175.24 9.23176 170.75 17.76C166.152 26.2744 164.7 36.1363 166.649 45.6146C168.668 55.284 175.867 60.8901 182.827 61.3415C189.788 61.793 196.748 52.5625 198.103 45.1756C199.457 37.7887 195.858 20.9079 191.581 13.9474C190.338 11.9446 188.586 10.307 186.504 9.20117C184.423 8.0953 182.085 7.56061 179.729 7.65153Z" fill="white"/>
</mask>
<g mask="url(#mask2_84_376450)">
<path d="M196.497 31.3048C196.497 42.0528 195.795 53.8794 186.464 56.9646C177.133 60.0498 171.904 50.3804 169.471 42.0528C167.401 34.9418 168.881 24.2439 169.546 20.331C165.919 28.2372 164.904 37.0929 166.649 45.6146C168.668 55.2841 175.867 60.8901 182.827 61.3416C189.788 61.7931 196.748 52.5626 198.103 45.1756C198.868 40.9617 198.04 33.7253 196.397 26.978C196.472 28.3074 196.497 29.7371 196.497 31.3048Z" fill="#5000A0"/>
<path opacity="0.5" d="M196.497 31.3048C196.497 42.0528 195.795 53.8794 186.464 56.9646C177.133 60.0498 171.904 50.3804 169.471 42.0528C167.401 34.9418 168.881 24.2439 169.546 20.331C165.919 28.2372 164.904 37.0929 166.649 45.6146C168.668 55.2841 175.867 60.8901 182.827 61.3416C189.788 61.7931 196.748 52.5626 198.103 45.1756C198.868 40.9617 198.04 33.7253 196.397 26.978C196.472 28.3074 196.497 29.7371 196.497 31.3048Z" fill="white"/>
<path d="M179.729 7.65161C179.729 7.65161 179.153 16.0419 184.746 19.8545C190.34 23.6671 194.779 22.6261 194.779 22.6261C194.779 22.6261 182.388 7.60145 179.729 7.65161Z" fill="#5000A0"/>
<path opacity="0.5" d="M179.729 7.65161C179.729 7.65161 179.153 16.0419 184.746 19.8545C190.34 23.6671 194.779 22.6261 194.779 22.6261C194.779 22.6261 182.388 7.60145 179.729 7.65161Z" fill="white"/>
</g>
<path d="M179.729 7.65153C179.729 7.65153 175.24 9.23176 170.75 17.76C166.152 26.2744 164.7 36.1363 166.649 45.6146C168.668 55.284 175.867 60.8901 182.827 61.3416C189.788 61.793 196.748 52.5625 198.103 45.1756C199.457 37.7887 195.858 20.9079 191.581 13.9474C190.338 11.9446 188.586 10.307 186.504 9.20117C184.423 8.0953 182.085 7.56061 179.729 7.65153Z" stroke="#263238" stroke-width="2.35963" stroke-linecap="round" stroke-linejoin="round"/>
<path d="M183.555 30.1259C183.292 31.0055 183.292 31.9427 183.555 32.8223C183.994 34.1643 187.141 34.39 186.251 36.1834C185.67 37.2897 184.804 38.2206 183.743 38.8799" stroke="#263238" stroke-width="2.35963" stroke-linecap="round" stroke-linejoin="round"/>
<path d="M181.297 44.7241H184.445" stroke="#263238" stroke-width="2.35963" stroke-linecap="round" stroke-linejoin="round"/>
<path d="M186.715 31.4679C186.715 31.4679 189.637 29.6744 192.108 31.4679" stroke="#263238" stroke-width="2.35963" stroke-linecap="round" stroke-linejoin="round"/>
<path d="M172.092 31.4679C172.092 31.4679 175.014 29.6744 177.485 31.4679" stroke="#263238" stroke-width="2.35963" stroke-linecap="round" stroke-linejoin="round"/>
<path d="M170.073 26.075C171.092 25.083 172.377 24.4072 173.773 24.1291C175.168 23.8509 176.614 23.9823 177.936 24.5073" stroke="#263238" stroke-width="2.35963" stroke-linecap="round" stroke-linejoin="round"/>
<path d="M185.122 24.7332C185.122 24.7332 188.496 22.0367 192.76 25.1847" stroke="#263238" stroke-width="2.35963" stroke-linecap="round" stroke-linejoin="round"/>
<path d="M179.729 7.65161C182.868 11.4564 186.244 15.0588 189.838 18.4373C191.309 19.8154 193.041 20.8841 194.933 21.58C196.824 22.2758 198.836 22.5847 200.849 22.4882C200.849 22.4882 197.087 14.1732 190.515 9.68334C183.943 5.19349 179.729 7.65161 179.729 7.65161Z" fill="#263238" stroke="#263238" stroke-width="2.35963" stroke-linecap="round" stroke-linejoin="round"/>
<path d="M148.012 82.0475C148.012 82.0475 138.681 80.7182 134.681 88.7196C130.68 96.7211 126.34 136.728 126.34 136.728C126.34 136.728 121.324 140.064 115.68 143.4C110.037 146.736 99 153.735 93.3438 155.741C87.6876 157.748 82.671 159.403 82.671 159.403C81.37 157.165 80.2543 154.825 79.335 152.405C78.9964 150.737 75.3343 150.072 73.6663 148.404C71.9983 146.736 69.6655 144.065 69.6655 146.736C69.6655 149.408 69.3269 151.063 71.9983 152.067C74.6696 153.07 76.6637 156.732 76.6637 156.732C76.6637 156.732 62.0027 156.569 62.9935 157.898C64.979 160.537 67.4739 162.75 70.3302 164.407C75.5787 167.17 81.4059 168.652 87.3365 168.734C93.3438 168.734 131.344 156.406 134.342 153.07C137.339 149.734 147.021 114.392 147.021 114.392" fill="white"/>
<mask id="mask3_84_376450" style="mask-type:luminance" maskUnits="userSpaceOnUse" x="62" y="81" width="87" height="88">
<path d="M148.012 82.0475C148.012 82.0475 138.681 80.7182 134.681 88.7196C130.68 96.7211 126.34 136.728 126.34 136.728C126.34 136.728 121.324 140.064 115.68 143.4C110.037 146.736 99 153.735 93.3438 155.741C87.6876 157.748 82.671 159.403 82.671 159.403C81.37 157.165 80.2543 154.825 79.335 152.405C78.9964 150.737 75.3343 150.072 73.6663 148.404C71.9983 146.736 69.6655 144.065 69.6655 146.736C69.6655 149.408 69.3269 151.063 71.9983 152.067C74.6696 153.07 76.6637 156.732 76.6637 156.732C76.6637 156.732 62.0027 156.569 62.9935 157.898C64.979 160.537 67.4739 162.75 70.3302 164.407C75.5787 167.17 81.4059 168.652 87.3365 168.734C93.3438 168.734 131.344 156.406 134.342 153.07C137.339 149.734 147.021 114.392 147.021 114.392" fill="white"/>
</mask>
<g mask="url(#mask3_84_376450)">
<path d="M79.8116 167.856C82.2824 168.411 84.8044 168.705 87.3365 168.734C93.3438 168.734 131.344 156.406 134.342 153.07C137.339 149.734 147.021 114.392 147.021 114.392L147.159 109.764L144.112 105.876C144.112 105.876 132.674 142.987 130.592 146.461C128.51 149.934 104.568 159.29 93.1306 163.454C88.1391 165.273 83.4862 166.753 79.8116 167.856Z" fill="#5000A0"/>
<path opacity="0.5" d="M79.8116 167.856C82.2824 168.411 84.8044 168.705 87.3365 168.734C93.3438 168.734 131.344 156.406 134.342 153.07C137.339 149.734 147.021 114.392 147.021 114.392L147.159 109.764L144.112 105.876C144.112 105.876 132.674 142.987 130.592 146.461C128.51 149.934 104.568 159.29 93.1306 163.454C88.1391 165.273 83.4862 166.753 79.8116 167.856Z" fill="white"/>
</g>
<path d="M148.012 82.0475C148.012 82.0475 138.681 80.7182 134.681 88.7196C130.68 96.7211 126.34 136.728 126.34 136.728C126.34 136.728 121.324 140.064 115.68 143.4C110.037 146.736 99 153.735 93.3438 155.741C87.6876 157.748 82.671 159.403 82.671 159.403C81.37 157.165 80.2543 154.825 79.335 152.405C78.9964 150.737 75.3343 150.072 73.6663 148.404C71.9983 146.736 69.6655 144.065 69.6655 146.736C69.6655 149.408 69.3269 151.063 71.9983 152.067C74.6696 153.07 76.6637 156.732 76.6637 156.732C76.6637 156.732 62.0027 156.569 62.9935 157.898C64.979 160.537 67.4739 162.75 70.3302 164.407C75.5787 167.17 81.4059 168.652 87.3365 168.734C93.3438 168.734 131.344 156.406 134.342 153.07C137.339 149.734 147.021 114.392 147.021 114.392" stroke="#263238" stroke-width="2.35963" stroke-linecap="round" stroke-linejoin="round"/>
<path d="M65.4516 160.319C64.247 159.762 63.1579 158.983 62.241 158.024C61.3129 156.77 60.5479 152.506 61.3129 150.825C62.078 149.144 69.4273 145.921 69.4273 145.921C69.7738 146.902 69.8813 147.951 69.7408 148.981C69.4273 150.361 64.7242 152.355 64.7242 152.355L66.4048 158.475" fill="white"/>
<path d="M65.4516 160.319C64.247 159.762 63.1579 158.983 62.241 158.024C61.3129 156.77 60.5479 152.506 61.3129 150.825C62.078 149.144 69.4273 145.921 69.4273 145.921C69.7738 146.902 69.8813 147.951 69.7408 148.981C69.4273 150.361 64.7242 152.355 64.7242 152.355L66.4048 158.475" stroke="#263238" stroke-width="2.35963" stroke-linecap="round" stroke-linejoin="round"/>
<path d="M69.7408 160.168C68.9708 159.756 68.3328 159.135 67.9002 158.376C67.4676 157.617 67.2579 156.752 67.2952 155.879C67.4457 154.036 67.1322 150.06 65.9156 149.295C64.6991 148.53 63.6206 155.729 63.6206 157.56C63.6206 159.391 66.6807 162 66.6807 162C67.5462 162.46 68.3837 162.971 69.189 163.53" fill="white"/>
<path d="M69.7408 160.168C68.9708 159.756 68.3328 159.135 67.9002 158.376C67.4676 157.617 67.2579 156.752 67.2952 155.879C67.4457 154.036 67.1322 150.06 65.9156 149.295C64.6991 148.53 63.6206 155.729 63.6206 157.56C63.6206 159.391 66.6807 162 66.6807 162C67.5462 162.46 68.3837 162.971 69.189 163.53" stroke="#263238" stroke-width="2.35963" stroke-linecap="round" stroke-linejoin="round"/>
<path d="M73.4155 163.53C72.6435 163.12 72.0038 162.499 71.5709 161.739C71.1379 160.98 70.9295 160.113 70.9699 159.24C71.1204 157.409 70.8068 153.421 69.5903 152.656C68.3738 151.891 67.2952 159.09 67.2952 160.933C67.2952 162.777 69.5903 164.458 69.5903 164.458C69.0385 164.458 70.6187 165.348 73.7164 166.289" fill="white"/>
<path d="M73.4155 163.53C72.6435 163.12 72.0038 162.499 71.5709 161.739C71.1379 160.98 70.9295 160.113 70.9699 159.24C71.1204 157.409 70.8068 153.421 69.5903 152.656C68.3738 151.891 67.2952 159.09 67.2952 160.933C67.2952 162.777 69.5903 164.458 69.5903 164.458C69.0385 164.458 70.6187 165.348 73.7164 166.289" stroke="#263238" stroke-width="2.35963" stroke-linecap="round" stroke-linejoin="round"/>
<path d="M77.4413 163.918C76.7046 163.703 76.0429 163.286 75.5309 162.714C75.0189 162.142 74.6771 161.439 74.5442 160.683C74.3435 159.077 73.29 155.666 72.1488 155.29C71.0075 154.914 71.3586 161.234 71.6973 162.815C72.0359 164.395 75.1462 166.063 75.1462 166.063C75.9574 166.302 76.7532 166.591 77.5291 166.928" fill="white"/>
<path d="M77.4413 163.918C76.7046 163.703 76.0429 163.286 75.5309 162.714C75.0189 162.142 74.6771 161.439 74.5442 160.683C74.3435 159.077 73.29 155.666 72.1488 155.29C71.0075 154.914 71.3586 161.234 71.6973 162.815C72.0359 164.395 75.1462 166.063 75.1462 166.063C75.9574 166.302 76.7532 166.591 77.5291 166.928" stroke="#263238" stroke-width="2.35963" stroke-linecap="round" stroke-linejoin="round"/>
<path d="M210.97 82.0475C210.97 82.0475 220.301 80.7182 224.302 88.7196C228.303 96.7211 232.642 136.728 232.642 136.728C232.642 136.728 237.659 140.064 243.302 143.4C248.946 146.736 259.97 153.735 265.639 155.741C271.307 157.748 276.311 159.403 276.311 159.403C277.615 157.149 278.731 154.792 279.647 152.355C279.986 150.687 283.648 150.022 285.316 148.354C286.984 146.686 289.317 144.015 289.317 146.686C289.317 149.358 289.655 151.013 286.984 152.016C284.313 153.02 282.319 156.682 282.319 156.682C282.319 156.682 296.98 156.519 295.989 157.848C294.003 160.487 291.508 162.7 288.652 164.357C283.404 167.12 277.576 168.602 271.646 168.684C265.639 168.684 227.638 156.356 224.64 153.02C221.643 149.684 211.961 114.342 211.961 114.342" fill="white"/>
<mask id="mask4_84_376450" style="mask-type:luminance" maskUnits="userSpaceOnUse" x="210" y="81" width="87" height="88">
<path d="M210.97 82.0475C210.97 82.0475 220.301 80.7182 224.302 88.7196C228.303 96.7211 232.642 136.728 232.642 136.728C232.642 136.728 237.659 140.064 243.302 143.4C248.946 146.736 259.97 153.735 265.639 155.741C271.307 157.748 276.311 159.403 276.311 159.403C277.615 157.149 278.731 154.792 279.647 152.355C279.986 150.687 283.648 150.022 285.316 148.354C286.984 146.686 289.317 144.015 289.317 146.686C289.317 149.358 289.655 151.013 286.984 152.016C284.313 153.02 282.319 156.682 282.319 156.682C282.319 156.682 296.98 156.519 295.989 157.848C294.003 160.487 291.508 162.7 288.652 164.357C283.404 167.12 277.576 168.602 271.646 168.684C265.639 168.684 227.638 156.356 224.64 153.02C221.643 149.684 211.961 114.342 211.961 114.342" fill="white"/>
</mask>
<g mask="url(#mask4_84_376450)">
<path d="M224.64 153.07C227.638 156.406 265.639 168.734 271.646 168.734C273.174 168.725 274.699 168.612 276.211 168.396C272.262 167.595 268.434 166.284 264.823 164.495C256.157 159.993 231.175 150.273 228.453 146.109C225.732 141.946 219.787 114.555 216.313 112.473C212.839 110.391 215.272 125.303 215.272 125.303V125.88C218.32 136.515 222.772 150.988 224.64 153.07Z" fill="#5000A0"/>
<path opacity="0.5" d="M224.64 153.07C227.638 156.406 265.639 168.734 271.646 168.734C273.174 168.725 274.699 168.612 276.211 168.396C272.262 167.595 268.434 166.284 264.823 164.495C256.157 159.993 231.175 150.273 228.453 146.109C225.732 141.946 219.787 114.555 216.313 112.473C212.839 110.391 215.272 125.303 215.272 125.303V125.88C218.32 136.515 222.772 150.988 224.64 153.07Z" fill="white"/>
</g>
<path d="M210.97 82.0475C210.97 82.0475 220.301 80.7182 224.302 88.7196C228.303 96.7211 232.642 136.728 232.642 136.728C232.642 136.728 237.659 140.064 243.302 143.4C248.946 146.736 259.97 153.735 265.639 155.741C271.307 157.748 276.311 159.403 276.311 159.403C277.615 157.149 278.731 154.792 279.647 152.355C279.986 150.687 283.648 150.022 285.316 148.354C286.984 146.686 289.317 144.015 289.317 146.686C289.317 149.358 289.655 151.013 286.984 152.016C284.313 153.02 282.319 156.682 282.319 156.682C282.319 156.682 296.98 156.519 295.989 157.848C294.003 160.487 291.509 162.7 288.652 164.357C283.404 167.12 277.576 168.602 271.646 168.684C265.639 168.684 227.638 156.356 224.64 153.02C221.643 149.684 211.961 114.342 211.961 114.342" stroke="#263238" stroke-width="2.35963" stroke-linecap="round" stroke-linejoin="round"/>
<path d="M293.531 160.319C294.735 159.762 295.825 158.983 296.741 158.024C297.669 156.77 298.434 152.506 297.669 150.825C296.904 149.144 289.555 145.921 289.555 145.921C289.209 146.902 289.101 147.951 289.242 148.981C289.555 150.361 294.258 152.355 294.258 152.355L292.578 158.475" fill="white"/>
<path d="M293.531 160.319C294.735 159.762 295.825 158.983 296.741 158.024C297.669 156.77 298.434 152.506 297.669 150.825C296.904 149.144 289.555 145.921 289.555 145.921C289.209 146.902 289.101 147.951 289.242 148.981C289.555 150.361 294.258 152.355 294.258 152.355L292.578 158.475" stroke="#263238" stroke-width="2.35963" stroke-linecap="round" stroke-linejoin="round"/>
<path d="M289.242 160.168C290.012 159.756 290.65 159.135 291.082 158.376C291.515 157.617 291.724 156.752 291.687 155.879C291.537 154.036 291.85 150.06 293.067 149.295C294.283 148.53 295.362 155.729 295.362 157.56C295.362 159.391 292.302 162 292.302 162C291.458 162.462 290.641 162.973 289.856 163.53" fill="white"/>
<path d="M289.242 160.168C290.012 159.756 290.65 159.135 291.082 158.376C291.515 157.617 291.724 156.752 291.687 155.879C291.537 154.036 291.85 150.06 293.067 149.295C294.283 148.53 295.362 155.729 295.362 157.56C295.362 159.391 292.302 162 292.302 162C291.458 162.462 290.641 162.973 289.856 163.53" stroke="#263238" stroke-width="2.35963" stroke-linecap="round" stroke-linejoin="round"/>
<path d="M285.567 163.53C286.339 163.12 286.979 162.499 287.411 161.739C287.844 160.98 288.053 160.113 288.012 159.24C287.862 157.409 288.176 153.421 289.392 152.656C290.609 151.891 291.687 159.09 291.687 160.933C291.687 162.777 289.392 164.458 289.392 164.458C289.944 164.458 288.364 165.348 285.266 166.289" fill="white"/>
<path d="M285.567 163.53C286.339 163.12 286.979 162.499 287.411 161.739C287.844 160.98 288.053 160.113 288.012 159.24C287.862 157.409 288.176 153.421 289.392 152.656C290.609 151.891 291.687 159.09 291.687 160.933C291.687 162.777 289.392 164.458 289.392 164.458C289.944 164.458 288.364 165.348 285.266 166.289" stroke="#263238" stroke-width="2.35963" stroke-linecap="round" stroke-linejoin="round"/>
<path d="M281.541 163.918C282.278 163.703 282.939 163.286 283.451 162.714C283.963 162.142 284.305 161.439 284.438 160.683C284.639 159.077 285.692 155.666 286.834 155.29C287.975 154.914 287.624 161.234 287.285 162.815C286.946 164.395 283.836 166.063 283.836 166.063C283.025 166.302 282.229 166.591 281.453 166.928" fill="white"/>
<path d="M281.541 163.918C282.278 163.703 282.939 163.286 283.451 162.714C283.963 162.142 284.305 161.439 284.438 160.683C284.639 159.077 285.692 155.666 286.834 155.29C287.975 154.914 287.624 161.234 287.285 162.815C286.946 164.395 283.836 166.063 283.836 166.063C283.025 166.302 282.229 166.591 281.453 166.928" stroke="#263238" stroke-width="2.35963" stroke-linecap="round" stroke-linejoin="round"/>
<path d="M217.467 208.478C220.204 204.65 221.836 200.141 222.182 195.447L218.42 184.8C187.643 190.193 152.979 186.054 141.052 184.273L138.167 191.234C138.167 191.234 162.661 220.894 177.71 225.158C192.76 229.422 212.977 214.548 217.467 208.478Z" fill="white"/>
<mask id="mask5_84_376450" style="mask-type:luminance" maskUnits="userSpaceOnUse" x="138" y="184" width="85" height="42">
<path d="M217.467 208.478C220.204 204.65 221.836 200.141 222.182 195.447L218.42 184.8C187.643 190.193 152.979 186.054 141.052 184.273L138.167 191.234C138.167 191.234 162.661 220.894 177.71 225.158C192.76 229.422 212.977 214.548 217.467 208.478Z" fill="white"/>
</mask>
<g mask="url(#mask5_84_376450)">
<path opacity="0.3" d="M217.467 208.478C220.204 204.65 221.836 200.141 222.182 195.447L218.42 184.8C187.643 190.193 152.979 186.054 141.052 184.273L138.167 191.234C138.167 191.234 162.661 220.894 177.71 225.158C192.76 229.422 212.977 214.548 217.467 208.478Z" fill="black"/>
</g>
<path d="M217.467 208.478C220.204 204.65 221.836 200.141 222.182 195.447L218.42 184.8C187.643 190.193 152.979 186.054 141.052 184.273L138.167 191.234C138.167 191.234 162.661 220.894 177.71 225.158C192.76 229.422 212.977 214.548 217.467 208.478Z" stroke="#263238" stroke-width="2.35963" stroke-linecap="round" stroke-linejoin="round"/>
<path d="M197.651 207.374C197.651 207.374 223.926 185.038 245.66 176.447C245.66 176.447 267.658 165.837 272.198 174.177C276.738 182.517 255.267 207.537 248.444 211.802C241.622 216.066 225.443 224.192 214.331 226.463C203.22 228.733 190.503 229.335 183.743 225.697" fill="white"/>
<mask id="mask6_84_376450" style="mask-type:luminance" maskUnits="userSpaceOnUse" x="183" y="170" width="90" height="59">
<path d="M197.651 207.374C197.651 207.374 223.926 185.038 245.66 176.447C245.66 176.447 267.658 165.837 272.198 174.177C276.738 182.517 255.267 207.537 248.444 211.802C241.622 216.066 225.443 224.192 214.331 226.463C203.22 228.733 190.503 229.335 183.743 225.697" fill="white"/>
</mask>
<g mask="url(#mask6_84_376450)">
<path opacity="0.3" d="M196.886 207.274C196.886 207.274 223.926 185.038 245.66 176.447C245.66 176.447 267.658 165.837 272.198 174.177C276.738 182.517 255.267 207.537 248.444 211.802C241.622 216.066 225.443 224.192 214.331 226.462C203.22 228.733 190.503 229.335 183.743 225.697" fill="black"/>
<path opacity="0.3" d="M189.625 225.572C189.625 225.572 209.628 223.666 227.099 216.354C244.569 209.042 250.275 207.788 250.275 207.788C250.275 207.788 237.257 218.9 226.772 223.34C216.903 227.395 206.327 229.45 195.657 229.385C190.014 229.398 184.421 228.316 179.19 226.199L189.625 225.572Z" fill="black"/>
</g>
<path d="M197.651 207.374C197.651 207.374 223.926 185.038 245.66 176.447C245.66 176.447 267.658 165.837 272.198 174.177C276.738 182.517 255.267 207.537 248.444 211.802C241.622 216.066 225.443 224.192 214.331 226.463C203.22 228.733 190.503 229.335 183.743 225.697" stroke="#263238" stroke-width="2.35963" stroke-linecap="round" stroke-linejoin="round"/>
<path d="M176.983 222.098C176.983 222.098 200.912 213.633 215.209 199.047C229.507 184.461 257.211 167.543 266.554 169.286C275.897 171.029 278.218 174.829 274.719 185.59C271.219 196.35 256.044 210.673 241.76 215.351C227.475 220.029 200.624 224.97 189.825 227.014C179.027 229.059 173.772 231.68 160.654 231.68C147.536 231.68 133.514 230.814 129.727 223.227C125.939 215.639 132.059 215.928 145.479 218.561C155.901 220.363 166.421 221.543 176.983 222.098Z" fill="white"/>
<mask id="mask7_84_376450" style="mask-type:luminance" maskUnits="userSpaceOnUse" x="128" y="169" width="149" height="63">
<path d="M176.983 222.098C176.983 222.098 200.912 213.633 215.209 199.047C229.507 184.461 257.211 167.543 266.554 169.286C275.897 171.029 278.218 174.829 274.719 185.59C271.219 196.35 256.044 210.673 241.76 215.351C227.475 220.029 200.624 224.97 189.825 227.014C179.027 229.059 173.772 231.68 160.654 231.68C147.536 231.68 133.514 230.814 129.727 223.227C125.939 215.639 132.059 215.928 145.479 218.561C155.901 220.363 166.421 221.543 176.983 222.098Z" fill="white"/>
</mask>
<g mask="url(#mask7_84_376450)">
<path opacity="0.3" d="M176.983 222.098C176.983 222.098 200.912 213.633 215.209 199.047C229.507 184.461 257.211 167.543 266.554 169.286C275.897 171.029 278.218 174.829 274.719 185.59C271.219 196.35 256.044 210.673 241.76 215.351C227.475 220.029 200.624 224.97 189.825 227.014C179.027 229.059 173.772 231.68 160.654 231.68C147.536 231.68 133.514 230.814 129.727 223.227C125.939 215.639 132.059 215.928 145.479 218.561C155.901 220.363 166.421 221.543 176.983 222.098Z" fill="black"/>
<path opacity="0.3" d="M272.185 170.628C272.185 170.628 274.091 177.613 267.169 187.458C260.246 197.304 230.648 208.779 214.494 214.774C198.341 220.769 174.161 225.246 174.161 225.246L187.505 227.478C187.505 227.478 230.472 220.443 241.86 215.388C253.248 210.334 264.673 201.756 271.019 193.491C277.365 185.226 280.776 175.394 272.185 170.628Z" fill="black"/>
</g>
<path d="M176.983 222.098C176.983 222.098 200.912 213.633 215.209 199.047C229.507 184.461 257.211 167.543 266.554 169.286C275.897 171.029 278.218 174.829 274.719 185.59C271.22 196.35 256.044 210.673 241.76 215.351C227.475 220.029 200.624 224.97 189.825 227.014C179.027 229.059 173.772 231.68 160.654 231.68C147.536 231.68 133.514 230.814 129.727 223.227C125.939 215.639 132.059 215.928 145.479 218.561C155.901 220.363 166.421 221.543 176.983 222.098Z" stroke="#263238" stroke-width="2.35963" stroke-linecap="round" stroke-linejoin="round"/>
<path d="M176.895 222.086C166.384 221.552 155.913 220.388 145.541 218.599C132.122 215.965 125.989 215.677 129.789 223.265C133.589 230.852 147.586 231.717 160.717 231.717C166.915 231.764 173.093 231.018 179.102 229.498C177.664 227.293 176.897 224.718 176.895 222.086Z" fill="white"/>
<mask id="mask8_84_376450" style="mask-type:luminance" maskUnits="userSpaceOnUse" x="128" y="216" width="52" height="16">
<path d="M176.895 222.086C166.384 221.552 155.913 220.388 145.541 218.599C132.122 215.965 125.989 215.677 129.789 223.265C133.589 230.852 147.586 231.717 160.717 231.717C166.915 231.764 173.093 231.018 179.102 229.498C177.664 227.293 176.897 224.718 176.895 222.086Z" fill="white"/>
</mask>
<g mask="url(#mask8_84_376450)">
<path d="M176.895 222.086C166.384 221.552 155.913 220.388 145.541 218.599C132.122 215.965 125.989 215.677 129.789 223.265C133.589 230.852 147.586 231.717 160.717 231.717C166.915 231.764 173.093 231.018 179.102 229.498C177.664 227.293 176.897 224.718 176.895 222.086Z" fill="#5000A0"/>
<path opacity="0.5" d="M176.895 222.086C166.384 221.552 155.913 220.388 145.541 218.599C132.122 215.965 125.989 215.677 129.789 223.265C133.589 230.852 147.586 231.717 160.717 231.717C166.915 231.764 173.093 231.018 179.102 229.498C177.664 227.293 176.897 224.718 176.895 222.086Z" fill="white"/>
</g>
<path d="M176.895 222.086C166.384 221.552 155.913 220.388 145.541 218.599C132.122 215.965 125.989 215.677 129.789 223.265C133.589 230.852 147.586 231.717 160.717 231.717C166.915 231.764 173.093 231.018 179.102 229.498C177.664 227.293 176.897 224.718 176.895 222.086Z" stroke="#263238" stroke-width="2.35963" stroke-linecap="round" stroke-linejoin="round"/>
<path d="M169.508 206.434C152.289 192.137 109.886 163.793 99.3763 163.793C88.8665 163.793 84.7906 175.757 84.7906 175.757C84.7906 175.757 83.6242 180.134 92.3781 188.587C101.132 197.04 127.971 219.816 148.978 225.359C169.985 230.902 175.24 228.269 175.24 228.269" fill="white"/>
<mask id="mask9_84_376450" style="mask-type:luminance" maskUnits="userSpaceOnUse" x="84" y="163" width="92" height="66">
<path d="M169.508 206.434C152.289 192.137 109.886 163.793 99.3763 163.793C88.8665 163.793 84.7906 175.757 84.7906 175.757C84.7906 175.757 83.6242 180.134 92.3781 188.587C101.132 197.04 127.971 219.816 148.978 225.359C169.985 230.902 175.24 228.269 175.24 228.269" fill="white"/>
</mask>
<g mask="url(#mask9_84_376450)">
<path opacity="0.3" d="M170.273 206.346C153.066 192.049 109.886 163.705 99.3763 163.705C88.8665 163.705 84.7906 175.67 84.7906 175.67C84.7906 175.67 83.6242 180.047 92.3781 188.5C101.132 196.952 127.971 219.728 148.978 225.271C169.985 230.814 175.24 228.181 175.24 228.181" fill="black"/>
</g>
<path d="M169.508 206.434C152.289 192.137 109.886 163.793 99.3763 163.793C88.8665 163.793 84.7906 175.757 84.7906 175.757C84.7906 175.757 83.6242 180.134 92.3781 188.587C101.132 197.04 127.971 219.816 148.978 225.359C169.985 230.902 175.24 228.269 175.24 228.269" stroke="#263238" stroke-width="2.35963" stroke-linecap="round" stroke-linejoin="round"/>
<path d="M108.569 175.82C108.569 175.82 130.579 185.665 138.167 191.183C145.755 196.702 162.987 212.755 172.317 217.721C181.648 222.688 190.114 226.174 196.535 226.174C202.956 226.174 233.871 222.098 238.837 224.719C243.804 227.341 236.216 233.498 229.507 235.806C222.797 238.114 198.002 232.884 189.223 232.307C180.444 231.73 151.009 227.642 130.592 220.631C110.174 213.62 87.1107 187.082 84.4896 182.129C81.8684 177.175 86.6843 171.782 86.6843 171.782" fill="white"/>
<mask id="mask10_84_376450" style="mask-type:luminance" maskUnits="userSpaceOnUse" x="83" y="171" width="158" height="66">
<path d="M108.569 175.82C108.569 175.82 130.579 185.665 138.167 191.183C145.755 196.702 162.987 212.755 172.317 217.721C181.648 222.688 190.114 226.174 196.535 226.174C202.956 226.174 233.871 222.098 238.837 224.719C243.804 227.341 236.216 233.498 229.507 235.806C222.797 238.114 198.002 232.884 189.223 232.307C180.444 231.73 151.009 227.642 130.592 220.631C110.174 213.62 87.1107 187.082 84.4896 182.129C81.8684 177.175 86.6843 171.782 86.6843 171.782" fill="white"/>
</mask>
<g mask="url(#mask10_84_376450)">
<path opacity="0.3" d="M109.297 175.707C109.297 175.707 130.617 185.665 138.142 191.183C145.667 196.702 162.962 212.755 172.292 217.721C181.623 222.688 190.089 226.174 196.51 226.174C202.931 226.174 233.846 222.098 238.812 224.719C243.779 227.34 236.191 233.498 229.481 235.806C222.772 238.114 198.002 232.884 189.223 232.307C180.444 231.73 151.01 227.641 130.592 220.631C110.174 213.62 87.1107 187.082 84.4896 182.128C81.8684 177.175 88.252 171.042 88.252 171.042" fill="black"/>
<path opacity="0.3" d="M85.4552 172.534C85.4552 172.534 87.048 180.473 99.4264 190.318C111.805 200.163 161.996 220.167 174.675 223.34C187.355 226.513 196.899 226.525 197.852 227.102C198.805 227.679 200.072 232.508 194.679 232.821C189.286 233.135 166.097 231.567 145.454 226.789C124.81 222.01 104.167 208.052 96.5419 200.753C88.9167 193.453 82.6209 185.239 81.9687 180.159C81.7934 178.691 82.0261 177.202 82.6411 175.857C83.2561 174.512 84.2298 173.362 85.4552 172.534Z" fill="black"/>
</g>
<path d="M108.569 175.82C108.569 175.82 130.579 185.665 138.167 191.183C145.755 196.702 162.987 212.755 172.317 217.721C181.648 222.688 190.114 226.174 196.535 226.174C202.956 226.174 233.871 222.098 238.837 224.719C243.804 227.341 236.216 233.498 229.507 235.806C222.797 238.114 198.002 232.884 189.223 232.307C180.444 231.73 151.009 227.642 130.592 220.631C110.174 213.62 87.1107 187.082 84.4896 182.129C81.8684 177.175 86.6843 171.782 86.6843 171.782" stroke="#263238" stroke-width="2.35963" stroke-linecap="round" stroke-linejoin="round"/>
<path d="M238.837 224.719C233.821 222.098 202.956 226.174 196.535 226.174C195.519 226.166 194.505 226.086 193.5 225.936C193.502 228.264 192.859 230.547 191.644 232.533C201.865 233.686 223.324 237.95 229.507 235.806C236.216 233.473 243.791 227.34 238.837 224.719Z" fill="white"/>
<mask id="mask11_84_376450" style="mask-type:luminance" maskUnits="userSpaceOnUse" x="191" y="223" width="50" height="14">
<path d="M238.837 224.719C233.821 222.098 202.956 226.174 196.535 226.174C195.519 226.166 194.505 226.086 193.5 225.936C193.502 228.264 192.859 230.547 191.644 232.533C201.865 233.686 223.324 237.95 229.507 235.806C236.216 233.473 243.791 227.34 238.837 224.719Z" fill="white"/>
</mask>
<g mask="url(#mask11_84_376450)">
<path d="M238.837 224.719C233.821 222.098 202.956 226.174 196.535 226.174C195.519 226.166 194.505 226.086 193.5 225.936C193.502 228.264 192.859 230.547 191.644 232.533C201.865 233.686 223.324 237.95 229.507 235.806C236.216 233.473 243.791 227.34 238.837 224.719Z" fill="#5000A0"/>
<path opacity="0.5" d="M238.837 224.719C233.821 222.098 202.956 226.174 196.535 226.174C195.519 226.166 194.505 226.086 193.5 225.936C193.502 228.264 192.859 230.547 191.644 232.533C201.865 233.686 223.324 237.95 229.507 235.806C236.216 233.473 243.791 227.34 238.837 224.719Z" fill="white"/>
</g>
<path d="M238.837 224.719C233.821 222.098 202.956 226.174 196.535 226.174C195.519 226.166 194.505 226.086 193.5 225.936C193.502 228.264 192.859 230.547 191.644 232.533C201.865 233.686 223.324 237.95 229.507 235.806C236.216 233.473 243.791 227.34 238.837 224.719Z" stroke="#263238" stroke-width="2.35963" stroke-linecap="round" stroke-linejoin="round"/>
<path d="M168.944 57.529C163.325 63.5195 157.402 69.2166 151.198 74.598C139.522 84.9321 140.199 109.865 143.786 116.825C147.372 123.786 155.913 124.25 157.042 130.081C158.171 135.913 160.804 146.486 166.247 151.201C171.69 155.917 182.877 159.065 185.06 140.416C187.242 121.766 180.043 106.102 174.863 97.1099C169.684 88.1177 171.803 58.4195 171.803 58.4195L168.944 57.529Z" fill="#263238" stroke="#263238" stroke-width="2.35963" stroke-linecap="round" stroke-linejoin="round"/>
<path d="M154.458 82.5367C148.451 91.2404 143.949 102.076 150.834 110.592C157.932 119.371 173.797 131.912 173.409 141.482C173.02 151.051 165.482 147.752 162.974 139.801" stroke="white" stroke-width="2.35963" stroke-linecap="round" stroke-linejoin="round"/>
<path d="M169.621 58.8458C168.806 64.3014 165.482 69.2803 161.87 73.3061C160.742 74.5603 159.525 75.9524 158.271 77.4824" stroke="white" stroke-width="2.35963" stroke-linecap="round" stroke-linejoin="round"/>
<path d="M180.532 129.367C181.185 130.971 181.607 132.66 181.786 134.383" stroke="white" stroke-width="2.35963" stroke-linecap="round" stroke-linejoin="round"/>
<path d="M169.157 68.854C169.157 68.854 158.296 82.2106 160.378 97.6993C161.946 109.313 172.48 116.211 178.149 124.952" stroke="white" stroke-width="2.35963" stroke-linecap="round" stroke-linejoin="round"/>
<path d="M200.662 119.039C200.432 118.969 200.203 118.899 199.973 118.829C199.32 118.335 198.449 118.257 197.755 118.631C196.956 119.06 196.533 120.012 196.751 120.942C196.61 120.868 196.47 120.794 196.33 120.72C196.199 119.669 196.745 118.657 197.661 118.222C198.686 117.735 199.965 118.068 200.662 119.039Z" fill="white"/>
<path d="M196.755 121.783C196.984 121.853 197.214 121.923 197.443 121.993C198.097 122.487 198.968 122.565 199.662 122.191C200.461 121.762 200.883 120.81 200.666 119.88C200.806 119.954 200.946 120.028 201.086 120.102C201.217 121.153 200.671 122.165 199.755 122.6C198.731 123.087 197.451 122.754 196.755 121.783Z" fill="white"/>
<path d="M197.521 119.016C197.453 119.077 197.376 119.154 197.299 119.249C197.226 119.341 197.169 119.429 197.124 119.506C197.576 119.36 198.568 119.109 199.775 119.378C200.695 119.583 201.352 120.004 201.713 120.277C201.768 120.238 201.827 120.192 201.888 120.137C201.927 120.101 201.962 120.066 201.993 120.032C201.634 119.739 200.889 119.211 199.798 118.981C198.794 118.769 197.964 118.909 197.521 119.016Z" fill="white"/>
<path d="M199.891 121.789C199.96 121.728 200.037 121.651 200.113 121.556C200.187 121.464 200.244 121.376 200.288 121.299C199.836 121.445 198.845 121.696 197.638 121.427C196.717 121.222 196.061 120.801 195.7 120.528C195.645 120.567 195.585 120.613 195.525 120.668C195.486 120.704 195.451 120.739 195.42 120.774C195.778 121.066 196.524 121.594 197.615 121.824C198.619 122.036 199.449 121.897 199.891 121.789Z" fill="white"/>
<path d="M196.284 119.459L196.155 119.95C196.033 120.022 195.904 120.107 195.77 120.206C195.573 120.352 195.407 120.5 195.268 120.638C195.179 120.557 195.089 120.476 195 120.395C195.183 120.217 195.407 120.023 195.677 119.833C195.89 119.682 196.096 119.559 196.284 119.459Z" fill="white"/>
<path d="M201.141 121.327L201.269 120.837C201.391 120.764 201.521 120.679 201.654 120.58C201.851 120.434 202.018 120.286 202.156 120.148C202.246 120.229 202.335 120.31 202.425 120.392C202.242 120.57 202.017 120.763 201.748 120.954C201.534 121.105 201.329 121.228 201.141 121.327Z" fill="white"/>
<path d="M198.712 121.234C199.17 121.234 199.541 120.863 199.541 120.405C199.541 119.947 199.17 119.576 198.712 119.576C198.254 119.576 197.883 119.947 197.883 120.405C197.883 120.863 198.254 121.234 198.712 121.234Z" fill="white"/>
<path d="M199.027 120.3C199.143 120.3 199.237 120.206 199.237 120.09C199.237 119.974 199.143 119.88 199.027 119.88C198.911 119.88 198.817 119.974 198.817 120.09C198.817 120.206 198.911 120.3 199.027 120.3Z" fill="#5000A0"/>
<path d="M196.511 120.638C196.339 119.196 197.584 117.96 199.028 118.197C199.473 118.268 199.895 118.475 200.221 118.786C199.887 118.488 199.467 118.288 199.024 118.225C197.589 118.008 196.384 119.211 196.511 120.638Z" fill="#5000A0"/>
<path d="M200.906 120.185C201.077 121.627 199.833 122.863 198.388 122.625C197.943 122.555 197.521 122.348 197.195 122.037C197.529 122.335 197.95 122.534 198.393 122.598C199.827 122.815 201.032 121.612 200.906 120.185Z" fill="#5000A0"/>
<path d="M197.49 119.215C198.77 118.857 200.19 119.061 201.319 119.763C201.48 119.863 201.635 119.972 201.783 120.09C201.633 119.975 201.477 119.868 201.314 119.771C200.183 119.079 198.772 118.879 197.49 119.215Z" fill="#5000A0"/>
<path d="M199.926 121.583C198.646 121.941 197.227 121.736 196.098 121.034C195.937 120.935 195.782 120.825 195.634 120.708C195.784 120.823 195.94 120.93 196.102 121.027C197.234 121.719 198.645 121.919 199.926 121.583Z" fill="#5000A0"/>
<path d="M195.216 120.411C195.485 120.153 195.789 119.929 196.116 119.75C195.801 119.95 195.501 120.171 195.216 120.411Z" fill="#5000A0"/>
<path d="M202.238 120.357C201.969 120.615 201.666 120.838 201.339 121.018C201.653 120.818 201.954 120.597 202.238 120.357Z" fill="#5000A0"/>
</svg>
