<svg width="247" height="275" viewBox="0 0 247 275" fill="none" xmlns="http://www.w3.org/2000/svg">
<path d="M209.498 239.848C209.677 239.845 210.035 239.255 209.576 239.639C209.564 239.713 209.538 239.784 209.498 239.848Z" fill="#5000A0"/>
<path d="M211.803 231.547C211.362 232.046 211.027 232.629 210.819 233.26C210.655 234.526 210.697 235.799 210.395 237.063C210.325 237.383 210.247 237.701 210.151 238.012C210.015 238.858 209.796 239.688 209.497 240.491C210.595 238.98 211.496 237.336 212.178 235.597C212.705 234.18 213.436 231.788 212.757 230.338C212.765 230.291 211.824 231.516 211.803 231.547Z" fill="#5000A0"/>
<path opacity="0.2" d="M211.803 231.547C211.362 232.046 211.027 232.629 210.819 233.26C210.655 234.526 210.697 235.799 210.395 237.063C210.325 237.383 210.247 237.701 210.151 238.012C210.015 238.858 209.796 239.688 209.497 240.491C210.595 238.98 211.496 237.336 212.178 235.597C212.705 234.18 213.436 231.788 212.757 230.338C212.765 230.291 211.824 231.516 211.803 231.547Z" fill="black"/>
<path d="M209.881 238.951C209.865 238.994 209.716 239.394 209.626 239.638C210.05 239.241 209.692 239.831 209.548 239.846C209.588 239.783 209.614 239.712 209.626 239.638C209.6 239.707 209.501 239.76 209.415 239.857C207.616 241.701 205.346 243.017 202.852 243.663C202.41 243.786 201.953 244.724 201.717 245.092C201.609 245.25 200.937 246.683 200.851 246.7C204.461 246.152 207.251 243.734 209.3 240.833C209.348 240.703 209.458 240.595 209.541 240.477C209.84 239.675 210.06 238.844 210.196 237.998C210.09 238.335 209.991 238.655 209.881 238.951Z" fill="#5000A0"/>
<path d="M36.0304 256.067C84.0708 281.187 161.965 281.187 210.005 256.067C258.046 230.947 258.046 190.28 210.005 165.183C161.965 140.085 84.0708 140.063 36.0304 165.183C-12.0101 190.303 -12.0101 230.969 36.0304 256.067Z" fill="#240047"/>
<path d="M194.11 33.0769L199.742 36.3324C199.742 36.0759 199.699 35.8316 199.699 35.5872V33.9503C199.699 31.0491 201.733 29.8703 204.249 31.324C205.331 31.9872 206.256 32.877 206.961 33.932C207.377 30.2673 210.241 28.9236 213.717 30.9331C217.479 33.1013 220.527 38.3846 220.527 42.7273V45.1704C220.551 46.1443 220.355 47.111 219.953 47.9984L224.607 50.698C225.341 51.1775 225.952 51.8234 226.391 52.5832C226.829 53.343 227.082 54.1954 227.129 55.0712C227.129 56.6837 225.999 57.3372 224.607 56.531L194.11 38.9038C193.376 38.4243 192.765 37.7784 192.327 37.0186C191.888 36.2588 191.635 35.4064 191.588 34.5306C191.588 32.9242 192.718 32.2707 194.11 33.0769Z" fill="#440088"/>
<path d="M170.009 49.4887L174.284 51.9318C174.284 51.7364 174.248 51.5531 174.248 51.3638V50.1422C174.248 47.9495 175.787 47.0883 177.686 48.1572C178.502 48.6577 179.2 49.3286 179.733 50.1239C180.044 47.3692 182.206 46.3431 184.833 47.8579C187.673 49.5009 189.975 53.4832 189.975 56.7631V58.5955C189.994 59.3303 189.844 60.0597 189.536 60.7271L193.066 62.7671C193.622 63.1272 194.084 63.6138 194.415 64.1871C194.747 64.7605 194.937 65.4041 194.972 66.0653C194.972 67.2869 194.123 67.7755 193.066 67.1709L170.033 53.868C169.479 53.5068 169.017 53.0199 168.686 52.4468C168.355 51.8737 168.164 51.2306 168.128 50.5698C168.103 49.3726 168.958 48.8779 170.009 49.4887Z" fill="#440088"/>
<path d="M73.6703 198.221C73.2427 198.453 65.4247 200.664 62.5296 196.846C59.6344 193.029 64.4413 187.074 61.7233 184.857C59.0053 182.64 51.3889 184.881 49.5565 180.239C47.7242 175.597 53.1601 173.624 50.1062 168.964C48.1823 166.026 42.7768 164.408 43.0456 161.671C43.4059 157.677 50.7598 156.602 57.1852 160.877C63.6107 165.153 66.6035 161.653 68.6435 161.366C70.6835 161.079 75.0812 161.714 74.9346 168.872C74.788 176.031 73.6703 198.221 73.6703 198.221Z" fill="#8000FF"/>
<path d="M74.183 188.039C74.083 188.039 73.9864 188.003 73.9103 187.938C73.8342 187.873 73.7837 187.783 73.7677 187.685C71.5261 174.095 55.7374 163.039 47.504 160.67C47.3956 160.637 47.3044 160.563 47.2506 160.463C47.1968 160.364 47.1847 160.247 47.2169 160.138C47.2316 160.084 47.2571 160.034 47.2917 159.99C47.3263 159.946 47.3695 159.91 47.4185 159.883C47.4675 159.856 47.5215 159.84 47.5771 159.834C47.6327 159.829 47.6889 159.834 47.7422 159.851C56.1405 162.294 72.2896 173.606 74.5862 187.544C74.5958 187.599 74.5944 187.655 74.582 187.71C74.5697 187.764 74.5466 187.816 74.5142 187.861C74.4819 187.907 74.4408 187.945 74.3933 187.975C74.3459 188.004 74.2931 188.024 74.238 188.033L74.183 188.039Z" fill="white"/>
<path d="M55.5663 176.666C55.4723 176.669 55.38 176.64 55.3043 176.584C55.2285 176.528 55.1736 176.449 55.1483 176.358C55.123 176.267 55.1288 176.171 55.1647 176.084C55.2006 175.997 55.2646 175.925 55.3464 175.878C55.603 175.725 61.6803 172.171 67.666 173.832C67.7735 173.864 67.8644 173.936 67.9191 174.034C67.9737 174.132 67.9877 174.247 67.9581 174.355C67.9285 174.463 67.8575 174.556 67.7606 174.612C67.6637 174.668 67.5486 174.684 67.44 174.657C61.8085 173.093 55.8351 176.574 55.7801 176.611C55.7146 176.647 55.6411 176.666 55.5663 176.666Z" fill="white"/>
<path d="M135.145 153.188C132.092 149.108 128.292 141.308 127.45 131.431C126.552 120.865 128.806 111.764 134.748 109.828C140.288 107.996 143.654 114.891 141.589 126.423C140.142 134.516 139.531 143.922 142.151 152.302L144.539 163.809L135.145 153.188Z" fill="#BA68C8"/>
<path d="M135.145 153.188C132.092 149.108 128.292 141.308 127.45 131.431C126.552 120.865 128.806 111.764 134.748 109.828C140.288 107.996 143.654 114.891 141.589 126.423C140.142 134.516 139.531 143.922 142.151 152.302L144.539 163.809L135.145 153.188Z" fill="#8000FF"/>
<path d="M138.102 155.753C138.158 155.704 138.198 155.639 138.216 155.567C138.233 155.495 138.227 155.419 138.199 155.35C132.702 141.393 131.224 123.638 134.785 114.049C134.802 114.004 134.811 113.957 134.809 113.909C134.808 113.861 134.797 113.814 134.777 113.771C134.757 113.728 134.729 113.689 134.693 113.657C134.658 113.625 134.616 113.6 134.571 113.584C134.482 113.551 134.383 113.553 134.296 113.592C134.209 113.631 134.141 113.703 134.107 113.792C130.491 123.534 131.963 141.509 137.527 155.612C137.544 155.657 137.57 155.698 137.603 155.733C137.636 155.768 137.675 155.795 137.719 155.815C137.763 155.834 137.81 155.845 137.858 155.845C137.906 155.846 137.953 155.838 137.998 155.82L138.102 155.753Z" fill="white"/>
<path d="M145.816 153.646C149.434 154.691 153.263 154.769 156.92 153.872C163.26 152.406 164.738 148.491 164.738 148.491C164.738 148.491 160.127 143.849 156.108 143.647C156.108 143.647 162.319 142.499 168.171 143.708C168.171 143.708 171.835 142.291 171.035 136.147C171.035 136.147 167.523 133.704 159.559 134.797C159.559 134.797 163.51 131.908 170.51 130.961C171.066 130.961 170.186 122.954 169.459 119.393C168.733 115.832 167.413 116.406 164.573 116.76C161.733 117.115 152.742 120.242 151.698 122.319C150.653 124.395 151.802 129.581 151.802 129.581C151.802 129.581 149.139 127.461 148.516 124.853C146.504 125.069 144.606 125.891 143.074 127.211C140.582 129.398 141.339 130.735 142.194 132.848C143.042 134.981 144.191 136.98 145.608 138.785C145.608 138.785 142.903 137.863 140.246 131.499C140.246 131.499 137.68 136.44 137.271 139.964C136.862 143.488 140.276 150.873 145.816 153.646Z" fill="#8000FF"/>
<path d="M145.938 153.982C146.001 153.957 146.055 153.914 146.094 153.859C146.134 153.803 146.156 153.738 146.158 153.67C146.928 141.729 160.114 122.881 166.015 119.045C166.055 119.019 166.089 118.985 166.116 118.946C166.143 118.906 166.162 118.862 166.172 118.815C166.182 118.768 166.183 118.72 166.174 118.673C166.165 118.626 166.147 118.581 166.121 118.541C166.095 118.501 166.062 118.466 166.022 118.439C165.983 118.412 165.938 118.393 165.892 118.383C165.845 118.373 165.797 118.373 165.75 118.381C165.702 118.39 165.658 118.408 165.618 118.434C159.62 122.331 146.219 141.491 145.462 153.621C145.459 153.669 145.466 153.716 145.482 153.761C145.498 153.805 145.522 153.846 145.554 153.882C145.586 153.917 145.624 153.945 145.667 153.966C145.71 153.986 145.756 153.998 145.804 154C145.849 154.004 145.895 153.998 145.938 153.982Z" fill="white"/>
<path d="M117.503 76.986C119.986 76.8052 122.478 76.8052 124.961 76.986C131.626 77.5874 134.793 81.9975 138.542 86.0067C144.435 92.281 159.81 110.483 164.06 115.865L151.1 122.771L123.818 100.329L117.503 76.986Z" fill="#FFA8A7"/>
<path d="M78.9952 151.858C74.2444 161.45 62.5375 190.266 57.947 210.191C53.5971 228.864 51.9332 241.794 57.947 246.274C63.8205 250.674 81.3005 248.038 92.2556 224.715C95.6835 217.418 108.593 194.886 108.593 194.886C108.593 194.886 118.145 191.438 121.442 188.872C121.442 188.872 153.305 189.795 168.781 186.627C184.256 183.46 189.969 163.845 183.635 161.981C172.239 158.623 160.763 156.909 135.064 155.255L78.9952 151.858Z" fill="#5000A0"/>
<path opacity="0.2" d="M151.722 170.971C144.706 172.595 136.146 177.226 130.413 180.433C130.767 178.38 130.702 176.276 130.222 174.249C129.898 176.981 129.018 179.617 127.636 181.997C126.684 182.538 125.872 182.999 125.281 183.28C121.412 185.284 110.778 190.697 108.803 188.983C105.833 185.152 101.618 182.479 96.886 181.425C100.214 183.671 109.916 190.586 106.448 198.605L108.543 194.926C108.543 194.926 118.095 191.478 121.392 188.913C121.392 188.913 139.203 189.434 154.658 188.361L165.954 170.981C165.954 170.981 161.414 168.716 151.722 170.971Z" fill="black"/>
<path d="M101.186 207.926C101.186 207.926 90.3112 211.023 76.1287 220.615C76.1287 220.615 87.1539 209.119 102.69 205.28L101.186 207.926Z" fill="#263238"/>
<path d="M121.643 188.03C117.634 189.925 112.001 190.747 108.803 188.983C105.606 187.219 100.785 185.394 96.7759 191.629C92.2255 198.695 83.746 201.261 78.5141 204.308C73.2821 207.355 72.5905 214.13 73.2721 219.152C74.4147 227.641 77.8024 220.976 82.0221 217.147C86.2418 213.318 98.8908 209.179 104.073 207.224C109.254 205.27 108.673 204.618 122.635 200.629L121.643 188.03Z" fill="#FFA8A7"/>
<path d="M180.087 161.169C199.742 165.078 196.564 176.825 189.238 183.219C181.369 190.045 157.976 194.355 146.55 196.36C135.124 198.364 119.377 201.722 119.377 201.722C117.107 197.859 116.339 193.295 117.223 188.902C130.413 184.663 150.018 169.568 165.964 170.971L180.087 161.169Z" fill="#5000A0"/>
<path d="M124.69 200.108C128.158 198.665 133.25 196.59 135.014 193.383C136.778 190.175 140.887 186.717 147.613 189.845C155.25 193.383 163.79 191.007 169.834 190.787C175.877 190.566 180.087 195.918 182.202 200.519C185.78 208.307 179.345 204.528 173.713 203.526C168.08 202.524 154.669 203.656 149.517 205.15C144.365 206.643 131.476 212.988 131.476 212.988L124.69 200.108Z" fill="#FFA8A7"/>
<path d="M57.897 246.314C62.2369 249.441 68.0903 253.029 84.4478 247.166C100.805 241.302 133.691 212.847 133.691 212.847C133.691 212.847 134.172 200.639 124.57 199.406C124.57 199.406 116.401 202.163 103.161 207.174C97.1875 209.452 91.3392 212.045 85.6405 214.942C78.2336 228.724 67.8598 225.135 65.0434 229.977C62.1055 235.162 59.7106 240.637 57.897 246.314Z" fill="#5000A0"/>
<path d="M132.438 121.288C133.219 128.534 135.014 155.285 135.014 155.285C129.381 174.249 85.6906 170.44 77.2512 155.556C81.9219 144.661 87.0938 138.146 90.4815 134.508L82.7238 112.858C82.7238 112.858 81.7916 110.643 81.8117 110.623C82.3329 109.741 93.1577 97.5331 82.8841 78.1487L96.8561 76.8758L117.323 76.2844C121.783 76.535 124.961 76.966 124.961 76.966C127.817 79.6321 132.327 86.989 135.244 94.4561C137.128 99.3072 139.163 107.005 132.438 121.288Z" fill="#F5F5F5"/>
<path d="M95.7937 148.75C100.484 145.804 113.835 139.419 119.468 138.587C123.277 138.036 129.982 139.078 133.931 139.82C133.63 135.66 133.31 131.341 133.009 127.792L126.875 127.121C126.875 127.121 123.237 116.466 119.468 115.093C115.699 113.72 113.053 121.658 109.696 126.359C106.338 131.06 94.2402 130.368 94.2402 130.368L86.4423 111.565C86.4423 111.565 89.2487 97.1522 88.2264 89.204L86.9234 89.8856C86.7731 97.1165 85.0276 104.225 81.8117 110.703L82.7238 112.938L90.4815 134.588C87.0938 138.196 81.9219 144.711 77.2512 155.636C82.9443 165.659 104.704 170.671 119.979 167.022C106.368 168.145 93.9795 164.567 91.8146 160.658C89.6496 156.749 91.103 151.697 95.7937 148.75Z" fill="#E0E0E0"/>
<path d="M113.735 65.8605H105.646C102.308 65.8619 99.0018 65.2053 95.9173 63.9284C92.8329 62.6515 90.0302 60.7792 87.6697 58.4186C85.3091 56.0581 83.4369 53.2555 82.16 50.171C80.883 47.0865 80.2265 43.7806 80.2278 40.4423C80.2278 32.627 83.3324 25.1319 88.8586 19.6056C94.3849 14.0794 101.88 10.9748 109.695 10.9748C117.511 10.9748 125.006 14.0794 130.532 19.6056C136.058 25.1319 139.163 32.627 139.163 40.4423C139.163 43.7811 138.505 47.0872 137.227 50.1717C135.949 53.2563 134.076 56.0588 131.714 58.4193C129.353 60.7797 126.55 62.6518 123.465 63.9286C120.38 65.2054 117.073 65.8619 113.735 65.8605Z" fill="#5000A0"/>
<path opacity="0.5" d="M113.735 65.8605H105.646C102.308 65.8619 99.0018 65.2053 95.9173 63.9284C92.8329 62.6515 90.0302 60.7792 87.6697 58.4186C85.3091 56.0581 83.4369 53.2555 82.16 50.171C80.883 47.0865 80.2265 43.7806 80.2278 40.4423C80.2278 32.627 83.3324 25.1319 88.8586 19.6056C94.3849 14.0794 101.88 10.9748 109.695 10.9748C117.511 10.9748 125.006 14.0794 130.532 19.6056C136.058 25.1319 139.163 32.627 139.163 40.4423C139.163 43.7811 138.505 47.0872 137.227 50.1717C135.949 53.2563 134.076 56.0588 131.714 58.4193C129.353 60.7797 126.55 62.6518 123.465 63.9286C120.38 65.2054 117.073 65.8619 113.735 65.8605Z" fill="black"/>
<path d="M100.564 15.451C101.932 9.65402 98.342 3.8455 92.545 2.4773C86.7481 1.10909 80.9396 4.69931 79.5713 10.4963C78.2031 16.2932 81.7934 22.1017 87.5903 23.4699C93.3873 24.8381 99.1958 21.2479 100.564 15.451Z" fill="#5000A0"/>
<path opacity="0.5" d="M100.564 15.451C101.932 9.65402 98.342 3.8455 92.545 2.4773C86.7481 1.10909 80.9396 4.69931 79.5713 10.4963C78.2031 16.2932 81.7934 22.1017 87.5903 23.4699C93.3873 24.8381 99.1958 21.2479 100.564 15.451Z" fill="black"/>
<path d="M128.639 23.8042C131.746 25.6485 135.595 33.4764 135.214 49.8639C134.893 63.7758 130.383 67.2137 128.118 68.206C125.852 69.1982 121.492 68.5969 117.243 67.8852V76.2344C117.243 76.2344 123.116 83.05 122.745 86.8788C122.374 90.7075 114.276 91.6096 108.783 87.8811C103.291 84.1525 98.6701 76.8558 98.6701 76.8558L98.7703 57.6618C98.7703 57.6618 96.2645 60.0874 92.0349 56.3889C88.5368 53.382 87.3541 48.1701 90.0303 45.3636C90.7372 44.7068 91.59 44.2271 92.5186 43.9643C93.4471 43.7014 94.4248 43.6629 95.3712 43.8518C96.3175 44.0406 97.2055 44.4516 97.962 45.0507C98.7185 45.6499 99.3219 46.4201 99.7225 47.2981C99.7225 47.2981 106.498 47.5486 115.509 42.5973C119.019 40.7154 122.037 38.0335 124.318 34.7686C126.599 31.5037 128.079 27.7475 128.639 23.8042Z" fill="#FFA8A7"/>
<path d="M117.223 67.9052C112.752 67.3138 103.551 64.6778 102.118 61.0395C102.695 62.8796 103.821 64.4991 105.345 65.6801C108.092 68.0355 117.223 70.6916 117.223 70.6916V67.9052Z" fill="#F28F8F"/>
<path d="M87.4047 23.2229L80.3185 26.3801C80.088 25.9263 79.9522 25.4305 79.9191 24.9226C79.886 24.4147 79.9564 23.9054 80.126 23.4256C80.2957 22.9457 80.561 22.5053 80.9059 22.1311C81.2509 21.7568 81.6682 21.4565 82.1326 21.2484C83.0968 20.8371 84.1823 20.8128 85.1639 21.1804C86.1455 21.5481 86.9479 22.2795 87.4047 23.2229Z" fill="#5000A0"/>
<path opacity="0.5" d="M87.4047 23.2229L80.3185 26.3801C80.088 25.9263 79.9522 25.4305 79.9191 24.9226C79.886 24.4147 79.9564 23.9054 80.126 23.4256C80.2957 22.9457 80.561 22.5053 80.9059 22.1311C81.2509 21.7568 81.6682 21.4565 82.1326 21.2484C83.0968 20.8371 84.1823 20.8128 85.1639 21.1804C86.1455 21.5481 86.9479 22.2795 87.4047 23.2229Z" fill="black"/>
<path d="M119.468 44.652C119.395 45.3379 119.089 45.9779 118.6 46.4648C118.112 46.9517 117.471 47.2558 116.785 47.3263C116.099 47.3968 115.409 47.2293 114.832 46.8519C114.255 46.4745 113.825 45.9101 113.614 45.2534C114.483 45.8841 115.553 46.1731 116.621 46.0653C117.711 45.9597 118.725 45.4566 119.468 44.652Z" fill="#263238"/>
<path d="M134.472 44.3814C134.299 45.0519 133.901 45.6422 133.343 46.0528C132.786 46.4633 132.103 46.6688 131.412 46.6347C130.72 46.6005 130.062 46.3287 129.547 45.8652C129.033 45.4018 128.694 44.775 128.589 44.0907C129.365 44.8496 130.391 45.2987 131.475 45.3536C132.559 45.4003 133.623 45.0551 134.472 44.3814Z" fill="#263238"/>
<path d="M116.15 38.2573L112.141 40.4423C111.855 39.8992 111.791 39.2663 111.963 38.6772C112.135 38.0881 112.53 37.5889 113.063 37.2851C113.327 37.1343 113.619 37.0398 113.921 37.0074C114.223 36.9749 114.529 37.0053 114.819 37.0966C115.109 37.1879 115.377 37.3381 115.606 37.5379C115.835 37.7376 116.02 37.9825 116.15 38.2573Z" fill="#263238"/>
<path d="M118.416 57.6617L122.655 59.2553C122.563 59.5394 122.414 59.8019 122.218 60.0273C122.022 60.2527 121.783 60.4363 121.515 60.5673C121.246 60.6982 120.954 60.7738 120.656 60.7895C120.358 60.8051 120.059 60.7606 119.779 60.6585C119.208 60.4318 118.748 59.9932 118.494 59.4345C118.24 58.8759 118.212 58.2405 118.416 57.6617Z" fill="#F28F8F"/>
<path d="M135.134 38.558L130.824 37.0345C130.909 36.748 131.051 36.4818 131.242 36.2522C131.434 36.0226 131.67 35.8345 131.936 35.6994C132.203 35.5643 132.494 35.485 132.792 35.4664C133.09 35.4478 133.389 35.4902 133.67 35.5912C134.248 35.8047 134.721 36.2313 134.993 36.7831C135.265 37.335 135.316 37.9701 135.134 38.558Z" fill="#263238"/>
<path d="M123.657 42.5471L124.268 53.7127L130.102 51.7281L123.657 42.5471Z" fill="#F28F8F"/>
<path d="M85.2797 77.9582C81.3968 77.8988 77.6398 79.3342 74.7856 81.9674C70.7163 85.9766 68.852 89.9156 66.1659 98.1344C64.1613 104.258 53.136 142.446 55.0805 146.956C58.0874 153.802 70.0047 150.224 77.6923 147.959C86.3722 145.453 115.128 134.728 116.782 131.381C117.684 129.516 118.075 128.324 118.065 116.286C118.065 111.084 117.934 105.882 117.694 103.026C117.153 96.5408 113.023 96.3203 111.129 101.021C109.235 105.722 106.438 122.911 106.438 122.911L73.653 131.401L85.42 104.078C85.42 104.078 91.8647 87.7406 85.2797 77.9582Z" fill="#FFA8A7"/>
<path d="M164.06 115.855C167.347 120.115 169.071 124.505 164.06 128.133C159.048 131.762 124.459 133.596 119.959 131.14C118.014 130.078 118.024 125.828 118.014 121.388C118.004 116.948 118.014 105.602 118.014 103.026C118.014 100.45 119.468 94.7468 122.174 95.8694C124.88 96.992 128.067 118.311 128.067 118.311C139.684 118.772 156.192 113.009 164.06 115.855Z" fill="#FFA8A7"/>
</svg>
