<svg width="41" height="41" viewBox="0 0 41 41" fill="none" xmlns="http://www.w3.org/2000/svg">
<rect width="41" height="41" rx="20.5" fill="#5000A0"/>
<path d="M23.1575 13.3671C23.0656 13.2749 22.9564 13.2018 22.8362 13.1519C22.7159 13.102 22.587 13.0764 22.4569 13.0764C22.3267 13.0764 22.1978 13.102 22.0776 13.1519C21.9574 13.2018 21.8482 13.2749 21.7563 13.3671L15.1775 19.9458C15.1041 20.0191 15.0459 20.1061 15.0062 20.2018C14.9664 20.2976 14.946 20.4003 14.946 20.504C14.946 20.6076 14.9664 20.7103 15.0062 20.8061C15.0459 20.9018 15.1041 20.9888 15.1775 21.0621L21.7563 27.6408C22.1442 28.0287 22.7696 28.0287 23.1575 27.6408C23.5454 27.2529 23.5454 26.6275 23.1575 26.2396L17.4258 20.5L23.1654 14.7604C23.5454 14.3804 23.5454 13.7471 23.1575 13.3671Z" fill="white" stroke="white" stroke-width="0.2"/>
</svg>
