<svg width="17" height="15" viewBox="0 0 17 15" fill="none" xmlns="http://www.w3.org/2000/svg">
<path d="M15.49 3.45H11.143M3.898 3.45H1M15.49 11.15H12.592M5.347 11.15H1M6.796 5.9C7.129 5.9 7.45874 5.83663 7.76639 5.7135C8.07404 5.59038 8.35358 5.40992 8.58905 5.18241C8.82451 4.95491 9.01129 4.68482 9.13873 4.38757C9.26616 4.09033 9.33175 3.77174 9.33175 3.45C9.33175 3.12826 9.26616 2.80967 9.13873 2.51243C9.01129 2.21518 8.82451 1.94509 8.58905 1.71759C8.35358 1.49008 8.07404 1.30962 7.76639 1.1865C7.45874 1.06337 7.129 1 6.796 1C6.12348 1 5.4785 1.25812 5.00295 1.71759C4.52741 2.17705 4.26025 2.80022 4.26025 3.45C4.26025 4.09978 4.52741 4.72295 5.00295 5.18241C5.4785 5.64188 6.12348 5.9 6.796 5.9ZM9.694 13.6C10.3665 13.6 11.0115 13.3419 11.487 12.8824C11.9626 12.4229 12.2298 11.7998 12.2298 11.15C12.2298 10.5002 11.9626 9.87705 11.487 9.41759C11.0115 8.95812 10.3665 8.7 9.694 8.7C9.02148 8.7 8.3765 8.95812 7.90096 9.41759C7.42541 9.87705 7.15825 10.5002 7.15825 11.15C7.15825 11.7998 7.42541 12.4229 7.90096 12.8824C8.3765 13.3419 9.02148 13.6 9.694 13.6Z" stroke="#5000A0" stroke-width="1.26" stroke-miterlimit="10" stroke-linecap="round" stroke-linejoin="round"/>
</svg>
