<svg width="20" height="20" viewBox="0 0 20 20" fill="none" xmlns="http://www.w3.org/2000/svg">
<path d="M10.0001 1.66669C5.40841 1.66669 1.66675 5.40835 1.66675 10C1.66675 14.5917 5.40841 18.3334 10.0001 18.3334C14.5917 18.3334 18.3334 14.5917 18.3334 10C18.3334 5.40835 14.5917 1.66669 10.0001 1.66669ZM13.6251 12.975C13.5084 13.175 13.3001 13.2834 13.0834 13.2834C12.9751 13.2834 12.8667 13.2584 12.7667 13.1917L10.1834 11.65C9.54175 11.2667 9.06675 10.425 9.06675 9.68335V6.26669C9.06675 5.92502 9.35008 5.64169 9.69175 5.64169C10.0334 5.64169 10.3167 5.92502 10.3167 6.26669V9.68335C10.3167 9.98335 10.5667 10.425 10.8251 10.575L13.4084 12.1167C13.7084 12.2917 13.8084 12.675 13.6251 12.975Z" fill="#5000A0"/>
</svg>
