<svg width="28" height="28" viewBox="0 0 28 28" fill="none" xmlns="http://www.w3.org/2000/svg">
<path d="M8.92531 24.3951C8.89031 24.3951 8.84365 24.4185 8.80865 24.4185C6.54531 23.2985 4.70198 21.4435 3.57031 19.1801C3.57031 19.1451 3.59365 19.0985 3.59365 19.0635C5.01698 19.4835 6.48698 19.7985 7.94531 20.0435C8.20198 21.5135 8.50531 22.9718 8.92531 24.3951Z" fill="#5000A0"/>
<path d="M24.4299 19.1918C23.2749 21.5135 21.3499 23.3918 19.0049 24.5235C19.4482 23.0418 19.8215 21.5485 20.0665 20.0435C21.5365 19.7985 22.9832 19.4835 24.4065 19.0635C24.3949 19.1101 24.4299 19.1568 24.4299 19.1918Z" fill="#5000A0"/>
<path d="M24.5232 8.9949C23.0532 8.55156 21.5715 8.1899 20.0665 7.93323C19.8215 6.42823 19.4599 4.9349 19.0049 3.47656C21.4199 4.63156 23.3682 6.5799 24.5232 8.9949Z" fill="#5000A0"/>
<path d="M8.9249 3.60482C8.5049 5.02816 8.20156 6.47482 7.95656 7.94482C6.45156 8.17816 4.95823 8.55149 3.47656 8.99482C4.60823 6.64982 6.48656 4.72482 8.80823 3.56982C8.84323 3.56982 8.8899 3.60482 8.9249 3.60482Z" fill="#5000A0"/>
<path d="M18.072 7.6885C15.3654 7.38516 12.6354 7.38516 9.92871 7.6885C10.2204 6.09016 10.5937 4.49183 11.1187 2.95183C11.142 2.8585 11.1304 2.7885 11.142 2.69516C12.0637 2.4735 13.0087 2.3335 14.0004 2.3335C14.9804 2.3335 15.937 2.4735 16.847 2.69516C16.8587 2.7885 16.8587 2.8585 16.882 2.95183C17.407 4.5035 17.7804 6.09016 18.072 7.6885Z" fill="#5000A0"/>
<path d="M7.68801 18.0716C6.07801 17.7799 4.49134 17.4066 2.95134 16.8816C2.85801 16.8582 2.78801 16.8699 2.69467 16.8582C2.47301 15.9366 2.33301 14.9916 2.33301 13.9999C2.33301 13.0199 2.47301 12.0632 2.69467 11.1532C2.78801 11.1416 2.85801 11.1416 2.95134 11.1182C4.50301 10.6049 6.07801 10.2199 7.68801 9.92822C7.39634 12.6349 7.39634 15.3649 7.68801 18.0716Z" fill="#5000A0"/>
<path d="M25.6665 13.9999C25.6665 14.9916 25.5265 15.9366 25.3049 16.8582C25.2115 16.8699 25.1415 16.8582 25.0482 16.8816C23.4965 17.3949 21.9099 17.7799 20.3115 18.0716C20.6149 15.3649 20.6149 12.6349 20.3115 9.92822C21.9099 10.2199 23.5082 10.5932 25.0482 11.1182C25.1415 11.1416 25.2115 11.1532 25.3049 11.1532C25.5265 12.0749 25.6665 13.0199 25.6665 13.9999Z" fill="#5000A0"/>
<path d="M18.072 20.3115C17.7804 21.9215 17.407 23.5082 16.882 25.0482C16.8587 25.1415 16.8587 25.2115 16.847 25.3049C15.937 25.5265 14.9804 25.6665 14.0004 25.6665C13.0087 25.6665 12.0637 25.5265 11.142 25.3049C11.1304 25.2115 11.142 25.1415 11.1187 25.0482C10.6054 23.4965 10.2204 21.9215 9.92871 20.3115C11.282 20.4632 12.6354 20.5682 14.0004 20.5682C15.3654 20.5682 16.7304 20.4632 18.072 20.3115Z" fill="#5000A0"/>
<path d="M18.3902 18.3907C15.4723 18.7589 12.5271 18.7589 9.60912 18.3907C9.24097 15.4728 9.24097 12.5276 9.60912 9.60961C12.5271 9.24146 15.4723 9.24146 18.3902 9.60961C18.7584 12.5276 18.7584 15.4728 18.3902 18.3907Z" fill="#5000A0"/>
</svg>
