<svg width="20" height="20" viewBox="0 0 20 20" fill="none" xmlns="http://www.w3.org/2000/svg">
<path d="M19.54 9.07C19.5154 8.82504 19.4002 8.59809 19.2172 8.43349C19.0341 8.2689 18.7962 8.17852 18.55 8.18H11C10.45 8.18 10 8.63 10 9.18V10.89C10 11.44 10.45 11.89 11 11.89H15.51C15.4 12.81 14.8 14.2 13.47 15.13C12.62 15.72 11.49 16.13 10 16.13C9.93 16.13 9.87 16.13 9.8 16.12C7.25 16.04 5.09 14.33 4.31 11.98C4.0937 11.3422 3.98225 10.6735 3.98 10C3.98 9.31 4.1 8.64 4.3 8.02C4.36 7.84 4.43 7.66 4.51 7.48C5.43 5.41 7.44 3.95 9.8 3.88C9.86 3.87 9.93 3.87 10 3.87C11.43 3.87 12.5 4.34 13.25 4.86C13.64 5.13 14.16 5.07 14.5 4.74L15.89 3.38C16.33 2.95 16.29 2.22 15.79 1.86C14.2 0.69 12.26 0 10 0C9.93 0 9.87 -9.31323e-09 9.8 0.00999999C7.98135 0.0422145 6.20625 0.571837 4.66727 1.54141C3.1283 2.51098 1.88422 3.88348 1.07 5.51C0.39 6.87 0 8.39 0 10C0 11.61 0.39 13.13 1.07 14.49H1.08C1.89308 16.1153 3.13552 17.4871 4.67265 18.4566C6.20978 19.4261 7.98296 19.9564 9.8 19.99C9.87 20 9.93 20 10 20C12.7 20 14.97 19.11 16.62 17.58C18.51 15.83 19.6 13.27 19.6 10.22C19.6 9.79 19.58 9.42 19.54 9.07Z" fill="#5000A0"/>
</svg>
