<svg width="28" height="28" viewBox="0 0 28 28" fill="none" xmlns="http://www.w3.org/2000/svg">
<path d="M3.20812 21.7583C2.72979 21.7583 2.33312 21.3616 2.33312 20.8833V14.2333C2.27479 11.0716 3.45312 8.08494 5.64645 5.84494C7.83979 3.6166 10.7798 2.3916 13.9415 2.3916C20.4048 2.3916 25.6665 7.65327 25.6665 14.1166V20.7666C25.6665 21.2449 25.2698 21.6416 24.7915 21.6416C24.3131 21.6416 23.9165 21.2449 23.9165 20.7666V14.1166C23.9165 8.6216 19.4481 4.1416 13.9415 4.1416C11.2465 4.1416 8.74979 5.17993 6.89479 7.06993C5.02812 8.9716 4.03645 11.5033 4.08312 14.2099V20.8716C4.08312 21.3616 3.69812 21.7583 3.20812 21.7583Z" fill="#5000A0"/>
<path d="M6.92967 14.5249H6.77801C4.32801 14.5249 2.33301 16.5199 2.33301 18.9699V21.1632C2.33301 23.6132 4.32801 25.6082 6.77801 25.6082H6.92967C9.37967 25.6082 11.3747 23.6132 11.3747 21.1632V18.9699C11.3747 16.5199 9.37967 14.5249 6.92967 14.5249Z" fill="#5000A0"/>
<path d="M21.2217 14.5249H21.07C18.62 14.5249 16.625 16.5199 16.625 18.9699V21.1632C16.625 23.6132 18.62 25.6082 21.07 25.6082H21.2217C23.6717 25.6082 25.6667 23.6132 25.6667 21.1632V18.9699C25.6667 16.5199 23.6717 14.5249 21.2217 14.5249Z" fill="#5000A0"/>
</svg>
