<svg width="19" height="18" viewBox="0 0 19 18" fill="none" xmlns="http://www.w3.org/2000/svg">
<path d="M4.58351 2.17562C4.58351 3.37718 3.55745 4.35124 2.29175 4.35124C1.02605 4.35124 0 3.37718 0 2.17562C0 0.974058 1.02605 0 2.29175 0C3.55745 0 4.58351 0.974058 4.58351 2.17562Z" fill="#5000A0"/>
<path d="M0.313402 5.95041H4.23093V18H0.313402V5.95041Z" fill="#5000A0"/>
<path d="M10.5381 5.95041H6.62062V18H10.5381C10.5381 18 10.5381 14.2066 10.5381 11.8348C10.5381 10.4112 11.017 8.9814 12.9278 8.9814C15.0873 8.9814 15.0743 10.8444 15.0642 12.2877C15.0511 14.1743 15.0825 16.0995 15.0825 18H19V11.6405C18.9668 7.57977 17.9244 5.70868 14.4948 5.70868C12.4582 5.70868 11.1957 6.64722 10.5381 7.49635V5.95041Z" fill="#5000A0"/>
</svg>
