<svg width="63" height="41" viewBox="0 0 63 41" fill="none" xmlns="http://www.w3.org/2000/svg">
<path d="M47.7085 8.75624C45.7742 8.16661 43.8383 7.57548 41.904 6.98585C36.3988 2.82385 29.0585 2.16804 23.2118 5.31323C16.4807 8.93373 12.9204 16.9509 14.751 24.792C13.5702 24.1693 12.3894 23.5466 11.2087 22.9224C10.1031 14.0599 14.7058 5.53584 22.4237 1.86871C31.056 -2.23161 41.8393 0.570627 47.7085 8.75624Z" fill="#5000A0"/>
<path d="M14.7847 31.8749C16.719 32.4646 18.6549 33.0557 20.5892 33.6453C26.0944 37.8073 33.4347 38.4631 39.2813 35.3179C46.0124 31.6974 49.5728 23.6803 47.7422 15.8391C48.923 16.4619 50.1037 17.0846 51.2845 17.7088C52.39 26.5713 47.7873 35.0953 40.0695 38.7625C31.4372 42.8628 20.6539 40.0605 14.7847 31.8749Z" fill="#5000A0"/>
<path d="M21.2449 8.55993C20.6673 9.07586 20.0205 9.72565 19.3752 10.5274C18.7555 11.2975 18.2727 12.039 17.8997 12.6918C21.7082 11.4629 30.0623 9.34359 40.2318 11.6104C47.9903 13.3386 53.5226 16.8869 56.5625 19.1853C57.0257 18.8619 57.5266 18.4723 58.038 18.0045C58.3659 17.7037 58.6608 17.4059 58.924 17.1186C55.9021 14.6533 49.6208 10.2025 40.4289 8.26361C31.968 6.48119 24.9752 7.65593 21.2449 8.55993Z" fill="#5000A0"/>
<path d="M41.2152 31.9284C41.7928 31.4125 42.4396 30.7627 43.0849 29.961C43.7046 29.1909 44.1874 28.4493 44.5605 27.7965C40.7519 29.0254 32.3979 31.1448 22.2283 28.878C14.4698 27.1497 8.93755 23.6014 5.89765 21.3031C5.43437 21.6265 4.93349 22.0161 4.42208 22.4838C4.09417 22.7847 3.79936 23.0825 3.53613 23.3698C6.55798 25.8351 12.8393 30.2859 22.0312 32.2248C30.4921 34.0072 37.4849 32.8324 41.2152 31.9284Z" fill="#5000A0"/>
<path d="M10.8164 12.2958L9.73489 16.4277C8.70605 17.0414 7.61404 17.7573 6.48893 18.5922C4.83135 19.8225 3.42797 21.0695 2.25924 22.2322C1.50566 21.5478 0.753582 20.8649 0 20.1805C1.54176 18.6809 3.43248 17.0474 5.70225 15.444C7.50122 14.1714 9.2325 13.1366 10.8164 12.2958Z" fill="#5000A0"/>
<path d="M51.7458 28.0372L52.8273 23.9053C53.8562 23.2916 54.9482 22.5756 56.0733 21.7408C57.7309 20.5104 59.1343 19.2635 60.303 18.1008C61.0566 18.7852 61.8086 19.468 62.5622 20.1524C61.0205 21.6521 59.1297 23.2856 56.86 24.889C55.061 26.1615 53.3297 27.1964 51.7458 28.0372Z" fill="#5000A0"/>
<path d="M31.2788 27.2522C35.1366 27.2522 38.264 24.1248 38.264 20.2669C38.264 16.409 35.1366 13.2816 31.2788 13.2816C27.4209 13.2816 24.2935 16.409 24.2935 20.2669C24.2935 24.1248 27.4209 27.2522 31.2788 27.2522Z" fill="#5000A0"/>
<path d="M33.9354 19.3799C34.9132 19.3799 35.7058 18.5873 35.7058 17.6095C35.7058 16.6318 34.9132 15.8391 33.9354 15.8391C32.9577 15.8391 32.165 16.6318 32.165 17.6095C32.165 18.5873 32.9577 19.3799 33.9354 19.3799Z" fill="white"/>
<path d="M12.7284 22.2291C11.2814 10.0785 21.7699 -0.33473 33.94 1.66429C37.6914 2.25843 41.2502 4.00476 43.9968 6.62198C41.1795 4.11305 37.6372 2.43141 33.9054 1.89292C21.8195 0.0698857 11.665 10.2079 12.7284 22.2291Z" fill="white"/>
<path d="M49.7635 18.4105C51.2105 30.561 40.722 40.9743 28.5519 38.9753C24.8005 38.3811 21.2417 36.6348 18.4951 34.0176C21.3124 36.5265 24.8547 38.2081 28.5865 38.7466C40.6724 40.5697 50.8269 30.4317 49.7635 18.4105Z" fill="white"/>
<path d="M20.9832 10.2367C31.771 7.22239 43.7335 8.94465 53.2428 14.859C54.601 15.6968 55.9051 16.6203 57.1566 17.6086C55.8916 16.6399 54.5739 15.7374 53.2052 14.9222C43.6703 9.08904 31.783 7.4074 20.9832 10.2367Z" fill="white"/>
<path d="M41.512 30.1899C30.7242 33.2042 18.7617 31.482 9.25244 25.5677C7.89419 24.7298 6.59008 23.8063 5.33862 22.8181C6.60362 23.7867 7.92126 24.6892 9.29004 25.5045C18.8249 31.3361 30.7122 33.0192 41.512 30.1899Z" fill="white"/>
<path d="M1.82178 20.311C4.09004 18.1375 6.64861 16.2573 9.40122 14.7456C6.7539 16.4317 4.22241 18.2894 1.82178 20.311Z" fill="white"/>
<path d="M60.9935 19.8627C58.7252 22.0362 56.1667 23.9164 53.4141 25.428C56.0614 23.7419 58.5929 21.8843 60.9935 19.8627Z" fill="white"/>
</svg>
