<svg width="82" height="54" viewBox="0 0 82 54" fill="none" xmlns="http://www.w3.org/2000/svg">
<path d="M62.3552 12.0248C59.8325 11.2558 57.3079 10.4849 54.7851 9.71593C47.6054 4.28797 38.0324 3.43268 30.4074 7.53455C21.6289 12.2563 16.9856 22.712 19.373 32.9383C17.833 32.1261 16.2931 31.314 14.7532 30.4999C13.3114 18.9417 19.3141 7.82487 29.3795 3.04231C40.6375 -2.30523 54.7008 1.34938 62.3552 12.0248Z" fill="white"/>
<path d="M19.4163 42.1756C21.939 42.9446 24.4637 43.7156 26.9864 44.4845C34.1662 49.9125 43.7392 50.7678 51.3642 46.6659C60.1427 41.9442 64.786 31.4884 62.3986 21.2622C63.9385 22.0743 65.4785 22.8865 67.0184 23.7006C68.4602 35.2588 62.4575 46.3756 52.3921 51.1582C41.134 56.5057 27.0708 52.8511 19.4163 42.1756Z" fill="white"/>
<path d="M27.8416 11.7682C27.0883 12.441 26.2448 13.2885 25.4032 14.334C24.595 15.3384 23.9653 16.3055 23.4788 17.1569C28.4458 15.5542 39.3409 12.7902 52.6038 15.7464C62.7222 18.0004 69.9372 22.628 73.9017 25.6254C74.5059 25.2037 75.1592 24.6956 75.8262 24.0855C76.2538 23.6932 76.6383 23.3048 76.9816 22.9301C73.0406 19.7149 64.8486 13.9103 52.8608 11.3817C41.8264 9.05712 32.7065 10.5892 27.8416 11.7682Z" fill="white"/>
<path d="M53.8866 42.2466C54.6399 41.5737 55.4834 40.7263 56.325 39.6807C57.1332 38.6763 57.7629 37.7092 58.2494 36.8578C53.2824 38.4605 42.3873 41.2245 29.1244 38.2683C19.0061 36.0143 11.791 31.3867 7.82647 28.3893C7.22228 28.811 6.56904 29.3191 5.90207 29.9292C5.47442 30.3215 5.08994 30.7099 4.74664 31.0846C8.68765 34.2998 16.8796 40.1044 28.8674 42.633C39.9018 44.9576 49.0217 43.4255 53.8866 42.2466Z" fill="white"/>
<path d="M14.2417 16.6411L12.8312 22.0298C11.4894 22.8301 10.0653 23.7639 8.59793 24.8526C6.43616 26.4573 4.60591 28.0835 3.08169 29.5999C2.09889 28.7073 1.11805 27.8167 0.135254 26.9242C2.14597 24.9684 4.6118 22.838 7.57197 20.7468C9.91814 19.0873 12.176 17.7376 14.2417 16.6411Z" fill="white"/>
<path d="M67.6212 37.1704L69.0316 31.7817C70.3734 30.9813 71.7976 30.0475 73.2649 28.9588C75.4267 27.3541 77.2569 25.7279 78.7811 24.2115C79.7639 25.1041 80.7448 25.9947 81.7276 26.8873C79.7168 28.8431 77.251 30.9734 74.2909 33.0646C71.9447 34.7242 69.6868 36.0738 67.6212 37.1704Z" fill="white"/>
<path d="M40.9278 36.1464C45.9592 36.1464 50.0379 32.0677 50.0379 27.0364C50.0379 22.005 45.9592 17.9263 40.9278 17.9263C35.8965 17.9263 31.8178 22.005 31.8178 27.0364C31.8178 32.0677 35.8965 36.1464 40.9278 36.1464Z" fill="white"/>
<path d="M44.3923 25.88C45.6674 25.88 46.7012 24.8463 46.7012 23.5711C46.7012 22.2959 45.6674 21.2622 44.3923 21.2622C43.1171 21.2622 42.0834 22.2959 42.0834 23.5711C42.0834 24.8463 43.1171 25.88 44.3923 25.88Z" fill="#5000A0"/>
<path d="M16.7351 29.5943C14.8479 13.7479 28.5267 0.167233 44.3986 2.7743C49.291 3.54916 53.9324 5.82667 57.5144 9.23999C53.8402 5.96791 49.2204 3.77475 44.3535 3.07247C28.5914 0.694922 15.3481 13.9166 16.7351 29.5943Z" fill="#5000A0"/>
<path d="M65.0355 24.6158C66.9226 40.4622 53.2439 54.0429 37.3719 51.4358C32.4795 50.661 27.8382 48.3835 24.2562 44.9701C27.9304 48.2422 32.5501 50.4354 37.4171 51.1376C53.1791 53.5152 66.4224 40.2935 65.0355 24.6158Z" fill="#5000A0"/>
<path d="M27.5016 13.955C41.5707 10.0238 57.1719 12.27 69.5737 19.9833C71.3451 21.0759 73.0458 22.2804 74.678 23.5692C73.0282 22.3059 71.3097 21.1289 69.5246 20.0657C57.0896 12.4583 41.5864 10.2651 27.5016 13.955Z" fill="#5000A0"/>
<path d="M54.2743 39.9794C40.2052 43.9106 24.604 41.6645 12.2022 33.9512C10.4309 32.8585 8.73008 31.6541 7.09796 30.3652C8.74773 31.6286 10.4662 32.8056 12.2513 33.8688C24.6864 41.4742 40.1895 43.6693 54.2743 39.9794Z" fill="#5000A0"/>
<path d="M2.51166 27.0958C5.46987 24.2612 8.80668 21.8091 12.3966 19.8376C8.944 22.0366 5.64249 24.4593 2.51166 27.0958Z" fill="#5000A0"/>
<path d="M79.6815 26.5114C76.7233 29.346 73.3864 31.7981 69.7966 33.7696C73.2491 31.5705 76.5506 29.1478 79.6815 26.5114Z" fill="#5000A0"/>
</svg>
