<svg width="21" height="21" viewBox="0 0 21 21" fill="none" xmlns="http://www.w3.org/2000/svg">
<path d="M8.63779 16.0214C8.08667 16.0214 7.48044 15.8262 6.96607 15.4771C6.25421 14.9949 5.79724 14.2693 5.68242 13.4334C5.65946 13.275 5.77198 13.128 5.93042 13.105C6.08887 13.0821 6.23583 13.1946 6.2588 13.353C6.47695 14.9306 8.03385 15.5323 8.84445 15.4266C10.5139 15.2085 11.3107 14.4484 11.2143 13.167C11.1614 12.4621 10.817 11.95 10.1901 11.6423C9.70328 11.4035 9.23712 11.3828 9.23253 11.3828C9.09016 11.3759 8.97075 11.268 8.95468 11.1256C8.9386 10.9832 9.02816 10.8501 9.16824 10.811C9.76758 10.648 10.0339 10.0395 10.0868 9.52507C10.1465 8.93492 9.95128 8.21158 9.38409 7.92684C8.73653 7.60076 8.07059 7.78446 7.66414 8.06691C7.3794 8.26439 7.18881 8.61114 7.18651 8.61344C7.11073 8.75581 6.93391 8.80862 6.79154 8.73284C6.64917 8.65706 6.59636 8.48025 6.67214 8.33787C6.68132 8.3195 6.92703 7.86483 7.33118 7.58698C7.87541 7.21038 8.76867 6.96697 9.64357 7.40557C10.0133 7.59157 10.3049 7.91306 10.484 8.33558C10.6425 8.70988 10.7068 9.15307 10.6631 9.58248C10.6057 10.1474 10.383 10.6273 10.0431 10.9557C10.1717 10.997 10.3072 11.0498 10.4427 11.1164C11.2556 11.5137 11.7217 12.2072 11.7906 13.1188C11.8297 13.6309 11.7516 14.0902 11.5587 14.4805C11.3911 14.8227 11.1339 15.1166 10.7963 15.3508C10.3233 15.6792 9.6918 15.8974 8.91564 15.9984C8.82608 16.0145 8.73194 16.0214 8.63779 16.0214Z" fill="#5000A0"/>
<path d="M13.5381 14.2792C12.6931 14.2792 12.0226 13.5283 11.9904 13.4892C11.8848 13.3675 11.8963 13.1838 12.018 13.0782C12.1397 12.9725 12.3234 12.984 12.429 13.1057C12.4359 13.1126 13.1225 13.8773 13.7976 13.6546C14.4475 13.441 15.0721 12.7797 14.8792 11.5672C14.7253 10.7336 14.0938 9.91384 13.0605 10.0792C12.5438 10.1618 12.3831 10.341 12.158 10.589C11.9927 10.7727 11.8044 10.9793 11.4714 11.1493C10.6746 11.558 9.47134 11.349 9.42082 11.3399C9.26238 11.3123 9.15675 11.1607 9.1843 11.0023C9.21186 10.8439 9.36341 10.7382 9.52186 10.7658C9.54253 10.7704 10.5874 10.9472 11.2051 10.6303C11.4439 10.5086 11.5817 10.357 11.7263 10.1963C11.972 9.92533 12.2499 9.61762 12.9663 9.5028C14.3235 9.28465 15.242 10.3249 15.451 11.4639C15.451 11.4662 15.451 11.4685 15.451 11.4707C15.5589 12.1344 15.4647 12.7452 15.18 13.2389C14.9136 13.7005 14.498 14.0357 13.9767 14.208C13.8298 14.2585 13.6805 14.2792 13.5381 14.2792Z" fill="#5000A0"/>
<path d="M12.2731 8.42285C10.9114 8.42285 10.2593 7.07031 10.2317 7.0129C10.1628 6.86823 10.2248 6.69371 10.3718 6.62482C10.5165 6.55593 10.691 6.61793 10.7599 6.7626C10.769 6.78097 11.2903 7.83958 12.2754 7.83958C12.2777 7.83958 12.2777 7.83958 12.28 7.83958C13.2123 7.83728 13.566 7.24024 13.6739 6.98535C13.7359 6.83838 13.9081 6.76949 14.0551 6.83149C14.202 6.89349 14.2732 7.06572 14.2089 7.21268C14.0895 7.49513 13.5958 8.41825 12.28 8.42285C12.2777 8.42285 12.2754 8.42285 12.2731 8.42285Z" fill="#5000A0"/>
<path d="M12.2384 7.28877C12.1512 7.28877 12.0639 7.27269 11.9812 7.23825C11.8136 7.16936 11.6827 7.04076 11.6115 6.87313C11.5404 6.7055 11.5404 6.52179 11.6092 6.35416C11.7149 6.09697 11.9606 5.93164 12.2384 5.93164C12.3257 5.93164 12.413 5.94772 12.4956 5.98216C12.6633 6.05105 12.7941 6.17964 12.8653 6.34727C12.9365 6.51491 12.9365 6.69861 12.8676 6.86624C12.762 7.12343 12.514 7.28877 12.2384 7.28877ZM12.2384 6.51261C12.2086 6.51261 12.1672 6.52869 12.1489 6.57232C12.1351 6.60446 12.1443 6.63201 12.1489 6.64579C12.1535 6.65957 12.1695 6.68483 12.2017 6.69861C12.2132 6.7032 12.227 6.7055 12.2384 6.7055C12.2683 6.7055 12.3096 6.68942 12.328 6.64579C12.3418 6.61364 12.3326 6.58609 12.328 6.57232C12.3211 6.55854 12.3073 6.53328 12.2752 6.5195C12.2637 6.51491 12.2499 6.51261 12.2384 6.51261Z" fill="#5000A0"/>
<path d="M15.9857 19.0139H5.14481C3.47539 19.0139 2.11597 17.6544 2.11597 15.985V5.14408C2.11597 3.47466 3.47539 2.11523 5.14481 2.11523H15.9857C17.6552 2.11523 19.0146 3.47466 19.0146 5.14408V15.985C19.0146 17.6544 17.6552 19.0139 15.9857 19.0139ZM5.14481 2.5056C3.68895 2.5056 2.50405 3.69051 2.50405 5.14637V15.9873C2.50405 17.4432 3.68895 18.6281 5.14481 18.6281H15.9857C17.4416 18.6281 18.6265 17.4432 18.6265 15.9873V5.14637C18.6265 3.69051 17.4416 2.5056 15.9857 2.5056H5.14481Z" fill="#5000A0"/>
<path d="M12.5489 20.9982C12.0207 20.9982 11.4971 20.8581 11.0379 20.5917L1.65051 15.1724C0.950137 14.7682 0.449539 14.1161 0.240574 13.333C0.0316089 12.5523 0.139538 11.7348 0.54369 11.0344L5.963 1.64706C6.50264 0.712461 7.50843 0.133789 8.5877 0.133789C9.11585 0.133789 9.63941 0.273862 10.0987 0.540235L19.486 5.95955C20.1864 6.36371 20.687 7.01586 20.896 7.79891C21.1049 8.57966 20.997 9.39714 20.5929 10.0975L15.1735 19.4849C14.6339 20.4172 13.6281 20.9982 12.5489 20.9982ZM8.5854 0.521868C7.64391 0.521868 6.76672 1.02706 6.29597 1.84225L0.876656 11.2296C0.523022 11.8404 0.431171 12.5523 0.61258 13.232C0.79399 13.914 1.23258 14.4812 1.8434 14.8348L11.2308 20.2541C11.6326 20.4861 12.0873 20.6078 12.5489 20.6078C13.4903 20.6078 14.3675 20.1026 14.8383 19.2874L20.2576 9.90004C20.6112 9.28922 20.7031 8.57736 20.5217 7.89765C20.3403 7.21564 19.9017 6.64845 19.2908 6.29481L9.90349 0.875496C9.50163 0.643568 9.04466 0.521868 8.5854 0.521868Z" fill="#5000A0"/>
<path d="M8.58501 20.9982C7.50574 20.9982 6.49995 20.4172 5.96032 19.4849L0.541002 10.0975C0.136849 9.39714 0.0289242 8.58195 0.237889 7.79891C0.446855 7.01816 0.947452 6.36371 1.64783 5.95955L11.0352 0.540235C11.4945 0.273862 12.018 0.133789 12.5462 0.133789C13.6254 0.133789 14.6312 0.714757 15.1709 1.64706L20.5902 11.0344C21.426 12.4811 20.9277 14.3365 19.4811 15.1701L10.0937 20.5894C9.63673 20.8581 9.11316 20.9982 8.58501 20.9982ZM12.5485 0.521868C12.0869 0.521868 11.6322 0.643568 11.2304 0.875496L1.84301 6.29481C1.23219 6.64845 0.795896 7.21564 0.612191 7.89765C0.430781 8.57965 0.522633 9.28922 0.876266 9.90004L6.29558 19.2874C6.76633 20.1026 7.64352 20.6078 8.58501 20.6078C9.04657 20.6078 9.50124 20.4861 9.9031 20.2541L19.2905 14.8348C20.5511 14.1069 20.9851 12.4903 20.2572 11.2296L14.8379 1.84225C14.3649 1.02706 13.49 0.521868 12.5485 0.521868Z" fill="#5000A0"/>
</svg>
