<svg width="17" height="20" viewBox="0 0 17 20" fill="none" xmlns="http://www.w3.org/2000/svg">
<path d="M14.8232 5C14.8232 5.18 14.8132 5.35 14.7932 5.52C14.6782 6.92652 14.0647 8.24574 13.0632 9.24C12.5085 9.79981 11.8479 10.2437 11.12 10.5459C10.3921 10.848 9.61137 11.0024 8.82324 11H5.69324C5.19324 11 4.77324 11.37 4.70324 11.86L3.94324 17.14C3.88324 17.53 3.60324 17.85 3.23324 17.95C3.14324 17.99 3.05324 18 2.95324 18H1.00324C0.858032 18.0008 0.714409 17.9698 0.582392 17.9094C0.450374 17.8489 0.333142 17.7603 0.238878 17.6499C0.144613 17.5394 0.0755865 17.4097 0.0366149 17.2699C-0.00235675 17.13 -0.0103344 16.9833 0.0132384 16.84L2.40324 2.51C2.51876 1.80853 2.87988 1.17097 3.4221 0.711183C3.96431 0.251396 4.65232 -0.00067049 5.36324 1.3395e-06H9.82324C12.5832 1.3395e-06 14.8232 2.24 14.8232 5Z" fill="#5000A0"/>
<path opacity="0.4" d="M16.8218 8.99953C16.8218 10.3795 16.2618 11.6295 15.3618 12.5395C14.4518 13.4395 13.2018 13.9995 11.8218 13.9995H9.67175C9.43378 13.9988 9.20335 14.083 9.02189 14.237C8.84043 14.391 8.71983 14.6046 8.68175 14.8395L7.96175 19.1595C7.92368 19.3944 7.80307 19.6081 7.62161 19.762C7.44015 19.916 7.20973 20.0002 6.97175 19.9995H4.04175C3.41175 19.9995 2.94175 19.4195 3.06175 18.7995L3.23175 17.9495C3.60175 17.8495 3.88175 17.5295 3.94175 17.1395L4.70175 11.8595C4.77175 11.3695 5.19175 10.9995 5.69175 10.9995H8.82175C10.4818 10.9995 11.9818 10.3295 13.0618 9.23953C14.0318 8.27953 14.6718 6.96953 14.7918 5.51953C16.0018 6.20953 16.8218 7.50953 16.8218 8.99953Z" fill="#5000A0"/>
</svg>
