<svg width="18" height="20" viewBox="0 0 18 20" fill="none" xmlns="http://www.w3.org/2000/svg">
<path d="M13.2615 13.0982C13.8851 12.6887 14.7041 13.1355 14.7041 13.88V15.0806C14.7041 16.2626 13.7827 17.5283 12.6752 17.9006L9.70629 18.8871C9.1851 19.064 8.33817 19.064 7.82629 18.8871L4.85739 17.9006C3.74057 17.5283 2.82849 16.2626 2.82849 15.0806V13.8707C2.82849 13.1355 3.6475 12.6887 4.26175 13.0889L6.17897 14.3361C6.91422 14.8293 7.84491 15.0713 8.7756 15.0713C9.70629 15.0713 10.637 14.8293 11.3722 14.3361L13.2615 13.0982Z" fill="white"/>
<path d="M16.1917 4.5531L10.6168 0.895494C9.61169 0.234705 7.95507 0.234705 6.94992 0.895494L1.34717 4.5531C-0.449058 5.71647 -0.449058 8.35032 1.34717 9.52298L2.83628 10.4909L6.94992 13.1713C7.95507 13.8321 9.61169 13.8321 10.6168 13.1713L14.7026 10.4909L15.9776 9.65328V12.5012C15.9776 12.8828 16.294 13.1992 16.6756 13.1992C17.0572 13.1992 17.3736 12.8828 17.3736 12.5012V7.9222C17.7459 6.72161 17.3643 5.32558 16.1917 4.5531Z" fill="white"/>
</svg>
