<svg width="20" height="21" viewBox="0 0 20 21" fill="none" xmlns="http://www.w3.org/2000/svg">
<path d="M13.9744 7.10511L13.5206 8.77983H5.03835L5.49858 7.10511H13.9744ZM9.71094 17L5.23651 11.6179L5.23011 10.1989H7.44176C7.97017 10.1989 8.41122 10.1115 8.76491 9.93679C9.12287 9.75781 9.39347 9.50852 9.5767 9.18892C9.7642 8.86506 9.85795 8.4858 9.85795 8.05114C9.85795 7.39915 9.66619 6.875 9.28267 6.47869C8.89915 6.08239 8.28551 5.88423 7.44176 5.88423H5.03835L5.53693 3.90909H7.44176C8.51563 3.90909 9.40412 4.07528 10.1072 4.40767C10.8146 4.7358 11.343 5.20028 11.6925 5.80114C12.0462 6.40199 12.223 7.10511 12.223 7.91051C12.223 8.62216 12.093 9.2571 11.8331 9.81534C11.5732 10.3736 11.1641 10.8317 10.6058 11.1896C10.0476 11.5476 9.31676 11.7862 8.41335 11.9055L8.33665 11.9311L12.3764 16.8849V17H9.71094ZM13.9872 3.90909L13.5206 5.60938L6.64276 5.58381L7.10938 3.90909H13.9872Z" fill="black"/>
</svg>
