<svg width="22" height="22" viewBox="0 0 22 22" fill="none" xmlns="http://www.w3.org/2000/svg">
<path d="M10.25 20.5C4.6 20.5 0 15.9 0 10.25C0 4.6 4.6 0 10.25 0C15.9 0 20.5 4.6 20.5 10.25C20.5 15.9 15.9 20.5 10.25 20.5ZM10.25 1.5C5.42 1.5 1.5 5.43 1.5 10.25C1.5 15.07 5.42 19 10.25 19C15.08 19 19 15.07 19 10.25C19 5.43 15.08 1.5 10.25 1.5ZM20.75 21.501C20.56 21.501 20.37 21.431 20.22 21.281L18.22 19.281C18.0805 19.1399 18.0023 18.9494 18.0023 18.751C18.0023 18.5526 18.0805 18.3621 18.22 18.221C18.51 17.931 18.99 17.931 19.28 18.221L21.28 20.221C21.57 20.511 21.57 20.991 21.28 21.281C21.13 21.431 20.94 21.501 20.75 21.501Z" fill="white"/>
</svg>
