<svg width="13" height="10" viewBox="0 0 13 10" fill="none" xmlns="http://www.w3.org/2000/svg">
<path d="M4.20402 9.709L0.41546 5.9228C0.271678 5.77878 0.190918 5.5836 0.190918 5.3801C0.190918 5.1766 0.271678 4.98141 0.41546 4.8374L0.875739 4.37653C1.01975 4.23275 1.21493 4.15199 1.41844 4.15199C1.62194 4.15199 1.81713 4.23275 1.96114 4.37653L4.71511 7.12873L11.2009 0.236409C11.3405 0.0883301 11.5331 0.00167814 11.7365 -0.00452536C11.9399 -0.0107289 12.1374 0.0640231 12.2857 0.203322L12.7584 0.649416C12.9067 0.788998 12.9934 0.981737 12.9997 1.18527C13.0059 1.3888 12.931 1.58646 12.7915 1.73482L5.30774 9.69186C5.23728 9.76696 5.15243 9.82712 5.05825 9.86877C4.96407 9.91042 4.86248 9.93271 4.75951 9.93431C4.65655 9.93591 4.55431 9.91678 4.45888 9.87808C4.36345 9.83937 4.27678 9.78187 4.20402 9.709Z" fill="#5000A0"/>
</svg>
