<svg width="17" height="21" viewBox="0 0 17 21" fill="none" xmlns="http://www.w3.org/2000/svg">
<path opacity="0.4" d="M7.41 0.258567L1.91 2.31857C0.86 2.71857 0 3.95857 0 5.08857V13.1886C0 13.9986 0.53 15.0686 1.18 15.5486L6.68 19.6586C7.65 20.3886 9.24 20.3886 10.21 19.6586L15.71 15.5486C16.36 15.0586 16.89 13.9986 16.89 13.1886V5.08857C16.89 3.96857 16.03 2.71857 14.98 2.32857L9.48 0.268567C8.92 0.0485667 7.98 0.0485667 7.41 0.258567Z" fill="#580BA4"/>
<path d="M7.1077 12.431C6.9177 12.431 6.7277 12.361 6.5777 12.211L4.9677 10.601C4.82822 10.4599 4.75 10.2695 4.75 10.071C4.75 9.87261 4.82822 9.68218 4.9677 9.54104C5.2577 9.25104 5.7377 9.25104 6.0277 9.54104L7.1077 10.621L10.8777 6.85104C11.1677 6.56104 11.6477 6.56104 11.9377 6.85104C12.2277 7.14104 12.2277 7.62105 11.9377 7.91105L7.6377 12.211C7.4877 12.361 7.2977 12.431 7.1077 12.431Z" fill="#580BA4"/>
</svg>
